<svg width="90" height="90" viewBox="0 0 90 90" fill="none" xmlns="http://www.w3.org/2000/svg">
<path d="M88.5001 81H84.0001V52.5C83.9995 51.6716 83.3273 51.0005 82.499 51.0011C82.0101 51.0015 81.5521 51.24 81.2716 51.6405L60.2716 81.6405C59.7968 82.3194 59.9624 83.2547 60.6413 83.7292C60.8931 83.9053 61.1928 83.9998 61.5001 84H81.0001V88.5C81.0001 89.3283 81.6717 90 82.5001 90C83.3285 90 84.0001 89.3283 84.0001 88.5V84H88.5001C89.3285 84 90.0001 83.3283 90.0001 82.5C90.0001 81.6716 89.3285 81 88.5001 81ZM81.0001 81H64.3801L81.0001 57.258V81Z" fill="#E3BD84"/>
<path d="M61.5 87H43.7415L60.252 67.5585C60.2895 67.5139 60.3246 67.4674 60.357 67.419C63.4631 62.8219 62.4285 56.5978 58.002 53.253C52.6198 49.3858 45.1217 50.6142 41.2547 55.9963C39.7882 58.0373 38.9996 60.487 39 63C39 63.8284 39.6716 64.5 40.5 64.5C41.3284 64.5 42 63.8284 42 63C41.9994 58.0294 46.0286 53.9997 50.9991 53.9991C52.8831 53.9989 54.7196 54.5899 56.25 55.689C59.3507 58.0648 60.0727 62.4403 57.9 65.6865L39.357 87.5295C38.8209 88.1612 38.8986 89.1077 39.5303 89.6438C39.8012 89.8736 40.1447 89.9998 40.5 90H61.5C62.3284 90 63 89.3284 63 88.5C63 87.6716 62.3284 87 61.5 87Z" fill="#E3BD84"/>
<path d="M40.533 79.5285C40.5643 78.7007 39.9184 78.0043 39.0906 77.973C39.0904 77.973 39.0902 77.973 39.09 77.973C19.5206 77.2466 3.81394 61.5681 3.0525 42H9C9.82838 42 10.5 41.3284 10.5 40.5C10.5 39.6716 9.82838 39 9 39H3.0525C3.80306 19.4664 19.4663 3.80381 39 3.054V7.5C39 8.32838 39.6716 9 40.5 9C41.3284 9 42 8.32838 42 7.5V3.054C61.2664 3.79913 76.8161 19.0552 77.928 38.304L72.078 32.454C71.4821 31.8784 70.5326 31.8949 69.957 32.4907C69.3956 33.072 69.3956 33.9936 69.957 34.575L78.33 42.948C78.4877 43.1389 78.6909 43.2868 78.921 43.3785C78.9797 43.3961 79.0393 43.4107 79.0995 43.422C79.2025 43.4591 79.3089 43.4848 79.4175 43.4985C79.4325 43.4985 79.446 43.4985 79.461 43.4985C79.476 43.4985 79.4895 43.4985 79.503 43.4985C79.6172 43.4899 79.7301 43.4677 79.839 43.4325C79.9007 43.425 79.9618 43.4136 80.022 43.398C80.2251 43.3258 80.4099 43.2101 80.5635 43.059L89.0505 34.575C89.626 33.9791 89.6096 33.0296 89.0138 32.454C88.4325 31.8926 87.511 31.8926 86.9295 32.454L80.934 38.445C79.8625 16.9444 62.1338 0.0526875 40.6065 0.021C40.569 0.0195 40.5375 0 40.5 0C40.4625 0 40.431 0.0195 40.3935 0.021C18.1091 0.0515625 0.0515625 18.1091 0.021 40.3935C0.021 40.431 0 40.4625 0 40.5C0 40.5375 0.0195 40.569 0.021 40.6065C0.0583125 62.3409 17.2596 80.1634 38.979 80.9715H39.0345C39.8406 80.9713 40.5024 80.334 40.533 79.5285Z" fill="#E3BD84"/>
<path d="M60.6524 20.3475C60.0667 19.7619 59.1172 19.7619 58.5314 20.3475L42.4124 36.465C41.1946 35.922 39.8035 35.922 38.5859 36.465L30.9539 28.833C30.358 28.2576 29.4083 28.2741 28.8329 28.8699C28.2715 29.4512 28.2715 30.3727 28.8329 30.954L36.4499 38.571C35.3804 40.8097 36.3284 43.4917 38.5673 44.5611C40.2858 45.3819 42.3352 45.03 43.6814 43.683C45.035 42.3409 45.3835 40.2859 44.5484 38.5725L60.6524 22.4685C61.238 21.8827 61.238 20.9332 60.6524 20.3475ZM41.5608 41.5601C41.5606 41.5603 41.5606 41.5603 41.5604 41.5605C40.9672 42.1277 40.0327 42.1277 39.4394 41.5605C38.8535 40.9747 38.8535 40.0251 39.439 39.4391C40.0248 38.8532 40.9745 38.8532 41.5604 39.4387C42.1463 40.0245 42.1463 40.9744 41.5608 41.5601Z" fill="#E3BD84"/>
</svg>
