<svg width="22" height="22" viewBox="0 0 22 22" fill="none" xmlns="http://www.w3.org/2000/svg">
<path d="M17.5267 2.70555C13.9195 -0.901656 8.08088 -0.902044 4.47328 2.70555C0.866161 6.31263 0.8656 12.1514 4.47328 15.759L10.5122 21.7979C10.7816 22.0673 11.2184 22.0673 11.4878 21.7979L17.5268 15.759C21.1338 12.1519 21.1344 6.31319 17.5267 2.70555V2.70555ZM16.5511 14.7834L11 20.3345L5.44892 14.7834C2.38807 11.7225 2.38807 6.74209 5.44892 3.68124C8.50982 0.620426 13.4901 0.62034 16.5511 3.68124C19.6119 6.74204 19.6119 11.7225 16.5511 14.7834Z" fill="#CD985A"/>
<path d="M11 5.10608C8.71955 5.10608 6.87378 6.95146 6.87378 9.23225C6.87378 11.5127 8.71925 13.3584 11 13.3584C13.2805 13.3584 15.1262 11.513 15.1262 9.23225C15.1262 6.95185 13.2808 5.10608 11 5.10608V5.10608ZM12.942 11.1743C12.9156 11.1743 12.2653 11.9786 11 11.9786C9.4821 11.9786 8.25357 10.7503 8.25357 9.23225C8.25357 7.7144 9.48193 6.48587 11 6.48587C13.4657 6.48587 14.6509 9.46544 12.942 11.1743V11.1743Z" fill="#CD985A"/>
</svg>
