<svg width="171" height="32" viewBox="0 0 171 32" fill="none" xmlns="http://www.w3.org/2000/svg">
<path d="M6.1026 31.0451H0V0.390137H6.1026V31.0451Z" fill="white"/>
<path d="M37.6971 31.0451H31.2083L19.4666 10.8425V30.9671H13.364V0.390137H19.8528L31.5945 20.5927V0.390137H37.6971V31.0451V31.0451Z" fill="white"/>
<path d="M43.2589 9.59432C43.2589 8.34628 43.4907 7.17624 43.9541 6.0062C44.4176 4.91417 45.1129 3.90013 45.8853 3.1201C46.7351 2.26208 47.662 1.63806 48.7435 1.17004C49.825 0.702026 50.9837 0.468018 52.2969 0.468018H66.2016V6.55222H52.2969C51.9107 6.55222 51.4472 6.63022 51.1382 6.78623C50.752 6.94223 50.443 7.17624 50.2112 7.41024C49.9022 7.72225 49.7477 8.03427 49.5932 8.34628C49.4388 8.73629 49.3615 9.1263 49.3615 9.51632C49.3615 9.90633 49.4388 10.3743 49.5932 10.6864C49.7477 11.0764 49.9795 11.3884 50.2112 11.7004C50.5202 12.0124 50.8292 12.1684 51.1382 12.3244C51.5244 12.4804 51.9107 12.5584 52.2969 12.5584H58.3995C59.6355 12.5584 60.8715 12.7924 61.9529 13.2604C63.0344 13.7284 64.0386 14.4305 64.8884 15.2105C65.7381 16.0685 66.3561 17.0046 66.8196 18.1746C67.2831 19.2666 67.5148 20.5147 67.5148 21.7627C67.5148 23.0107 67.2831 24.1808 66.8196 25.3508C66.3561 26.4429 65.6608 27.4569 64.8884 28.2369C64.0386 29.0949 63.1117 29.719 61.9529 30.187C60.8715 30.655 59.6355 30.889 58.3995 30.889H44.9584V24.7268H58.3995C58.7858 24.7268 59.2493 24.6488 59.5582 24.4928C59.9445 24.3368 60.2535 24.1028 60.4852 23.8688C60.7942 23.5568 60.9487 23.2448 61.1032 22.9327C61.2577 22.5427 61.335 22.1527 61.335 21.7627C61.335 21.3727 61.2577 20.9047 61.1032 20.5927C60.9487 20.2027 60.717 19.8907 60.4852 19.6566C60.1762 19.3446 59.8672 19.1886 59.5582 19.0326C59.172 18.8766 58.7858 18.7986 58.3995 18.7986H52.2969C51.061 18.7986 49.9022 18.5646 48.7435 18.0966C47.662 17.6286 46.6578 16.9266 45.8853 16.1465C45.0356 15.2885 44.4176 14.3525 43.9541 13.1824C43.4907 12.0904 43.2589 10.8424 43.2589 9.59432Z" fill="white"/>
<path d="M79.3338 31.0451H73.2312V0.390137H79.3338V31.0451Z" fill="white"/>
<path d="M110.774 27.9249C109.383 29.1729 107.761 30.0309 106.062 30.733C104.362 31.357 102.508 31.669 100.654 31.669C99.1864 31.669 97.796 31.513 96.4828 31.123C95.1695 30.733 93.9336 30.1869 92.7749 29.4849C91.6161 28.7829 90.5347 28.0029 89.6077 26.9888C88.6807 26.0528 87.831 24.9608 87.1357 23.7907C86.4405 22.6207 85.8998 21.3727 85.5908 19.9686C85.2045 18.6426 85.05 17.2385 85.05 15.7565C85.05 14.2745 85.2045 12.8704 85.5908 11.5444C85.977 10.2183 86.5178 8.97028 87.1357 7.80024C87.831 6.63021 88.6035 5.53817 89.6077 4.60215C90.5347 3.66612 91.6161 2.80809 92.7749 2.10607C93.9336 1.40405 95.1695 0.85803 96.4828 0.546021C97.796 0.156008 99.1864 0 100.654 0C102.508 0 104.362 0.312013 106.062 0.936033C107.761 1.56005 109.383 2.49608 110.774 3.74412L107.606 9.04828C106.68 8.11225 105.598 7.41023 104.439 6.86422C103.281 6.3182 101.967 6.08419 100.654 6.08419C99.3409 6.08419 98.105 6.3182 96.9462 6.86422C95.7875 7.41023 94.7833 8.03425 93.8563 8.97028C93.0066 9.82831 92.3114 10.8423 91.7706 12.0124C91.2299 13.1824 90.9981 14.4305 90.9981 15.7565C90.9981 17.0825 91.2299 18.4086 91.7706 19.5786C92.3114 20.7486 92.9294 21.7627 93.8563 22.6987C94.7061 23.5567 95.7875 24.2588 96.9462 24.8048C98.105 25.3508 99.3409 25.5848 100.654 25.5848C101.427 25.5848 102.122 25.5068 102.894 25.2728C103.59 25.1168 104.285 24.8048 104.98 24.4928V15.8345H110.851V27.9249H110.774Z" fill="white"/>
<path d="M123.288 31.0451H117.185V0.390137H123.288V12.6365H135.416V0.390137H141.518V31.0451H135.416V18.7987H123.288V31.0451Z" fill="white"/>
<path d="M161.526 31.0451H155.5V6.55232H146.385V0.390137H170.641V6.55232H161.526V31.0451Z" fill="white"/>
</svg>
