<svg width="115" height="115" viewBox="0 0 115 115" fill="none" xmlns="http://www.w3.org/2000/svg">
<g clip-path="url(#clip0)">
<path d="M16.1513 50.2662C15.1581 50.2662 14.3545 49.4625 14.3545 48.4694V43.3176C14.3545 42.3244 15.1581 41.5208 16.1513 41.5208C17.1454 41.5208 17.9481 42.3244 17.9481 43.3176V48.4694C17.9481 49.4608 17.1454 50.2662 16.1513 50.2662Z" fill="#5E77B7"/>
<path d="M41.3066 50.2662C40.3134 50.2662 39.5098 49.4625 39.5098 48.4694V42.1805C39.5098 41.1864 40.3134 40.3837 41.3066 40.3837C42.3006 40.3837 43.1034 41.1864 43.1034 42.1805V48.4694C43.1034 49.4608 42.3006 50.2662 41.3066 50.2662Z" fill="#5E77B7"/>
<path d="M41.3067 43.9773C40.3136 43.9773 39.5099 43.1737 39.5099 42.1805C39.5099 35.7407 34.2703 30.5012 27.8306 30.5012C21.3908 30.5012 16.1513 35.7407 16.1513 42.1805C16.1513 43.1737 15.3485 43.9773 14.3544 43.9773C13.3613 43.9773 12.5576 43.1737 12.5576 42.1805C12.5576 33.7588 19.4089 26.9075 27.8306 26.9075C36.2523 26.9075 43.1035 33.7588 43.1035 42.1805C43.1035 43.1719 42.3008 43.9773 41.3067 43.9773Z" fill="#5E77B7"/>
<path d="M41.3084 46.4409C40.7679 46.4409 40.2345 46.1979 39.88 45.7364C36.411 41.2031 35.4669 41.5804 31.9488 42.9727C28.5727 44.3098 23.477 46.333 14.0744 44.845C13.0953 44.6906 12.425 43.7702 12.5812 42.7894C12.7356 41.8102 13.6542 41.1364 14.6368 41.2961C23.0673 42.6279 27.4357 40.8952 30.6266 39.6309C34.9537 37.9165 37.8569 37.1813 42.7341 43.5491C43.3377 44.3361 43.1885 45.4653 42.3998 46.0689C42.0743 46.3181 41.69 46.4409 41.3084 46.4409Z" fill="#5E77B7"/>
<path d="M34.118 42.1375C33.8539 42.1375 33.5828 42.0778 33.3292 41.9524C32.4378 41.5154 32.072 40.4372 32.508 39.5475L36.1017 32.2313C36.5386 31.3399 37.6116 30.9732 38.5065 31.4101C39.397 31.847 39.7637 32.9253 39.3277 33.814L35.7341 41.1312C35.4208 41.769 34.7813 42.1375 34.118 42.1375Z" fill="#5E77B7"/>
<path d="M14.3544 71.821C13.3613 71.821 12.5576 71.0173 12.5576 70.0242C12.5576 66.0603 15.7819 62.8369 19.7449 62.8369C20.7389 62.8369 21.5417 63.6397 21.5417 64.6337C21.5417 65.6269 20.7389 66.4305 19.7449 66.4305C17.763 66.4305 16.1513 68.0422 16.1513 70.0242C16.1513 71.0156 15.3485 71.821 14.3544 71.821Z" fill="#5E77B7"/>
<path d="M23.3389 66.4412H19.7451C18.7519 66.4412 17.9482 65.6375 17.9482 64.6443C17.9482 63.6502 18.7519 62.8474 19.7451 62.8474H23.3389C24.3329 62.8474 25.1357 63.6502 25.1357 64.6443C25.1357 65.6375 24.3329 66.4412 23.3389 66.4412Z" fill="#5E77B7"/>
<path d="M14.3545 75.4184C13.3613 75.4184 12.5576 74.6147 12.5576 73.6215V70.0242C12.5576 69.0302 13.3613 68.2274 14.3545 68.2274C15.3486 68.2274 16.1514 69.0302 16.1514 70.0242V73.6215C16.1514 74.6129 15.3486 75.4184 14.3545 75.4184Z" fill="#5E77B7"/>
<path d="M43.1033 71.821C42.1101 71.821 41.3065 71.0173 41.3065 70.0242C41.3065 68.0422 39.6948 66.4305 37.7128 66.4305C36.7197 66.4305 35.916 65.6269 35.916 64.6337C35.916 63.6397 36.7197 62.8369 37.7128 62.8369C41.6767 62.8369 44.9001 66.0603 44.9001 70.0242C44.9001 71.0156 44.0973 71.821 43.1033 71.821Z" fill="#5E77B7"/>
<path d="M37.7134 66.4412H34.1196C33.1264 66.4412 32.3228 65.6375 32.3228 64.6443C32.3228 63.6502 33.1264 62.8474 34.1196 62.8474H37.7134C38.7075 62.8474 39.5103 63.6502 39.5103 64.6443C39.5103 65.6375 38.7075 66.4412 37.7134 66.4412Z" fill="#5E77B7"/>
<path d="M43.1035 75.4184C42.1103 75.4184 41.3066 74.6147 41.3066 73.6215V70.0242C41.3066 69.0302 42.1103 68.2274 43.1035 68.2274C44.0976 68.2274 44.9004 69.0302 44.9004 70.0242V73.6215C44.9004 74.6129 44.0976 75.4184 43.1035 75.4184Z" fill="#5E77B7"/>
<path d="M23.3383 66.4411C22.3452 66.4411 21.5415 65.6374 21.5415 64.6442V59.8214C21.5415 58.8283 22.3452 58.0246 23.3383 58.0246C24.3324 58.0246 25.1351 58.8283 25.1351 59.8214V64.6442C25.1351 65.6356 24.3324 66.4411 23.3383 66.4411V66.4411Z" fill="#5E77B7"/>
<path d="M34.1196 66.4305C33.1264 66.4305 32.3228 65.6269 32.3228 64.6337V59.8214C32.3228 58.8283 33.1264 58.0246 34.1196 58.0246C35.1136 58.0246 35.9164 58.8283 35.9164 59.8214V64.6337C35.9164 65.6251 35.1136 66.4305 34.1196 66.4305V66.4305Z" fill="#5E77B7"/>
<path d="M28.729 62.829C20.8039 62.829 14.3545 56.384 14.3545 48.4623C14.3545 47.4683 15.1581 46.6655 16.1513 46.6655C17.1454 46.6655 17.9481 47.4683 17.9481 48.4623C17.9481 54.4038 22.7841 59.2354 28.729 59.2354C34.6749 59.2354 39.51 54.4038 39.51 48.4623C39.51 47.4683 40.3136 46.6655 41.3068 46.6655C42.3008 46.6655 43.1036 47.4683 43.1036 48.4623C43.1036 56.384 36.6551 62.829 28.729 62.829Z" fill="#5E77B7"/>
<path d="M25.1372 68.2345C24.4783 68.2345 23.8439 67.8713 23.5272 67.2405C23.0841 66.3534 23.443 65.2734 24.3309 64.8294L27.9246 63.0325C28.8126 62.5921 29.89 62.9483 30.3357 63.8353C30.7796 64.7233 30.4208 65.8033 29.5329 66.2473L25.9391 68.0441C25.6821 68.1714 25.4092 68.2345 25.1372 68.2345Z" fill="#5E77B7"/>
<path d="M32.3226 68.2346C31.8647 68.2346 31.4049 68.06 31.0548 67.7099C30.3521 67.0089 30.3485 65.8735 31.0504 65.169L32.8473 63.3651C33.5484 62.6658 34.6837 62.6571 35.3882 63.3616C36.091 64.0617 36.0945 65.198 35.3917 65.9016L33.5949 67.7064C33.2448 68.0565 32.785 68.2346 32.3226 68.2346Z" fill="#5E77B7"/>
<path d="M25.1356 68.2345C24.6741 68.2345 24.2144 68.0582 23.8634 67.7063L22.0666 65.9016C21.3647 65.1979 21.3682 64.0617 22.0709 63.3615C22.7746 62.6552 23.9108 62.6605 24.611 63.365L26.4078 65.1689C27.1106 65.8735 27.1071 67.0088 26.4043 67.7098C26.0542 68.0599 25.5945 68.2345 25.1356 68.2345Z" fill="#5E77B7"/>
<path d="M32.3211 68.2345C32.0517 68.2345 31.7771 68.1731 31.52 68.0459L27.9263 66.249C27.0384 65.8051 26.6795 64.725 27.1235 63.8371C27.5683 62.9501 28.6466 62.5939 29.5345 63.0343L33.1283 64.8312C34.0162 65.2751 34.375 66.3552 33.9311 67.2422C33.6152 67.8695 32.9809 68.2345 32.3211 68.2345V68.2345Z" fill="#5E77B7"/>
<path d="M52.1218 80.8121H5.39399C4.40082 80.8121 3.59717 80.0085 3.59717 79.0153V73.6266C3.59717 72.6326 4.40082 71.8298 5.39399 71.8298H52.1218C53.1158 71.8298 53.9186 72.6326 53.9186 73.6266V79.0153C53.9186 80.0067 53.1158 80.8121 52.1218 80.8121ZM7.19081 77.2185H50.325V75.4234H7.19081V77.2185Z" fill="#5E77B7"/>
<path d="M7.16205 107.78C6.16889 107.78 5.36523 106.977 5.36523 105.983V78.9829C5.36523 77.9888 6.16889 77.186 7.16205 77.186C8.15609 77.186 8.95887 77.9888 8.95887 78.9829V105.983C8.95887 106.977 8.15609 107.78 7.16205 107.78V107.78Z" fill="#5E77B7"/>
<path d="M50.3232 107.78C49.33 107.78 48.5264 106.977 48.5264 105.983V78.9829C48.5264 77.9888 49.33 77.186 50.3232 77.186C51.3172 77.186 52.12 77.9888 52.12 78.9829V105.983C52.12 106.977 51.3172 107.78 50.3232 107.78V107.78Z" fill="#5E77B7"/>
<path d="M8.99457 75.4182C8.00141 75.4182 7.19775 74.6145 7.19775 73.6213V64.6337C7.19775 63.6397 8.00141 62.8369 8.99457 62.8369C9.98861 62.8369 10.7914 63.6397 10.7914 64.6337V73.6213C10.7914 74.6127 9.98861 75.4182 8.99457 75.4182Z" fill="#5E77B7"/>
<path d="M8.99463 66.4307C8.53488 66.4307 8.07513 66.2544 7.72418 65.9043C7.02228 65.2015 7.02228 64.0653 7.72418 63.3634L11.3144 59.7732C12.0172 59.0704 13.1525 59.0704 13.8553 59.7732C14.5581 60.476 14.5581 61.6113 13.8553 62.3141L10.2651 65.9043C9.915 66.2544 9.45525 66.4307 8.99463 66.4307Z" fill="#5E77B7"/>
<path d="M48.5214 75.4182C47.5283 75.4182 46.7246 74.6145 46.7246 73.6213V64.6337C46.7246 63.6397 47.5283 62.8369 48.5214 62.8369C49.5155 62.8369 50.3183 63.6397 50.3183 64.6337V73.6213C50.3183 74.6127 49.5155 75.4182 48.5214 75.4182Z" fill="#5E77B7"/>
<path d="M48.5214 66.4307C48.0617 66.4307 47.6019 66.2544 47.251 65.9043L43.6607 62.3141C42.9588 61.6113 42.9588 60.476 43.6607 59.7732C44.3635 59.0704 45.4988 59.0704 46.2016 59.7732L49.7919 63.3634C50.4946 64.0653 50.4946 65.2015 49.7919 65.9043C49.4418 66.2544 48.9812 66.4307 48.5214 66.4307Z" fill="#5E77B7"/>
<path d="M52.1334 114.962H5.40473C4.41157 114.962 3.60791 114.159 3.60791 113.165V105.987C3.60791 104.994 4.41157 104.19 5.40473 104.19H52.1334C53.1266 104.19 53.9302 104.994 53.9302 105.987V113.165C53.9302 114.159 53.1248 114.962 52.1334 114.962ZM7.20155 111.369H50.3366V107.784H7.20155V111.369Z" fill="#5E77B7"/>
<path d="M70.0727 106.007C69.0787 106.007 68.2759 105.203 68.2759 104.21C68.2759 98.2644 73.111 93.4293 79.0568 93.4293C80.05 93.4293 80.8536 94.2321 80.8536 95.2261C80.8536 96.2193 80.05 97.023 79.0568 97.023C75.0929 97.023 71.8695 100.246 71.8695 104.21C71.8695 105.203 71.0659 106.007 70.0727 106.007Z" fill="#5E77B7"/>
<path d="M82.6486 97.0231H79.0566C78.0626 97.0231 77.2598 96.2194 77.2598 95.2262C77.2598 94.2321 78.0626 93.4293 79.0566 93.4293H82.6486C83.6418 93.4293 84.4455 94.2321 84.4455 95.2262C84.4455 96.2194 83.6418 97.0231 82.6486 97.0231Z" fill="#5E77B7"/>
<path d="M70.0727 113.196C69.0787 113.196 68.2759 112.392 68.2759 111.399V104.21C68.2759 103.216 69.0787 102.413 70.0727 102.413C71.0659 102.413 71.8695 103.216 71.8695 104.21V111.399C71.8695 112.392 71.0659 113.196 70.0727 113.196Z" fill="#5E77B7"/>
<path d="M109.599 106.007C108.605 106.007 107.802 105.203 107.802 104.21C107.802 100.246 104.579 97.023 100.615 97.023C99.6211 97.023 98.8184 96.2193 98.8184 95.2261C98.8184 94.2321 99.6211 93.4293 100.615 93.4293C106.561 93.4293 111.396 98.2644 111.396 104.21C111.396 105.203 110.592 106.007 109.599 106.007Z" fill="#5E77B7"/>
<path d="M100.615 97.0231H97.0229C96.0289 97.0231 95.2261 96.2194 95.2261 95.2262C95.2261 94.2321 96.0289 93.4293 97.0229 93.4293H100.615C101.608 93.4293 102.412 94.2321 102.412 95.2262C102.412 96.2194 101.608 97.0231 100.615 97.0231Z" fill="#5E77B7"/>
<path d="M109.599 113.196C108.605 113.196 107.802 112.392 107.802 111.399V104.21C107.802 103.216 108.605 102.413 109.599 102.413C110.592 102.413 111.396 103.216 111.396 104.21V111.399C111.396 112.392 110.592 113.196 109.599 113.196Z" fill="#5E77B7"/>
<path d="M82.6484 97.023C81.6543 97.023 80.8516 96.2193 80.8516 95.2262V88.1538C80.8516 87.1598 81.6543 86.357 82.6484 86.357C83.6415 86.357 84.4452 87.1598 84.4452 88.1538V95.2262C84.4452 96.2193 83.6415 97.023 82.6484 97.023V97.023Z" fill="#5E77B7"/>
<path d="M97.0229 97.023C96.0289 97.023 95.2261 96.2193 95.2261 95.2262V88.1538C95.2261 87.1598 96.0289 86.357 97.0229 86.357C98.0161 86.357 98.8197 87.1598 98.8197 88.1538V95.2262C98.8197 96.2193 98.0161 97.023 97.0229 97.023V97.023Z" fill="#5E77B7"/>
<path d="M89.8359 91.6325C79.9279 91.6325 71.8677 83.574 71.8677 73.6678C71.8677 72.6737 72.6705 71.871 73.6645 71.871C74.6577 71.871 75.4613 72.6737 75.4613 73.6678C75.4613 81.592 81.9099 88.0388 89.8359 88.0388C97.7619 88.0388 104.21 81.592 104.21 73.6678C104.21 72.6737 105.013 71.871 106.007 71.871C107 71.871 107.804 72.6737 107.804 73.6678C107.804 83.574 99.7429 91.6325 89.8359 91.6325Z" fill="#5E77B7"/>
<path d="M73.6645 75.5524C72.6705 75.5524 71.8677 74.7496 71.8677 73.7555V62.8799C71.8677 61.8858 72.6705 61.0831 73.6645 61.0831C74.6577 61.0831 75.4613 61.8858 75.4613 62.8799V73.7555C75.4613 74.7496 74.6577 75.5524 73.6645 75.5524Z" fill="#5E77B7"/>
<path d="M106.007 75.4646C105.013 75.4646 104.21 74.661 104.21 73.6678V62.8799C104.21 61.8858 105.013 61.0831 106.007 61.0831C107 61.0831 107.804 61.8858 107.804 62.8799V73.6678C107.804 74.661 107 75.4646 106.007 75.4646Z" fill="#5E77B7"/>
<path d="M106.007 64.675C105.013 64.675 104.21 63.8713 104.21 62.8782C104.21 59.9074 101.791 57.4894 98.8198 57.4894C97.8257 57.4894 97.0229 56.6858 97.0229 55.6926C97.0229 54.6986 97.8257 53.8958 98.8198 53.8958C103.773 53.8958 107.804 57.9237 107.804 62.8782C107.804 63.8713 107 64.675 106.007 64.675Z" fill="#5E77B7"/>
<path d="M98.8198 57.4894C97.8257 57.4894 97.0229 56.6858 97.0229 55.6926V48.5053C97.0229 47.5113 97.8257 46.7085 98.8198 46.7085C99.8129 46.7085 100.617 47.5113 100.617 48.5053V55.6926C100.617 56.6858 99.8129 57.4894 98.8198 57.4894Z" fill="#5E77B7"/>
<path d="M98.8199 50.3021H88.039C87.045 50.3021 86.2422 49.4985 86.2422 48.5053C86.2422 47.5113 87.045 46.7085 88.039 46.7085H98.8199C99.8131 46.7085 100.617 47.5113 100.617 48.5053C100.617 49.4985 99.8131 50.3021 98.8199 50.3021Z" fill="#5E77B7"/>
<path d="M73.6645 64.6767C72.6705 64.6767 71.8677 63.873 71.8677 62.8799C71.8677 53.9625 79.1216 46.7085 88.039 46.7085C89.0322 46.7085 89.8359 47.5113 89.8359 48.5053C89.8359 49.4985 89.0322 50.3021 88.039 50.3021C81.1053 50.3021 75.4613 55.9461 75.4613 62.8799C75.4613 63.873 74.6577 64.6767 73.6645 64.6767Z" fill="#5E77B7"/>
<path d="M106.005 70.1154C105.661 70.1154 105.31 70.0145 105.001 69.8084L99.6103 66.1682C98.7873 65.6111 98.5715 64.4934 99.1251 63.6722C99.6822 62.8492 100.796 62.6351 101.621 63.187L107.012 66.8271C107.835 67.3842 108.05 68.502 107.497 69.3232C107.149 69.8373 106.582 70.1154 106.005 70.1154V70.1154Z" fill="#5E77B7"/>
<path d="M90.7341 68.2721C84.2434 68.2721 78.7187 66.4586 78.4889 66.3814C77.5475 66.0673 77.0368 65.0522 77.3509 64.1108C77.6624 63.1712 78.6678 62.6588 79.6224 62.9694C79.6724 62.9878 84.8479 64.6767 90.7358 64.6767C96.5211 64.6767 99.7849 63.0826 99.8164 63.0668C100.71 62.6176 101.784 62.9878 102.227 63.8713C102.67 64.7592 102.309 65.8392 101.421 66.2814C101.256 66.3674 97.3572 68.2721 90.7341 68.2721Z" fill="#5E77B7"/>
<path d="M73.6662 70.1154C73.0889 70.1154 72.5213 69.8391 72.1747 69.3249C71.6194 68.5037 71.8369 67.386 72.6599 66.8289L78.0504 63.1887C78.8768 62.6351 79.9911 62.8509 80.5464 63.6739C81.1009 64.4951 80.8842 65.6128 80.0613 66.17L74.6708 69.8101C74.3611 70.0145 74.011 70.1154 73.6662 70.1154V70.1154Z" fill="#5E77B7"/>
<path d="M86.2403 98.82C85.9709 98.82 85.6954 98.7585 85.4383 98.6313L81.8446 96.8345C80.9575 96.3905 80.5978 95.3104 81.0418 94.4225C81.4875 93.5355 82.5658 93.1775 83.4528 93.6197L87.0466 95.4166C87.9345 95.8606 88.2942 96.9406 87.8502 97.8276C87.5335 98.4567 86.8992 98.82 86.2403 98.82Z" fill="#5E77B7"/>
<path d="M86.244 98.8199C85.5843 98.8199 84.9499 98.4567 84.6341 97.8259C84.1901 96.9388 84.5498 95.8588 85.4369 95.4148L89.0306 93.618C89.9185 93.1758 90.9986 93.5337 91.4425 94.4208C91.8865 95.3087 91.5267 96.3887 90.6388 96.8327L87.0451 98.6296C86.788 98.7585 86.5134 98.8199 86.244 98.8199Z" fill="#5E77B7"/>
<path d="M93.4311 98.8199C92.7713 98.8199 92.1369 98.4567 91.8211 97.8259C91.3771 96.9388 91.7368 95.8588 92.6239 95.4148L96.2176 93.618C97.1073 93.1758 98.1838 93.5337 98.6295 94.4208C99.0735 95.3087 98.7138 96.3887 97.8259 96.8327L94.2321 98.6296C93.975 98.7585 93.7004 98.8199 93.4311 98.8199Z" fill="#5E77B7"/>
<path d="M93.4278 98.82C93.1584 98.82 92.8829 98.7585 92.6258 98.6313L89.0321 96.8345C88.145 96.3905 87.7853 95.3104 88.2293 94.4225C88.675 93.5355 89.755 93.1775 90.6403 93.6197L94.2341 95.4166C95.122 95.8606 95.4817 96.9406 95.0378 97.8276C94.721 98.4567 94.0867 98.82 93.4278 98.82Z" fill="#5E77B7"/>
<path d="M71.8766 115C69.8929 115 68.2759 113.385 68.2759 111.399C68.2759 110.405 69.0787 109.602 70.0728 109.602C71.0659 109.602 71.8696 110.405 71.8696 111.399V111.403C72.8628 111.403 73.67 112.21 73.67 113.201C73.67 114.196 72.8707 115 71.8766 115Z" fill="#5E77B7"/>
<path d="M107.795 115C106.801 115 105.998 114.197 105.998 113.203C105.998 112.21 106.801 111.406 107.795 111.406C107.795 110.413 108.601 109.606 109.595 109.606C110.589 109.606 111.396 110.405 111.396 111.399C111.396 113.385 109.78 115 107.795 115Z" fill="#5E77B7"/>
<path d="M107.795 115H71.8764C70.8832 115 70.0796 114.197 70.0796 113.203C70.0796 112.21 70.8832 111.406 71.8764 111.406H107.795C108.788 111.406 109.592 112.21 109.592 113.203C109.592 114.197 108.788 115 107.795 115Z" fill="#5E77B7"/>
<path d="M93.4329 114.995C93.318 114.995 93.1978 114.984 93.0785 114.959C92.1064 114.765 91.4747 113.818 91.6703 112.843L95.2622 94.8734C95.4543 93.904 96.3905 93.2635 97.3766 93.4653C98.3487 93.6592 98.9813 94.6059 98.7857 95.5797L95.1938 113.551C95.0227 114.403 94.2717 114.995 93.4329 114.995Z" fill="#5E77B7"/>
<path d="M98.8285 114.995C98.7119 114.995 98.5917 114.984 98.4706 114.959C97.4994 114.763 96.8685 113.814 97.0659 112.84L100.658 95.0498C100.852 94.0759 101.791 93.4416 102.777 93.6451C103.748 93.8408 104.379 94.7892 104.181 95.7631L100.589 113.553C100.417 114.407 99.6655 114.995 98.8285 114.995V114.995Z" fill="#5E77B7"/>
<path d="M86.2287 114.995C85.3899 114.995 84.6389 114.405 84.4696 113.55L80.8786 95.578C80.6838 94.6041 81.3146 93.6592 82.2867 93.4635C83.2737 93.2653 84.2072 93.8996 84.402 94.8717L87.9939 112.843C88.1878 113.818 87.557 114.763 86.5849 114.959C86.4647 114.984 86.3462 114.995 86.2287 114.995V114.995Z" fill="#5E77B7"/>
<path d="M80.8329 114.995C79.9959 114.995 79.2449 114.407 79.0738 113.553L75.4819 95.7631C75.2863 94.7892 75.9154 93.8425 76.8875 93.6451C77.8754 93.4486 78.808 94.0777 79.0063 95.0498L82.5973 112.842C82.7938 113.815 82.1647 114.763 81.1926 114.96C81.0707 114.984 80.9514 114.995 80.8329 114.995V114.995Z" fill="#5E77B7"/>
<path d="M97.0406 39.5283C96.8143 39.5283 96.5879 39.487 96.3738 39.401L87.7117 35.9346L66.5017 35.9566H66.4999C66.0244 35.9566 65.5656 35.7671 65.2295 35.4293C64.8944 35.0915 64.7031 34.637 64.7031 34.1597V1.79682C64.7031 0.802778 65.5068 0 66.4999 0H102.431C103.425 0 104.228 0.802778 104.228 1.79682V34.1378C104.228 35.131 103.425 35.9346 102.431 35.9346H98.8392L98.8374 37.7332C98.8374 38.3298 98.5409 38.8869 98.0487 39.2194C97.7451 39.4221 97.3951 39.5283 97.0406 39.5283ZM88.0565 32.341C88.2846 32.341 88.511 32.384 88.7233 32.4682L95.2456 35.0775L95.2473 34.1361C95.2491 33.1438 96.0527 32.341 97.0441 32.341H100.634V3.59364H68.2968V32.3603L88.0565 32.341Z" fill="#5E77B7"/>
<path d="M50.3303 37.7297C49.9768 37.7297 49.6249 37.6235 49.3231 37.4209C48.8301 37.0849 48.5335 36.5295 48.5335 35.9329V34.1361H44.9399C43.9467 34.1361 43.1431 33.3324 43.1431 32.3392V5.39399C43.1431 4.40082 43.9467 3.59717 44.9399 3.59717H66.4859C67.48 3.59717 68.2827 4.40082 68.2827 5.39399C68.2827 6.38803 67.48 7.19081 66.4859 7.19081H46.7367V30.5424H50.3303C51.3244 30.5424 52.1272 31.3452 52.1272 32.3392V33.2789L58.6485 30.6696C58.8617 30.5854 59.103 30.6074 59.3206 30.5424L66.4912 30.5635C67.4852 30.5679 68.2862 31.3724 68.2827 32.3664C68.2792 33.3579 67.4756 34.1571 66.4859 34.1571C66.4842 34.1571 66.4824 34.1571 66.4806 34.1571L59.6584 34.1378L50.9971 37.6016C50.7839 37.6885 50.5576 37.7297 50.3303 37.7297Z" fill="#5E77B7"/>
<path d="M84.478 23.3534C83.484 23.3534 82.6812 22.5497 82.6812 21.5566C82.6812 18.4262 84.9649 16.8847 86.4757 15.866C87.4408 15.215 88.0734 14.7588 88.0734 14.3693C88.0734 12.3873 86.4617 10.7756 84.4797 10.7756C82.4978 10.7756 80.8861 12.3873 80.8861 14.3693C80.8861 15.3624 80.0825 16.1661 79.0893 16.1661C78.0953 16.1661 77.2925 15.3624 77.2925 14.3693C77.2925 10.4054 80.5159 7.18201 84.4797 7.18201C88.4436 7.18201 91.667 10.4054 91.667 14.3693C91.667 16.6995 89.8307 17.9375 88.4866 18.8429C86.9486 19.8817 86.2748 20.4528 86.2748 21.5566C86.2748 22.5497 85.4694 23.3534 84.478 23.3534V23.3534Z" fill="#5E77B7"/>
<path d="M84.5312 28.744C83.538 28.744 82.7256 27.9403 82.7256 26.9471C82.7256 25.953 83.5196 25.1502 84.5119 25.1502H84.5312C85.5236 25.1502 86.3281 25.953 86.3281 26.9471C86.3281 27.9403 85.5236 28.744 84.5312 28.744Z" fill="#5E77B7"/>
</g>
<defs>
<clipPath id="clip0">
<rect width="115" height="115" fill="white"/>
</clipPath>
</defs>
</svg>
