<svg width="90" height="90" viewBox="0 0 90 90" fill="none" xmlns="http://www.w3.org/2000/svg">
<g clip-path="url(#clip0)">
<path d="M89.9969 62.1667C89.9971 62.1463 89.9992 62.1262 89.9992 62.1058C89.9992 62.1014 89.9986 62.0969 89.9984 62.0922C89.9982 62.0592 89.9959 62.0261 89.9934 61.9929C89.9922 61.9768 89.9914 61.9606 89.9897 61.9447C89.9866 61.9161 89.9815 61.8877 89.9766 61.8592C89.9731 61.8387 89.9702 61.8181 89.9658 61.7979C89.9609 61.776 89.9547 61.7542 89.9488 61.7322C89.9419 61.706 89.9352 61.6797 89.9269 61.6543C89.9214 61.6376 89.9146 61.6208 89.9086 61.6041C89.8977 61.5744 89.8866 61.545 89.8738 61.5163C89.8719 61.5118 89.8705 61.5071 89.8684 61.5025L74.4484 27.5783V23.1318H74.5456C76.207 23.1318 77.5586 21.7802 77.5586 20.1188V19.8879C77.5586 18.4012 76.4934 17.1503 75.0258 16.9134L49.5672 12.8051V10.1947C50.5335 9.11177 51.1223 7.68518 51.1223 6.12311C51.1223 2.74685 48.3755 0 44.9992 0C41.6229 0 38.8761 2.74685 38.8761 6.12311C38.8761 7.68518 39.4649 9.11177 40.4312 10.1947V12.6634L14.9573 16.9091C13.4986 17.1523 12.4398 18.4022 12.4398 19.8811V20.1188C12.4398 21.7802 13.7914 23.1318 15.4528 23.1318H15.55V27.5783L0.129844 61.5025C0.127706 61.5069 0.126345 61.5118 0.124401 61.5163C0.111766 61.5448 0.100686 61.5744 0.0898009 61.6039C0.0835806 61.6206 0.0769716 61.6374 0.0713344 61.6543C0.0629759 61.6797 0.0561724 61.706 0.049369 61.7322C0.0435375 61.7542 0.0373172 61.776 0.0324576 61.7979C0.0281811 61.8181 0.0250709 61.8387 0.021572 61.8592C0.0167124 61.8877 0.0116584 61.9161 0.00854827 61.9447C0.00679881 61.9606 0.00621566 61.977 0.00485497 61.9931C0.00232797 62.0261 0.000189744 62.0592 -0.000199025 62.092C-0.000199025 62.0967 -0.000976562 62.1012 -0.000976562 62.1056C-0.000976562 62.1262 0.00116167 62.1463 0.00135605 62.1669C0.00213359 62.1832 0.0019392 62.1997 0.00329989 62.216C0.0942718 68.2126 7.5287 72.8942 17.0079 72.8942C26.487 72.8942 33.9214 68.2126 34.0122 62.2162C34.0136 62.1999 34.0134 62.1834 34.0142 62.1669C34.0144 62.1465 34.0165 62.1264 34.0165 62.106C34.0165 62.1016 34.0159 62.0971 34.0157 62.0924C34.0155 62.0594 34.0132 62.0263 34.0107 61.9931C34.0095 61.977 34.0087 61.9608 34.007 61.9449C34.0039 61.9163 33.9988 61.8879 33.9939 61.8594C33.9904 61.8389 33.9875 61.8183 33.9831 61.7981C33.9782 61.7762 33.972 61.7544 33.9661 61.7324C33.9591 61.7062 33.9525 61.6799 33.9442 61.6545C33.9387 61.6378 33.9319 61.621 33.9259 61.6043C33.915 61.5746 33.9039 61.5452 33.8911 61.5165C33.8892 61.512 33.8878 61.5073 33.8857 61.5027L18.4657 27.5783V23.1318H40.4312V54.8057C39.5049 55.3203 38.8761 56.3079 38.8761 57.4406V78.9174L29.6409 81.8034C27.7237 82.4027 26.4355 84.1549 26.4355 86.1636V88.5421C26.4355 89.3473 27.088 90 27.8934 90H62.105C62.9104 90 63.5629 89.3473 63.5629 88.5421V86.1634C63.5629 84.1547 62.2747 82.4025 60.3575 81.8032L51.1223 78.9174V57.4406C51.1223 56.3079 50.4935 55.3203 49.5672 54.8057V23.1318H71.5327V27.5783L56.1126 61.5027C56.1104 61.5071 56.1091 61.512 56.1071 61.5165C56.0945 61.545 56.0834 61.5746 56.0725 61.6041C56.0663 61.6208 56.0597 61.6376 56.054 61.6545C56.0457 61.6799 56.0389 61.7062 56.0321 61.7324C56.0262 61.7544 56.02 61.7762 56.0152 61.7981C56.0109 61.8183 56.0078 61.8389 56.0043 61.8594C55.9994 61.8879 55.9944 61.9163 55.9913 61.9449C55.9895 61.9608 55.9889 61.9771 55.9876 61.9933C55.985 62.0263 55.9829 62.0594 55.9825 62.0922C55.9825 62.0969 55.9817 62.1014 55.9817 62.1058C55.9817 62.1264 55.9839 62.1465 55.9841 62.1671C55.9848 62.1834 55.9846 62.1999 55.986 62.2162C56.077 68.2126 63.5114 72.8942 72.9906 72.8942C82.4697 72.8942 89.9041 68.2126 89.9949 62.2162C89.9963 62.1997 89.9961 62.1832 89.9969 62.1667ZM17.0079 31.4174L30.2944 60.648H3.72129L17.0079 31.4174ZM17.0079 69.9784C10.2573 69.9784 4.43274 67.1633 3.16885 63.5637H30.8471C29.583 67.1633 23.7584 69.9784 17.0079 69.9784ZM48.2065 57.4406V78.5313H41.7919V57.4406C41.7919 57.387 41.8356 57.3434 41.8891 57.3434H48.1094C48.1628 57.3434 48.2065 57.387 48.2065 57.4406ZM43.3469 54.4276V12.0178C43.8729 12.1656 44.4267 12.2462 44.9992 12.2462C45.5717 12.2462 46.1255 12.1656 46.6515 12.0178V54.4276H43.3469ZM44.9992 2.91577C46.7677 2.91577 48.2065 4.3546 48.2065 6.12311C48.2065 7.89162 46.7677 9.33045 44.9992 9.33045C43.2307 9.33045 41.7919 7.89162 41.7919 6.12311C41.7919 4.3546 43.2307 2.91577 44.9992 2.91577ZM15.4528 20.216C15.3993 20.216 15.3556 20.1724 15.3556 20.1188V19.8811C15.3556 19.8332 15.3898 19.793 15.4368 19.7852L40.4312 15.6196V20.216H15.4528ZM60.6472 86.1634V87.0842H29.3513V86.1634C29.3513 85.4368 29.8172 84.8029 30.5108 84.5864L40.5566 81.4471H49.4421L59.4878 84.5864C60.1812 84.8031 60.6472 85.4368 60.6472 86.1634ZM49.5672 15.7587L74.561 19.792C74.6084 19.7996 74.6428 19.84 74.6428 19.8881V20.119C74.6428 20.1726 74.5991 20.2162 74.5456 20.2162H49.5672V15.7587ZM72.9906 31.4174L86.2771 60.648H59.704L72.9906 31.4174ZM72.9906 69.9784C66.24 69.9784 60.4154 67.1633 59.1516 63.5637H86.8298C85.5657 67.1633 79.7411 69.9784 72.9906 69.9784Z" fill="#E3BD84"/>
</g>
<defs>
<clipPath id="clip0">
<rect width="90" height="90" fill="white"/>
</clipPath>
</defs>
</svg>
