<svg width="194" height="126" viewBox="0 0 194 126" fill="none" xmlns="http://www.w3.org/2000/svg">
<path d="M125.205 0.417396C124.007 0.568551 122.81 0.719707 121.687 0.94644C119.816 1.24875 117.945 1.70222 116.073 2.23126C114.427 2.68473 112.855 3.21377 111.208 3.74282C107.84 4.95206 104.547 6.5392 101.329 8.42864C100.206 9.03326 99.1581 9.71346 98.1102 10.4692C96.5385 11.5273 95.0415 12.661 93.5446 13.8702C93.3949 13.9458 93.2452 14.097 93.1703 14.1726L96.5385 18.1782C96.763 17.9514 97.0624 17.8003 97.2869 17.5736C97.5115 17.3468 97.8109 17.1957 98.0354 16.9689C98.1851 16.8934 98.2599 16.8178 98.4096 16.6666C98.709 16.4399 99.0832 16.2132 99.3826 15.9864C99.5323 15.8353 99.7569 15.6841 99.9066 15.6085C101.254 14.7016 102.601 13.7947 103.948 12.9633C104.846 12.4343 105.745 11.9808 106.718 11.4518C107.99 10.7716 109.262 10.1669 110.61 9.63789C111.433 9.33557 112.181 8.95769 113.005 8.65537C113.229 8.5798 113.529 8.50422 113.753 8.42864C116.597 7.44613 119.591 6.61477 122.585 6.08573C123.858 5.859 125.13 5.70784 126.477 5.55668C128.423 5.32995 130.444 5.25437 132.465 5.25437C134.636 5.25437 136.731 5.40553 138.827 5.63226C140.024 5.78342 141.222 5.93457 142.42 6.16131C143.243 6.31246 144.066 6.46362 144.89 6.61477C146.686 6.99266 148.482 7.52171 150.204 8.05075C150.802 8.27748 151.401 8.42864 152 8.65537C152.823 8.95769 153.647 9.26 154.47 9.63789C156.042 10.3181 157.539 10.9983 158.961 11.7541C159.41 11.9808 159.859 12.2831 160.308 12.5098C160.533 12.661 160.757 12.7366 160.982 12.8877C163.377 14.2481 165.772 15.9108 167.942 17.7247C168.092 17.8759 168.242 17.9514 168.391 18.1026L168.99 18.5561C169.065 18.5561 169.065 18.6316 169.14 18.6316L169.814 19.2363C170.188 19.6142 170.637 19.9165 171.011 20.2944C172.882 21.9571 174.604 23.8465 176.176 25.736C178.346 28.3056 180.292 31.0264 181.939 33.9739C183.585 36.8459 185.007 39.869 186.13 43.0433C186.43 43.799 186.654 44.5548 186.879 45.3862C186.953 45.6129 187.028 45.9152 187.103 46.142C187.253 46.671 187.403 47.2 187.552 47.6535C187.627 47.9558 187.702 48.2581 187.777 48.5604C187.926 49.0139 188.001 49.4674 188.151 49.9964C188.226 50.2987 188.301 50.6766 188.376 50.9789C188.45 51.2812 188.525 51.5836 188.525 51.8859L193.615 50.9789C193.54 50.6766 193.465 50.2987 193.39 49.9964C193.315 49.6185 193.241 49.3162 193.166 48.9383C193.016 48.4093 192.941 47.8802 192.792 47.3512C192.717 47.0489 192.642 46.671 192.567 46.3687C192.417 45.7641 192.268 45.235 192.043 44.706C191.968 44.4037 191.893 44.1769 191.819 43.8746C191.519 43.0433 191.295 42.2119 190.995 41.3806C189.872 38.1307 188.376 35.032 186.729 32.0845L186.355 31.4043C185.606 30.1195 184.783 28.8346 183.96 27.5498C183.81 27.2475 183.585 27.0208 183.436 26.7185C182.388 25.2069 181.265 23.7709 180.142 22.4105C179.319 21.428 178.496 20.4455 177.598 19.5386C176.55 18.4049 175.427 17.3468 174.304 16.2887C173.706 15.7597 173.107 15.2306 172.508 14.7016L172.433 14.626C170.412 12.8877 168.242 11.3006 165.922 9.78904C165.173 9.26 164.35 8.80653 163.526 8.35306C160.458 6.5392 157.09 4.95206 153.647 3.66724C150.204 2.38242 146.686 1.47548 143.168 0.870862C137.48 -0.111649 131.118 -0.262805 125.205 0.417396Z" fill="#E3BD84"/>
<path d="M163.601 117.412C166.745 115.598 169.739 113.482 172.508 111.139C173.182 110.534 173.855 109.93 174.529 109.325C176.55 107.511 178.421 105.471 180.142 103.354C181.939 101.238 183.511 99.0464 185.007 96.7035C185.457 95.9477 185.98 95.1164 186.43 94.3606C186.879 93.6048 187.253 92.849 187.702 92.0933C187.852 91.8665 187.926 91.5642 188.076 91.3375C188.376 90.8084 188.6 90.2794 188.899 89.7504C189.049 89.448 189.199 89.1457 189.349 88.8434C189.573 88.3144 189.798 87.8609 190.022 87.3319C190.172 86.954 190.322 86.6517 190.471 86.2738C190.621 85.9715 190.696 85.5936 190.846 85.2913L187.926 84.2332L185.98 83.553C185.906 83.7041 185.906 83.7797 185.831 83.9309C185.307 85.2157 184.783 86.4249 184.259 87.6342C184.184 87.7853 184.109 87.9365 184.034 88.0876C183.436 89.3725 182.762 90.6573 182.088 91.8665C180.442 94.7385 178.496 97.5349 176.325 100.105C174.23 102.674 171.834 105.093 169.29 107.209C166.745 109.401 163.975 111.29 161.131 112.953C158.362 114.54 155.368 115.976 152.15 117.185C149.081 118.319 145.863 119.15 142.494 119.755C139.351 120.359 135.983 120.662 132.615 120.662C129.172 120.662 125.878 120.359 122.66 119.755C121.912 119.604 121.088 119.452 120.34 119.301C120.115 119.226 119.816 119.15 119.591 119.15C119.067 118.999 118.543 118.923 118.094 118.772C117.795 118.697 117.496 118.621 117.196 118.545C116.747 118.394 116.298 118.319 115.774 118.168C115.475 118.092 115.175 117.941 114.801 117.865C114.502 117.79 114.202 117.714 113.903 117.563L112.107 122.551C113.379 123.005 114.726 123.382 115.999 123.76C117.87 124.289 119.816 124.743 121.762 125.045C123.184 125.272 124.681 125.499 126.103 125.65C130.22 126.103 134.411 126.103 138.528 125.725C140.174 125.574 141.821 125.347 143.393 125.045C145.039 124.743 146.611 124.441 148.183 123.987C149.979 123.534 151.701 123.005 153.497 122.324C153.647 122.249 153.721 122.249 153.871 122.173C154.694 121.871 155.593 121.493 156.416 121.191C158.811 119.981 161.281 118.772 163.601 117.412Z" fill="#E9BC79"/>
<path d="M124.98 20.0676C127.151 19.6897 129.321 19.5386 131.567 19.463V19.3874H132.465H133.363V19.463C135.534 19.5386 137.779 19.6897 139.95 20.0676L140.698 20.2188C141.746 20.4455 142.794 20.6722 143.842 20.899C144.141 20.9745 144.515 21.1257 144.815 21.2013C145.339 21.3524 145.863 21.5036 146.386 21.6547L148.183 16.6666C145.863 15.8353 143.467 15.2306 140.923 14.7772C135.459 13.7947 129.546 13.7947 124.157 14.7772C121.612 15.2306 119.217 15.8353 116.897 16.6666L118.693 21.6547C119.292 21.428 119.891 21.2769 120.489 21.1257C120.864 21.0501 121.238 20.899 121.612 20.7478C122.66 20.5211 123.858 20.2943 124.98 20.0676Z" fill="#E9BC79"/>
<path d="M163.377 25.4337C161.431 23.8465 159.41 22.335 157.389 21.1257L154.769 25.6604C155.293 25.9627 155.817 26.3406 156.341 26.7185C156.641 26.9452 157.015 27.0964 157.314 27.3231C158.287 28.0033 159.26 28.7591 160.158 29.5149C162.104 31.102 163.901 32.9159 165.472 34.8809C166.895 36.6192 168.167 38.433 169.29 40.3225L169.739 41.0783L170.188 41.834C171.236 43.7991 172.209 45.8397 172.957 47.8803C173.631 49.7697 174.155 51.5836 174.529 53.3975C174.604 53.6998 174.679 54.0021 174.679 54.3044L174.828 55.2113L174.978 56.1183C175.352 58.31 175.502 60.5018 175.502 62.7691C175.502 63.9783 175.427 65.1876 175.352 66.3968C175.352 66.7747 175.277 67.1526 175.203 67.5305C175.128 68.1351 175.053 68.8153 174.978 69.4199L176.026 69.6467L180.068 70.4025C180.068 70.3269 180.068 70.1757 180.142 70.1002C180.292 68.9665 180.442 67.9084 180.517 66.7747C180.517 66.6991 180.517 66.6236 180.517 66.548C180.592 65.3387 180.666 64.1295 180.666 62.8447C180.666 60.1239 180.442 57.4031 179.993 54.7579C179.993 54.6067 179.918 54.4555 179.918 54.38C179.693 52.944 179.394 51.508 179.02 50.1476V50.072C178.646 48.7116 178.271 47.4268 177.822 46.142C177.373 44.7816 176.774 43.4968 176.25 42.2119C176.25 42.1364 176.25 42.1364 176.176 42.0608C175.577 40.776 174.978 39.5667 174.23 38.3575C173.556 37.1482 172.807 35.939 171.984 34.8053C171.984 34.7297 171.909 34.7297 171.909 34.6542C171.161 33.5961 170.338 32.538 169.514 31.5555C169.439 31.4799 169.439 31.4043 169.364 31.3287C169.29 31.2532 169.215 31.1776 169.14 31.102C168.317 30.1195 167.493 29.2126 166.595 28.3056C166.52 28.23 166.52 28.23 166.445 28.1545C165.472 27.172 164.425 26.1894 163.377 25.3581V25.4337Z" fill="#E3BD84"/>
<path d="M139.65 21.9572L138.902 21.806C137.854 21.6549 136.806 21.5037 135.758 21.4281C135.459 21.4281 135.159 21.4281 134.86 21.3526C134.336 21.3526 133.887 21.3526 133.363 21.277V26.4918C133.887 26.4918 134.411 26.5674 134.935 26.5674C135.234 26.5674 135.534 26.5674 135.758 26.643C136.731 26.7186 137.704 26.8697 138.677 27.0209C140.773 27.3988 142.794 27.9278 144.74 28.6836C146.761 29.4394 148.632 30.3463 150.428 31.4044C152.225 32.4625 153.946 33.6717 155.518 35.0321C157.09 36.3925 158.586 37.8285 159.934 39.4912C160.532 40.247 161.131 41.0028 161.73 41.8341C161.88 42.0609 162.104 42.3632 162.254 42.6655C162.553 43.119 162.853 43.4969 163.077 43.9503L167.568 41.3051C167.493 41.2295 167.493 41.1539 167.418 41.0784C166.969 40.3226 166.445 39.5668 165.921 38.811C165.847 38.6599 165.772 38.5843 165.697 38.4331C165.098 37.6774 164.574 36.846 163.901 36.0902C162.329 34.2008 160.607 32.4625 158.811 30.9509C156.94 29.3638 154.994 28.0034 152.898 26.7942C150.802 25.5849 148.632 24.5268 146.386 23.771C144.366 22.9397 142.045 22.3351 139.65 21.9572Z" fill="#CD985A"/>
<path d="M168.392 59.6703C168.392 59.7459 168.392 59.7459 168.392 59.6703C168.392 59.7459 168.392 59.8971 168.392 59.9726C168.392 60.275 168.392 60.5017 168.466 60.804C168.466 61.1819 168.541 61.6354 168.541 62.0132V62.9202C168.541 65.0364 168.392 67.1525 168.017 69.2687L167.868 70.1756C167.793 70.7047 167.643 71.1582 167.493 71.6872C167.418 71.9895 167.344 72.3674 167.269 72.6697C167.044 73.6522 166.745 74.5592 166.371 75.4661C165.697 77.4311 164.799 79.3961 163.751 81.21C162.778 83.0239 161.506 84.7622 160.158 86.4249C158.811 88.012 157.314 89.5236 155.742 90.884C154.171 92.2444 152.449 93.4536 150.578 94.5117C148.782 95.5698 146.836 96.4767 144.89 97.1569L144.74 97.2325C142.869 97.9127 140.848 98.4417 138.827 98.8196C136.806 99.1975 134.636 99.3487 132.54 99.3487C130.444 99.3487 128.348 99.1975 126.253 98.8196C125.28 98.6685 124.382 98.4417 123.409 98.215C123.109 98.1394 122.81 98.0639 122.51 97.9127C121.986 97.7615 121.537 97.6104 121.013 97.4592L119.217 102.372C121.163 103.052 123.259 103.581 125.28 103.959C129.92 104.79 134.86 104.79 139.575 103.959C141.971 103.581 144.291 102.901 146.536 102.069C148.782 101.238 150.952 100.256 153.048 99.0464C155.144 97.8371 157.09 96.4767 158.961 94.8896C160.832 93.3024 162.553 91.5642 164.05 89.7503C165.547 87.9364 166.969 85.8958 168.167 83.7796C169.365 81.6635 170.412 79.4717 171.236 77.2044C171.236 77.1288 171.311 77.0532 171.311 76.9776C171.311 76.9021 171.385 76.8265 171.385 76.6753C171.76 75.6928 172.059 74.7103 172.284 73.6522C172.358 73.2743 172.433 72.8964 172.508 72.5941C172.658 71.8384 172.882 71.007 173.032 70.2512C173.481 67.9083 173.706 65.4898 173.706 62.9958C173.706 61.8621 173.631 60.7284 173.556 59.5948C173.556 59.2169 173.481 58.839 173.406 58.4611C173.331 57.8565 173.257 57.2518 173.182 56.6472L168.092 57.5542C168.242 58.2344 168.317 58.9901 168.392 59.6703Z" fill="#E9BC79"/>
<path d="M185.756 77.8846C186.205 76.1463 186.654 74.3324 186.953 72.5942C187.477 69.4955 187.777 66.2456 187.777 62.9202C187.777 59.5948 187.477 56.3449 186.953 53.2462C186.579 51.0545 186.055 48.7872 185.382 46.5954C185.082 45.6885 184.783 44.7059 184.483 43.799C183.361 40.7003 182.014 37.7528 180.367 34.9564C178.795 32.16 176.924 29.4392 174.828 27.0207C173.93 25.9627 173.032 24.9801 172.134 23.9976C172.059 23.9221 171.909 23.7709 171.834 23.6953C170.936 22.7884 169.963 21.8815 168.99 21.0501C168.915 20.9745 168.84 20.8989 168.691 20.8234L168.391 21.1257L165.323 24.829C165.398 24.9046 165.398 24.9046 165.472 24.9801C166.371 25.7359 167.194 26.5673 168.017 27.3986C168.167 27.5498 168.317 27.7009 168.466 27.8521C169.14 28.6079 169.813 29.3637 170.487 30.1194C170.562 30.195 170.712 30.3462 170.787 30.4217C170.861 30.4973 170.936 30.5729 171.011 30.6485C171.834 31.631 172.658 32.7647 173.481 33.8983C173.481 33.9739 173.556 33.9739 173.556 34.0495C174.379 35.1831 175.128 36.3924 175.876 37.6772C176.55 38.8865 177.223 40.1713 177.822 41.5317C177.822 41.6073 177.897 41.6073 177.897 41.6828C178.496 42.9677 179.02 44.3281 179.544 45.6885C179.693 46.0663 179.768 46.4442 179.918 46.8221C180.217 47.8046 180.591 48.7871 180.816 49.8452C181.19 51.2056 181.49 52.566 181.714 53.9264C181.714 54.002 181.789 54.0776 181.789 54.2288C182.313 57.1007 182.537 60.0482 182.537 62.9958C182.537 65.4898 182.313 67.9083 182.014 70.3268C182.014 70.478 181.939 70.7047 181.939 70.8559L181.789 71.7628L181.639 72.6697C181.415 73.8034 181.19 74.9371 180.891 76.0707C180.517 77.5067 180.068 78.8671 179.618 80.2275C179.544 80.3787 179.469 80.6054 179.394 80.7566C178.571 83.0239 177.523 85.2157 176.325 87.4074L175.876 88.2388L175.427 88.9945C174.08 91.1863 172.583 93.378 170.861 95.4186C170.786 95.4942 170.637 95.6454 170.562 95.721C169.739 96.7035 168.915 97.6104 168.017 98.5173C167.942 98.5929 167.867 98.6685 167.793 98.7441C166.745 99.8022 165.697 100.785 164.649 101.692C163.526 102.599 162.404 103.505 161.281 104.261C161.206 104.261 161.206 104.337 161.131 104.337C160.009 105.168 158.811 105.924 157.688 106.604C157.613 106.604 157.613 106.68 157.539 106.68C157.464 106.68 157.389 106.755 157.389 106.755C156.266 107.436 155.069 108.04 153.871 108.645C153.796 108.645 153.796 108.72 153.721 108.72C152.374 109.325 151.027 109.93 149.68 110.383C149.53 110.459 149.305 110.534 149.156 110.534C147.584 111.063 146.012 111.592 144.291 111.97C143.542 112.121 142.869 112.272 142.12 112.424L141.671 112.499C141.521 112.499 141.372 112.575 141.222 112.575C141.072 112.575 140.997 112.575 140.848 112.65L140.249 112.802C140.099 112.802 139.875 112.877 139.725 112.877C137.33 113.255 134.935 113.406 132.465 113.406C129.995 113.406 127.525 113.179 125.205 112.877C124.756 112.802 124.232 112.726 123.783 112.65C120.864 112.121 118.019 111.366 115.325 110.383C112.63 109.401 109.936 108.116 107.391 106.604C107.167 106.529 107.017 106.377 106.867 106.302C105.67 105.622 104.547 104.866 103.424 104.035C102.376 103.279 101.254 102.447 100.281 101.54C99.3826 100.785 98.4844 99.9533 97.6611 99.122C97.5863 99.0464 97.4366 98.8952 97.3617 98.8196C96.6132 98.0639 95.7899 97.2325 95.1163 96.4012C95.0415 96.25 94.8918 96.1744 94.8169 96.0233L90.85 99.4243C91.9727 100.709 93.1703 101.994 94.4427 103.203C95.3409 104.035 96.1642 104.866 97.0623 105.622C97.8856 106.377 98.7838 107.058 99.682 107.662C101.403 108.947 103.2 110.156 104.996 111.214C105.894 111.743 106.792 112.197 107.691 112.726C108.888 113.331 110.086 113.935 111.358 114.464C112.107 114.767 112.93 115.069 113.678 115.371H113.753C116.747 116.505 119.891 117.336 122.959 117.865C129.097 118.999 136.058 118.999 142.12 117.865C145.339 117.336 148.482 116.505 151.476 115.371C154.62 114.238 157.539 112.802 160.233 111.214C163.002 109.627 165.622 107.738 168.092 105.622C170.562 103.505 172.882 101.238 174.903 98.7441C176.999 96.25 178.87 93.6048 180.442 90.8084C182.014 88.012 183.436 85.0645 184.558 81.9658C184.783 81.4368 184.933 80.8321 185.157 80.3031C185.307 79.4717 185.531 78.716 185.756 77.8846Z" fill="#CD985A"/>
<path d="M168.242 87.0295C168.017 87.3318 167.793 87.7097 167.568 88.012C166.895 88.9945 166.146 89.9014 165.473 90.8084C163.901 92.6978 162.104 94.5117 160.158 96.1744C158.212 97.8371 156.191 99.2731 154.021 100.558C151.85 101.843 149.53 102.901 147.21 103.732C146.162 104.11 145.039 104.488 143.842 104.79C143.468 104.866 143.093 104.941 142.719 105.093C142.12 105.244 141.447 105.395 140.848 105.546L141.222 107.813L141.746 110.761C142.495 110.61 143.168 110.459 143.917 110.307C144.366 110.232 144.815 110.081 145.264 110.005C146.461 109.703 147.659 109.325 148.782 108.871C148.857 108.871 149.006 108.796 149.081 108.796C149.081 108.796 149.081 108.796 149.156 108.796C150.503 108.342 151.776 107.738 152.973 107.209C153.048 107.209 153.048 107.133 153.123 107.133C154.32 106.604 155.443 106 156.491 105.319C156.566 105.319 156.566 105.244 156.641 105.244C156.715 105.244 156.79 105.168 156.79 105.168C157.913 104.488 159.036 103.808 160.158 103.052C160.233 103.052 160.233 102.976 160.308 102.976C161.431 102.221 162.479 101.314 163.527 100.482C164.574 99.5754 165.622 98.6685 166.595 97.6859C166.67 97.6104 166.745 97.5348 166.82 97.4592C167.643 96.6279 168.466 95.7209 169.215 94.814C169.29 94.7384 169.439 94.5873 169.514 94.5117C170.263 93.6047 170.936 92.6978 171.685 91.7153C171.76 91.6397 171.834 91.4886 171.909 91.413C172.508 90.506 173.182 89.5991 173.706 88.6166C173.781 88.541 173.855 88.3899 173.855 88.3143L169.365 85.6691C168.99 85.9714 168.616 86.5004 168.242 87.0295Z" fill="#E3BD84"/>
<path d="M5.77271 67.4242H1V43.4497H5.77271V67.4242Z" fill="#222222"/>
<path d="M30.482 67.4242H25.4073L16.2244 51.6242V67.3632H11.4517V43.4497H16.5264L25.7093 59.2497V43.4497H30.482V67.4242Z" fill="#222222"/>
<path d="M34.8318 50.6482C34.8318 49.6722 35.013 48.7571 35.3755 47.842C35.738 46.988 36.2817 46.1949 36.8859 45.5849C37.5504 44.9138 38.2754 44.4258 39.1212 44.0598C39.967 43.6938 40.8732 43.5107 41.9002 43.5107H52.7747V48.2691H41.9002C41.5981 48.2691 41.2357 48.3301 40.994 48.4521C40.6919 48.5741 40.4503 48.7571 40.269 48.9401C40.0274 49.1841 39.9066 49.4281 39.7857 49.6722C39.6649 49.9772 39.6045 50.2822 39.6045 50.5872C39.6045 50.8922 39.6649 51.2583 39.7857 51.5023C39.9066 51.8073 40.0878 52.0513 40.269 52.2953C40.5107 52.5393 40.7524 52.6613 40.994 52.7834C41.2961 52.9054 41.5981 52.9664 41.9002 52.9664H46.6729C47.6395 52.9664 48.6062 53.1494 49.452 53.5154C50.2978 53.8814 51.0831 54.4305 51.7477 55.0405C52.4122 55.7115 52.8956 56.4436 53.258 57.3587C53.6205 58.2127 53.8018 59.1888 53.8018 60.1648C53.8018 61.1409 53.6205 62.056 53.258 62.971C52.8956 63.8251 52.3518 64.6181 51.7477 65.2282C51.0831 65.8992 50.3582 66.3873 49.452 66.7533C48.6062 67.1193 47.6395 67.3023 46.6729 67.3023H36.1609V62.483H46.6729C46.975 62.483 47.3375 62.422 47.5791 62.3C47.8812 62.178 48.1229 61.995 48.3041 61.8119C48.5458 61.5679 48.6666 61.3239 48.7874 61.0799C48.9082 60.7749 48.9687 60.4699 48.9687 60.1648C48.9687 59.8598 48.9082 59.4938 48.7874 59.2498C48.6666 58.9448 48.4853 58.7007 48.3041 58.5177C48.0624 58.2737 47.8208 58.1517 47.5791 58.0297C47.2771 57.9077 46.975 57.8467 46.6729 57.8467H41.9002C40.9336 57.8467 40.0274 57.6637 39.1212 57.2977C38.2754 56.9316 37.49 56.3826 36.8859 55.7726C36.2213 55.1015 35.738 54.3695 35.3755 53.4544C35.013 52.6003 34.8318 51.6243 34.8318 50.6482Z" fill="#222222"/>
<path d="M63.0452 67.4242H58.2725V43.4497H63.0452V67.4242Z" fill="#222222"/>
<path d="M87.6336 64.9842C86.5462 65.9603 85.2775 66.6313 83.9483 67.1803C82.6192 67.6684 81.1693 67.9124 79.7194 67.9124C78.5715 67.9124 77.4841 67.7904 76.457 67.4854C75.43 67.1803 74.4634 66.7533 73.5571 66.2043C72.6509 65.6552 71.8051 65.0452 71.0802 64.2521C70.3552 63.5201 69.6906 62.666 69.1469 61.751C68.6032 60.8359 68.1803 59.8599 67.9386 58.7618C67.6366 57.7247 67.5157 56.6267 67.5157 55.4676C67.5157 54.3085 67.6366 53.2104 67.9386 52.1734C68.2407 51.1363 68.6636 50.1602 69.1469 49.2452C69.6906 48.3301 70.2948 47.4761 71.0802 46.744C71.8051 46.012 72.6509 45.3409 73.5571 44.7919C74.4634 44.2428 75.43 43.8158 76.457 43.5718C77.4841 43.2668 78.5715 43.1448 79.7194 43.1448C81.1693 43.1448 82.6192 43.3888 83.9483 43.8768C85.2775 44.3649 86.5462 45.0969 87.6336 46.073L85.1566 50.2212C84.4317 49.4892 83.5859 48.9402 82.6797 48.5131C81.7734 48.0861 80.7464 47.9031 79.7194 47.9031C78.6923 47.9031 77.7257 48.0861 76.8195 48.5131C75.9133 48.9402 75.1279 49.4282 74.4029 50.1602C73.7384 50.8313 73.1947 51.6243 72.7718 52.5394C72.3489 53.4544 72.1676 54.4305 72.1676 55.4676C72.1676 56.5046 72.3489 57.5417 72.7718 58.4568C73.1947 59.3718 73.678 60.1649 74.4029 60.8969C75.0675 61.568 75.9133 62.117 76.8195 62.544C77.7257 62.9711 78.6923 63.1541 79.7194 63.1541C80.3235 63.1541 80.8672 63.0931 81.4714 62.9101C82.0151 62.788 82.5588 62.544 83.1026 62.3V55.5286H87.694V64.9842H87.6336Z" fill="#222222"/>
<path d="M97.4207 67.4242H92.6479V43.4497H97.4207V53.0273H106.906V43.4497H111.678V67.4242H106.906V57.8466H97.4207V67.4242Z" fill="#222222"/>
<path d="M127.326 67.4242H122.613V48.269H115.484V43.4497H134.454V48.269H127.326V67.4242Z" fill="#222222"/>
<path d="M6.0791 73.9907L4.58887 77.771C4.76204 77.7756 4.94434 77.7801 5.13574 77.7847C5.33171 77.7847 5.59147 77.7847 5.91504 77.7847C6.28874 77.7847 6.5804 77.7847 6.79004 77.7847C6.99967 77.7801 7.19564 77.7756 7.37793 77.771L6.0791 73.9907ZM5.70312 72.3501H7.37109C8.02734 74.2733 8.65169 76.0415 9.24414 77.6548C9.84115 79.2635 10.2581 80.3345 10.4951 80.8677C10.5954 81.1092 10.7207 81.2824 10.8711 81.3872C11.026 81.4875 11.2311 81.5376 11.4863 81.5376H11.6367V82.1528C11.0579 82.1255 10.6136 82.1073 10.3037 82.0981C9.99382 82.089 9.73405 82.0845 9.52441 82.0845C9.32389 82.0845 9.06413 82.089 8.74512 82.0981C8.42611 82.1073 7.96354 82.1255 7.35742 82.1528V81.5376H7.48047C7.84049 81.5376 8.08431 81.4966 8.21191 81.4146C8.33952 81.3325 8.40332 81.1867 8.40332 80.9771C8.40332 80.9132 8.39421 80.8381 8.37598 80.7515C8.3623 80.6649 8.3304 80.5441 8.28027 80.3892L7.71973 78.7349C7.45996 78.7303 7.11816 78.7257 6.69434 78.7212C6.27051 78.7121 6.00618 78.7075 5.90137 78.7075C5.7054 78.7075 5.3112 78.7144 4.71875 78.728C4.50456 78.7326 4.33822 78.7349 4.21973 78.7349L4.19238 78.8032C3.74577 79.8924 3.52246 80.5806 3.52246 80.8677C3.52246 81.1047 3.58854 81.2756 3.7207 81.3804C3.85742 81.4852 4.08073 81.5376 4.39062 81.5376H4.51367V82.1528C3.99414 82.1255 3.59082 82.1073 3.30371 82.0981C3.0166 82.089 2.77962 82.0845 2.59277 82.0845C2.43783 82.0845 2.23275 82.089 1.97754 82.0981C1.72689 82.1073 1.36003 82.1255 0.876953 82.1528V81.5376C1.20508 81.5376 1.46712 81.4806 1.66309 81.3667C1.85905 81.2528 2.02539 81.0614 2.16211 80.7925C2.35807 80.437 2.80013 79.4435 3.48828 77.812C4.17643 76.1805 4.91471 74.3599 5.70312 72.3501ZM15.3486 82.0708C15.016 82.0708 14.7061 82.0913 14.4189 82.1323C14.1318 82.1733 13.8812 82.2645 13.667 82.4058C13.4528 82.5516 13.2796 82.7635 13.1475 83.0415C13.0199 83.3241 12.9447 83.7023 12.9219 84.1763L12.334 84.2241C12.334 83.9826 12.3317 83.7524 12.3271 83.5337C12.3226 83.3195 12.3158 83.0962 12.3066 82.8638C12.2975 82.6359 12.2839 82.3898 12.2656 82.1255C12.252 81.8612 12.2337 81.5581 12.2109 81.2163C12.4844 81.2482 12.7168 81.2459 12.9082 81.2095C13.0996 81.173 13.2637 81.0591 13.4004 80.8677C13.5553 80.6489 13.6921 80.3823 13.8105 80.0679C13.929 79.7534 14.027 79.4207 14.1045 79.0698C14.1865 78.7189 14.2503 78.3657 14.2959 78.0103C14.3415 77.6502 14.3711 77.3198 14.3848 77.019C14.403 76.6864 14.3483 76.4266 14.2207 76.2397C14.0977 76.0483 13.8812 75.9526 13.5713 75.9526H13.3662V75.3784C13.5576 75.3921 13.7148 75.4035 13.8379 75.4126C13.9655 75.4217 14.0771 75.4308 14.1729 75.4399C14.2731 75.4445 14.3688 75.4491 14.46 75.4536C14.5557 75.4536 14.665 75.4559 14.7881 75.4604C14.9157 75.4604 15.0706 75.4604 15.2529 75.4604C15.4352 75.4604 15.6654 75.4604 15.9434 75.4604C16.3307 75.4604 16.6725 75.4604 16.9688 75.4604C17.2695 75.4604 17.5566 75.4582 17.8301 75.4536C18.1081 75.4445 18.3906 75.4354 18.6777 75.4263C18.9694 75.4172 19.3021 75.4012 19.6758 75.3784V75.9526H19.5117C19.3613 75.9526 19.2337 75.9868 19.1289 76.0552C19.0241 76.119 18.9375 76.2261 18.8691 76.3765C18.8053 76.5223 18.7598 76.7137 18.7324 76.9507C18.7051 77.1877 18.6914 77.4748 18.6914 77.812V80.2251C18.6914 80.4849 18.6982 80.6877 18.7119 80.8335C18.7256 80.9793 18.7712 81.0864 18.8486 81.1548C18.9261 81.2186 19.0514 81.2528 19.2246 81.2573C19.3978 81.2573 19.6416 81.2437 19.9561 81.2163C19.9287 81.5581 19.9059 81.8589 19.8877 82.1187C19.8695 82.3784 19.8558 82.62 19.8467 82.8433C19.8421 83.0711 19.8376 83.2899 19.833 83.4995C19.833 83.7137 19.833 83.9416 19.833 84.1831L19.252 84.2515C19.2109 83.7729 19.1335 83.3901 19.0195 83.103C18.9056 82.8205 18.7484 82.6017 18.5479 82.4468C18.3519 82.2918 18.1081 82.1916 17.8164 82.146C17.5247 82.0959 17.1761 82.0708 16.7705 82.0708H15.3486ZM14.125 81.2437C14.4531 81.2573 14.7266 81.2664 14.9453 81.271C15.1686 81.271 15.3783 81.271 15.5742 81.271C15.8066 81.271 16.0436 81.2687 16.2852 81.2642C16.5267 81.2596 16.7865 81.2528 17.0645 81.2437C17.069 81.0249 17.0736 80.8381 17.0781 80.6831C17.0827 80.5282 17.0872 80.3937 17.0918 80.2798C17.0964 80.1613 17.0986 80.0519 17.0986 79.9517C17.1032 79.8514 17.1055 79.7466 17.1055 79.6372C17.11 79.5278 17.1123 79.4048 17.1123 79.2681C17.1123 79.1268 17.1123 78.9582 17.1123 78.7622C17.1123 78.5799 17.1123 78.425 17.1123 78.2974C17.1123 78.1652 17.11 78.0467 17.1055 77.9419C17.1055 77.8371 17.1032 77.7368 17.0986 77.6411C17.0986 77.5409 17.0964 77.4315 17.0918 77.313C17.0918 77.1945 17.0895 77.0578 17.085 76.9028C17.0804 76.7479 17.0758 76.561 17.0713 76.3423C16.9801 76.3377 16.8958 76.3354 16.8184 76.3354C16.7409 76.3309 16.6634 76.3286 16.5859 76.3286C16.513 76.3241 16.4355 76.3218 16.3535 76.3218C16.2715 76.3172 16.1781 76.3149 16.0732 76.3149C15.8864 76.3149 15.736 76.3172 15.6221 76.3218C15.5081 76.3263 15.3965 76.3332 15.2871 76.3423C15.2415 76.9621 15.18 77.534 15.1025 78.0581C15.0251 78.5822 14.9362 79.0516 14.8359 79.4663C14.7402 79.881 14.6309 80.2388 14.5078 80.5396C14.3893 80.8358 14.2617 81.0705 14.125 81.2437ZM22.5059 82.0708C22.1139 82.0708 21.5397 82.0981 20.7832 82.1528V81.5786H20.9404C21.1592 81.5786 21.3278 81.5125 21.4463 81.3804C21.5693 81.2437 21.6582 81.0705 21.7129 80.8608C21.7676 80.6512 21.7995 80.4188 21.8086 80.1636C21.8177 79.9038 21.8223 79.6509 21.8223 79.4048V77.6821C21.8223 77.4224 21.8177 77.1854 21.8086 76.9712C21.7995 76.757 21.7676 76.5747 21.7129 76.4243C21.6628 76.2739 21.5807 76.1577 21.4668 76.0757C21.3574 75.9937 21.2002 75.9526 20.9951 75.9526H20.8379V75.3784C21.2207 75.4058 21.5671 75.4263 21.877 75.4399C22.1914 75.4536 22.4466 75.4604 22.6426 75.4604C22.9434 75.4604 23.2419 75.4468 23.5381 75.4194C23.8389 75.3921 24.1283 75.3784 24.4062 75.3784C24.8848 75.3784 25.2926 75.4263 25.6299 75.522C25.9671 75.6131 26.2428 75.7384 26.457 75.8979C26.6712 76.0575 26.8262 76.2443 26.9219 76.4585C27.0221 76.6727 27.0723 76.8983 27.0723 77.1353C27.0723 77.2993 27.0404 77.4588 26.9766 77.6138C26.9173 77.7687 26.833 77.91 26.7236 78.0376C26.6188 78.1652 26.4958 78.2769 26.3545 78.3726C26.2132 78.4683 26.0628 78.5366 25.9033 78.5776C26.1312 78.6232 26.3385 78.6938 26.5254 78.7896C26.7168 78.8807 26.8786 78.9969 27.0107 79.1382C27.1475 79.2749 27.2523 79.4367 27.3252 79.6235C27.4027 79.8058 27.4414 80.0109 27.4414 80.2388C27.4414 80.5623 27.3708 80.8449 27.2295 81.0864C27.0928 81.328 26.8968 81.5308 26.6416 81.6948C26.391 81.8543 26.0902 81.9751 25.7393 82.0571C25.3929 82.1392 25.0078 82.1802 24.584 82.1802C24.4108 82.1802 24.2559 82.1733 24.1191 82.1597C23.987 82.1506 23.848 82.1392 23.7021 82.1255C23.5563 82.1118 23.39 82.1004 23.2031 82.0913C23.0163 82.0776 22.7839 82.0708 22.5059 82.0708ZM23.4082 81.2505C23.6224 81.3097 23.8206 81.3462 24.0029 81.3599C24.1852 81.3735 24.3083 81.3804 24.3721 81.3804C24.6273 81.3804 24.8415 81.3485 25.0146 81.2847C25.1878 81.2209 25.3268 81.1366 25.4316 81.0317C25.541 80.9269 25.6185 80.8062 25.6641 80.6694C25.7096 80.5282 25.7324 80.3823 25.7324 80.2319C25.7324 80.0633 25.7051 79.9084 25.6504 79.7671C25.5957 79.6258 25.5068 79.505 25.3838 79.4048C25.2607 79.3045 25.1012 79.2271 24.9053 79.1724C24.7139 79.1131 24.4792 79.0835 24.2012 79.0835C24.069 79.0835 23.9414 79.0881 23.8184 79.0972C23.6999 79.1063 23.5586 79.1222 23.3945 79.145L23.4082 81.2505ZM23.4014 78.3384C23.5472 78.3475 23.6839 78.3566 23.8115 78.3657C23.9391 78.3748 24.0622 78.3794 24.1807 78.3794C24.3311 78.3794 24.4723 78.3748 24.6045 78.3657C24.7367 78.3566 24.8825 78.3429 25.042 78.3247C25.1833 78.188 25.2949 78.0353 25.377 77.8667C25.4635 77.6981 25.5068 77.5044 25.5068 77.2856C25.5068 77.0076 25.4408 76.7912 25.3086 76.6362C25.1764 76.4767 25.0101 76.3605 24.8096 76.2876C24.609 76.2147 24.3857 76.1782 24.1396 76.1782C23.8936 76.1737 23.6589 76.1873 23.4355 76.2192L23.4014 78.3384ZM31.9395 76.062C31.3789 76.062 30.9437 76.2716 30.6338 76.6909C30.3285 77.1056 30.1758 77.6935 30.1758 78.4546C30.1758 79.3797 30.3512 80.1134 30.7021 80.6558C31.0531 81.1981 31.5247 81.4692 32.1172 81.4692C32.6823 81.4692 33.1266 81.2505 33.4502 80.813C33.7783 80.3755 33.9424 79.7762 33.9424 79.0151C33.9424 78.1082 33.7601 77.3905 33.3955 76.8618C33.0355 76.3286 32.5501 76.062 31.9395 76.062ZM32.0762 75.1665C33.1471 75.1665 34.0244 75.4969 34.708 76.1577C35.3916 76.814 35.7334 77.6457 35.7334 78.6528C35.7334 79.7101 35.3757 80.5942 34.6602 81.3052C33.9492 82.0116 33.0605 82.3647 31.9941 82.3647C30.9277 82.3647 30.0573 82.0321 29.3828 81.3667C28.7083 80.7013 28.3711 79.8491 28.3711 78.8101C28.3711 77.7892 28.7311 76.9279 29.4512 76.2261C30.1758 75.5197 31.0508 75.1665 32.0762 75.1665ZM36.5469 75.9526V75.3784C36.9297 75.4058 37.276 75.4263 37.5859 75.4399C37.9004 75.4536 38.1556 75.4604 38.3516 75.4604C38.5566 75.4604 38.7913 75.4536 39.0557 75.4399C39.32 75.4263 39.6458 75.4058 40.0332 75.3784V75.9526H39.9238C39.6276 75.9526 39.418 76.0597 39.2949 76.2739C39.1719 76.4836 39.1104 76.8345 39.1104 77.3267V78.8032L41.0381 76.814C41.152 76.7 41.2386 76.5907 41.2979 76.4858C41.3617 76.381 41.3936 76.2899 41.3936 76.2124C41.3981 76.1304 41.3685 76.0666 41.3047 76.021C41.2454 75.9754 41.1497 75.9526 41.0176 75.9526H40.874V75.3716C41.0882 75.3853 41.2705 75.3966 41.4209 75.4058C41.5758 75.4149 41.708 75.424 41.8174 75.4331C41.9313 75.4377 42.0293 75.4422 42.1113 75.4468C42.1934 75.4468 42.2731 75.4468 42.3506 75.4468C42.5557 75.4468 42.7858 75.4422 43.041 75.4331C43.2962 75.4194 43.597 75.4012 43.9434 75.3784V75.9731C43.7246 75.9458 43.5264 75.9549 43.3486 76.0005C43.1709 76.0461 42.9909 76.1281 42.8086 76.2466C42.6309 76.3605 42.4395 76.5132 42.2344 76.7046C42.0339 76.896 41.8014 77.1239 41.5371 77.3882L40.6211 78.3384L42.0977 79.979C42.4258 80.3436 42.6992 80.6398 42.918 80.8677C43.1413 81.091 43.3281 81.2642 43.4785 81.3872C43.6335 81.5103 43.7633 81.5923 43.8682 81.6333C43.973 81.6743 44.0755 81.6948 44.1758 81.6948V82.187C44.0755 82.1961 43.957 82.2098 43.8203 82.228C43.6836 82.2463 43.5332 82.2576 43.3691 82.2622C43.2051 82.2668 43.0296 82.2554 42.8428 82.228C42.6559 82.2052 42.4622 82.1551 42.2617 82.0776C42.0612 81.9956 41.8561 81.8817 41.6465 81.7358C41.4414 81.59 41.2386 81.3963 41.0381 81.1548L39.1104 78.8784V80.2046C39.1104 80.4871 39.1217 80.7173 39.1445 80.895C39.1673 81.0728 39.2061 81.2118 39.2607 81.312C39.3154 81.4123 39.3883 81.4829 39.4795 81.5239C39.5752 81.5604 39.696 81.5786 39.8418 81.5786H39.9512V82.1528C39.1855 82.0981 38.6068 82.0708 38.2148 82.0708C37.8229 82.0708 37.2487 82.0981 36.4922 82.1528V81.5786H36.6494C36.8682 81.5786 37.0368 81.5125 37.1553 81.3804C37.2783 81.2437 37.3672 81.0705 37.4219 80.8608C37.4766 80.6512 37.5085 80.4188 37.5176 80.1636C37.5267 79.9038 37.5312 79.6509 37.5312 79.4048V77.6821C37.5312 77.4224 37.5267 77.1854 37.5176 76.9712C37.5085 76.757 37.4766 76.5747 37.4219 76.4243C37.3717 76.2739 37.2897 76.1577 37.1758 76.0757C37.0664 75.9937 36.9092 75.9526 36.7041 75.9526H36.5469ZM48.667 78.8921C48.5667 78.9194 48.4209 78.9604 48.2295 79.0151C46.9261 79.3752 46.2744 79.8013 46.2744 80.2935C46.2744 80.5669 46.3633 80.797 46.541 80.9839C46.7188 81.1662 46.9421 81.2573 47.2109 81.2573C47.3841 81.2573 47.5801 81.214 47.7988 81.1274C48.0221 81.0409 48.3115 80.8927 48.667 80.6831V78.8921ZM51.3945 80.9907L51.6475 81.5103C51.2327 81.7837 50.859 81.9888 50.5264 82.1255C50.1982 82.2576 49.9043 82.3237 49.6445 82.3237C49.3301 82.3237 49.0885 82.244 48.9199 82.0845C48.7559 81.9204 48.6602 81.6743 48.6328 81.3462C48.1361 81.6925 47.7168 81.9432 47.375 82.0981C47.0332 82.2485 46.7256 82.3237 46.4521 82.3237C45.9736 82.3237 45.5658 82.1392 45.2285 81.77C44.8913 81.3963 44.7227 80.9497 44.7227 80.4302C44.7227 79.5552 45.7002 78.8921 47.6553 78.4409C48.0791 78.3407 48.4118 78.2609 48.6533 78.2017C48.6579 78.0877 48.6602 77.9784 48.6602 77.8735C48.6647 77.7642 48.667 77.6593 48.667 77.5591C48.667 77.0715 48.5713 76.716 48.3799 76.4927C48.193 76.2694 47.8923 76.1577 47.4775 76.1577C47.2087 76.1577 46.9762 76.2124 46.7803 76.3218C46.5889 76.4312 46.4863 76.5588 46.4727 76.7046C46.4681 76.7274 46.4658 76.757 46.4658 76.7935C46.4385 77.2492 46.1514 77.4771 45.6045 77.4771C45.3994 77.4771 45.2422 77.4429 45.1328 77.3745C45.0234 77.3062 44.9688 77.2059 44.9688 77.0737C44.9688 76.7091 45.3037 76.3013 45.9736 75.8501C46.6481 75.3944 47.3545 75.1665 48.0928 75.1665C48.8128 75.1665 49.3597 75.3556 49.7334 75.7339C50.1071 76.1076 50.2939 76.6567 50.2939 77.3813C50.2939 77.6001 50.2757 78.0535 50.2393 78.7417C50.2074 79.4253 50.1914 80.0018 50.1914 80.4712C50.1914 80.7492 50.2279 80.9497 50.3008 81.0728C50.3737 81.1958 50.4876 81.2573 50.6426 81.2573C50.7292 81.2573 50.8363 81.2345 50.9639 81.189C51.0915 81.1434 51.235 81.0773 51.3945 80.9907ZM56.1045 80.2046C56.1045 80.4871 56.1136 80.7173 56.1318 80.895C56.1546 81.0728 56.1934 81.2118 56.248 81.312C56.3073 81.4123 56.3893 81.4829 56.4941 81.5239C56.599 81.5604 56.7357 81.5786 56.9043 81.5786H57.082V82.1528C56.6947 82.1255 56.3415 82.105 56.0225 82.0913C55.7035 82.0776 55.4414 82.0708 55.2363 82.0708C55.0404 82.0708 54.7943 82.0776 54.498 82.0913C54.2064 82.105 53.8691 82.1255 53.4863 82.1528V81.5786H53.6436C53.8395 81.5786 53.9945 81.5148 54.1084 81.3872C54.2269 81.255 54.3158 81.0796 54.375 80.8608C54.4388 80.6421 54.4798 80.3869 54.498 80.0952C54.5163 79.8035 54.5254 79.4937 54.5254 79.1655V78.5845L54.5186 76.2944H54.0059C53.7005 76.2944 53.4544 76.3218 53.2676 76.3765C53.0807 76.4266 52.9258 76.5086 52.8027 76.6226C52.6842 76.7365 52.5885 76.8823 52.5156 77.0601C52.4473 77.2378 52.3766 77.452 52.3037 77.7026L51.7705 77.5796C51.8161 77.4019 51.8548 77.215 51.8867 77.019C51.9232 76.8231 51.9528 76.6271 51.9756 76.4312C51.9984 76.2306 52.0166 76.0324 52.0303 75.8364C52.0485 75.6405 52.0645 75.4559 52.0781 75.2827C52.2422 75.342 52.4906 75.3875 52.8232 75.4194C53.1559 75.4468 53.598 75.4604 54.1494 75.4604H56.5078C56.8815 75.4604 57.1846 75.4559 57.417 75.4468C57.654 75.4377 57.8477 75.4263 57.998 75.4126C58.1484 75.3944 58.2692 75.3761 58.3604 75.3579C58.4561 75.3351 58.5518 75.3123 58.6475 75.2896C58.6475 75.481 58.6475 75.6678 58.6475 75.8501C58.652 76.0324 58.6589 76.217 58.668 76.4038C58.6816 76.5861 58.6976 76.7729 58.7158 76.9644C58.7386 77.1558 58.7705 77.3563 58.8115 77.5659L58.292 77.6479C58.2236 77.4019 58.1553 77.1945 58.0869 77.0259C58.0186 76.8527 57.9274 76.7114 57.8135 76.6021C57.7041 76.4927 57.5583 76.4152 57.376 76.3696C57.1937 76.3195 56.9521 76.2944 56.6514 76.2944H56.125C56.1204 76.5998 56.1159 76.9256 56.1113 77.272C56.1068 77.6138 56.1045 77.9692 56.1045 78.3384V80.2046ZM64.9365 80.5737L65.3125 81.2437C64.8021 81.6219 64.3145 81.9067 63.8496 82.0981C63.3848 82.285 62.9427 82.3784 62.5234 82.3784C61.5846 82.3784 60.8145 82.0571 60.2129 81.4146C59.6159 80.772 59.3174 79.9448 59.3174 78.9331C59.3174 77.8713 59.6911 76.978 60.4385 76.2534C61.1859 75.5288 62.1156 75.1665 63.2275 75.1665C63.8519 75.1665 64.3236 75.2599 64.6426 75.4468C64.9661 75.6291 65.1279 75.9002 65.1279 76.2603C65.1279 76.4653 65.0527 76.6499 64.9023 76.814C64.752 76.978 64.5811 77.0601 64.3896 77.0601C64.2256 77.0601 63.9658 76.9188 63.6104 76.6362C63.2549 76.3491 62.9222 76.2056 62.6123 76.2056C62.1338 76.2056 61.751 76.4038 61.4639 76.8003C61.1813 77.1968 61.04 77.73 61.04 78.3999C61.04 79.2567 61.236 79.9289 61.6279 80.4165C62.0244 80.9041 62.5667 81.1479 63.2549 81.1479C63.5146 81.1479 63.7812 81.1001 64.0547 81.0044C64.3327 80.9087 64.6266 80.7651 64.9365 80.5737ZM66.0234 75.9526V75.3784C66.4062 75.4058 66.7526 75.4263 67.0625 75.4399C67.377 75.4536 67.6322 75.4604 67.8281 75.4604C68.0332 75.4604 68.2679 75.4536 68.5322 75.4399C68.7965 75.4263 69.1224 75.4058 69.5098 75.3784V75.9526H69.4004C69.1042 75.9526 68.8945 76.0597 68.7715 76.2739C68.6484 76.4836 68.5869 76.8345 68.5869 77.3267V78.8032L70.5146 76.814C70.6286 76.7 70.7152 76.5907 70.7744 76.4858C70.8382 76.381 70.8701 76.2899 70.8701 76.2124C70.8747 76.1304 70.8451 76.0666 70.7812 76.021C70.722 75.9754 70.6263 75.9526 70.4941 75.9526H70.3506V75.3716C70.5648 75.3853 70.7471 75.3966 70.8975 75.4058C71.0524 75.4149 71.1846 75.424 71.2939 75.4331C71.4079 75.4377 71.5059 75.4422 71.5879 75.4468C71.6699 75.4468 71.7497 75.4468 71.8271 75.4468C72.0322 75.4468 72.2624 75.4422 72.5176 75.4331C72.7728 75.4194 73.0736 75.4012 73.4199 75.3784V75.9731C73.2012 75.9458 73.0029 75.9549 72.8252 76.0005C72.6475 76.0461 72.4674 76.1281 72.2852 76.2466C72.1074 76.3605 71.916 76.5132 71.7109 76.7046C71.5104 76.896 71.278 77.1239 71.0137 77.3882L70.0977 78.3384L71.5742 79.979C71.9023 80.3436 72.1758 80.6398 72.3945 80.8677C72.6178 81.091 72.8047 81.2642 72.9551 81.3872C73.11 81.5103 73.2399 81.5923 73.3447 81.6333C73.4495 81.6743 73.5521 81.6948 73.6523 81.6948V82.187C73.5521 82.1961 73.4336 82.2098 73.2969 82.228C73.1602 82.2463 73.0098 82.2576 72.8457 82.2622C72.6816 82.2668 72.5062 82.2554 72.3193 82.228C72.1325 82.2052 71.9388 82.1551 71.7383 82.0776C71.5378 81.9956 71.3327 81.8817 71.123 81.7358C70.918 81.59 70.7152 81.3963 70.5146 81.1548L68.5869 78.8784V80.2046C68.5869 80.4871 68.5983 80.7173 68.6211 80.895C68.6439 81.0728 68.6826 81.2118 68.7373 81.312C68.792 81.4123 68.8649 81.4829 68.9561 81.5239C69.0518 81.5604 69.1725 81.5786 69.3184 81.5786H69.4277V82.1528C68.6621 82.0981 68.0833 82.0708 67.6914 82.0708C67.2995 82.0708 66.7253 82.0981 65.9688 82.1528V81.5786H66.126C66.3447 81.5786 66.5133 81.5125 66.6318 81.3804C66.7549 81.2437 66.8438 81.0705 66.8984 80.8608C66.9531 80.6512 66.985 80.4188 66.9941 80.1636C67.0033 79.9038 67.0078 79.6509 67.0078 79.4048V77.6821C67.0078 77.4224 67.0033 77.1854 66.9941 76.9712C66.985 76.757 66.9531 76.5747 66.8984 76.4243C66.8483 76.2739 66.7663 76.1577 66.6523 76.0757C66.543 75.9937 66.3857 75.9526 66.1807 75.9526H66.0234ZM77.7676 76.062C77.207 76.062 76.7718 76.2716 76.4619 76.6909C76.1566 77.1056 76.0039 77.6935 76.0039 78.4546C76.0039 79.3797 76.1794 80.1134 76.5303 80.6558C76.8812 81.1981 77.3529 81.4692 77.9453 81.4692C78.5104 81.4692 78.9548 81.2505 79.2783 80.813C79.6064 80.3755 79.7705 79.7762 79.7705 79.0151C79.7705 78.1082 79.5882 77.3905 79.2236 76.8618C78.8636 76.3286 78.3783 76.062 77.7676 76.062ZM77.9043 75.1665C78.9753 75.1665 79.8525 75.4969 80.5361 76.1577C81.2197 76.814 81.5615 77.6457 81.5615 78.6528C81.5615 79.7101 81.2038 80.5942 80.4883 81.3052C79.7773 82.0116 78.8887 82.3647 77.8223 82.3647C76.7559 82.3647 75.8854 82.0321 75.2109 81.3667C74.5365 80.7013 74.1992 79.8491 74.1992 78.8101C74.1992 77.7892 74.5592 76.9279 75.2793 76.2261C76.0039 75.5197 76.8789 75.1665 77.9043 75.1665ZM88.8076 78.5093L85.957 78.5161C85.4694 78.5161 85.1048 78.5207 84.8633 78.5298C84.6217 78.5343 84.3984 78.548 84.1934 78.5708C84.1934 79.3866 84.3939 80.0269 84.7949 80.4917C85.2005 80.9565 85.7588 81.189 86.4697 81.189C86.8115 81.189 87.1488 81.1366 87.4814 81.0317C87.8187 80.9224 88.1582 80.7583 88.5 80.5396L88.8076 81.1274C88.279 81.5467 87.7594 81.8612 87.249 82.0708C86.7386 82.2759 86.2327 82.3784 85.7314 82.3784C84.779 82.3784 83.9974 82.0617 83.3867 81.4282C82.776 80.7902 82.4707 79.9722 82.4707 78.9741C82.4707 77.8895 82.8011 76.9849 83.4619 76.2603C84.1227 75.5311 84.9339 75.1665 85.8955 75.1665C86.7568 75.1665 87.4541 75.4718 87.9873 76.0825C88.5205 76.6886 88.7939 77.4976 88.8076 78.5093ZM87.1875 77.6753C87.0918 77.1421 86.9163 76.7274 86.6611 76.4312C86.4105 76.1304 86.1097 75.98 85.7588 75.98C85.3395 75.98 84.9932 76.1418 84.7197 76.4653C84.4463 76.7889 84.2754 77.2424 84.207 77.8257H84.6377C85.1982 77.8257 85.6859 77.8143 86.1006 77.7915C86.5153 77.7642 86.8776 77.7254 87.1875 77.6753ZM95.2129 77.1216C95.3359 76.8983 95.4863 76.6932 95.6641 76.5063C95.8464 76.3149 96.0514 76.1532 96.2793 76.021C96.5072 75.8888 96.7601 75.7863 97.0381 75.7134C97.3161 75.6359 97.6146 75.5972 97.9336 75.5972C98.3984 75.5972 98.8337 75.6724 99.2393 75.8228C99.6449 75.9731 99.998 76.1873 100.299 76.4653C100.604 76.7433 100.843 77.0806 101.017 77.4771C101.194 77.869 101.283 78.3065 101.283 78.7896C101.283 79.2909 101.19 79.7603 101.003 80.1978C100.821 80.6307 100.568 81.009 100.244 81.3325C99.9206 81.6515 99.5378 81.9045 99.0957 82.0913C98.6536 82.2736 98.1751 82.3647 97.6602 82.3647C97.1452 82.3647 96.6689 82.2668 96.2314 82.0708C95.7985 81.8748 95.4225 81.5923 95.1035 81.2231C94.7845 80.854 94.5361 80.4051 94.3584 79.8765C94.1807 79.3433 94.0918 78.744 94.0918 78.0786C94.0918 77.4087 94.151 76.8185 94.2695 76.3081C94.388 75.7977 94.5407 75.3534 94.7275 74.9751C94.9189 74.5923 95.1331 74.271 95.3701 74.0112C95.6071 73.7515 95.8441 73.5396 96.0811 73.3755C96.318 73.2069 96.5436 73.0815 96.7578 72.9995C96.9766 72.9129 97.1611 72.8537 97.3115 72.8218L98.4531 72.5962C98.6992 72.5506 98.9202 72.5119 99.1162 72.48C99.3122 72.4435 99.4876 72.3957 99.6426 72.3364C99.7975 72.2726 99.9365 72.1883 100.06 72.0835C100.187 71.9741 100.303 71.8215 100.408 71.6255L100.88 71.7622C100.816 71.9946 100.741 72.2271 100.654 72.4595C100.568 72.6919 100.474 72.9106 100.374 73.1157C100.274 73.3208 100.171 73.5054 100.066 73.6694C99.9661 73.8335 99.8682 73.9611 99.7725 74.0522L97.9199 74.2983C97.5234 74.353 97.1657 74.4146 96.8467 74.4829C96.5277 74.5467 96.252 74.6447 96.0195 74.7769C95.7871 74.909 95.6003 75.0936 95.459 75.3306C95.3177 75.563 95.2243 75.8752 95.1787 76.2671L95.083 77.0669L95.2129 77.1216ZM97.5781 76.5337C97.3138 76.5337 97.0745 76.5838 96.8604 76.6841C96.6462 76.7843 96.4639 76.9302 96.3135 77.1216C96.1631 77.313 96.0469 77.5477 95.9648 77.8257C95.8874 78.0991 95.8486 78.409 95.8486 78.7554C95.8486 79.1746 95.8942 79.5506 95.9854 79.8833C96.0811 80.216 96.2132 80.5008 96.3818 80.7378C96.5505 80.9748 96.751 81.1571 96.9834 81.2847C97.2158 81.4077 97.471 81.4692 97.749 81.4692C98.0225 81.4692 98.2663 81.4168 98.4805 81.312C98.6947 81.2072 98.877 81.0568 99.0273 80.8608C99.1777 80.6649 99.2917 80.4302 99.3691 80.1567C99.4512 79.8787 99.4922 79.5688 99.4922 79.2271C99.4922 78.8169 99.4466 78.4455 99.3555 78.1128C99.2643 77.7801 99.1344 77.4976 98.9658 77.2651C98.7972 77.0282 98.5944 76.8481 98.3574 76.7251C98.125 76.5975 97.8652 76.5337 97.5781 76.5337ZM102.186 75.9526V75.3784C102.568 75.4058 102.915 75.4263 103.225 75.4399C103.539 75.4536 103.794 75.4604 103.99 75.4604C104.195 75.4604 104.43 75.4536 104.694 75.4399C104.959 75.4263 105.285 75.4058 105.672 75.3784V75.9526H105.562C105.266 75.9526 105.057 76.0597 104.934 76.2739C104.811 76.4836 104.749 76.8345 104.749 77.3267V78.3179C105.041 78.327 105.285 78.3338 105.48 78.3384C105.681 78.3384 105.87 78.3384 106.048 78.3384H106.178C106.232 77.8872 106.358 77.4702 106.554 77.0874C106.75 76.7 107 76.3651 107.306 76.0825C107.611 75.7954 107.964 75.5721 108.365 75.4126C108.766 75.2485 109.199 75.1665 109.664 75.1665C110.17 75.1665 110.637 75.2554 111.065 75.4331C111.494 75.6063 111.863 75.8478 112.173 76.1577C112.483 76.4676 112.724 76.8368 112.897 77.2651C113.071 77.689 113.157 78.1515 113.157 78.6528C113.157 79.1769 113.066 79.6646 112.884 80.1157C112.701 80.5669 112.451 80.9588 112.132 81.2915C111.813 81.6242 111.435 81.8862 110.997 82.0776C110.56 82.269 110.088 82.3647 109.582 82.3647C109.081 82.3647 108.627 82.2873 108.222 82.1323C107.816 81.9728 107.465 81.7518 107.169 81.4692C106.877 81.1867 106.645 80.8494 106.472 80.4575C106.299 80.061 106.196 79.6258 106.164 79.1519H105.959C105.768 79.1519 105.569 79.1541 105.364 79.1587C105.159 79.1632 104.954 79.1724 104.749 79.186V80.2046C104.749 80.4871 104.76 80.7173 104.783 80.895C104.806 81.0728 104.845 81.2118 104.899 81.312C104.954 81.4123 105.027 81.4829 105.118 81.5239C105.214 81.5604 105.335 81.5786 105.48 81.5786H105.59V82.1528C104.824 82.0981 104.245 82.0708 103.854 82.0708C103.462 82.0708 102.887 82.0981 102.131 82.1528V81.5786H102.288C102.507 81.5786 102.675 81.5125 102.794 81.3804C102.917 81.2437 103.006 81.0705 103.061 80.8608C103.115 80.6512 103.147 80.4188 103.156 80.1636C103.165 79.9038 103.17 79.6509 103.17 79.4048V77.6821C103.17 77.4224 103.165 77.1854 103.156 76.9712C103.147 76.757 103.115 76.5747 103.061 76.4243C103.01 76.2739 102.928 76.1577 102.814 76.0757C102.705 75.9937 102.548 75.9526 102.343 75.9526H102.186ZM109.493 76.0552C108.965 76.0552 108.557 76.2625 108.27 76.6772C107.987 77.092 107.846 77.6821 107.846 78.4478C107.846 78.908 107.887 79.325 107.969 79.6987C108.055 80.0679 108.176 80.3846 108.331 80.6489C108.491 80.9132 108.682 81.116 108.905 81.2573C109.129 81.3986 109.379 81.4692 109.657 81.4692C109.922 81.4692 110.159 81.4123 110.368 81.2983C110.582 81.1799 110.762 81.0158 110.908 80.8062C111.059 80.592 111.173 80.3345 111.25 80.0337C111.327 79.7284 111.366 79.3888 111.366 79.0151C111.366 78.5594 111.321 78.1493 111.229 77.7847C111.138 77.4201 111.011 77.1102 110.847 76.855C110.683 76.5998 110.484 76.4038 110.252 76.2671C110.024 76.1258 109.771 76.0552 109.493 76.0552ZM116.432 80.9907C116.65 81.1229 116.883 81.2254 117.129 81.2983C117.38 81.3713 117.628 81.4077 117.874 81.4077C118.471 81.4077 118.94 81.2004 119.282 80.7856C119.629 80.3664 119.802 79.7899 119.802 79.0562C119.802 78.2313 119.626 77.5796 119.275 77.1011C118.929 76.6226 118.462 76.3833 117.874 76.3833C117.619 76.3833 117.37 76.4198 117.129 76.4927C116.892 76.561 116.673 76.6613 116.473 76.7935C116.459 77.3859 116.448 77.9465 116.438 78.4751C116.434 79.0037 116.432 79.4868 116.432 79.9243V80.9907ZM116.541 74.9819L116.473 76.0894C116.887 75.7977 117.268 75.5858 117.614 75.4536C117.961 75.3169 118.307 75.2485 118.653 75.2485C119.465 75.2485 120.139 75.5562 120.677 76.1714C121.215 76.7866 121.483 77.5522 121.483 78.4683C121.483 79.5985 121.148 80.5076 120.479 81.1958C119.813 81.8794 118.94 82.2212 117.86 82.2212C117.601 82.2212 117.35 82.2007 117.108 82.1597C116.871 82.1187 116.646 82.0549 116.432 81.9683L116.418 83.3423V83.8892C116.418 84.4178 116.477 84.7482 116.596 84.8804C116.719 85.0125 116.976 85.0786 117.368 85.0786H117.635L117.628 85.6802C117.149 85.6574 116.746 85.6392 116.418 85.6255C116.094 85.6164 115.805 85.6118 115.55 85.6118C115.399 85.6118 115.194 85.6164 114.935 85.6255C114.679 85.6346 114.287 85.6528 113.759 85.6802V85.0786H113.868C114.105 85.0786 114.285 85.0558 114.408 85.0103C114.536 84.9647 114.622 84.894 114.668 84.7983C114.741 84.6479 114.791 84.3631 114.818 83.9438C114.846 83.5291 114.859 82.7316 114.859 81.5513V80.7925V78.0786C114.859 77.3358 114.816 76.8595 114.729 76.6499C114.643 76.4357 114.481 76.3286 114.244 76.3286C114.217 76.3286 114.148 76.3332 114.039 76.3423C113.98 76.3514 113.937 76.356 113.909 76.356L113.841 75.8364C114.315 75.7453 114.775 75.6291 115.222 75.4878C115.673 75.3465 116.113 75.1779 116.541 74.9819ZM126.029 76.062C125.469 76.062 125.034 76.2716 124.724 76.6909C124.418 77.1056 124.266 77.6935 124.266 78.4546C124.266 79.3797 124.441 80.1134 124.792 80.6558C125.143 81.1981 125.615 81.4692 126.207 81.4692C126.772 81.4692 127.216 81.2505 127.54 80.813C127.868 80.3755 128.032 79.7762 128.032 79.0151C128.032 78.1082 127.85 77.3905 127.485 76.8618C127.125 76.3286 126.64 76.062 126.029 76.062ZM126.166 75.1665C127.237 75.1665 128.114 75.4969 128.798 76.1577C129.481 76.814 129.823 77.6457 129.823 78.6528C129.823 79.7101 129.465 80.5942 128.75 81.3052C128.039 82.0116 127.15 82.3647 126.084 82.3647C125.018 82.3647 124.147 82.0321 123.473 81.3667C122.798 80.7013 122.461 79.8491 122.461 78.8101C122.461 77.7892 122.821 76.9279 123.541 76.2261C124.266 75.5197 125.141 75.1665 126.166 75.1665Z" fill="#CD985A"/>
</svg>
