<svg width="22" height="22" viewBox="0 0 22 22" fill="none" xmlns="http://www.w3.org/2000/svg">
<g clip-path="url(#clip0)">
<path d="M17.387 13.6283C16.9366 13.1593 16.3933 12.9086 15.8175 12.9086C15.2464 12.9086 14.6985 13.1547 14.2295 13.6236L12.7623 15.0862C12.6416 15.0212 12.5208 14.9609 12.4047 14.9005C12.2376 14.8169 12.0797 14.738 11.9451 14.6544C10.5707 13.7815 9.32163 12.6439 8.12367 11.172C7.54326 10.4384 7.15323 9.8208 6.86999 9.19396C7.25074 8.84572 7.60363 8.48355 7.94723 8.1353C8.07724 8.00529 8.20725 7.87064 8.33726 7.74063C9.31234 6.76555 9.31234 5.50258 8.33726 4.5275L7.06965 3.25989C6.92571 3.11595 6.77713 2.96737 6.63783 2.81878C6.35924 2.5309 6.06671 2.23374 5.7649 1.95514C5.3145 1.50939 4.77589 1.27258 4.20941 1.27258C3.64293 1.27258 3.09503 1.50939 2.63071 1.95514C2.62606 1.95978 2.62606 1.95978 2.62142 1.96443L1.04271 3.55706C0.448377 4.1514 0.10942 4.87574 0.035128 5.71617C-0.07631 7.072 0.32301 8.33496 0.629464 9.16146C1.38167 11.1906 2.50534 13.0711 4.18155 15.0862C6.21529 17.5147 8.66229 19.4323 11.4575 20.7835C12.5255 21.2896 13.951 21.8886 15.5436 21.9908C15.6411 21.9954 15.7432 22 15.8361 22C16.9087 22 17.8095 21.6147 18.5153 20.8485C18.5199 20.8392 18.5292 20.8346 18.5338 20.8253C18.7753 20.5328 19.0539 20.2681 19.3464 19.9849C19.5461 19.7945 19.7504 19.5948 19.95 19.3859C20.4097 18.9076 20.6512 18.3505 20.6512 17.7793C20.6512 17.2036 20.4051 16.651 19.9361 16.1867L17.387 13.6283ZM19.0492 18.5176C19.0446 18.5176 19.0446 18.5223 19.0492 18.5176C18.8682 18.7126 18.6824 18.8891 18.4828 19.0841C18.181 19.372 17.8745 19.6738 17.5866 20.0127C17.1176 20.5142 16.5651 20.751 15.8408 20.751C15.7711 20.751 15.6968 20.751 15.6272 20.7464C14.2481 20.6581 12.9666 20.1195 12.0054 19.6598C9.37735 18.3876 7.06965 16.5814 5.15199 14.2923C3.56864 12.3839 2.50998 10.6194 1.80885 8.725C1.37703 7.56883 1.21916 6.66804 1.28881 5.81832C1.33524 5.27506 1.54418 4.82467 1.92957 4.43928L3.51292 2.85593C3.74044 2.64234 3.98189 2.52626 4.2187 2.52626C4.51122 2.52626 4.74803 2.7027 4.89661 2.85129C4.90125 2.85593 4.9059 2.86057 4.91054 2.86522C5.19378 3.12988 5.46309 3.40383 5.74633 3.69636C5.89027 3.84494 6.03885 3.99353 6.18744 4.14675L7.45504 5.41436C7.94723 5.90655 7.94723 6.36158 7.45504 6.85377C7.32039 6.98842 7.19038 7.12308 7.05572 7.25309C6.66569 7.65241 6.29423 8.02387 5.89027 8.38604C5.88098 8.39533 5.87169 8.39997 5.86705 8.40926C5.46773 8.80858 5.54202 9.19861 5.6256 9.46327C5.63025 9.4772 5.63489 9.49113 5.63953 9.50506C5.9692 10.3037 6.43353 11.0559 7.1393 11.9521L7.14394 11.9567C8.42548 13.5354 9.77667 14.7659 11.2672 15.7084C11.4575 15.8292 11.6525 15.9267 11.8383 16.0195C12.0054 16.1031 12.1633 16.1821 12.298 16.2656C12.3165 16.2749 12.3351 16.2888 12.3537 16.2981C12.5115 16.3771 12.6601 16.4142 12.8134 16.4142C13.1987 16.4142 13.4402 16.1728 13.5191 16.0938L15.1071 14.5058C15.265 14.348 15.5157 14.1576 15.8083 14.1576C16.0961 14.1576 16.3329 14.3387 16.4769 14.4966C16.4815 14.5012 16.4815 14.5012 16.4862 14.5058L19.0446 17.0643C19.5229 17.5379 19.5229 18.0254 19.0492 18.5176Z" fill="#CD985A"/>
<path d="M11.8894 5.23324C13.1059 5.43755 14.211 6.01331 15.0932 6.89553C15.9754 7.77774 16.5465 8.88284 16.7555 10.0994C16.8066 10.4058 17.0712 10.6194 17.373 10.6194C17.4102 10.6194 17.4427 10.6148 17.4798 10.6101C17.8234 10.5544 18.051 10.2294 17.9952 9.88578C17.7445 8.41387 17.048 7.07197 15.9847 6.00867C14.9214 4.94536 13.5795 4.24887 12.1076 3.99814C11.764 3.94242 11.4436 4.16994 11.3832 4.5089C11.3229 4.84785 11.5458 5.17752 11.8894 5.23324Z" fill="#CD985A"/>
<path d="M21.9744 9.70467C21.5612 7.28089 20.4189 5.07534 18.6638 3.32019C16.9087 1.56505 14.7031 0.422806 12.2793 0.0095565C11.9404 -0.0508058 11.62 0.181357 11.5596 0.520314C11.5039 0.863915 11.7314 1.1843 12.075 1.24466C14.2388 1.61148 16.2122 2.63764 17.7816 4.20241C19.351 5.77183 20.3725 7.74521 20.7393 9.90897C20.7904 10.2154 21.0551 10.429 21.3569 10.429C21.394 10.429 21.4265 10.4244 21.4637 10.4197C21.8026 10.3687 22.0348 10.0436 21.9744 9.70467Z" fill="#CD985A"/>
</g>
<defs>
<clipPath id="clip0">
<rect width="22" height="22" fill="white"/>
</clipPath>
</defs>
</svg>
