<svg width="90" height="90" viewBox="0 0 90 90" fill="none" xmlns="http://www.w3.org/2000/svg">
<g clip-path="url(#clip0)">
<path d="M89.8345 21.3418C89.5247 20.1899 88.769 19.2079 87.735 18.6125C86.7003 18.0142 85.47 17.8524 84.3159 18.1622C83.1633 18.4727 82.1813 19.2277 81.5859 20.2617L80.836 21.5666C80.1235 21.1573 79.2133 21.3982 78.7966 22.107L74.9872 28.6003L73.6822 27.8505C73.3366 27.6505 72.925 27.5963 72.5399 27.7003C72.1539 27.8051 71.8259 28.0584 71.6274 28.4055C71.221 29.1225 71.4685 30.0334 72.1825 30.445L73.4874 31.1949L60.7396 53.2861L57.59 61.7002L56.0903 64.5041C55.2122 66.0317 55.306 67.9305 56.3305 69.3636L52.956 73.5026L52.0114 71.1336C51.5852 70.0776 50.5988 69.3541 49.4644 69.2655C48.3294 69.1762 47.2419 69.7371 46.6568 70.7133L46.1171 71.6279L45.6074 65.6289C45.4903 64.2097 44.3911 63.0688 42.9778 62.8975C41.5637 62.7268 40.2251 63.5741 39.7732 64.9245L36.0839 75.9924C35.8262 76.7752 36.248 77.6188 37.0286 77.8825C37.175 77.9506 37.3325 77.9916 37.4936 78.0018C38.138 78.004 38.7121 77.5932 38.9186 76.9825L42.5926 65.9145L43.1176 72.0028C43.226 73.3019 44.1597 74.3821 45.4295 74.6765C46.6993 74.9708 48.013 74.4114 48.6816 73.2931L49.2367 72.3778L50.1667 74.7328C50.5614 75.7251 51.4541 76.4332 52.5108 76.5907C53.5675 76.7481 54.6279 76.3314 55.2957 75.4974L58.7902 71.0736C59.1769 71.1746 59.5753 71.2251 59.9751 71.2237C61.5825 71.2361 63.0749 70.3896 63.8892 69.0034L65.389 66.4989L71.1031 59.5553L83.9857 37.1938L85.2906 37.9437C85.6384 38.1429 85.8918 38.4717 85.9951 38.8591C86.0991 39.2435 86.0449 39.6536 85.8457 39.9985L79.8467 50.392C79.6204 50.7333 79.5435 51.1521 79.6343 51.552C79.7252 51.9511 79.9749 52.296 80.3264 52.5062C80.672 52.7068 81.0836 52.761 81.4688 52.657C81.8547 52.5523 82.1827 52.2989 82.3812 51.9518L88.3802 41.5583C88.9785 40.5236 89.1403 39.2933 88.8298 38.1392C88.5193 36.9866 87.7643 36.0046 86.7303 35.4092L85.4253 34.6594L89.1747 28.1653C89.5841 27.4528 89.3431 26.5433 88.635 26.1259L89.3849 24.8209C89.9993 23.7701 90.1618 22.5149 89.8345 21.3418V21.3418ZM84.1804 21.7614C84.3789 21.4143 84.7084 21.1602 85.0958 21.0569C85.481 20.9617 85.8882 21.0152 86.2353 21.2071C86.5831 21.4055 86.8365 21.735 86.9405 22.1217C87.0357 22.5069 86.9822 22.914 86.7903 23.2611L86.0405 24.5661L83.4306 23.0664L84.1804 21.7614ZM63.7391 63.6349L62.9892 63.1999L60.7696 61.9096L62.8992 56.2109L67.6232 58.9401L63.7391 63.6349ZM59.2399 67.9686C58.6064 67.527 58.4117 66.6776 58.7902 66.0039L59.5401 64.6996L62.1493 66.1994L61.3994 67.489C61.1893 67.8536 60.8363 68.1129 60.4255 68.2044C60.0146 68.2952 59.5848 68.2103 59.2399 67.9686ZM69.3331 56.4811L64.1441 53.4816L76.142 32.6946L81.3311 35.6941L69.3331 56.4811ZM82.8308 33.0996L77.6418 30.1001L80.6413 24.911L85.8303 27.9105L82.8308 33.0996Z" fill="#DBE1FD"/>
<path d="M23.6657 67.2185L18.3572 72.513L15.1776 69.3334C14.5925 68.7519 13.6478 68.7519 13.0627 69.3334C12.7786 69.6153 12.619 69.9983 12.619 70.3981C12.619 70.798 12.7786 71.1817 13.0627 71.4629L16.2424 74.6425C16.8048 75.2005 17.5649 75.5132 18.3572 75.5125C19.154 75.5169 19.9207 75.2042 20.4868 74.6425L25.7805 69.3334C26.2902 68.738 26.2558 67.8512 25.7022 67.2976C25.1478 66.7433 24.261 66.7088 23.6657 67.2185Z" fill="#DBE1FD"/>
<path d="M5.99896 71.2528C5.99896 78.2938 11.7065 84.0006 18.7468 84.0006C25.7871 84.0006 31.4946 78.2938 31.4946 71.2528C31.4946 70.4246 30.8231 69.7531 29.9949 69.7531C29.1667 69.7531 28.4951 70.4246 28.4951 71.2528C28.4951 76.6366 24.1306 81.0011 18.7468 81.0011C13.3629 81.0011 8.99845 76.6366 8.99845 71.2528C8.99845 65.8689 13.3629 61.5045 18.7468 61.5045C20.8573 61.4986 22.9114 62.1833 24.5957 63.4546C25.2584 63.9518 26.1986 63.817 26.6951 63.1543C27.1924 62.4916 27.0584 61.5521 26.3956 61.0548C22.5328 58.1579 17.3642 57.6921 13.0459 59.8509C8.72677 62.0105 5.99896 66.4248 5.99896 71.2528Z" fill="#DBE1FD"/>
<path d="M53.9908 12.0129C54.819 12.0129 55.4905 11.3421 55.4905 10.5132C55.4905 9.68494 54.819 9.01343 53.9908 9.01343H14.9974C14.1692 9.01343 13.4977 9.68494 13.4977 10.5132V16.5122C13.4977 17.3411 14.1692 18.0119 14.9974 18.0119H53.9908C54.819 18.0119 55.4905 17.3411 55.4905 16.5122C55.4905 15.6839 54.819 15.0124 53.9908 15.0124H16.4972V12.0129H53.9908Z" fill="#DBE1FD"/>
<path d="M19.4967 21.0115C18.6685 21.0115 17.9969 21.683 17.9969 22.5112C17.9969 23.3402 18.6685 24.011 19.4967 24.011H49.4916C50.3198 24.011 50.9913 23.3402 50.9913 22.5112C50.9913 21.683 50.3198 21.0115 49.4916 21.0115H19.4967Z" fill="#DBE1FD"/>
<path d="M58.49 31.5098H25.4957C24.6674 31.5098 23.9959 32.1813 23.9959 33.0095C23.9959 33.8385 24.6674 34.5092 25.4957 34.5092H58.49C59.3183 34.5092 59.9898 33.8385 59.9898 33.0095C59.9898 32.1813 59.3183 31.5098 58.49 31.5098Z" fill="#DBE1FD"/>
<path d="M43.4926 42.0078C43.4926 41.1796 42.8211 40.5081 41.9929 40.5081H11.998C11.1697 40.5081 10.4982 41.1796 10.4982 42.0078C10.4982 42.8368 11.1697 43.5075 11.998 43.5075H41.9929C42.8211 43.5075 43.4926 42.8368 43.4926 42.0078Z" fill="#DBE1FD"/>
<path d="M58.49 40.5081H47.9918C47.1636 40.5081 46.4921 41.1796 46.4921 42.0078C46.4921 42.8368 47.1636 43.5075 47.9918 43.5075H58.49C59.3183 43.5075 59.9898 42.8368 59.9898 42.0078C59.9898 41.1796 59.3183 40.5081 58.49 40.5081Z" fill="#DBE1FD"/>
<path d="M26.9954 51.0063C27.8236 51.0063 28.4952 50.3356 28.4952 49.5066C28.4952 48.6784 27.8236 48.0068 26.9954 48.0068H11.998C11.1697 48.0068 10.4982 48.6784 10.4982 49.5066C10.4982 50.3356 11.1697 51.0063 11.998 51.0063H26.9954Z" fill="#DBE1FD"/>
<path d="M32.9944 51.0063H43.4926C44.3208 51.0063 44.9923 50.3356 44.9923 49.5066C44.9923 48.6784 44.3208 48.0068 43.4926 48.0068H32.9944C32.1661 48.0068 31.4946 48.6784 31.4946 49.5066C31.4946 50.3356 32.1661 51.0063 32.9944 51.0063Z" fill="#DBE1FD"/>
<path d="M67.4885 69.0041C66.6603 69.0041 65.9888 69.6756 65.9888 70.5039V85.5013C65.9888 86.3303 65.3172 87.0011 64.489 87.0011H4.49923C3.67101 87.0011 2.99949 86.3303 2.99949 85.5013V4.5151C2.99949 3.68687 3.67101 3.01536 4.49923 3.01536H64.489C65.3172 3.01536 65.9888 3.68687 65.9888 4.5151V32.6807C65.9888 33.5089 66.6603 34.1805 67.4885 34.1805C68.3167 34.1805 68.9882 33.5089 68.9882 32.6807V4.5151C68.9882 2.03042 66.9737 0.0158691 64.489 0.0158691H4.49923C2.01455 0.0158691 0 2.03042 0 4.5151V85.5013C0 87.9867 2.01455 90.0005 4.49923 90.0005H64.489C66.9737 90.0005 68.9882 87.9867 68.9882 85.5013V70.5039C68.9882 69.6756 68.3167 69.0041 67.4885 69.0041Z" fill="#DBE1FD"/>
</g>
<defs>
<clipPath id="clip0">
<rect width="90" height="90" fill="white"/>
</clipPath>
</defs>
</svg>
