<svg width="88" height="88" viewBox="0 0 88 88" fill="none" xmlns="http://www.w3.org/2000/svg">
<path d="M81.6458 24.0231H80.2301V23.3165C80.2301 22.3673 79.4604 21.5978 78.5113 21.5978C77.5621 21.5978 76.7926 22.3673 76.7926 23.3165V24.0231L49.7004 24.0229V23.3163C49.7004 22.3671 48.9308 21.5976 47.9817 21.5976C47.0326 21.5976 46.2629 22.3671 46.2629 23.3163V24.0229H41.3605V16.4322H42.4073C43.3564 16.4322 44.126 15.6628 44.126 14.7135V9.35735C44.126 7.09444 42.2851 5.25366 40.0222 5.25366H21.613C19.3502 5.25366 17.5093 7.09462 17.5093 9.35735V14.7137C17.5093 15.6629 18.2789 16.4324 19.228 16.4324H20.2746V23.0226C20.2746 23.4807 20.4573 23.9196 20.7823 24.2422C21.1044 24.5621 21.5397 24.7414 21.9933 24.7414C22.0114 24.7415 22.0387 24.7408 22.0636 24.74C22.9971 24.7216 23.7121 23.9593 23.7121 23.0216C23.7121 22.9014 23.7121 16.4324 23.7121 16.4324H37.9232V45.2689H23.7121C23.7121 45.2689 23.7121 38.6105 23.7121 38.4905C23.7121 37.5519 22.9954 36.7889 22.0609 36.7719C22.0373 36.7712 22.011 36.7709 21.9933 36.7707C21.5397 36.7707 21.1042 36.95 20.7821 37.2698C20.4573 37.5925 20.2746 38.0316 20.2746 38.4895V45.2689H19.228C18.7722 45.2689 18.3351 45.4501 18.0127 45.7723C17.6904 46.0946 17.5093 46.5318 17.5093 46.9877V52.344C17.5093 54.6069 19.3502 56.4477 21.613 56.4477H40.0223C42.2851 56.4477 44.126 54.6067 44.126 52.344V46.9877C44.126 46.0384 43.3564 45.2689 42.4073 45.2689H41.3605V37.6782H46.2629V38.3848C46.2629 39.3341 47.0326 40.1035 47.9817 40.1035C48.9308 40.1035 49.7004 39.3341 49.7004 38.3848V37.6782H76.7927V38.3848C76.7927 39.3341 77.5624 40.1035 78.5115 40.1035C79.4608 40.1035 80.2302 39.3341 80.2302 38.3848V37.6782H81.6458H81.646C83.3431 37.6782 84.9388 37.0172 86.139 35.8172C87.3392 34.6171 88 33.0214 88 31.3242V30.3773C88 26.8735 85.1495 24.0231 81.6458 24.0231V24.0231ZM20.9466 12.9947V9.35735C20.9466 8.98988 21.2453 8.69116 21.6128 8.69116H40.022C40.3894 8.69116 40.6883 8.99005 40.6883 9.35735V12.9947H20.9466ZM40.6883 52.3438C40.6883 52.7111 40.3896 53.01 40.0222 53.01H21.6128C21.2453 53.01 20.9466 52.7111 20.9466 52.3438V48.7062H40.6883V52.3438ZM41.3628 34.2407V27.4604H46.2629V34.2407H41.3628ZM49.7004 34.2407V27.4604L76.7926 27.4606V34.2407H49.7004ZM84.5625 31.3242C84.5625 32.1033 84.259 32.8356 83.7081 33.3865C83.1573 33.9374 82.4249 34.2407 81.6458 34.2407H80.2302V27.4606H81.6458C83.254 27.4606 84.5625 28.7691 84.5625 30.3773V31.3242Z" fill="#DBE1FD"/>
<path d="M7.99369 59.2023C8.31613 59.7394 8.88538 60.0367 9.46907 60.0367C9.77002 60.0367 10.0749 59.9577 10.352 59.7915C11.1658 59.3028 11.4296 58.2472 10.9412 57.4332L8.1293 52.7485C7.64066 51.9347 6.58535 51.6709 5.771 52.1594C4.95718 52.648 4.69335 53.7037 5.18182 54.5177L7.99369 59.2023Z" fill="#DBE1FD"/>
<path d="M47.4031 60.4724C47.9368 60.4724 48.4631 60.2245 48.7989 59.7586L57.3349 47.9166C57.8899 47.1466 57.7158 46.0723 56.9456 45.5172C56.1753 44.962 55.1012 45.1367 54.5463 45.9065L46.0103 57.7485C45.4553 58.5185 45.6294 59.5927 46.3995 60.1479C46.7036 60.3668 47.0549 60.4724 47.4031 60.4724V60.4724Z" fill="#DBE1FD"/>
<path d="M11.1592 52.0518C11.4316 52.717 12.0732 53.1193 12.7502 53.1193C12.9673 53.1193 13.188 53.0779 13.4013 52.9906C14.2796 52.6307 14.7 51.6268 14.3399 50.7485L9.90297 39.92C9.54323 39.0417 8.53948 38.6215 7.66086 38.9812C6.78258 39.3411 6.36217 40.3451 6.72225 41.2233L11.1592 52.0518Z" fill="#DBE1FD"/>
<path d="M21.3348 32.1268C22.2313 32.4939 23.2811 32.0317 23.6082 31.1179C23.9341 30.2071 23.4186 29.1795 22.4915 28.8972C20.4625 28.2795 19.3895 31.3157 21.3348 32.1268V32.1268Z" fill="#DBE1FD"/>
<path d="M61.6208 79.309H51.4992V74.1067C51.4992 73.1574 50.7296 72.3879 49.7805 72.3879H38.2817V65.7834H41.839C42.7881 65.7834 43.5578 65.014 43.5578 64.0647C43.5578 63.1154 42.7881 62.3459 41.839 62.3459H9.66023C8.71114 62.3459 7.94148 63.1154 7.94148 64.0647C7.94148 65.014 8.71114 65.7834 9.66023 65.7834H13.2175V72.3877H1.71875C0.769656 72.3877 0 73.1572 0 74.1065V81.0276C0 81.9768 0.769656 82.7463 1.71875 82.7463H61.6208C62.5699 82.7463 63.3395 81.9768 63.3395 81.0276C63.3395 80.0783 62.5699 79.309 61.6208 79.309V79.309ZM16.655 65.7834H34.844V72.3877H16.655V65.7834ZM3.4375 75.8254H48.0617V79.309H3.4375V75.8254Z" fill="#DBE1FD"/>
<path d="M70.7867 80.3704C69.9772 78.4273 66.9363 79.4971 67.5554 81.5264C67.828 82.4201 68.802 82.9435 69.6975 82.6718C70.6526 82.3818 71.1708 81.2926 70.7867 80.3704Z" fill="#DBE1FD"/>
</svg>
