<svg width="88" height="88" viewBox="0 0 88 88" fill="none" xmlns="http://www.w3.org/2000/svg">
<path d="M82.7023 0H27.4134C24.5507 0 22.2301 2.32058 22.2301 5.18333V40.9483H7.02567C3.20884 40.9483 0.114563 44.0426 0.114563 47.8594V61.6816C0.114563 65.4985 3.20884 68.5927 7.02567 68.5927H22.2301V83.4133C22.2301 84.1121 22.6512 84.7421 23.2967 85.0095C23.9423 85.2765 24.6854 85.1291 25.1796 84.635L28.6144 81.2L30.9896 86.9351C31.4765 87.9799 32.4881 88.1721 33.2469 87.8704L39.6321 85.226C40.5102 84.8625 40.931 83.8466 40.5673 82.9685L38.1922 77.2332H43.0498C44.5519 77.2332 45.3713 75.4226 44.2715 74.2837L38.5802 68.5927H45.0366C48.8534 68.5927 51.9477 65.4985 51.9477 61.6816V58.7444H86.1577C87.1119 58.7444 87.8854 57.9709 87.8854 57.0166V5.18333C87.8856 2.32058 85.5649 0 82.7023 0ZM25.6857 5.18333C25.6857 4.23063 26.4607 3.45555 27.4134 3.45555H82.7023C83.655 3.45555 84.4301 4.23063 84.4301 5.18333V13.8222H25.6857V5.18333ZM35.6064 73.778C34.375 73.778 33.5389 75.0292 34.0101 76.1668L36.7135 82.6947L33.521 84.0168L30.8175 77.4887C30.3394 76.3843 28.9014 76.05 27.9993 76.928L25.6855 79.242V60.585L38.8784 73.7778H35.6064V73.778ZM48.4923 61.6816C48.4923 63.587 46.9421 65.1372 45.0368 65.1372H35.1248L25.1796 55.1919C24.0749 54.1128 22.2301 54.882 22.2301 56.4136V65.1372H7.02567C5.12028 65.1372 3.57012 63.587 3.57012 61.6816V47.8594C3.57012 45.954 5.12028 44.4039 7.02567 44.4039H45.0368C46.9421 44.4039 48.4923 45.954 48.4923 47.8594V61.6816ZM51.9479 55.2888V47.8594C51.9479 44.0486 48.8475 40.9483 45.0368 40.9483H25.6857V17.2778H84.4301V55.2888H51.9479ZM32.5968 8.63888C32.5968 9.59313 31.8232 10.3667 30.869 10.3667C29.9147 10.3667 29.1412 9.59313 29.1412 8.63888C29.1412 7.68463 29.9147 6.91111 30.869 6.91111C31.8231 6.91111 32.5968 7.68463 32.5968 8.63888ZM40.3718 8.63888C40.3718 9.59313 39.5982 10.3667 38.644 10.3667C37.6897 10.3667 36.9162 9.59313 36.9162 8.63888C36.9162 7.68463 37.6897 6.91111 38.644 6.91111C39.5981 6.91111 40.3718 7.68463 40.3718 8.63888ZM48.1468 8.63888C48.1468 9.59313 47.3732 10.3667 46.419 10.3667C45.4647 10.3667 44.6912 9.59313 44.6912 8.63888C44.6912 7.68463 45.4647 6.91111 46.419 6.91111C47.3731 6.91111 48.1468 7.68463 48.1468 8.63888ZM36.5707 22.4611C36.5707 23.4152 35.7971 24.1889 34.8429 24.1889H32.5968V26.7805C32.5968 27.7325 31.821 28.5083 30.869 28.5083C29.917 28.5083 29.1412 27.7325 29.1412 26.7805V22.4611C29.1412 21.507 29.9147 20.7333 30.869 20.7333H34.8429C35.7971 20.7333 36.5707 21.507 36.5707 22.4611ZM80.9745 22.4611V26.7805C80.9745 27.7325 80.1987 28.5083 79.2467 28.5083C78.2947 28.5083 77.519 27.7325 77.519 26.7805V24.1889H75.2728C74.3186 24.1889 73.5451 23.4152 73.5451 22.4611C73.5451 21.507 74.3186 20.7333 75.2728 20.7333H79.2467C80.201 20.7333 80.9745 21.507 80.9745 22.4611ZM52.8118 22.4611C52.8118 23.4152 52.0382 24.1889 51.084 24.1889H42.6179C41.6636 24.1889 40.8901 23.4152 40.8901 22.4611C40.8901 21.507 41.6636 20.7333 42.6179 20.7333H51.084C52.0382 20.7333 52.8118 21.507 52.8118 22.4611ZM69.2256 22.4611C69.2256 23.4152 68.4521 24.1889 67.4979 24.1889H59.0317C58.0775 24.1889 57.304 23.4152 57.304 22.4611C57.304 21.507 58.0775 20.7333 59.0317 20.7333H67.4979C68.4521 20.7333 69.2256 21.507 69.2256 22.4611ZM69.2256 46.65C69.2256 47.604 68.4521 48.3777 67.4979 48.3777H59.0317C58.0775 48.3777 57.304 47.604 57.304 46.65C57.304 45.6959 58.0775 44.9222 59.0317 44.9222H67.4979C68.4521 44.9222 69.2256 45.6959 69.2256 46.65ZM80.9745 42.3305V46.65C80.9745 47.604 80.201 48.3777 79.2467 48.3777H75.2728C74.3186 48.3777 73.5451 47.604 73.5451 46.65C73.5451 45.6959 74.3186 44.9222 75.2728 44.9222H77.519V42.3305C77.519 41.3785 78.2947 40.6027 79.2467 40.6027C80.1986 40.6027 80.9745 41.3785 80.9745 42.3305ZM80.9745 34.5555C80.9745 35.5075 80.1987 36.2833 79.2467 36.2833C78.2947 36.2833 77.519 35.5075 77.519 34.5555C77.519 33.6035 78.2947 32.8278 79.2467 32.8278C80.1986 32.8278 80.9745 33.6035 80.9745 34.5555ZM32.5968 34.5555C32.5968 35.5075 31.821 36.2833 30.869 36.2833C29.917 36.2833 29.1412 35.5075 29.1412 34.5555C29.1412 33.6016 29.917 32.8278 30.869 32.8278C31.8208 32.8278 32.5968 33.6016 32.5968 34.5555Z" fill="#DBE1FD"/>
</svg>
