<svg width="93" height="93" viewBox="0 0 93 93" fill="none" xmlns="http://www.w3.org/2000/svg">
<path d="M53.7656 37.7812C53.7656 37.3959 53.6125 37.0263 53.34 36.7538C53.0675 36.4812 52.6979 36.3281 52.3125 36.3281H50.8594C50.474 36.3281 50.1044 36.4812 49.8319 36.7537C49.5593 37.0262 49.4062 37.3959 49.4062 37.7812C49.4062 38.1666 49.5593 38.5363 49.8319 38.8088C50.1044 39.0813 50.474 39.2344 50.8594 39.2344H52.3125C52.6979 39.2344 53.0675 39.0813 53.34 38.8087C53.6125 38.5362 53.7656 38.1666 53.7656 37.7812V37.7812Z" fill="#DBE1FD"/>
<path d="M40.6875 82.8281H37.7812V90.0938H40.6875V82.8281Z" fill="#DBE1FD"/>
<path d="M80.3772 56.2313C77.5497 54.66 74.4973 53.5333 71.327 52.8906L71.3271 52.8902L71.2604 52.8759C71.2526 52.8741 71.2448 52.8725 71.237 52.8711L69.75 52.5741V49.533L72.7322 32.6316C72.9352 31.4822 72.884 30.3023 72.5822 29.1748C72.2803 28.0473 71.7352 26.9996 70.985 26.1054C70.2349 25.2112 69.2979 24.4921 68.2401 23.9988C67.1823 23.5055 66.0292 23.2499 64.862 23.25H45.0469C44.6615 23.25 44.2919 23.4031 44.0194 23.6756C43.7469 23.9481 43.5938 24.3177 43.5938 24.7031V27.6094C43.5943 28.3927 43.8058 29.1615 44.206 29.8349C44.6061 30.5084 45.1802 31.0616 45.868 31.4366L40.8409 41.4907C40.6825 41.8075 40.6452 42.1712 40.7361 42.5136C40.827 42.8559 41.0399 43.1532 41.3346 43.3497L45.2791 45.9794L48.0276 54.2252C48.1241 54.5146 48.3091 54.7662 48.5566 54.9445C48.804 55.1228 49.1013 55.2188 49.4062 55.2188H52.3125V57.3474L48.6984 59.7568L41.9572 62.8209C38.9498 64.1944 36.3541 66.3308 34.428 69.018C32.5018 71.7051 31.3122 74.8495 30.9774 78.1386L30.5229 82.6836C30.5181 82.7316 30.5157 82.7798 30.5156 82.8281V90.0938H33.4219V82.9005L33.8691 78.4278C34.2787 74.4019 36.1952 70.6798 39.2344 68.0079V69.75C39.2344 70.055 39.3303 70.3522 39.5086 70.5997C39.6869 70.8471 39.9386 71.0322 40.2279 71.1286L43.4094 72.189L42.1603 79.6829C42.1165 79.9456 42.1458 80.2152 42.2448 80.4623C42.3439 80.7095 42.5089 80.9247 42.7219 81.0844L54.3469 89.8032C54.5919 89.9869 54.8888 90.0886 55.195 90.0936C55.5012 90.0986 55.8012 90.0067 56.0521 89.831L70.5833 79.6592C70.7416 79.5484 70.8762 79.4072 70.9792 79.2439C71.0822 79.0805 71.1517 78.8982 71.1834 78.7077L72.5021 70.7955L79.0083 68.1929C79.278 68.0851 79.5092 67.8989 79.672 67.6584C79.8349 67.418 79.9219 67.1342 79.9219 66.8438V59.348C82.1518 60.8003 83.9842 62.786 85.2529 65.1253C86.5216 67.4646 87.1865 70.0834 87.1875 72.7446V90.0938H90.0938V72.7446C90.0927 69.3759 89.1913 66.0688 87.483 63.1655C85.7747 60.2621 83.3214 57.8681 80.3772 56.2313V56.2313ZM48.7328 62.9336L50.9663 67.4007L52.2785 71.3373L51.7088 75.3256L47.2513 63.607L48.7328 62.9336ZM57.7681 64.5685L59.2849 66.8438L57.3474 69.75H54.8129L54.0223 67.3779L57.7681 64.5685ZM68.7055 55.3293L70.6681 55.7218C71.1746 55.8231 71.6772 55.9381 72.1759 56.0667L61.3612 64.7189L60.0484 62.7497L68.7055 55.3293ZM55.026 72.6562H56.8646L58.0779 81.1489L55.5214 85.3487L53.843 80.9366L55.026 72.6562ZM60.4557 77.2427L59.6421 71.5471L62.115 67.8378L70.0406 61.4971L60.4557 77.2427ZM46.5 26.1562H64.862C65.6048 26.1562 66.3386 26.3188 67.0118 26.6328C67.6851 26.9467 68.2813 27.4043 68.7587 27.9734C69.2361 28.5425 69.583 29.2093 69.775 29.9269C69.9671 30.6444 69.9996 31.3953 69.8703 32.1268L67.4096 46.0718L66.0991 44.4992C66.5899 43.35 66.8432 42.1134 66.8438 40.8638C66.8424 39.6613 66.3641 38.5084 65.5138 37.6581C64.6634 36.8078 63.5106 36.3295 62.3081 36.3281C62.164 36.3281 62.021 36.3353 61.8794 36.3485L61.0167 30.31C60.9672 29.9638 60.7945 29.647 60.5302 29.4178C60.2659 29.1887 59.9279 29.0625 59.5781 29.0625H47.9531C47.5679 29.0621 47.1985 28.9088 46.9261 28.6364C46.6537 28.364 46.5004 27.9946 46.5 27.6094V26.1562ZM50.4535 52.3125L47.8786 44.5873C47.7764 44.2807 47.5749 44.017 47.306 43.8378L44.014 41.6431L48.8512 31.9688H58.3178L59.1268 37.6318C59.1183 37.6402 59.1093 37.648 59.1008 37.6565L57.0974 39.6599L59.1526 41.7151L61.156 39.7117C61.3838 39.4838 61.6741 39.3286 61.9902 39.2657C62.3063 39.2028 62.6339 39.2351 62.9317 39.3584C63.2294 39.4817 63.4839 39.6906 63.6629 39.9585C63.842 40.2265 63.9375 40.5415 63.9375 40.8638C63.9386 41.9116 63.6805 42.9433 63.1861 43.8671C62.6917 44.7908 61.9764 45.5779 61.104 46.1582L60.7356 46.4037C60.6246 46.4752 60.4927 46.507 60.3614 46.494C60.23 46.481 60.1069 46.4239 60.0122 46.332L59.1526 45.4724L57.0974 47.5276L57.957 48.3872C58.5259 48.956 59.2742 49.3101 60.0747 49.3893C60.8752 49.4686 61.6785 49.268 62.3478 48.8218L62.716 48.5763C63.3574 48.1489 63.943 47.6435 64.4596 47.0716L66.8438 49.9324V53.0973L58.2011 60.5053L55.2188 57.523V54.3677L57.6995 51.887L55.6443 49.8318L53.1636 52.3125H50.4535ZM53.5804 59.9948L55.9127 62.3272L52.8335 64.6366L51.2796 61.5288L53.5804 59.9948ZM45.5065 69.8245L42.1406 68.7027V65.9763C42.473 65.7953 42.8128 65.6254 43.1599 65.4667L44.6002 64.812L52.0767 84.4676L45.1723 79.2893L46.4803 71.4421C46.5372 71.1006 46.4703 70.7501 46.2918 70.4536C46.1133 70.1571 45.8348 69.934 45.5065 69.8245V69.8245ZM70.6635 68.4008C70.4317 68.4935 70.2277 68.6444 70.0711 68.8388C69.9146 69.0333 69.8108 69.2648 69.7697 69.5111L68.417 77.6281L60.0644 83.4749L75.9786 57.3314C76.3271 57.4752 76.6728 57.6259 77.0156 57.7837V65.86L70.6635 68.4008Z" fill="#DBE1FD"/>
<path d="M78.4688 82.8281H75.5625V90.0938H78.4688V82.8281Z" fill="#DBE1FD"/>
<path d="M42.1406 59.5781C42.1383 57.8929 41.5512 56.2608 40.4794 54.9603C39.4077 53.6598 37.9178 52.7715 36.264 52.4472L34.9104 25.3733L36.8168 23.848C37.5333 23.2712 38.3584 22.8443 39.2431 22.5925C40.1277 22.3407 41.054 22.2692 41.9668 22.3823L42.3145 19.4969C41.0184 19.3439 39.7049 19.449 38.4497 19.8063C37.1945 20.1635 36.0225 20.7659 35.0013 21.5785L32.9121 23.25H28.1192L26.0298 21.5785C24.4044 20.2715 22.4041 19.5179 20.3204 19.4275C18.2366 19.3371 16.1785 19.9147 14.4461 21.076C12.3208 22.4959 9.82161 23.2525 7.26562 23.25C6.88023 23.25 6.51062 23.0969 6.23811 22.8244C5.9656 22.5519 5.8125 22.1823 5.8125 21.7969C5.8125 21.4115 5.9656 21.0419 6.23811 20.7694C6.51062 20.4969 6.88023 20.3438 7.26562 20.3438C10.3954 20.3468 13.4557 19.4202 16.0582 17.6816C17.278 16.8639 18.7271 16.4572 20.1943 16.5208C21.6614 16.5845 23.0699 17.1152 24.2143 18.0355L26.7015 20.0254C26.9592 20.2315 27.2794 20.3438 27.6094 20.3438H33.4219C33.7519 20.3438 34.072 20.2315 34.3297 20.0254L36.8168 18.0355C37.9613 17.1153 39.3698 16.5847 40.8369 16.5211C42.3041 16.4574 43.7532 16.864 44.9731 17.6816C47.5756 19.4202 50.6358 20.3468 53.7656 20.3438C54.0209 20.3444 54.2715 20.4119 54.4925 20.5396C54.7135 20.6672 54.8972 20.8506 55.0252 21.0714L57.5409 19.6161C57.1569 18.9547 56.6063 18.4054 55.9439 18.0232C55.2815 17.6409 54.5304 17.439 53.7656 17.4375C51.2096 17.44 48.7105 16.6834 46.5851 15.2635C44.8527 14.1022 42.7945 13.5246 40.7108 13.615C38.6271 13.7054 36.6267 14.459 35.0013 15.766L34.4481 16.2086L33.9775 13.3847C34.9597 12.6564 35.6872 11.6371 36.0565 10.4715C36.4259 9.30598 36.4183 8.05364 36.0349 6.89266C35.6514 5.73167 34.9116 4.72117 33.9207 4.0049C32.9298 3.28863 31.7383 2.90308 30.5156 2.90308C29.293 2.90308 28.1014 3.28863 27.1105 4.0049C26.1196 4.72117 25.3798 5.73167 24.9964 6.89266C24.6129 8.05364 24.6053 9.30598 24.9747 10.4715C25.3441 11.6371 26.0716 12.6564 27.0537 13.3847L26.5831 16.2087L26.0298 15.766C24.4044 14.459 22.4041 13.7053 20.3204 13.6149C18.2366 13.5245 16.1785 14.1021 14.4461 15.2635C12.3208 16.6834 9.82161 17.44 7.26562 17.4375C6.10945 17.4375 5.00062 17.8968 4.18308 18.7144C3.36554 19.5319 2.90625 20.6407 2.90625 21.7969C2.90625 22.9531 3.36554 24.0619 4.18308 24.8794C5.00062 25.697 6.10945 26.1563 7.26562 26.1563C8.0677 26.1561 8.86862 26.0953 9.66154 25.9744L4.58022 34.1048L4.58146 34.1056C4.43637 34.336 4.35939 34.6027 4.35938 34.875V36.3281C4.35938 38.6405 5.27796 40.8582 6.91304 42.4932C8.54812 44.1283 10.7658 45.0469 13.0781 45.0469C15.3905 45.0469 17.6081 44.1283 19.2432 42.4932C20.8783 40.8582 21.7969 38.6405 21.7969 36.3281V34.875C21.7969 34.6027 21.7199 34.336 21.5748 34.1056L21.576 34.1048L15.2555 23.9926C15.5268 23.8341 15.7952 23.6694 16.0582 23.4941C17.278 22.6764 18.7271 22.2697 20.1943 22.3333C21.6614 22.397 23.0699 22.9277 24.2143 23.848L26.1209 25.3733L24.7672 52.4472C23.1135 52.7715 21.6236 53.6598 20.5518 54.9603C19.4801 56.2608 18.8929 57.8929 18.8906 59.5781C18.8906 59.9635 19.0437 60.3331 19.3163 60.6056C19.5888 60.8781 19.9584 61.0313 20.3438 61.0313H40.6875C41.0729 61.0313 41.4425 60.8781 41.715 60.6056C41.9875 60.3331 42.1406 59.9635 42.1406 59.5781V59.5781ZM30.5156 5.81252C31.0904 5.81252 31.6523 5.98297 32.1303 6.30231C32.6082 6.62165 32.9807 7.07555 33.2007 7.6066C33.4206 8.13764 33.4782 8.72199 33.366 9.28575C33.2539 9.84951 32.9771 10.3674 32.5707 10.7738C32.1642 11.1802 31.6464 11.457 31.0826 11.5692C30.5188 11.6813 29.9345 11.6238 29.4035 11.4038C28.8724 11.1838 28.4185 10.8113 28.0992 10.3334C27.7798 9.85547 27.6094 9.29357 27.6094 8.71877C27.6103 7.94826 27.9167 7.20955 28.4616 6.66471C29.0064 6.11988 29.7451 5.8134 30.5156 5.81252V5.81252ZM30.5156 14.5313C30.7494 14.5308 30.9828 14.5162 31.2148 14.4877L31.7064 17.4375H29.3248L29.8164 14.4877C30.0484 14.5162 30.2819 14.5308 30.5156 14.5313V14.5313ZM13.0778 25.992L17.7218 33.4219H8.43431L13.0778 25.992ZM13.0781 42.1406C11.5371 42.1389 10.0597 41.5259 8.97001 40.4363C7.88034 39.3466 7.26739 37.8692 7.26562 36.3281H18.8906C18.8889 37.8692 18.2759 39.3466 17.1862 40.4363C16.0966 41.5259 14.6192 42.1389 13.0781 42.1406V42.1406ZM28.9917 26.1563H32.0395L33.3474 52.3125H27.6839L28.9917 26.1563ZM22.0459 58.125C22.3474 57.2757 22.9043 56.5404 23.6402 56.02C24.3761 55.4997 25.255 55.2198 26.1562 55.2188H34.875C35.7763 55.2198 36.6552 55.4997 37.3911 56.02C38.127 56.5404 38.6839 57.2757 38.9853 58.125H22.0459Z" fill="#DBE1FD"/>
</svg>
