<svg width="88" height="88" viewBox="0 0 88 88" fill="none" xmlns="http://www.w3.org/2000/svg">
<path d="M83.875 37.125C85.3916 37.125 86.625 35.8916 86.625 34.375V20.625C86.625 19.1084 85.3916 17.875 83.875 17.875H51.7729C47.8431 7.97087 38.2236 1.375 27.5 1.375C13.0941 1.375 1.375 13.0941 1.375 27.5C1.375 39.6591 9.73775 49.8754 21.0045 52.7739C20.7611 53.4848 20.625 54.2327 20.625 55V82.5C20.625 84.7743 22.4757 86.625 24.75 86.625H30.25C32.5243 86.625 34.375 84.7743 34.375 82.5V55C34.375 54.2369 34.2416 53.493 33.9996 52.7849C37.0879 51.9915 40.0084 50.6413 42.625 48.7795V59.125C42.625 60.6416 43.8584 61.875 45.375 61.875H83.875C85.3916 61.875 86.625 60.6416 86.625 59.125V45.375C86.625 43.8584 85.3916 42.625 83.875 42.625H48.7864C50.0019 40.92 50.9891 39.0761 51.7619 37.125H83.875ZM34.375 37.125H42.5535C39.2961 42.196 33.6091 45.375 27.5 45.375C17.644 45.375 9.625 37.356 9.625 27.5C9.625 17.644 17.644 9.625 27.5 9.625C33.6091 9.625 39.2961 12.804 42.5535 17.875H34.375C32.8584 17.875 31.625 19.1084 31.625 20.625V34.375C31.625 35.8916 32.8584 37.125 34.375 37.125ZM34.375 34.375V20.625H50.875V34.375H34.375ZM83.8764 34.375H53.625V20.625H83.875L83.8764 34.375ZM30.25 83.875H24.75C23.9924 83.875 23.375 83.2576 23.375 82.5V61.875H31.625V82.5C31.625 83.2576 31.0076 83.875 30.25 83.875ZM31.625 55V59.125H23.375V55C23.375 54.4143 23.5056 53.8477 23.7394 53.3225C24.9714 53.5012 26.2199 53.625 27.5 53.625C28.7691 53.625 30.0218 53.5068 31.262 53.3266C31.4958 53.8505 31.625 54.4156 31.625 55ZM45.375 45.375H64.625V59.125H45.375V45.375ZM83.875 59.125H67.375V45.375H83.875V59.125ZM45.2884 42.6333C43.8419 42.68 42.68 43.8419 42.6346 45.2897C38.4106 48.8854 33.066 50.875 27.5 50.875C14.6108 50.875 4.125 40.3892 4.125 27.5C4.125 14.6108 14.6108 4.125 27.5 4.125C36.7276 4.125 45.0519 9.57688 48.8029 17.875H45.7311C42.1795 11.1691 35.1258 6.875 27.5 6.875C16.1274 6.875 6.875 16.1274 6.875 27.5C6.875 38.8726 16.1274 48.125 27.5 48.125C35.1258 48.125 42.1795 43.8309 45.7311 37.125H48.7946C47.8967 39.1146 46.717 40.9558 45.2884 42.6333V42.6333Z" fill="#DBE1FD"/>
<path d="M78.375 26.125H81.125V28.875H78.375V26.125Z" fill="#DBE1FD"/>
<path d="M72.875 26.125H75.625V28.875H72.875V26.125Z" fill="#DBE1FD"/>
<path d="M67.375 26.125H70.125V28.875H67.375V26.125Z" fill="#DBE1FD"/>
<path d="M61.875 26.125H64.625V28.875H61.875V26.125Z" fill="#DBE1FD"/>
<path d="M56.375 26.125H59.125V28.875H56.375V26.125Z" fill="#DBE1FD"/>
<path d="M47.1528 22.4028L39.875 29.6807L38.0971 27.9028L36.1528 29.8471L39.875 33.5692L49.0971 24.3471L47.1528 22.4028Z" fill="#DBE1FD"/>
<path d="M78.375 67.375H39.875C38.3584 67.375 37.125 68.6084 37.125 70.125V83.875C37.125 85.3916 38.3584 86.625 39.875 86.625H78.375C79.8916 86.625 81.125 85.3916 81.125 83.875V70.125C81.125 68.6084 79.8916 67.375 78.375 67.375ZM39.875 70.125H56.375V83.875H39.875V70.125ZM59.125 83.875V70.125H78.375L78.3764 83.875H59.125Z" fill="#DBE1FD"/>
<path d="M72.875 75.625H75.625V78.375H72.875V75.625Z" fill="#DBE1FD"/>
<path d="M67.375 75.625H70.125V78.375H67.375V75.625Z" fill="#DBE1FD"/>
<path d="M61.875 75.625H64.625V78.375H61.875V75.625Z" fill="#DBE1FD"/>
<path d="M48.125 50.875H50.875V53.625H48.125V50.875Z" fill="#DBE1FD"/>
<path d="M53.625 50.875H56.375V53.625H53.625V50.875Z" fill="#DBE1FD"/>
<path d="M59.125 50.875H61.875V53.625H59.125V50.875Z" fill="#DBE1FD"/>
<path d="M52.6528 71.9028L45.375 79.1807L43.5971 77.4028L41.6528 79.3471L45.375 83.0692L54.5971 73.8471L52.6528 71.9028Z" fill="#DBE1FD"/>
<path d="M70.5278 55.4028L72.4721 57.3471L75.625 54.1942L78.7778 57.3471L80.7221 55.4028L77.5692 52.25L80.7221 49.0971L78.7778 47.1528L75.625 50.3057L72.4721 47.1528L70.5278 49.0971L73.6807 52.25L70.5278 55.4028Z" fill="#DBE1FD"/>
</svg>
