<svg width="93" height="93" viewBox="0 0 93 93" fill="none" xmlns="http://www.w3.org/2000/svg">
<path d="M30.5156 77.0156H33.4219V79.9219H30.5156V77.0156Z" fill="#DBE1FD"/>
<path d="M30.5156 82.8281H33.4219V85.7344H30.5156V82.8281Z" fill="#DBE1FD"/>
<path d="M64 47.9531C65.3165 47.9531 66.556 47.3733 67.3974 46.362L73.3378 39.2344H84.2812C88.2875 39.2344 91.5469 35.975 91.5469 31.9688V17.4375C91.5469 13.4312 88.2875 10.1719 84.2812 10.1719H77.0156C77.0156 5.36348 73.1053 1.45312 68.2969 1.45312C63.4885 1.45312 59.5781 5.36348 59.5781 10.1719H52.3125C48.3062 10.1719 45.0469 13.4312 45.0469 17.4375V25.4602C42.2816 23.173 38.736 21.7969 34.875 21.7969H33.4219C28.6033 21.7969 23.9911 24.0129 20.9744 27.7532C16.3753 28.8634 13.0781 33.0165 13.0781 37.7812C13.0781 42.7974 15.2288 47.4998 18.9691 50.8143C19.4559 55.3335 22.2561 59.1582 26.1562 61.1039V64.2398L16.0163 66.6258C7.44145 68.6427 1.45312 76.2048 1.45312 85.0136V91.5469H62.4844V85.0136C62.4844 82.167 61.8508 79.4554 60.7159 77.0156H66.1622L72.1026 84.1417C72.944 85.1546 74.1835 85.7344 75.5 85.7344C77.9384 85.7344 79.9219 83.7509 79.9219 81.3125V77.0156H84.2812C88.2875 77.0156 91.5469 73.7563 91.5469 69.75V58.125C91.5469 54.1187 88.2875 50.8594 84.2812 50.8594H55.2188C51.2125 50.8594 47.9531 54.1187 47.9531 58.125V66.6345C47.9415 66.6316 47.9313 66.6272 47.9212 66.6258L37.7812 64.2398V61.1039C41.6814 59.1582 44.4816 55.3321 44.9684 50.8143C48.344 47.8223 50.4089 43.6998 50.7795 39.2344H59.5781V43.5313C59.5781 45.9696 61.5616 47.9531 64 47.9531V47.9531ZM68.2969 4.35938C71.5025 4.35938 74.1094 6.96628 74.1094 10.1719C74.1094 13.3775 71.5025 15.9844 68.2969 15.9844C65.0913 15.9844 62.4844 13.3775 62.4844 10.1719C62.4844 6.96628 65.0913 4.35938 68.2969 4.35938ZM27.018 67.0225L30.1523 71.2031L26.768 75.7151L23.8414 67.7694L27.018 67.0225ZM31.9688 73.624L35.9736 78.9628L32.409 88.6406H31.5299L27.9654 78.9628L31.9688 73.624ZM4.35938 85.0136C4.35938 77.5591 9.42642 71.161 16.6833 69.4536L20.9889 68.4407L28.4318 88.6406H15.9844V79.9219H13.0781V88.6406H4.35938V85.0136ZM50.8594 58.125C50.8594 55.7215 52.8153 53.7656 55.2188 53.7656H84.2812C86.6847 53.7656 88.6406 55.7215 88.6406 58.125V69.75C88.6406 72.1535 86.6847 74.1094 84.2812 74.1094H77.0156V81.3125C77.0156 82.1481 76.3356 82.8281 75.5 82.8281C75.0481 82.8281 74.6238 82.629 74.3361 82.2832L67.5253 74.1094H59.0259C57.0075 71.2496 54.2045 68.9624 50.8594 67.5776V58.125ZM59.5781 85.0136V88.6406H50.8594V79.9219H47.9531V88.6406H35.5057L42.9471 68.4407L47.2527 69.4536C54.5111 71.1624 59.5781 77.5605 59.5781 85.0136ZM40.0975 67.7708L37.1709 75.7165L33.7852 71.2031L36.9195 67.0225L40.0975 67.7708ZM34.875 64.9067L31.9688 68.7822L29.0625 64.9067V62.1473C29.9983 62.3609 30.969 62.4844 31.9688 62.4844C32.9685 62.4844 33.9392 62.3609 34.875 62.1473V64.9067ZM42.1406 49.4062C42.1406 55.0153 37.5764 59.5781 31.9688 59.5781C26.3611 59.5781 21.7969 55.0153 21.7969 49.4062V42.5809C21.7969 41.5361 22.6455 40.6875 23.6903 40.6875C24.0652 40.6875 24.4285 40.7979 24.7409 41.0057L28.6222 43.5938H37.7812C40.1847 43.5938 42.1406 45.5497 42.1406 47.9531V49.4062ZM44.9175 46.6686C44.3058 43.2755 41.3472 40.6875 37.7812 40.6875H29.5028L26.3524 38.5877C25.5619 38.0603 24.6406 37.7812 23.6903 37.7812C21.0427 37.7812 18.8906 39.9333 18.8906 42.5809V46.4811C17.0248 43.9934 15.9844 40.9621 15.9844 37.7812C15.9844 34.2618 18.4896 31.2059 21.9422 30.5156L22.6281 30.3776L22.9594 29.9344C25.4166 26.659 29.3284 24.7031 33.4219 24.7031H34.875C42.0869 24.7031 47.9531 30.5708 47.9531 37.7812C47.9531 41.0406 46.8705 44.1474 44.9175 46.6686ZM50.7853 36.3281C50.5266 33.4771 49.5152 30.8426 47.9531 28.6193V17.4375C47.9531 15.034 49.909 13.0781 52.3125 13.0781H60.0867C60.6447 14.6504 61.6372 16.0134 62.9261 17.0263C57.567 19.1667 53.7656 24.4009 53.7656 30.5156V33.4219H82.8281V30.5156C82.8281 24.4009 79.0267 19.1667 73.6676 17.0263C74.9565 16.0134 75.949 14.6504 76.507 13.0781H84.2812C86.6847 13.0781 88.6406 15.034 88.6406 17.4375V31.9688C88.6406 34.3722 86.6847 36.3281 84.2812 36.3281H71.9747L65.1625 44.502C64.8762 44.8478 64.4519 45.0469 64 45.0469C63.1644 45.0469 62.4844 44.3668 62.4844 43.5313V36.3281H50.7853ZM68.2969 18.8906C74.7066 18.8906 79.9219 24.1059 79.9219 30.5156H56.6719C56.6719 24.1059 61.8871 18.8906 68.2969 18.8906Z" fill="#DBE1FD"/>
<path d="M53.7656 56.6719H85.7344V59.5781H53.7656V56.6719Z" fill="#DBE1FD"/>
<path d="M53.7656 62.4844H85.7344V65.3906H53.7656V62.4844Z" fill="#DBE1FD"/>
<path d="M59.5781 68.2969H79.9219V71.2031H59.5781V68.2969Z" fill="#DBE1FD"/>
<path d="M82.8281 68.2969H85.7344V71.2031H82.8281V68.2969Z" fill="#DBE1FD"/>
</svg>
