<svg width="90" height="90" viewBox="0 0 90 90" fill="none" xmlns="http://www.w3.org/2000/svg">
<path d="M85.5 18H66V12C65.9949 7.85962 62.6404 4.50513 58.5 4.5H31.5C27.3596 4.50513 24.0051 7.85962 24 12V18H4.5C2.01489 18 0 20.0149 0 22.5V55.8896C0.00952148 57.7925 1.2085 59.4851 3 60.1245V81C3 83.4851 5.01489 85.5 7.5 85.5H82.5C84.9851 85.5 87 83.4851 87 81V60.126C88.7915 59.4858 89.9912 57.7925 90 55.8896V22.5C90 20.0149 87.9851 18 85.5 18ZM27 12C27 9.51489 29.0149 7.5 31.5 7.5H58.5C60.9851 7.5 63 9.51489 63 12V18H60V12C60 11.1716 59.3284 10.5 58.5 10.5H31.5C30.6716 10.5 30 11.1716 30 12V18H27V12ZM57 18H33V13.5H57V18ZM84 81C84 81.8284 83.3284 82.5 82.5 82.5H7.5C6.67163 82.5 6 81.8284 6 81V60.6401L39 65.1914V69C39 71.4851 41.0149 73.5 43.5 73.5H46.5C48.9851 73.5 51 71.4851 51 69V65.1914L84 60.6401V81ZM48 69C48 69.8284 47.3284 70.5 46.5 70.5H43.5C42.6716 70.5 42 69.8284 42 69V60C42 59.1716 42.6716 58.5 43.5 58.5H46.5C47.3284 58.5 48 59.1716 48 60V69ZM87 55.8896C87.0007 56.6375 86.4507 57.2717 85.7102 57.3765L85.2942 57.4336L51 62.1628V60C51 57.5149 48.9851 55.5 46.5 55.5H43.5C41.0149 55.5 39 57.5149 39 60V62.1628L4.29126 57.3765C3.55078 57.2725 2.99927 56.6382 3 55.8896V22.5C3 21.6716 3.67163 21 4.5 21H85.5C86.3284 21 87 21.6716 87 22.5V55.8896Z" fill="#E3BD84"/>
</svg>
