<svg width="393" height="50" viewBox="0 0 393 50" fill="none" xmlns="http://www.w3.org/2000/svg">
<path d="M368.032 1H1V36.7447L12.6052 49H391.726V26.0213L368.032 1Z" fill="#D4FC39" stroke="#D4FC39"/>
<path d="M391.727 14.2766L379.154 1H391.727V14.2766Z" fill="#D4FC39" stroke="#D4FC39"/>
<path d="M46.9093 29.48H53.1913V26.978H46.9093V29.48ZM46.9093 24.458H53.1913V21.92H46.9093V24.458ZM54.4513 32H44.3893V19.4H54.4513L55.6933 20.678V24.458L54.4513 25.718L55.6933 26.978V30.758L54.4513 32ZM60.005 29.48H66.287V25.718H60.005V29.48ZM67.547 32H57.485V19.4H60.005V23.198H67.547L68.789 24.458V30.758L67.547 32ZM72.569 32H70.067V19.4H72.569V32ZM76.8975 29.48H83.1795V26.978H76.8975V29.48ZM84.4395 32H74.3775V19.4H85.0695V21.92H76.8975V24.458H84.4395L85.6815 25.718V30.758L84.4395 32ZM89.8175 25.718H96.0995V21.92H89.8175V25.718ZM89.8175 32H87.2975V19.4H97.3595L98.6015 20.678V26.978L97.3595 28.238H89.8175V32ZM102.557 25.718H108.839V21.92H105.059L102.557 24.458V25.718ZM102.557 32H100.037V23.198L103.799 19.4H111.341V32H108.839V28.238H102.557V32ZM119.527 32H117.007V21.92H112.597V19.4H123.901V21.92H119.527V32ZM127.681 29.48H133.963V25.718H127.681V29.48ZM135.223 32H125.161V19.4H127.681V23.198H135.223L136.465 24.458V30.758L135.223 32ZM147.808 32H145.288V19.4H156.592V32H154.09V21.92H147.808V32ZM159.085 32V29.48H164.125L166.645 26.978H161.605L157.843 23.198V19.4H160.363V21.938L162.865 24.458H166.645V19.4H169.147V28.238L165.385 32H159.085ZM173.296 32H170.776V19.4H173.296V24.458H179.578V19.4H182.08V32H179.578V26.978H173.296V32ZM186.392 32H183.872V19.4H186.392V24.458H190.154L192.674 21.938V19.4H195.176V23.198L192.674 25.718L195.176 28.238V32H192.674V29.48L190.154 26.978H186.392V32ZM203.182 32H200.662V21.92H196.252V19.4H207.556V21.92H203.182V32ZM226.084 32H217.264L216.022 30.758V20.678L217.264 19.4H226.084L227.326 20.678V23.18H224.824V21.92H218.542V29.48H224.824V28.238H227.326V30.758L226.084 32ZM231.282 25.718H237.564V21.92H233.784L231.282 24.458V25.718ZM231.282 32H228.762V23.198L232.524 19.4H240.066V32H237.564V28.238H231.282V32ZM244.382 32H241.862V19.4H244.382L248.774 25.502L253.238 19.4H255.668V32H253.148V23.504L249.854 28.346H247.748L244.382 23.504V32ZM259.991 29.48H266.273V21.92H259.991V29.48ZM267.533 32H258.713L257.471 30.758V20.678L258.713 19.4H267.533L268.775 20.678V30.758L267.533 32ZM273.087 29.48H279.369V26.978H273.087V29.48ZM273.087 24.458H279.369V21.92H273.087V24.458ZM280.629 32H270.567V19.4H280.629L281.871 20.678V24.458L280.629 25.718L281.871 26.978V30.758L280.629 32ZM286.183 29.48H292.465V25.718H286.183V29.48ZM293.725 32H283.663V19.4H286.183V23.198H293.725L294.967 24.458V30.758L293.725 32ZM298.747 32H296.245V19.4H298.747V32ZM303.075 29.48H309.357V26.978H303.075V29.48ZM303.075 24.458H309.357V21.92H303.075V24.458ZM310.617 32H300.555V19.4H310.617L311.859 20.678V24.458L310.617 25.718L311.859 26.978V30.758L310.617 32ZM316.171 29.48H322.453V21.92H316.171V29.48ZM323.713 32H314.893L313.651 30.758V20.678L314.893 19.4H323.713L324.955 20.678V30.758L323.713 32ZM336.449 32H327.629L326.387 30.758V28.238H328.907V29.48H335.189V26.978H331.409V24.458H335.189V21.92H328.907V23.18H326.387V20.678L327.629 19.4H336.449L337.691 20.678V24.458L336.449 25.718L337.691 26.978V30.758L336.449 32ZM341.831 25.718H348.113V21.92H344.333L341.831 24.458V25.718ZM341.831 32H339.311V23.198L343.073 19.4H350.615V32H348.113V28.238H341.831V32Z" fill="#D4FC39"/>
</svg>
