<svg width="170" height="23" viewBox="0 0 170 23" fill="none" xmlns="http://www.w3.org/2000/svg">
<path d="M0 4.79999H15.46L0 18.18V22.64H22.29V18.18H6.82L22.29 4.79999V0.349989H0V4.79999Z" fill="white"/>
<path d="M46.1596 0.349989H38.7296C33.7829 0.349989 31.3096 2.82665 31.3096 7.77999V15.21C31.3096 20.1566 33.7862 22.6333 38.7396 22.64H46.1696C51.1162 22.64 53.5929 20.1633 53.5996 15.21V7.77999C53.5929 2.82665 51.1129 0.349989 46.1596 0.349989ZM49.1596 14.47C49.1596 16.9433 47.9229 18.18 45.4496 18.18H39.4796C36.9996 18.18 35.7796 16.96 35.7796 14.47V8.51999C35.7796 6.03999 36.7796 4.81999 38.7296 4.81999H45.4196C47.8862 4.81999 49.1229 6.05999 49.1296 8.53999L49.1596 14.47Z" fill="white"/>
<path d="M80.4403 15.88L67.1604 0.349989H62.6104V22.64H67.0703V7.10999L80.3603 22.64H84.8903V0.349989H80.4403V15.88Z" fill="white"/>
<path d="M93.9199 4.79999H112.1L116.2 0.349989H93.9199V4.79999Z" fill="#DAFD01"/>
<path d="M93.9199 13.73H112.1L116.2 9.26996H93.9199V13.73Z" fill="#DAFD01"/>
<path d="M93.9199 22.65H112.1L116.2 18.19H93.9199V22.65Z" fill="#DAFD01"/>
<path d="M134.239 13.72H148.349C150.829 13.72 152.069 14.47 152.069 15.95C152.069 17.43 150.829 18.17 148.349 18.18H134.239V22.65H149.099C154.073 22.65 156.556 20.17 156.549 15.21C156.549 11.21 154.073 9.22665 149.119 9.25999H138.699V4.81999H156.549V0.349989H134.239V13.72Z" fill="white"/>
<path d="M165.55 0.360022V18.53L170 22.64V0.360022H165.55Z" fill="white"/>
</svg>
