<svg width="38" height="51" viewBox="0 0 38 51" fill="none" xmlns="http://www.w3.org/2000/svg">
<path d="M13.0566 0.473439C13.0566 0.109449 13.4506 -0.117984 13.7657 0.0641294L18.188 2.62008C18.3341 2.70455 18.4241 2.86056 18.4241 3.02939V8.12587C18.4241 8.48932 18.0312 8.71682 17.7161 8.5358L13.2938 5.99515C13.1471 5.91084 13.0566 5.7545 13.0566 5.58523V0.473439Z" fill="url(#paint0_linear_108_2039)"/>
<path d="M11.1776 12.3043C11.4927 12.4862 11.8865 12.2588 11.8865 11.8949V6.79993C11.8865 6.63136 11.7968 6.47554 11.651 6.39098L7.2473 3.83693C6.93221 3.65418 6.53758 3.88158 6.53758 4.24588V9.35657C6.53758 9.52567 6.62788 9.68188 6.77439 9.76625L9.60209 11.3947L11.1776 12.3043Z" fill="url(#paint1_linear_108_2039)"/>
<path d="M0.70911 42.4723C0.394019 42.6545 0 42.427 0 42.063V8.01572C0 7.65173 0.394018 7.4243 0.709109 7.60641L5.13138 10.1624C5.27753 10.2468 5.36754 10.4028 5.36754 10.5717V39.5071C5.36754 39.6759 5.27753 39.8319 5.13138 39.9164L0.70911 42.4723Z" fill="url(#paint2_linear_108_2039)"/>
<path d="M11.8865 43.2786C11.8865 43.4472 11.7968 43.603 11.651 43.6876L7.2473 46.2416C6.93221 46.4244 6.53758 46.197 6.53758 45.8327V40.7396C6.53758 40.571 6.62733 40.4152 6.77313 40.3306L11.1768 37.7766C11.4919 37.5938 11.8865 37.8212 11.8865 38.1856V43.2786Z" fill="url(#paint3_linear_108_2039)"/>
<path d="M6.53758 11.7882C6.53758 11.4239 6.93221 11.1965 7.2473 11.3792L11.651 13.9333C11.7968 14.0178 11.8865 14.1736 11.8865 14.3422V36.0088C11.8865 36.0088 11.8865 36.0088 11.8865 36.0089L11.3294 36.3432C11.3293 36.3432 11.3293 36.3433 11.3293 36.3433L7.24659 38.7016C6.93149 38.8836 6.53758 38.6561 6.53758 38.2922V11.7882Z" fill="url(#paint4_linear_108_2039)"/>
<path d="M13.0566 49.6051C13.0566 49.9691 13.4506 50.1966 13.7657 50.0144L18.188 47.4585C18.3341 47.374 18.4241 47.218 18.4241 47.0492V41.9527C18.4241 41.5892 18.0312 41.3617 17.7161 41.5428L13.2938 44.0834C13.1471 44.1677 13.0566 44.3241 13.0566 44.4933V49.6051Z" fill="url(#paint5_linear_108_2039)"/>
<path d="M18.188 10.1624C18.3341 10.2468 18.4241 10.4028 18.4241 10.5717V15.6657C18.4241 16.0297 18.0301 16.2571 17.715 16.075L13.2928 13.5191C13.1466 13.4346 13.0566 13.2786 13.0566 13.1098V8.01572C13.0566 7.65173 13.4506 7.4243 13.7657 7.60641L18.188 10.1624Z" fill="url(#paint6_linear_108_2039)"/>
<path d="M17.5141 34.1137L17.717 33.9977C18.0321 33.8177 18.4241 34.0452 18.4241 34.4082V39.5068C18.4241 39.6756 18.3341 39.8316 18.188 39.9161L13.7657 42.472C13.4506 42.6541 13.0566 42.4267 13.0566 42.0627V36.9508C13.0566 36.7816 13.147 36.6253 13.2936 36.541L17.5141 34.1137Z" fill="url(#paint7_linear_108_2039)"/>
<path d="M18.4241 18.1135C18.4241 17.9448 18.3343 17.7889 18.1883 17.7043L14.8953 15.7975L13.7651 15.1466C13.45 14.9651 13.0566 15.1926 13.0566 15.5563V34.5209C13.0566 34.8849 13.4506 35.1123 13.7657 34.9302L18.188 32.3743C18.3341 32.2898 18.4241 32.1338 18.4241 31.9649V18.1135Z" fill="url(#paint8_linear_108_2039)"/>
<path d="M18.4243 17.8267C18.4243 17.8329 18.4176 17.8367 18.4122 17.8336L14.8955 15.7972L18.4203 17.8197C18.4228 17.8211 18.4243 17.8238 18.4243 17.8267Z" fill="url(#paint9_linear_108_2039)"/>
<path d="M38 8.01715C38 7.65284 37.6054 7.42545 37.2903 7.60819L32.8866 10.1622C32.7408 10.2468 32.651 10.4026 32.651 10.5712V39.5076C32.651 39.6761 32.7408 39.832 32.8866 39.9165L37.2903 42.4706C37.6054 42.6533 38 42.4259 38 42.0616V8.01715Z" fill="url(#paint10_linear_108_2039)"/>
<path d="M26.3496 43.6875C26.2035 43.603 26.1135 43.447 26.1135 43.2782V37.8558C26.1135 37.6365 26.3498 37.4986 26.5406 37.6065L31.244 40.3123C31.3906 40.3967 31.481 40.553 31.481 40.7221V45.8341C31.481 46.1981 31.087 46.4255 30.7719 46.2434L26.3496 43.6875Z" fill="url(#paint11_linear_108_2039)"/>
<path d="M26.1135 11.899C26.1135 12.262 26.5055 12.4895 26.8206 12.3094L28.1936 11.5247L31.2443 9.76628C31.3908 9.68189 31.481 9.52572 31.481 9.35669V4.24446C31.481 3.88047 31.087 3.65303 30.7719 3.83515L26.3496 6.3911C26.2035 6.47557 26.1135 6.63158 26.1135 6.80041V11.899Z" fill="url(#paint12_linear_108_2039)"/>
<path d="M31.481 38.292C31.481 38.6559 31.087 38.8834 30.7719 38.7013L26.3496 36.1453C26.2035 36.0609 26.1135 35.9048 26.1135 35.736V14.3427C26.1135 14.1739 26.2035 14.0178 26.3496 13.9334L30.7719 11.3774C31.087 11.1953 31.481 11.4228 31.481 11.7867V38.292Z" fill="url(#paint13_linear_108_2039)"/>
<path d="M20.3024 41.5432C19.9873 41.362 19.5942 41.5895 19.5942 41.953V47.0497C19.5942 47.2182 19.6839 47.374 19.8297 47.4586L24.2334 50.0127C24.5485 50.1954 24.9432 49.968 24.9432 49.6037V44.492C24.9432 44.3234 24.8535 44.1676 24.7077 44.0831L23.4388 43.3466L20.3024 41.5432Z" fill="url(#paint14_linear_108_2039)"/>
<path d="M19.5942 3.02891C19.5942 2.86034 19.6839 2.70452 19.8297 2.61996L24.2334 0.0659092C24.5485 -0.116837 24.9432 0.110558 24.9432 0.474863V5.58631C24.9432 5.755 24.8533 5.9109 24.7073 5.99542L22.8259 7.08492L20.3023 8.53551C19.9872 8.71664 19.5942 8.48914 19.5942 8.12565V3.02891Z" fill="url(#paint15_linear_108_2039)"/>
<path d="M19.5942 15.6643C19.5942 16.0286 19.9888 16.256 20.3039 16.0732L24.7076 13.5192C24.8534 13.4346 24.9432 13.2788 24.9432 13.1102V8.01715C24.9432 7.65284 24.5485 7.42545 24.2334 7.60819L19.8297 10.1622C19.6839 10.2468 19.5942 10.4026 19.5942 10.5712V15.6643Z" fill="url(#paint16_linear_108_2039)"/>
<path d="M24.9432 36.9505C24.9432 36.7814 24.8529 36.6253 24.7065 36.5409L20.3028 34.0021C19.9878 33.8205 19.5942 34.0479 19.5942 34.4117V39.5069C19.5942 39.6757 19.6841 39.8316 19.8302 39.9161L24.9234 42.8626C24.9242 42.8631 24.9249 42.8636 24.9255 42.8643L24.9431 42.8818C24.9431 42.8818 24.9432 42.8818 24.9432 42.8818V36.9505Z" fill="url(#paint17_linear_108_2039)"/>
<path d="M19.8272 17.7038C19.6828 17.7887 19.5942 17.9438 19.5942 18.1113V31.9654C19.5942 32.134 19.6839 32.2898 19.8297 32.3744L24.2334 34.9284C24.5485 35.1112 24.9432 34.8838 24.9432 34.5195V15.5559C24.9432 15.1923 24.5499 14.9649 24.2348 15.1462L21.4886 16.7263L19.8272 17.7038Z" fill="url(#paint18_linear_108_2039)"/>
<path d="M19.5942 17.8267C19.5942 17.8238 19.5957 17.8212 19.5982 17.8198L21.4886 16.7261L19.6062 17.8336C19.6009 17.8367 19.5942 17.8329 19.5942 17.8267Z" fill="url(#paint19_linear_108_2039)"/>
<defs>
<linearGradient id="paint0_linear_108_2039" x1="38" y1="25.0393" x2="0" y2="25.0393" gradientUnits="userSpaceOnUse">
<stop stop-color="#3DDCFD"/>
<stop offset="1" stop-color="#CCA4FB"/>
</linearGradient>
<linearGradient id="paint1_linear_108_2039" x1="38" y1="25.0393" x2="0" y2="25.0393" gradientUnits="userSpaceOnUse">
<stop stop-color="#3DDCFD"/>
<stop offset="1" stop-color="#CCA4FB"/>
</linearGradient>
<linearGradient id="paint2_linear_108_2039" x1="38" y1="25.0393" x2="0" y2="25.0393" gradientUnits="userSpaceOnUse">
<stop stop-color="#3DDCFD"/>
<stop offset="1" stop-color="#CCA4FB"/>
</linearGradient>
<linearGradient id="paint3_linear_108_2039" x1="38" y1="25.0393" x2="0" y2="25.0393" gradientUnits="userSpaceOnUse">
<stop stop-color="#3DDCFD"/>
<stop offset="1" stop-color="#CCA4FB"/>
</linearGradient>
<linearGradient id="paint4_linear_108_2039" x1="38" y1="25.0393" x2="0" y2="25.0393" gradientUnits="userSpaceOnUse">
<stop stop-color="#3DDCFD"/>
<stop offset="1" stop-color="#CCA4FB"/>
</linearGradient>
<linearGradient id="paint5_linear_108_2039" x1="38" y1="25.0393" x2="0" y2="25.0393" gradientUnits="userSpaceOnUse">
<stop stop-color="#3DDCFD"/>
<stop offset="1" stop-color="#CCA4FB"/>
</linearGradient>
<linearGradient id="paint6_linear_108_2039" x1="38" y1="25.0393" x2="0" y2="25.0393" gradientUnits="userSpaceOnUse">
<stop stop-color="#3DDCFD"/>
<stop offset="1" stop-color="#CCA4FB"/>
</linearGradient>
<linearGradient id="paint7_linear_108_2039" x1="38" y1="25.0393" x2="0" y2="25.0393" gradientUnits="userSpaceOnUse">
<stop stop-color="#3DDCFD"/>
<stop offset="1" stop-color="#CCA4FB"/>
</linearGradient>
<linearGradient id="paint8_linear_108_2039" x1="38" y1="25.0393" x2="0" y2="25.0393" gradientUnits="userSpaceOnUse">
<stop stop-color="#3DDCFD"/>
<stop offset="1" stop-color="#CCA4FB"/>
</linearGradient>
<linearGradient id="paint9_linear_108_2039" x1="38" y1="25.0393" x2="0" y2="25.0393" gradientUnits="userSpaceOnUse">
<stop stop-color="#3DDCFD"/>
<stop offset="1" stop-color="#CCA4FB"/>
</linearGradient>
<linearGradient id="paint10_linear_108_2039" x1="38" y1="25.0393" x2="0" y2="25.0393" gradientUnits="userSpaceOnUse">
<stop stop-color="#3DDCFD"/>
<stop offset="1" stop-color="#CCA4FB"/>
</linearGradient>
<linearGradient id="paint11_linear_108_2039" x1="38" y1="25.0393" x2="0" y2="25.0393" gradientUnits="userSpaceOnUse">
<stop stop-color="#3DDCFD"/>
<stop offset="1" stop-color="#CCA4FB"/>
</linearGradient>
<linearGradient id="paint12_linear_108_2039" x1="38" y1="25.0393" x2="0" y2="25.0393" gradientUnits="userSpaceOnUse">
<stop stop-color="#3DDCFD"/>
<stop offset="1" stop-color="#CCA4FB"/>
</linearGradient>
<linearGradient id="paint13_linear_108_2039" x1="38" y1="25.0393" x2="0" y2="25.0393" gradientUnits="userSpaceOnUse">
<stop stop-color="#3DDCFD"/>
<stop offset="1" stop-color="#CCA4FB"/>
</linearGradient>
<linearGradient id="paint14_linear_108_2039" x1="38" y1="25.0393" x2="0" y2="25.0393" gradientUnits="userSpaceOnUse">
<stop stop-color="#3DDCFD"/>
<stop offset="1" stop-color="#CCA4FB"/>
</linearGradient>
<linearGradient id="paint15_linear_108_2039" x1="38" y1="25.0393" x2="0" y2="25.0393" gradientUnits="userSpaceOnUse">
<stop stop-color="#3DDCFD"/>
<stop offset="1" stop-color="#CCA4FB"/>
</linearGradient>
<linearGradient id="paint16_linear_108_2039" x1="38" y1="25.0393" x2="0" y2="25.0393" gradientUnits="userSpaceOnUse">
<stop stop-color="#3DDCFD"/>
<stop offset="1" stop-color="#CCA4FB"/>
</linearGradient>
<linearGradient id="paint17_linear_108_2039" x1="38" y1="25.0393" x2="0" y2="25.0393" gradientUnits="userSpaceOnUse">
<stop stop-color="#3DDCFD"/>
<stop offset="1" stop-color="#CCA4FB"/>
</linearGradient>
<linearGradient id="paint18_linear_108_2039" x1="38" y1="25.0393" x2="0" y2="25.0393" gradientUnits="userSpaceOnUse">
<stop stop-color="#3DDCFD"/>
<stop offset="1" stop-color="#CCA4FB"/>
</linearGradient>
<linearGradient id="paint19_linear_108_2039" x1="38" y1="25.0393" x2="0" y2="25.0393" gradientUnits="userSpaceOnUse">
<stop stop-color="#3DDCFD"/>
<stop offset="1" stop-color="#CCA4FB"/>
</linearGradient>
</defs>
</svg>
