<svg width="30" height="30" viewBox="0 0 30 30" fill="none" xmlns="http://www.w3.org/2000/svg">
<mask id="mask0_43_83" style="mask-type:luminance" maskUnits="userSpaceOnUse" x="1" y="1" width="28" height="28">
<path d="M15.0003 27.5C16.6421 27.5021 18.2682 27.1798 19.785 26.5515C21.3019 25.9231 22.6796 25.0012 23.839 23.8388C25.0015 22.6793 25.9234 21.3016 26.5517 19.7848C27.18 18.2679 27.5024 16.6418 27.5003 15C27.5023 13.3582 27.18 11.7321 26.5517 10.2153C25.9233 8.69843 25.0015 7.3207 23.839 6.16126C22.6796 4.99878 21.3019 4.07688 19.785 3.44856C18.2682 2.82024 16.6421 2.49788 15.0003 2.50001C13.3584 2.49792 11.7324 2.82029 10.2155 3.44861C8.69868 4.07693 7.32095 4.99881 6.1615 6.16126C4.99905 7.3207 4.07717 8.69843 3.44886 10.2153C2.82054 11.7321 2.49816 13.3582 2.50025 15C2.49813 16.6418 2.82049 18.2679 3.44881 19.7848C4.07713 21.3016 4.99902 22.6793 6.1615 23.8388C7.32095 25.0012 8.69868 25.9231 10.2155 26.5514C11.7324 27.1797 13.3584 27.5021 15.0003 27.5Z" fill="white" stroke="white" stroke-width="2.5" stroke-linejoin="round"/>
<path d="M10.0005 15L13.7505 18.75L21.2505 11.25" stroke="black" stroke-width="2.5" stroke-linecap="round" stroke-linejoin="round"/>
</mask>
<g mask="url(#mask0_43_83)">
<path d="M0.000244141 0H30.0002V30H0.000244141V0Z" fill="#0066FF"/>
</g>
<circle cx="15" cy="15" r="13" stroke="#0066FF" stroke-width="1.77273"/>
</svg>
