<?xml version="1.0" standalone="no"?>
<!DOCTYPE svg PUBLIC "-//W3C//DTD SVG 1.1//EN" "http://www.w3.org/Graphics/SVG/1.1/DTD/svg11.dtd" >
<svg xmlns="http://www.w3.org/2000/svg" xmlns:xlink="http://www.w3.org/1999/xlink" version="1.1">
<metadata>
Created by FontForge 20170731 at Fri Jan 18 23:23:21 2019
 By Aleksey,,,
Copyright 1990-2005 Bitstream Inc.  All rights reserved.
</metadata>
<defs>
<font id="IowanOldStyle-Bold" horiz-adv-x="0" >
  <font-face 
    font-family="Iowan Old Style"
    font-weight="700"
    font-stretch="normal"
    units-per-em="2048"
    panose-1="2 4 7 2 5 5 6 2 2 4"
    ascent="1638"
    descent="-410"
    x-height="991"
    cap-height="1427"
    bbox="-1738 -933 3858 2582"
    underline-thickness="147"
    underline-position="-477"
    unicode-range="U+0020-FE48"
  />
<missing-glyph horiz-adv-x="1229" 
d="M102 -362v1806h1024v-1806h-1024zM217 -248h795v1577h-795v-1577z" />
    <glyph glyph-name=".notdef" horiz-adv-x="1229" 
d="M102 -362v1806h1024v-1806h-1024zM217 -248h795v1577h-795v-1577z" />
    <glyph glyph-name=".null" 
 />
    <glyph glyph-name="nonmarkingreturn" horiz-adv-x="608" 
 />
    <glyph glyph-name="space" unicode=" " horiz-adv-x="608" 
 />
    <glyph glyph-name="exclam" unicode="!" horiz-adv-x="696" 
d="M317 287l91 -62q33 -22 50 -47.5t17 -54.5q0 -30 -13 -51.5t-46 -44.5l-97 -66l-90 59q-35 24 -53 49.5t-18 53.5q0 31 14 53t51 47zM203 1427h272q0 -206 -59 -683q-27 -220 -39 -336h-109q-6 216 -22.5 473.5t-42.5 545.5z" />
    <glyph glyph-name="quotedbl" unicode="&#x22;" horiz-adv-x="694" 
d="M496 856l-74 458q-1 8 -1.5 16.5t-0.5 23.5q0 51 25.5 79.5t70.5 28.5t70.5 -28t25.5 -78q0 -13 -3 -36q-1 -4 -1 -5l-73 -459h-39zM160 856l-74 459q-1 7 -1.5 15.5t-0.5 23.5q0 52 24.5 80t69.5 28q47 0 71.5 -27.5t24.5 -80.5q0 -16 -0.5 -24.5t-1.5 -15.5l-73 -458
h-39z" />
    <glyph glyph-name="numbersign" unicode="#" horiz-adv-x="1260" 
d="M795 834h-144h-102l-82 -250q24 -1 45.5 -1.5t42.5 -0.5q34 0 130 3q20 0 32 1zM602 1415h131q-44 -135 -78.5 -244t-62.5 -200q16 0 45.5 -1t42.5 -1h29q45 0 72.5 0.5t53.5 1.5q49 146 81 250t57 194h131l-139 -444q19 -1 40.5 -1.5t63.5 -0.5q50 0 74 1t45 3l-45 -148
q-55 5 -109 7t-112 2l-82 -250q16 0 49 -1t49 -1q24 0 52 0.5t79 3.5l-45 -143q-43 2 -85.5 4t-84.5 2h-55l-135 -449h-134q40 124 87 274t55 175h-246q-33 -109 -95 -320q-26 -86 -38 -129h-139l145 449h-59q-30 0 -63.5 -1t-92.5 -4l46 146q43 -2 78 -3t71 -1h65l80 248
q-55 0 -109 -1t-110 -4l43 148q63 -3 97.5 -3.5t64.5 -0.5h57z" />
    <glyph glyph-name="dollar" unicode="$" horiz-adv-x="1217" 
d="M553 1208q-79 -13 -124.5 -58t-45.5 -110q0 -59 41 -101.5t129 -74.5v344zM655 588l2 -381q81 17 129 72t48 131q0 59 -43.5 102.5t-135.5 75.5zM545 1530h125l-4 -207q151 -5 237 -48t86 -114q0 -41 -27.5 -70.5t-64.5 -29.5q-32 0 -98 69t-135 78l-5 -381
q208 -67 288.5 -146.5t80.5 -207.5q0 -142 -99 -245t-265 -132v-211h-127l6 203q-175 6 -275 58.5t-100 136.5q0 43 28.5 73.5t67.5 30.5q46 0 96 -69q14 -21 23 -31q35 -43 74 -64t85 -22l7 420q-202 62 -286.5 141.5t-84.5 204.5q0 134 103 232.5t266 117.5z" />
    <glyph glyph-name="percent" unicode="%" horiz-adv-x="1880" 
d="M1423 702q-68 0 -102.5 -71t-34.5 -211q0 -174 41 -265.5t119 -91.5q73 0 109 68t36 207q0 186 -41 275t-127 89zM1440 801q165 0 259.5 -110t94.5 -302q0 -186 -99.5 -304t-252.5 -118q-166 0 -261.5 109.5t-95.5 298.5q0 185 101.5 305.5t253.5 120.5zM424 1358
q-68 0 -102.5 -72.5t-34.5 -214.5q0 -170 42 -261t120 -91q73 0 109 69t36 209q0 183 -42 272t-128 89zM1309 1464l110 -47q-295 -497 -493.5 -838.5t-360.5 -625.5l-110 43l809 1382q-87 -64 -172 -97.5t-162 -33.5q-44 0 -94 11t-103 32q30 -52 45 -113t15 -128
q0 -183 -104.5 -303.5t-260.5 -120.5q-155 0 -247.5 108t-92.5 289q0 195 103.5 313.5t273.5 118.5q31 0 67.5 -8.5t77.5 -26.5q91 -32 172.5 -48.5t147.5 -16.5q89 0 187 28.5t192 81.5z" />
    <glyph glyph-name="ampersand" unicode="&#x26;" horiz-adv-x="1755" 
d="M719 860q72 54 110.5 127.5t38.5 157.5q0 81 -49.5 134.5t-126.5 53.5q-66 0 -109.5 -45.5t-43.5 -116.5q0 -63 45 -141.5t135 -169.5zM934 256l-385 455q-98 -41 -145.5 -102.5t-47.5 -147.5q0 -129 93 -224.5t219 -95.5q64 0 131 29t135 86zM1004 176
q-115 -104 -231 -158.5t-222 -54.5q-192 0 -315 116.5t-123 295.5q0 148 93.5 251t278.5 158q-80 74 -120.5 152t-40.5 162q0 148 115.5 250t287.5 102q144 0 233 -76.5t89 -197.5q0 -119 -68 -214t-203 -165l326 -373q95 105 154 220.5t59 180.5q0 21 -8 36.5t-23 23.5
q-12 6 -35 9t-57 3v90q25 -1 72 -4q122 -8 164 -8q38 0 96.5 3t132.5 9v-90h-33q-54 0 -83.5 -19t-63.5 -90q-71 -146 -144.5 -253.5t-156.5 -188.5l43 -49q80 -90 131.5 -123t103.5 -33q42 0 92 27.5t99 77.5l57 -56q-78 -113 -169 -170t-194 -57q-81 0 -156 46t-181 167z
" />
    <glyph glyph-name="quotesingle" unicode="'" horiz-adv-x="358" 
d="M160 856l-74 459q-1 7 -1.5 15.5t-0.5 23.5q0 52 24.5 80t69.5 28q47 0 71.5 -27.5t24.5 -80.5q0 -16 -0.5 -24.5t-1.5 -15.5l-73 -458h-39z" />
    <glyph glyph-name="parenleft" unicode="(" horiz-adv-x="928" 
d="M782 1571l86 -60q-185 -205 -276.5 -435.5t-91.5 -491.5q0 -254 93 -479.5t281 -426.5l-86 -67q-262 207 -394 453.5t-132 527.5q0 282 131.5 529.5t388.5 449.5z" />
    <glyph glyph-name="parenright" unicode=")" horiz-adv-x="928" 
d="M143 1571q260 -206 391.5 -449.5t131.5 -517.5q0 -290 -131 -538.5t-392 -454.5l-88 65q188 205 280.5 429.5t92.5 476.5q0 265 -92 497t-277 430z" />
    <glyph glyph-name="asterisk" unicode="*" horiz-adv-x="1028" 
d="M514 1464l96 -57q-30 -86 -45.5 -138t-15.5 -71q0 -9 4 -15.5t10 -6.5q24 0 106 91q39 45 64 72l96 -55l2 -111q-32 -7 -86 -18q-141 -30 -141 -57t149 -59q49 -10 78 -17l-2 -111l-96 -55q-25 27 -64 72q-82 92 -102 92q-8 0 -13 -6t-5 -17q0 -19 15.5 -73t45.5 -138
l-96 -55l-94 55q7 21 19 59q42 131 42 152q0 11 -4.5 17t-13.5 6q-21 0 -99 -89q-41 -47 -67 -75l-98 55v111q17 4 48 10q179 38 179 66q0 26 -145 57q-53 12 -82 19v110l98 55q22 -24 57 -64q87 -99 111 -99q8 0 12 7t4 21q0 12 -42 144q-12 39 -19 61z" />
    <glyph glyph-name="plus" unicode="+" horiz-adv-x="1706" 
d="M938 1221v-527h514v-166h-514v-528h-170v528h-514v166h514v527h170z" />
    <glyph glyph-name="comma" unicode="," horiz-adv-x="608" 
d="M289 309q102 -67 136 -113.5t34 -107.5q0 -90 -84 -200.5t-236 -217.5l-71 76q76 56 121 119.5t61 134.5q-77 40 -104 69t-27 66q0 29 19.5 55.5t66.5 59.5z" />
    <glyph glyph-name="hyphen" unicode="-" horiz-adv-x="760" 
d="M68 406q20 53 36.5 104.5t28.5 99.5q30 0 86 -1q131 -3 172 -3q106 0 172 1t129 3q-22 -55 -38 -105.5t-27 -98.5q-99 3 -166.5 4.5t-104.5 1.5q-50 0 -122 -1.5t-166 -4.5z" />
    <glyph glyph-name="period" unicode="." horiz-adv-x="608" 
d="M293 313l98 -65q39 -25 57.5 -51t18.5 -56t-17.5 -55t-58.5 -53l-94 -66l-98 68q-43 29 -58.5 52.5t-15.5 53.5q0 31 17.5 57t56.5 52z" />
    <glyph glyph-name="slash" unicode="/" horiz-adv-x="967" 
d="M856 1526l123 -62q-182 -325 -400 -728.5t-495 -928.5l-121 62q196 349 417 759.5t476 897.5z" />
    <glyph glyph-name="zero" unicode="0" horiz-adv-x="1217" 
d="M596 1325q-130 0 -193 -138t-63 -425q0 -331 71 -498.5t212 -167.5q131 0 194.5 139.5t63.5 426.5q0 327 -72 495t-213 168zM616 1456q246 0 386.5 -189t140.5 -522q0 -354 -152 -567t-403 -213q-235 0 -375.5 192.5t-140.5 518.5q0 345 153.5 562.5t390.5 217.5z" />
    <glyph glyph-name="one" unicode="1" horiz-adv-x="1217" 
d="M768 1456q-9 -181 -13.5 -359.5t-4.5 -357.5q0 -58 -1 -151t-1 -129q0 -145 8 -215t27 -101q18 -28 55.5 -40.5t108.5 -12.5h22v-90q-118 6 -210 9t-158 3q-63 0 -249 -8q-65 -3 -99 -4l-1 90q128 0 167 15t59 55q17 34 23.5 162t6.5 593q0 99 -4 271q-1 62 -2 92h-35
q-27 0 -91 -5t-142 -13l-14 98q134 19 271.5 43.5t276.5 54.5z" />
    <glyph glyph-name="two" unicode="2" horiz-adv-x="1217" 
d="M387 229q92 -1 200.5 -2.5t123.5 -1.5h30q181 0 230 32t71 124l88 -25q-33 -91 -55.5 -180t-34.5 -176q-178 8 -294.5 11t-210.5 3q-88 0 -192.5 -3t-254.5 -11l-39 90q322 259 495 493.5t173 411.5q0 124 -69.5 197.5t-186.5 73.5q-78 0 -149 -50.5t-136 -152.5l-102 63
q90 164 209.5 246t267.5 82q179 0 306.5 -122.5t127.5 -293.5q0 -164 -125 -338t-473 -471z" />
    <glyph glyph-name="three" unicode="3" horiz-adv-x="1217" 
d="M664 784q19 1 36 1.5t35 0.5q147 0 239.5 -90.5t92.5 -234.5q0 -206 -172 -350t-422 -144q-162 0 -273.5 69t-111.5 161q0 49 37.5 84.5t87.5 35.5q51 0 101 -77q9 -14 13 -20q38 -58 78.5 -81.5t98.5 -23.5q124 0 207.5 84t83.5 209q0 121 -67.5 191.5t-182.5 70.5
q-33 0 -73.5 -9t-111.5 -32l-34 90q197 80 291 167t94 189q0 92 -57 149.5t-148 57.5q-78 0 -145.5 -42t-135.5 -134l-94 61q81 142 195 214.5t256 72.5q166 0 277.5 -96t111.5 -238q0 -111 -75.5 -193.5t-231.5 -142.5z" />
    <glyph glyph-name="four" unicode="4" horiz-adv-x="1217" 
d="M672 1159l-424 -561q107 -3 212 -4.5t210 -1.5zM731 1442h182q-7 -275 -10.5 -475.5t-3.5 -372.5q70 0 135 2t127 6q-19 -73 -36 -153q-2 -11 -3 -15q-54 3 -110.5 4.5t-112.5 1.5v-141q0 -144 25.5 -177.5t105.5 -33.5h33v-88q-130 6 -191.5 8t-97.5 2q-39 0 -102.5 -2
t-181.5 -8l-1 88q7 0 18.5 -1t16.5 -1q83 0 112.5 37.5t31.5 186.5v130l-269 2q-14 0 -115 -1.5t-186 -1.5l-57 124q78 86 142 161t122 148l125 158q95 120 167 219t134 193z" />
    <glyph glyph-name="five" unicode="5" horiz-adv-x="1217" 
d="M197 688l92 733q132 -7 217.5 -10.5t150.5 -3.5q110 0 208 5.5t186 17.5q-25 -78 -43.5 -142t-24.5 -90q-93 -8 -184 -12t-178 -4q-58 0 -183 3q-16 1 -24 1l-62 -379q75 34 144 52t129 18q203 0 328.5 -118t125.5 -306q0 -204 -167.5 -345t-415.5 -141q-164 0 -275.5 69
t-111.5 161q0 49 37 84.5t87 35.5q53 0 106 -83l9 -15q35 -55 77.5 -79.5t102.5 -24.5q127 0 207 88.5t80 228.5q0 127 -80 203t-213 76q-57 0 -114 -19.5t-109 -56.5z" />
    <glyph glyph-name="six" unicode="6" horiz-adv-x="1217" 
d="M381 643q0 -10 -1 -31.5t-1 -31.5q0 -233 65.5 -353.5t192.5 -120.5q102 0 160.5 77t58.5 212q0 148 -67.5 238t-178.5 90q-49 0 -104.5 -19.5t-124.5 -60.5zM385 756q72 65 160.5 101t173.5 36q172 0 285.5 -119.5t113.5 -302.5q0 -220 -142 -363t-362 -143
q-227 0 -363 168.5t-136 452.5q0 194 56.5 354t168.5 281q100 108 231.5 169.5t264.5 61.5q104 0 163.5 -38t59.5 -103q0 -43 -25.5 -71t-62.5 -28q-29 0 -108.5 37t-137.5 37q-153 0 -243.5 -140.5t-96.5 -389.5z" />
    <glyph glyph-name="seven" unicode="7" horiz-adv-x="1217" 
d="M289 -6q191 351 341.5 642.5t268.5 539.5q-76 0 -204 2t-158 2h-41q-178 0 -225 -35t-66 -139l-90 18q25 99 40 198.5t21 204.5q96 -11 198.5 -16.5t225.5 -5.5q108 0 235.5 5.5t282.5 16.5l45 -96q-124 -155 -288 -518.5t-308 -818.5h-278z" />
    <glyph glyph-name="eight" unicode="8" horiz-adv-x="1217" 
d="M528 645q-97 -59 -143.5 -128.5t-46.5 -158.5q0 -117 73 -191.5t189 -74.5q105 0 175.5 70.5t70.5 175.5q0 101 -70 170.5t-248 136.5zM770 788q169 -74 246.5 -167.5t77.5 -223.5q0 -180 -149.5 -306t-369.5 -126q-204 0 -334 108t-130 275q0 118 80 211.5t231 151.5
q-137 63 -202.5 150.5t-65.5 205.5q0 162 132.5 276.5t319.5 114.5q192 0 312 -95t120 -243q0 -106 -67 -189t-201 -143zM666 850q84 54 126 120.5t42 147.5q0 96 -62.5 156.5t-161.5 60.5q-91 0 -154 -59t-63 -146q0 -85 65 -152t208 -128z" />
    <glyph glyph-name="nine" unicode="9" horiz-adv-x="1217" 
d="M819 788q0 18 -1 35.5t-1 18.5q0 239 -63.5 358t-190.5 119q-101 0 -160 -77t-59 -210q0 -154 67 -243t181 -89q53 0 112.5 23t114.5 65zM813 668q-87 -68 -164 -98.5t-160 -30.5q-172 0 -282.5 117.5t-110.5 301.5q0 212 139 354t349 142q231 0 366 -168t135 -457
q0 -368 -209 -614t-507 -246q-106 0 -168 39t-62 105q0 41 26 69.5t64 28.5q28 0 107 -37t137 -37q153 0 243.5 140.5t96.5 390.5z" />
    <glyph glyph-name="colon" unicode=":" horiz-adv-x="608" 
d="M291 313l98 -65q40 -26 58 -52t18 -55t-16.5 -53.5t-59.5 -54.5l-94 -66l-98 68q-41 27 -57.5 51t-16.5 55t17.5 57t56.5 52zM291 961l100 -70q36 -26 55 -53t19 -54q0 -31 -18 -57.5t-60 -54.5l-92 -64l-92 64q-43 29 -61.5 55.5t-18.5 56.5t17.5 56t56.5 53z" />
    <glyph glyph-name="semicolon" unicode=";" horiz-adv-x="608" 
d="M291 309q100 -65 135 -112.5t35 -108.5q0 -90 -83.5 -199.5t-236.5 -218.5l-71 76q76 56 120 118.5t60 135.5q-77 42 -102 70t-25 65q0 31 19 57.5t63 57.5zM291 961l100 -70q36 -26 55 -53t19 -54q0 -31 -18 -57.5t-60 -54.5l-92 -64l-92 64q-43 29 -61.5 55.5
t-18.5 56.5t17.5 56t56.5 53z" />
    <glyph glyph-name="less" unicode="&#x3c;" horiz-adv-x="1706" 
d="M1442 991l-934 -381l934 -381v-182l-1178 483v160l1178 486v-185z" />
    <glyph glyph-name="equal" unicode="=" horiz-adv-x="1706" 
d="M1452 487v-165h-1198v165h1198zM1452 901v-168h-1198v168h1198z" />
    <glyph glyph-name="greater" unicode="&#x3e;" horiz-adv-x="1706" 
d="M1442 690v-160l-1178 -483v182l934 381l-934 381v185z" />
    <glyph glyph-name="question" unicode="?" horiz-adv-x="985" 
d="M362 403l-90 1q1 14 1.5 33t0.5 57q0 64 -3 131.5t-9 136.5q184 35 279.5 114t95.5 197q0 85 -59 144t-144 59q-67 0 -146 -52.5t-106 -52.5q-37 0 -62.5 29.5t-25.5 73.5q0 81 73 130.5t193 49.5q201 0 342.5 -129.5t141.5 -312.5q0 -134 -82.5 -235.5t-247.5 -170.5
q-8 -3 -24 -10q-122 -49 -128 -193zM319 287l91 -62q35 -23 52 -48.5t17 -55.5q0 -27 -14 -49t-47 -45l-96 -66l-91 57q-37 24 -54 49.5t-17 57.5q0 28 16 52t49 46z" />
    <glyph glyph-name="at" unicode="@" horiz-adv-x="2048" 
d="M1149 336q-16 -14 -45 -41q-215 -197 -303 -197q-73 0 -114.5 61.5t-41.5 170.5q0 108 37.5 214.5t108.5 196.5q80 105 178.5 162.5t197.5 57.5q39 0 75.5 -9.5t70.5 -27.5l147 55q-60 -249 -93.5 -422t-33.5 -233q0 -41 20.5 -67t51.5 -26q97 0 191 155t94 343
q0 215 -137.5 344t-366.5 129q-145 0 -277.5 -54t-242.5 -159q-134 -125 -205.5 -286.5t-71.5 -335.5q0 -259 171.5 -424.5t438.5 -165.5q215 0 403.5 100t352.5 301l43 -69q-181 -232 -393 -347.5t-457 -115.5q-330 0 -540.5 196.5t-210.5 503.5q0 192 83.5 374t235.5 318
q141 129 321.5 198t376.5 69q287 0 468.5 -154.5t181.5 -394.5q0 -144 -71.5 -279.5t-209.5 -253.5q-81 -68 -152.5 -102.5t-134.5 -34.5q-69 0 -110 51t-41 139q0 13 3 47q1 9 1 13zM1241 811q-29 21 -58 32t-57 11q-102 0 -186 -149t-84 -332q0 -56 13.5 -82.5t41.5 -26.5
t79.5 36t172.5 146q3 13 29 133.5t49 231.5z" />
    <glyph glyph-name="A" unicode="A" horiz-adv-x="1589" 
d="M743 1194l-218 -553q38 -1 80.5 -1.5t113.5 -0.5q82 0 128 0.5t86 1.5zM688 1434h244q144 -422 274.5 -775.5t182.5 -470.5q22 -53 55.5 -75.5t89.5 -22.5h22v-90q-127 6 -195 8t-114 2q-44 0 -114 -2t-203 -8v90h18q79 0 107 18t28 64q0 14 -3.5 33t-14.5 53l-82 242
q-57 1 -150 2.5t-116 1.5q-43 0 -173 -3q-47 -1 -73 -1l-4 -10q-98 -239 -98 -302q0 -52 29.5 -75t97.5 -23h18v-90q-114 6 -177 8t-104 2q-34 0 -89.5 -2t-161.5 -8v90q72 0 115 25t73 84q43 78 194 436t324 799z" />
    <glyph glyph-name="B" unicode="B" horiz-adv-x="1393" 
d="M514 799q18 -1 39 -1.5t63 -0.5q57 0 106 2t91 6q68 48 102.5 108.5t34.5 130.5q0 118 -75 185t-207 67q-35 0 -73 -3.5t-77 -10.5q-1 -88 -2 -253.5t-2 -229.5zM514 158q60 -16 108 -23.5t91 -7.5q148 0 232.5 74t84.5 202q0 138 -94 208.5t-279 70.5q-47 0 -80 -1
t-65 -3v-176q0 -159 0.5 -226.5t1.5 -117.5zM70 88q6 -1 13.5 -1.5t20.5 -0.5q138 0 139 343q0 99 1 157v538q0 147 -29.5 180t-112.5 33h-14v93q79 -7 148 -10t131 -3q91 0 199.5 5t125.5 5q1 0 4 1q14 1 27 2q234 0 366 -92.5t132 -252.5q0 -105 -69 -186.5t-212 -144.5
q183 -29 279 -117t96 -227q0 -184 -161.5 -299t-428.5 -115q-41 0 -179.5 6t-236.5 6q-27 0 -87 -3t-152 -9v92z" />
    <glyph glyph-name="C" unicode="C" horiz-adv-x="1493" 
d="M1370 1378q0 -10 -1 -31.5t-1 -31.5q0 -67 6 -142t19 -165l-99 -17q-16 149 -127 231.5t-293 82.5q-232 0 -359.5 -144.5t-127.5 -408.5q0 -285 144.5 -454t386.5 -169q152 0 259.5 69t174.5 210l88 -41q-40 -79 -70 -154.5t-51 -149.5q-121 -49 -236.5 -74.5
t-222.5 -25.5q-348 0 -564 206t-216 538q0 328 226.5 540.5t574.5 212.5q125 0 245.5 -20t243.5 -62z" />
    <glyph glyph-name="D" unicode="D" horiz-adv-x="1692" 
d="M522 160q62 -14 122.5 -20.5t123.5 -6.5q259 0 399 143t140 408q0 291 -150 451.5t-420 160.5q-39 0 -88.5 -3.5t-118.5 -12.5q-4 -244 -6 -462.5t-2 -397.5v-260zM70 0v90q7 -1 15 -1.5t24 -0.5q83 0 112 55.5t29 284.5v72v106l2 238q0 17 1 49q3 147 3 203
q0 149 -28.5 196t-106.5 47q-15 0 -23 -0.5t-14 -0.5v89q86 -5 150 -7.5t116 -2.5q93 0 238.5 8.5t197.5 8.5q386 0 605 -191.5t219 -525.5q0 -324 -231 -523.5t-613 -199.5q-31 0 -183 8t-274 8q-29 0 -196 -8z" />
    <glyph glyph-name="E" unicode="E" horiz-adv-x="1382" 
d="M86 1429q170 -7 314 -10.5t253 -3.5q183 0 309.5 3.5t235.5 10.5q2 -87 8 -171.5t17 -170.5l-90 -12q-14 125 -82.5 169t-274.5 44q-37 0 -98.5 -1.5t-150.5 -4.5q-2 -132 -3.5 -253t-3.5 -232h29q58 0 144.5 -1t115.5 -1q138 0 181 27t46 103l74 -7q0 -50 -3 -125.5
t-3 -102.5t1.5 -69t4.5 -101l-84 -6v12q0 86 -49.5 116t-233.5 30h-149h-76v-115q0 -89 1 -182.5t3 -222.5q45 -6 112.5 -9.5t147.5 -3.5q239 0 318.5 50t128.5 192l92 -29q-33 -96 -56.5 -183t-39.5 -169q-236 8 -376 11t-249 3q-123 0 -393 -9q-93 -3 -141 -5v88
q6 -1 13.5 -1.5t22.5 -0.5q84 0 114 51.5t30 270.5v100v92l2 223q0 15 1 45q3 123 3 168t-1 94t-1 54q0 87 -31.5 121t-109.5 34h-23v90z" />
    <glyph glyph-name="F" unicode="F" horiz-adv-x="1278" 
d="M68 88q7 -1 15.5 -1.5t25.5 -0.5q82 0 111.5 50.5t29.5 234.5v102q0 47 -0.5 71.5t-1.5 46.5v257q0 57 1 165t1 161q0 98 -31.5 131.5t-118.5 33.5h-18v88q165 -6 308 -9t267 -3q125 0 258.5 3t276.5 9q0 -78 6 -163.5t19 -184.5l-89 -12q-12 130 -80.5 175.5
t-281.5 45.5q-43 0 -104 -1.5t-137 -4.5q-2 -153 -3.5 -277.5t-3.5 -219.5q54 -1 137 -2t113 -1q152 0 200 28t52 105l84 -6q-9 -79 -13 -134t-4 -97q0 -25 5 -110q2 -43 3 -68l-83 -4v18q0 85 -47.5 115t-210.5 30q-25 0 -91.5 -1t-109.5 -1h-35v-256v-84q0 -153 32.5 -191
t129.5 -38q6 0 18.5 1t20.5 1v-90q-21 1 -60 3q-196 9 -276 9q-37 0 -170 -6q-91 -4 -145 -6v88z" />
    <glyph glyph-name="G" unicode="G" horiz-adv-x="1626" 
d="M1405 1382q1 -88 10 -174.5t25 -171.5l-101 -20q-26 142 -133.5 214.5t-292.5 72.5q-249 0 -386.5 -148t-137.5 -416q0 -285 149.5 -454.5t397.5 -169.5q56 0 110.5 10.5t108.5 32.5q1 45 2.5 118.5t1.5 92.5q0 146 -35 182.5t-153 36.5h-29v89q104 -5 176 -7t131 -2
q64 0 140 2t186 7v-89h-29q-79 0 -104 -36t-25 -200v-98q0 -55 2 -106t6 -101q-236 -52 -348 -68t-203 -16q-358 0 -575 202t-217 535q0 341 235.5 551.5t616.5 210.5q118 0 236.5 -20t234.5 -60z" />
    <glyph glyph-name="H" unicode="H" horiz-adv-x="1731" 
d="M78 1427q29 -1 84 -4q154 -8 209 -8q69 0 248 9q40 2 61 3v-90h-23q-86 0 -116.5 -42t-30.5 -224v-45v-219q84 -3 166 -4.5t162 -1.5q75 0 169 1.5t207 4.5v264q0 182 -30 224t-117 42h-23v90q96 -6 173 -9t137 -3q55 0 209 8q54 3 84 4v-89q-6 0 -13.5 0.5t-19.5 0.5
q-79 0 -107 -51.5t-28 -228.5q0 -30 1 -108t1 -128v-211q0 -60 -1 -150.5t-1 -121.5q0 -157 29 -204.5t110 -47.5q15 0 22.5 0.5t13.5 1.5v-90q-34 2 -96 5q-155 7 -206 7q-57 0 -137 -3t-183 -9v90q8 0 20 -1t17 -1q86 0 115.5 45t29.5 232v75v213q-101 2 -186 3t-168 1
q-142 0 -214.5 -1t-135.5 -3v-288q0 -187 29.5 -232t115.5 -45q5 0 17.5 1t19.5 1v-90q-104 6 -184 9t-135 3q-52 0 -206 -7q-62 -3 -97 -5v90q7 -1 15 -1.5t24 -0.5q80 0 108.5 52.5t28.5 226.5q0 30 -1 111t-1 132v213q0 56 1 142t1 116q0 160 -29 209t-106 49
q-13 0 -20 -0.5t-13 -0.5v89z" />
    <glyph glyph-name="I" unicode="I" horiz-adv-x="784" 
d="M72 1427q98 -6 179.5 -9t145.5 -3q63 0 141.5 3t174.5 9v-90h-21q-69 0 -98.5 -14t-42.5 -51q-11 -31 -16 -122t-5 -327v-411q0 -141 5.5 -195.5t19.5 -79.5t47 -36t98 -11h25v-90q-110 6 -193 9t-141 3q-53 0 -137 -3t-195 -9v90h25q67 0 100 11t45 36q15 28 21 91.5
t6 230.5v151v434q0 124 -5.5 173.5t-19.5 73.5q-13 24 -45.5 35t-93.5 11h-20v90z" />
    <glyph glyph-name="J" unicode="J" horiz-adv-x="750" 
d="M53 1427q95 -6 174.5 -9t143.5 -3q68 0 242 9q42 2 65 3v-90h-21q-86 0 -114.5 -40.5t-28.5 -221.5v-31q0 -96 1 -259t1 -230q0 -281 -15 -420t-50 -225q-62 -150 -189 -241t-274 -91q-98 0 -152.5 34t-54.5 95q0 53 27 84t73 31q34 0 101.5 -45t107.5 -45q80 0 114 81.5
t34 299.5l-2 1050q0 103 -33 138.5t-123 35.5h-27v90z" />
    <glyph glyph-name="K" unicode="K" horiz-adv-x="1565" 
d="M934 1427q18 -1 53 -3q163 -9 230 -9q52 0 200 9q39 2 62 3v-90h-19q-118 0 -269 -144l-1 -1l-412 -395l443 -463q21 -22 59 -63q171 -183 262 -183q12 0 18 0.5t11 1.5l-1 -90q-20 1 -61 4q-131 8 -178 8q-28 0 -131 -6q-63 -4 -100 -6q1 3 1.5 5.5t0.5 8.5
q0 65 -330 409q-164 170 -262 275l369 389l14 16q149 158 149 185q0 26 -20 37.5t-66 11.5h-22v90zM76 1427q107 -6 184 -9t123 -3q44 0 112.5 2.5t186.5 7.5v-88h-20q-92 0 -122 -44t-30 -242v-676q0 -200 30 -243.5t117 -43.5q5 0 17.5 1t19.5 1v-90q-31 1 -89 4
q-168 8 -228 8q-50 0 -128 -3t-183 -9v90q7 -1 15 -1.5t23 -0.5q81 0 109.5 52t28.5 249v103q0 48 -0.5 72.5t-1.5 47.5v219q0 53 1 134.5t1 111.5q0 169 -28.5 215.5t-109.5 46.5q-3 0 -13 -1t-15 -1v90z" />
    <glyph glyph-name="L" unicode="L" horiz-adv-x="1276" 
d="M90 1427q85 -5 160.5 -7.5t134.5 -2.5q61 0 136.5 2.5t174.5 7.5v-90q-6 0 -17 1t-15 1q-84 0 -114 -50t-30 -226q0 -26 1 -94t1 -111l2 -702l6 -1q129 -8 195 -8q251 0 329 52t128 198l92 -28q-31 -91 -55.5 -183t-42.5 -186q-177 6 -329 9t-278 3q-125 0 -251.5 -3
t-251.5 -9v88h28q54 0 83 11t42 36q28 55 30 411q1 46 1 70l2 218q0 44 1 115.5t1 99.5q0 180 -29.5 235t-111.5 55h-23v88z" />
    <glyph glyph-name="M" unicode="M" horiz-adv-x="1942" 
d="M975 444l262 590q83 188 110 265.5t27 117.5v10q10 0 30 -1q153 -7 220 -7q37 0 153 5q48 2 74 3v-90q-103 0 -136.5 -26t-33.5 -109q0 -40 4 -133.5t11 -204.5l14 -243q17 -266 25 -352.5t16 -114.5q8 -31 41 -47.5t86 -16.5h25l-1 -90q-85 5 -165 7.5t-148 2.5
q-39 0 -103 -2t-192 -8v90h31q82 0 113.5 28t31.5 99q0 24 -0.5 49.5t-3.5 65.5l-41 798l-362 -819q-52 -118 -73 -179.5t-32 -117.5h-108q-9 41 -25 88t-49 125l-366 879q-29 -324 -44.5 -544t-15.5 -298q0 -107 29 -140.5t115 -33.5h28v-90q-98 6 -159.5 8t-106.5 2
q-24 0 -68.5 -1.5t-178.5 -8.5l-1 90q2 0 7 -1q26 -3 36 -3q132 0 161 368q8 100 13 158l23 240q12 142 19 237t7 121q0 74 -28.5 100.5t-110.5 26.5h-26v90q64 -4 123.5 -6t109.5 -2q40 0 168 5q52 2 82 3v-8q0 -78 234 -625q94 -220 149 -350z" />
    <glyph glyph-name="N" unicode="N" horiz-adv-x="1726" 
d="M47 1425q38 -1 119.5 -5.5t116.5 -4.5q31 0 108.5 4.5t114.5 5.5q14 -37 41 -78.5t71 -93.5l735 -867q-1 130 -3 347q-4 477 -15 521q-14 48 -44 65.5t-99 17.5h-33v88q109 -5 166 -7.5t94 -2.5q44 0 106 2.5t156 7.5v-88h-18q-64 0 -94 -14.5t-43 -50.5
q-16 -48 -23 -451v-16l-4 -217q-2 -125 -3 -234.5t-1 -183.5q0 -49 3.5 -95t10.5 -89h-196q-12 25 -35 57t-88 109l-807 944q0 -473 5 -678.5t15 -242.5q14 -48 44.5 -66.5t99.5 -18.5h31v-90q-114 6 -172.5 8t-96.5 2q-32 0 -87.5 -2t-176.5 -8v90q8 -1 16.5 -1.5
t24.5 -0.5q143 0 146 393q1 87 1 135l3 213q0 65 2 186.5t2 155.5q0 97 -34 132.5t-122 35.5q-6 0 -18.5 -1t-18.5 -1v88z" />
    <glyph glyph-name="O" unicode="O" horiz-adv-x="1716" 
d="M1319 688q0 283 -131 455t-344 172q-204 0 -325.5 -153t-121.5 -414q0 -285 132.5 -458t344.5 -173q205 0 325 153t120 418zM860 1464q159 0 284 -43.5t230 -134.5q122 -106 188 -252.5t66 -310.5q0 -326 -221 -543t-553 -217q-173 0 -313 56.5t-248 168.5
q-100 105 -152.5 239.5t-52.5 285.5q0 167 65.5 310.5t190.5 250.5q104 90 240 140t276 50z" />
    <glyph glyph-name="P" unicode="P" horiz-adv-x="1327" 
d="M514 701q37 -6 68.5 -8.5t58.5 -2.5q174 0 266 79.5t92 227.5q0 138 -87 217.5t-238 79.5q-35 0 -71.5 -3t-84.5 -11q-2 -125 -3 -253t-1 -326zM68 88q9 -1 18 -1.5t27 -0.5q80 0 108.5 49t28.5 225v86q0 60 -1 93t-3 63l-2 242v352q0 77 -32 110t-106 33h-20v93
q82 -7 151.5 -10t129.5 -3q93 0 212.5 6.5t143.5 6.5q257 0 404 -113t147 -307q0 -204 -152 -323.5t-417 -119.5q-44 0 -157 10q-22 2 -32 3v-248q0 -163 31.5 -203.5t126.5 -40.5h35v-90q-99 6 -185 9t-159 3q-32 0 -106 -3t-191 -9v88z" />
    <glyph glyph-name="Q" unicode="Q" horiz-adv-x="1716" 
d="M1319 688q0 282 -131.5 454.5t-343.5 172.5q-204 0 -325.5 -153t-121.5 -414q0 -287 132.5 -459t349.5 -172q202 0 321 153t119 418zM1135 31l202 -121q200 -120 315 -165.5t206 -45.5q33 0 66.5 3.5t69.5 10.5l15 -86q-124 -36 -212 -52.5t-157 -16.5q-255 0 -802 399
l-27 20q-314 0 -517.5 205t-203.5 518q0 326 227 545t568 219q144 0 270.5 -46.5t224.5 -135.5q120 -107 184 -251.5t64 -307.5q0 -247 -129 -428.5t-364 -263.5z" />
    <glyph glyph-name="R" unicode="R" horiz-adv-x="1546" 
d="M518 719q53 -3 90 -4.5t62 -1.5q31 0 66 1.5t73 4.5q87 56 127.5 127.5t40.5 167.5q0 125 -84.5 202.5t-224.5 77.5q-43 0 -78.5 -3t-69.5 -9q-1 -109 -1.5 -228t-0.5 -335zM70 88q8 -1 15.5 -1.5t23.5 -0.5q82 0 110.5 54t28.5 286v74v69v37l4 224q1 71 1.5 141t0.5 168
q0 126 -30.5 163t-114.5 37h-21v88q107 -5 177 -7.5t122 -2.5q74 0 184 5t148 5q248 0 391 -103t143 -280q0 -118 -71.5 -208t-214.5 -154l196 -276q140 -218 204.5 -274t137.5 -56q4 0 11.5 1t11.5 1v-84q-61 -5 -106 -7.5t-79 -2.5q-122 0 -191 27t-124 93
q-26 31 -128 199.5t-179 288.5q-62 -2 -110 -3t-93 -1v-266q0 -153 30 -192.5t118 -39.5h28v-90q-82 5 -164 7.5t-168 2.5q-28 0 -82.5 -1.5t-209.5 -8.5v88z" />
    <glyph glyph-name="S" unicode="S" horiz-adv-x="1235" 
d="M1053 1384v-22q0 -73 8.5 -149.5t25.5 -157.5l-104 -17q-17 130 -96.5 196t-218.5 66q-129 0 -202 -51t-73 -141q0 -60 30 -103.5t93 -76.5q49 -26 169.5 -66t178.5 -63q131 -54 196.5 -141t65.5 -207q0 -218 -167 -348t-453 -130q-94 0 -190 18.5t-187 53.5q0 11 1 29.5
t1 27.5q0 77 -9.5 157t-29.5 165l109 27q38 -184 122.5 -257t251.5 -73q135 0 213 60t78 161q0 144 -275 241q-61 21 -93 33q-190 71 -272.5 165t-82.5 235q0 194 150 313t397 119q86 0 174.5 -15.5t188.5 -48.5z" />
    <glyph glyph-name="T" unicode="T" horiz-adv-x="1411" 
d="M358 90h37q67 0 98 14.5t46 51.5q10 28 14 136t4 400v572h-172q-157 0 -215 -44t-80 -169l-94 20q23 99 35.5 189.5t15.5 178.5q38 -13 107 -18.5t233 -5.5h221h125h254q184 0 256.5 5.5t106.5 19.5v-31q0 -78 6.5 -161.5t19.5 -176.5l-90 -14q-17 122 -69 164.5
t-205 42.5h-25h-151q-3 -160 -4 -315t-1 -361v-187q0 -132 6 -185t19 -79q15 -25 47 -36t90 -11h35v-90q-25 1 -74 3q-196 9 -268 9q-52 0 -133.5 -3t-194.5 -9v90z" />
    <glyph glyph-name="U" unicode="U" horiz-adv-x="1688" 
d="M682 1427v-90q-6 0 -17 1t-16 1q-85 0 -115 -49.5t-30 -251.5v-80v-149q0 -202 7 -286.5t24 -133.5q38 -119 134 -182.5t236 -63.5q115 0 196 38.5t132 117.5q34 53 48.5 138.5t14.5 254.5q0 32 -1 106.5t-1 116.5v105q0 211 -30 265t-115 54q-13 0 -20 -0.5t-13 -0.5v89
q93 -5 154.5 -7.5t105.5 -2.5q41 0 99.5 2.5t152.5 7.5v-90h-16q-60 0 -89 -13.5t-42 -47.5q-19 -50 -24 -435q0 -55 -1 -85v-55q-2 -342 -74 -470t-212 -198t-326 -70q-171 0 -303.5 56.5t-208.5 160.5q-57 78 -81 180t-24 304q0 54 3 192t3 221q0 175 -28.5 217.5
t-112.5 42.5h-24v90q113 -5 183.5 -7.5t121.5 -2.5q47 0 118 2.5t191 7.5z" />
    <glyph glyph-name="V" unicode="V" horiz-adv-x="1565" 
d="M10 1427q34 -1 95 -4q157 -8 210 -8q70 0 258 9q48 2 74 3v-87q-94 -2 -122.5 -20t-28.5 -69q0 -19 7 -48t27 -89l290 -814l6 16q345 860 345 941q0 47 -29 65t-118 20v85q16 -1 47 -2q153 -10 215 -10q50 0 194 9q44 2 68 3v-90q-39 0 -68.5 -6t-49.5 -18
q-38 -24 -131 -247q-39 -93 -62 -146q-207 -484 -295 -699.5t-88 -236.5h-205q0 25 -114.5 348t-270.5 717q-8 21 -24 60q-92 234 -205 234q-4 0 -12.5 -1t-12.5 -1v86z" />
    <glyph glyph-name="W" unicode="W" horiz-adv-x="2208" 
d="M772 322l277 702l-58 180q-26 83 -54 109t-83 26q-7 0 -20 -1t-19 -1v90q17 0 51 -2q178 -10 246 -10q46 0 116.5 3t168.5 9v-90q-8 0 -20.5 1t-18.5 1q-58 0 -81.5 -18t-23.5 -64q0 -22 11 -64t34 -114l242 -755l55 158q244 698 244 773q0 45 -25.5 63.5t-91.5 18.5h-28
v90q22 -1 61 -3q140 -9 191 -9q48 0 187 9q40 2 62 3v-90q-4 1 -11 1.5t-19 0.5q-107 0 -224 -336q-45 -128 -73 -204l-86 -226q-15 -37 -43 -110q-129 -336 -168 -477h-189q-10 44 -22.5 89t-32.5 103l-211 635l-246 -620q-30 -75 -44.5 -120t-24.5 -87h-189
q-12 67 -158 471l-34 94l-101 278q-23 67 -61 180q-112 332 -213 332q-9 0 -28 -3q-3 0 -5 -1v90q101 -6 172 -9t115 -3q51 0 200 8q55 3 85 4v-90h-23q-51 0 -75.5 -18.5t-24.5 -56.5q0 -34 41 -150l2 -6z" />
    <glyph glyph-name="X" unicode="X" horiz-adv-x="1509" 
d="M72 1427q28 -1 80 -4q159 -8 215 -8q58 0 133 3t164 9v-90h-15q-51 0 -73.5 -11t-22.5 -36q0 -31 72 -141q11 -17 16 -25l147 -225l148 209q50 73 70 114t20 68q0 25 -18 36t-60 11h-24v90q83 -5 141.5 -7.5t103.5 -2.5q43 0 102.5 2.5t145.5 7.5v-90q-4 0 -11.5 1
t-10.5 1q-101 0 -229 -172q-26 -34 -40 -53l-249 -328l360 -518q84 -118 126.5 -149t94.5 -31q4 0 12.5 1t12.5 1l-1 -90q-122 6 -197.5 8t-129.5 2q-57 0 -133 -2.5t-163 -7.5l-1 90q5 0 15 -1t14 -1q47 0 71.5 14t24.5 41q0 21 -12 47t-47 76l-219 322l-181 -256
q-47 -67 -69.5 -111.5t-22.5 -73.5q0 -31 19.5 -45t64.5 -14q4 0 14 1t17 1v-90q-115 6 -174.5 8t-96.5 2q-39 0 -96.5 -2t-163.5 -8v90q4 0 12.5 -1t12.5 -1q59 0 107 31t118 123l352 458l-321 471q-6 9 -17 25q-93 141 -198 141h-10v90z" />
    <glyph glyph-name="Y" unicode="Y" horiz-adv-x="1425" 
d="M12 1427q109 -5 185 -7.5t135 -2.5q43 0 109 2.5t182 7.5v-90q-67 0 -98 -11.5t-31 -37.5q0 -36 40 -108q11 -20 17 -31l221 -395l67 116q212 368 212 412q0 29 -23 42t-72 13h-22v90q88 -5 143.5 -7.5t93.5 -2.5q40 0 97.5 2.5t144.5 7.5v-87q-4 0 -9 0.5t-15 0.5
q-97 0 -233 -222q-30 -51 -48 -79l-268 -430l2 -320q2 -128 32 -165t117 -37q6 0 20 1t21 1v-90q-110 6 -196 9t-146 3q-54 0 -216 -7q-68 -3 -107 -5v90q8 0 22.5 -1t20.5 -1q88 0 119.5 39t33.5 159l2 316l-334 559q-7 12 -21 35q-87 143 -169 143q-11 0 -17.5 -0.5
t-11.5 -0.5v89z" />
    <glyph glyph-name="Z" unicode="Z" horiz-adv-x="1509" 
d="M180 1427q62 -7 139 -10.5t195 -3.5q47 0 150 1t159 1q38 0 120 -1t126 -1q93 0 162 3.5t131 10.5l43 -81q-38 -33 -77 -76.5t-97 -120.5l-743 -987q59 -1 130 -1.5t211 -0.5q192 0 291.5 14t143.5 45q33 24 61 73.5t53 127.5l95 -25q-36 -101 -62 -200t-41 -195
q-127 9 -286 13.5t-375 4.5q-239 0 -363 -4t-231 -14l-49 82q41 30 80.5 72.5t99.5 121.5l743 988q-55 0 -147.5 1t-130.5 1q-160 0 -246 -9t-137 -28q-44 -18 -73 -60.5t-48 -119.5l-94 22q26 89 43 177.5t24 178.5z" />
    <glyph glyph-name="bracketleft" unicode="[" horiz-adv-x="954" 
d="M318 1542q73 -5 142 -7.5t138 -2.5h270v-102h-51q-61 -1 -128.5 -4t-153.5 -11l-11 -1646q69 -11 137.5 -16t143.5 -5q2 0 10 1q28 1 53 1v-104h-252q-88 0 -163.5 -2t-145.5 -6q7 260 11 560.5t4 653.5q0 180 -1.5 346t-2.5 344z" />
    <glyph glyph-name="backslash" unicode="\" horiz-adv-x="967" 
d="M94 1526q293 -559 505.5 -952.5t387.5 -704.5l-121 -62q-264 501 -484 909t-409 748z" />
    <glyph glyph-name="bracketright" unicode="]" horiz-adv-x="954" 
d="M643 1542q-5 -350 -7.5 -567.5t-2.5 -368.5q0 -242 1.5 -484t4.5 -484q-136 4 -210 6t-138 2h-213v104q18 -1 34 -1.5t31 -0.5q87 0 266 19l13 2l2 1646q-88 7 -157.5 10.5t-119.5 4.5h-69v102h244q75 0 154 2.5t167 7.5z" />
    <glyph glyph-name="asciicircum" unicode="^" horiz-adv-x="2048" 
d="M1130 1462l502 -565h-104l-506 397l-506 -397h-104l503 565h215z" />
    <glyph glyph-name="underscore" unicode="_" horiz-adv-x="1024" 
d="M1024 -311v-172h-1024v172h1024z" />
    <glyph glyph-name="grave" unicode="`" horiz-adv-x="1024" 
d="M416 1575l264 -408l-98 -34l-359 337z" />
    <glyph glyph-name="a" unicode="a" horiz-adv-x="1075" 
d="M643 477q-22 -6 -64 -18q-286 -79 -286 -187q0 -60 39 -100.5t98 -40.5q38 0 86.5 19t126.5 65v262zM1042 170l37 -76q-91 -60 -163.5 -89.5t-129.5 -29.5q-69 0 -105.5 35.5t-42.5 107.5q-109 -76 -184 -109.5t-135 -33.5q-105 0 -179 81.5t-74 195.5q0 192 429 291
q93 22 146 35q1 25 1.5 48.5t0.5 45.5q0 107 -41.5 156t-132.5 49q-59 0 -101.5 -24t-45.5 -56q-1 -5 -1 -13q-6 -100 -126 -100q-45 0 -69 15t-24 44q0 80 147.5 179.5t309.5 99.5q158 0 240 -82.5t82 -241.5q0 -48 -7.5 -198.5t-7.5 -253.5q0 -61 16 -88t50 -27
q19 0 47 10t63 29z" />
    <glyph glyph-name="b" unicode="b" horiz-adv-x="1219" 
d="M424 154q42 -24 84 -36t86 -12q143 0 225 96t82 263q0 177 -78.5 282t-210.5 105q-48 0 -97.5 -16t-102.5 -49q-1 -55 -1.5 -112t-0.5 -147q0 -185 3 -264.5t11 -109.5zM424 1550q-8 -185 -12 -348t-4 -309q87 63 164 93t153 30q180 0 304 -138t124 -341
q0 -246 -171.5 -403t-449.5 -157q-95 0 -187 14t-179 42q6 338 9 556t3 316v127q0 227 -20 290.5t-76 63.5q-4 0 -14.5 -1.5t-28.5 -3.5l-8 83q97 14 194.5 35t198.5 51z" />
    <glyph glyph-name="c" unicode="c" horiz-adv-x="987" 
d="M885 231l55 -98q-112 -83 -214 -124.5t-194 -41.5q-206 0 -337.5 141t-131.5 363q0 233 164 392t408 159q137 0 207.5 -40.5t70.5 -119.5q0 -45 -33 -81t-75 -36q-36 0 -114 62.5t-146 62.5q-105 0 -167.5 -87t-62.5 -234q0 -188 86.5 -295t237.5 -107q57 0 117.5 21
t128.5 63z" />
    <glyph glyph-name="d" unicode="d" horiz-adv-x="1233" 
d="M807 811q-55 32 -106 47.5t-101 15.5q-136 0 -211.5 -89.5t-75.5 -254.5q0 -175 76 -280t201 -105q44 0 96.5 18t118.5 56zM1058 1550q-6 -221 -11 -457.5t-9 -503.5v-253v-43q0 -125 16.5 -159t59.5 -34q15 0 31.5 3.5t36.5 10.5l18 -79q-89 -35 -182 -52.5t-197 -18.5
q-6 30 -10 66t-7 82q-91 -67 -168.5 -98.5t-150.5 -31.5q-184 0 -303 135.5t-119 349.5q0 239 149 388t388 149q51 0 103 -9t110 -28q0 6 1 19q3 139 3 200q0 141 -20 174t-74 33q-9 0 -24 -1.5t-37 -4.5l-9 81q94 12 194.5 32.5t210.5 49.5z" />
    <glyph glyph-name="e" unicode="e" horiz-adv-x="1085" 
d="M997 533l-417 -1q-107 0 -160 -1.5t-98 -6.5q0 -179 88.5 -281t244.5 -102q75 0 148.5 23.5t148.5 71.5l45 -86q-116 -92 -228 -137.5t-222 -45.5q-209 0 -343 139.5t-134 358.5q0 238 145 397.5t356 159.5q189 0 306 -133.5t120 -355.5zM760 655q-21 117 -76.5 182.5
t-132.5 65.5q-92 0 -152 -71t-75 -199h63q123 0 214 5.5t159 16.5z" />
    <glyph glyph-name="f" unicode="f" horiz-adv-x="735" 
d="M442 1032v-71h66q51 0 102 1.5t103 3.5q0 -13 -1 -35.5t-1 -29.5v-61q-7 0 -19 1q-141 7 -203 7h-44q-2 -61 -2.5 -128.5t-0.5 -195.5q0 -38 -1 -100.5t-1 -85.5q0 -163 29 -209.5t111 -46.5q19 0 30.5 0.5t19.5 1.5l1 -84q-93 6 -165.5 9t-125.5 3q-48 0 -117.5 -3
t-167.5 -9v84h31q71 0 96 42t25 183q0 23 -1 85t-1 102v350h-72q-2 0 -28 -1.5t-49 -2.5v94q48 3 83 16t64 39q7 258 148.5 406.5t377.5 148.5q97 0 154 -37t57 -100q0 -46 -26.5 -75t-67.5 -29q-37 0 -117.5 43t-126.5 43q-87 0 -123.5 -76.5t-36.5 -282.5z" />
    <glyph glyph-name="g" unicode="g" horiz-adv-x="1141" 
d="M535 928q-91 0 -144 -64t-53 -176q0 -123 53 -192.5t148 -69.5q94 0 147 62.5t53 175.5q0 131 -51.5 197.5t-152.5 66.5zM356 -16q-40 -42 -58.5 -80t-18.5 -76q0 -88 79 -147.5t201 -59.5q141 0 236.5 67t95.5 160q0 76 -57.5 106t-235.5 30h-242zM801 954
q115 0 176.5 2t116.5 7l-3 -119q-44 5 -95.5 7.5t-118.5 2.5q45 -41 66.5 -88.5t21.5 -103.5q0 -139 -117.5 -232.5t-294.5 -93.5q-18 0 -67 3q-10 1 -15 1q-21 -13 -42.5 -29.5t-49.5 -42.5q21 -31 42 -53t44 -39h108h191q161 0 239 -59.5t78 -182.5q0 -82 -50.5 -167
t-141.5 -152q-85 -64 -197 -100.5t-221 -36.5q-174 0 -284.5 80t-110.5 200q0 73 48 138.5t161 144.5q-45 42 -74 85.5t-47 94.5q37 38 86 73t110 68q-125 31 -190.5 106.5t-65.5 190.5q0 151 125 257t306 106q81 0 143.5 -16t122.5 -52z" />
    <glyph glyph-name="h" unicode="h" horiz-adv-x="1274" 
d="M444 1548q-1 -52 -4 -157q-10 -353 -12 -532q115 84 202.5 121.5t166.5 37.5q150 0 226.5 -90.5t76.5 -270.5q0 -31 -2 -152.5t-2 -209.5v-29q0 -124 22 -153t86 -29h19v-84q-89 6 -152 9t-102 3q-42 0 -103.5 -3t-142.5 -9v84h12q124 0 127 249v13l2 176v31
q0 173 -40.5 235t-135.5 62q-52 0 -111 -21t-143 -71l-4 -250v-143v-91q0 -124 22 -157t85 -33h14v-84q-88 6 -151 9t-103 3q-51 0 -114 -3t-140 -9v83q6 0 13.5 -0.5t21.5 -0.5q69 0 94 45t25 207v180v39l2 567v66q0 131 -17 163.5t-65 32.5q-23 0 -35.5 -1t-24.5 -2l-8 79
q95 13 193.5 35.5t201.5 54.5z" />
    <glyph glyph-name="i" unicode="i" horiz-adv-x="659" 
d="M317 1526l91 -62q34 -23 50.5 -48t16.5 -54q0 -30 -13 -51.5t-46 -44.5l-97 -66l-90 60q-36 23 -53.5 48t-17.5 52q0 30 14 53t51 49zM457 1024q-6 -216 -9.5 -377t-3.5 -264v-117q0 -117 23.5 -149.5t89.5 -32.5q5 0 15.5 1t17.5 1v-86q-92 6 -161 9t-114 3
q-38 0 -102.5 -3t-153.5 -9v86h21q128 0 129 236v59l2 213v88q0 112 -18 144t-70 32q-7 0 -32 -2q-11 -1 -17 -2l-15 80q106 14 204 36t194 54z" />
    <glyph glyph-name="j" unicode="j" horiz-adv-x="610" 
d="M299 1526l90 -62q36 -23 53 -48.5t17 -55.5q0 -27 -14.5 -49t-47.5 -45l-96 -68l-90 62q-37 24 -53.5 48.5t-16.5 55.5q0 29 15 52.5t49 45.5zM440 1022q-8 -291 -11 -421t-3 -218q0 -5 1 -60t1 -106v-92q0 -222 -25 -321.5t-86 -174.5q-60 -74 -155.5 -119t-192.5 -45
l-15.5 1.5t-31.5 1.5v98q152 12 211.5 101t59.5 341l2 654q0 133 -17.5 164.5t-68.5 31.5q-8 0 -20.5 -1.5t-31.5 -4.5l-8 82q102 14 200 36t191 52z" />
    <glyph glyph-name="k" unicode="k" horiz-adv-x="1223" 
d="M817 0v18q0 22 -14.5 48.5t-61.5 80.5l-315 377q182 169 254 245t72 99q0 19 -14.5 27t-49.5 8h-26v88q93 -6 142 -8t81 -2q44 0 100.5 2.5t132.5 7.5v-87q-4 0 -9.5 0.5t-16.5 0.5q-107 0 -335 -212q-66 -61 -104 -95l322 -362q10 -12 28 -33q103 -119 183 -119
q3 0 9.5 1t10.5 1l-2 -86q-60 6 -115 9t-106 3q-14 0 -53 -2.5t-113 -9.5zM45 86h18q46 0 75 14.5t38 40.5q21 58 24 550q1 33 1 50l2 185v159v70q0 153 -18.5 190t-71.5 37q-8 0 -20.5 -1.5t-31.5 -3.5l-16 83q106 14 205.5 36t195.5 52q-9 -358 -14.5 -619t-5.5 -378v-365
q0 -53 25 -76.5t84 -23.5h22v-86q-84 6 -150 9t-112 3q-59 0 -121 -3t-129 -9v86z" />
    <glyph glyph-name="l" unicode="l" horiz-adv-x="653" 
d="M449 1548q-7 -186 -10 -355t-3 -323v-444q0 -153 5 -213.5t15 -82.5t37 -33t70 -11h23v-86q-96 6 -166.5 9t-116.5 3q-42 0 -106 -3t-150 -9v86q5 0 15.5 -1t15.5 -1q124 0 124 310q1 50 1 77l2 457v270q0 112 -17.5 149t-64.5 37q-13 0 -28 -1.5t-29 -4.5l-11 80
q107 17 204.5 39t189.5 51z" />
    <glyph glyph-name="m" unicode="m" horiz-adv-x="1876" 
d="M434 1022q-4 -32 -9 -105q-2 -34 -3 -50q122 84 203 119.5t149 35.5q92 0 157 -41.5t105 -126.5q122 90 209 129t162 39q140 0 216.5 -94t76.5 -269v-86l-4 -251q0 -7 -1 -40.5t-1 -60.5q0 -85 22.5 -111t87.5 -26h25v-84q-80 6 -144.5 9t-113.5 3q-35 0 -94.5 -3
t-141.5 -9l1 84q5 -1 12 -1.5t20 -0.5q61 0 81.5 40.5t20.5 203.5v112q0 35 1.5 92.5t1.5 79.5q0 124 -43 182t-134 58q-43 0 -101 -21.5t-130 -64.5l-4 -461q0 -46 -2 -90v-6q0 -77 19 -100t75 -23h25v-84q-79 6 -143.5 9t-114.5 3q-28 0 -82 -3t-133 -9v84q6 -1 13 -1.5
t19 -0.5q57 0 77 42t20 187v150v153q0 124 -41.5 180t-130.5 56q-45 0 -103 -20.5t-129 -61.5q-1 -33 -2 -95q-6 -285 -6 -392q0 -138 19.5 -167.5t80.5 -29.5h29v-84q-86 6 -151.5 9t-110.5 3q-44 0 -173 -8q-44 -3 -66 -4l-1 84h25q123 0 124 246q1 30 1 47v299
q0 114 -17.5 148t-64.5 34q-7 0 -19 -1.5t-28 -4.5l-9 78q72 14 155 34.5t218 57.5z" />
    <glyph glyph-name="n" unicode="n" horiz-adv-x="1272" 
d="M440 1024l-16 -164q120 86 205 125t151 39q157 0 236.5 -91.5t79.5 -270.5q0 -34 -2 -157.5t-2 -213.5q0 -147 21.5 -177t86.5 -30h21l-2 -84q-89 6 -152 9t-102 3q-42 0 -103.5 -3t-142.5 -9v84h12q124 0 127 250v12v211q0 173 -40 233t-136 60q-52 0 -112 -21.5
t-132 -66.5q-4 -90 -6 -187t-2 -208v-82q0 -135 21.5 -168t85.5 -33h16v-84q-84 6 -147 9t-107 3q-43 0 -106 -3t-146 -9v84h23q124 0 126 251q0 30 1 46l2 207v88q0 113 -17.5 146.5t-64.5 33.5q-9 0 -40 -3q-6 -1 -9 -1l-6 78q83 13 175 36t203 58z" />
    <glyph glyph-name="o" unicode="o" horiz-adv-x="1206" 
d="M588 891q-123 0 -190.5 -91.5t-67.5 -258.5q0 -203 77 -322t207 -119q124 0 195.5 96t71.5 263q0 199 -79.5 315.5t-213.5 116.5zM608 1022q235 0 385 -144.5t150 -365.5q0 -232 -156.5 -387.5t-390.5 -155.5t-382 146t-148 374q0 224 158.5 378.5t383.5 154.5z" />
    <glyph glyph-name="p" unicode="p" horiz-adv-x="1231" 
d="M416 170q48 -29 102.5 -45t108.5 -16q131 0 206.5 91.5t75.5 252.5q0 181 -76.5 286t-205.5 105q-56 0 -108.5 -15.5t-96.5 -44.5q-3 -130 -4.5 -246t-1.5 -212v-156zM432 1049l-10 -162q91 64 167 93.5t152 29.5q178 0 296 -135t118 -336q0 -248 -146.5 -398.5
t-383.5 -150.5q-57 0 -109.5 9t-99.5 28l-2 -201v-80q0 -116 26.5 -145t112.5 -29h39l-1 -88q-105 5 -176.5 7.5t-127.5 2.5q-33 0 -89.5 -2t-172.5 -8v88h16q52 0 79.5 10t37.5 31q16 33 22 124.5t6 350.5v111v397q0 163 -19 209.5t-71 46.5q-6 0 -30 -2q-13 -2 -19 -2
l-10 76q104 20 202.5 51t192.5 74z" />
    <glyph glyph-name="q" unicode="q" horiz-adv-x="1219" 
d="M797 817q-55 35 -105.5 51.5t-99.5 16.5q-129 0 -203 -91.5t-74 -252.5q0 -174 82.5 -286t206.5 -112q44 0 93 17t106 51q0 127 1 260q1 30 1 37q0 121 -2 186t-6 123zM1053 1040q-1 -37 -3 -115q-12 -409 -12 -624v-356q0 -38 -1 -96t-1 -80q0 -127 22 -164t85 -37
q15 0 24 0.5t16 1.5l1 -86q-89 4 -164.5 6t-126.5 2q-58 0 -127 -2t-148 -6l1 86q9 -1 20 -1.5t31 -0.5q80 0 107.5 42t27.5 218v74v198q-100 -66 -170.5 -92t-142.5 -26q-184 0 -306.5 137.5t-122.5 345.5q0 234 156 390.5t387 156.5q66 0 135.5 -16t155.5 -50
q37 18 74.5 40.5t81.5 53.5z" />
    <glyph glyph-name="r" unicode="r" horiz-adv-x="870" 
d="M440 1030q-7 -94 -11 -161t-5 -117q89 149 153 204.5t140 55.5q53 0 92 -39t39 -94q0 -51 -24.5 -81t-65.5 -30q-23 0 -64 16.5t-65 16.5q-45 0 -90 -34t-105 -114q0 -32 -1 -98t-1 -100v-111q0 -173 31 -217.5t121 -44.5q6 0 19.5 1t21.5 1v-84h-3q-223 14 -290 14
q-53 0 -269 -13h-20v85h27q75 0 102 37t27 176v121v217q0 150 -18.5 185.5t-69.5 35.5q-6 0 -22 -2.5t-26 -3.5l-8 80q95 15 190 39t195 59z" />
    <glyph glyph-name="s" unicode="s" horiz-adv-x="985" 
d="M819 973q0 -63 6 -127.5t19 -130.5l-99 -19q-12 111 -66 162t-157 51q-81 0 -131.5 -40.5t-50.5 -104.5q0 -89 233 -160l7 -2q174 -53 237.5 -117t63.5 -174q0 -148 -125 -245t-322 -97q-80 0 -157.5 15.5t-149.5 46.5q1 11 1.5 25t0.5 42q0 56 -5 111t-15 108l92 23
q23 -137 85 -198.5t175 -61.5q96 0 152.5 43t56.5 117q0 88 -247 171q-41 14 -63 21q-119 41 -171 101.5t-52 156.5q0 149 112 240.5t300 91.5q56 0 122.5 -12t147.5 -37z" />
    <glyph glyph-name="t" unicode="t" horiz-adv-x="809" 
d="M356 1196l88 -25q-6 -56 -10.5 -106.5t-5.5 -95.5q131 0 195 2t118 6l-26 -137q-63 5 -135.5 7.5t-151.5 1.5q-3 -132 -4.5 -225.5t-1.5 -146.5q0 -219 31.5 -285.5t111.5 -66.5q32 0 73 13t93 40l39 -84q-110 -62 -196 -94.5t-142 -32.5q-128 0 -189 80.5t-61 249.5
q0 33 5.5 217t5.5 336q-2 0 -47.5 -2t-106.5 -4v96q116 17 194.5 80.5t122.5 175.5z" />
    <glyph glyph-name="u" unicode="u" horiz-adv-x="1274" 
d="M424 1017q-7 -178 -10.5 -322t-3.5 -240q0 -174 41 -243t137 -69q48 0 108 22t129 64q3 143 4.5 243t1.5 159v45q0 124 -22 155t-84 31q-11 0 -22 -0.5t-23 -1.5l-6 80q105 10 205 24t196 33q-7 -232 -9.5 -352.5t-2.5 -224.5v-92q0 -130 16 -163.5t64 -33.5q12 0 26.5 2
t30.5 6l10 -82l-383 -86v154q-115 -84 -197 -119t-159 -35q-150 0 -223.5 93.5t-73.5 283.5q0 40 0.5 66t1.5 52l4 136q0 20 1 51.5t1 44.5q0 99 -17 133.5t-61 34.5q-19 0 -53 -3q-4 -1 -6 -1l-6 82q95 12 191 30.5t194 42.5z" />
    <glyph glyph-name="v" unicode="v" horiz-adv-x="1102" 
d="M-2 991q83 -6 141.5 -9t96.5 -3q68 0 131 3t127 9v-88h-23q-49 0 -70.5 -14t-21.5 -45q0 -41 86 -268q75 -196 121 -326l58 141q171 410 171 461q0 28 -21 40.5t-71 12.5h-14v86q58 -6 108.5 -9t91.5 -3q38 0 145 9q29 2 43 3l1 -88h-17q-39 0 -66 -25.5t-63 -101.5
q-162 -355 -249 -556.5t-95 -239.5h-170q-4 30 -58 174t-222 562q-5 13 -15 38q-59 149 -131 149h-14v88z" />
    <glyph glyph-name="w" unicode="w" horiz-adv-x="1708" 
d="M4 991q95 -5 147.5 -7.5t84.5 -2.5q44 0 102.5 2.5t142.5 7.5v-86h-35q-39 0 -58 -16.5t-19 -50.5q0 -13 4.5 -33.5t13.5 -44.5l178 -508l230 518l-17 49q-20 55 -41.5 70.5t-64.5 15.5h-27v86q100 -6 151.5 -8t84.5 -2q40 0 97.5 2.5t149.5 7.5v-86h-32
q-41 0 -59.5 -14.5t-18.5 -46.5q0 -12 3.5 -28t14.5 -52l176 -510l45 117q164 426 164 477q0 31 -21.5 44t-72.5 13h-24v86q71 -5 120.5 -7.5t85.5 -2.5q24 0 86 4t98 6l1 -84q-2 1 -4 1q-12 3 -19 3q-77 0 -250 -440q-118 -300 -202 -494h-144l-227 639
q-94 -196 -167 -365.5t-110 -273.5h-143q-80 216 -185.5 522t-133.5 355q-17 29 -36.5 41t-47.5 12q-3 0 -10 -1t-11 -1v86z" />
    <glyph glyph-name="x" unicode="x" horiz-adv-x="1186" 
d="M27 86q4 -1 9 -1.5t13 -0.5q85 0 321 270q70 81 111 127l-243 316l-1 1q-82 107 -135 107q-9 0 -13.5 -0.5t-8.5 -0.5v87q92 -5 145.5 -7.5t87.5 -2.5q45 0 106 2.5t148 7.5v-86h-10q-40 0 -58 -11t-18 -36q0 -20 28 -63t130 -172q97 116 133.5 168.5t36.5 72.5
q0 24 -15.5 32.5t-62.5 8.5l1 86q46 -5 93 -7.5t97 -2.5q43 0 91 2.5t99 7.5v-88q-1 1 -3 1q-12 3 -19 3q-67 0 -270 -232q-70 -80 -111 -126l282 -359q51 -68 79.5 -87t62.5 -19q2 0 9 1t11 1v-86q-102 6 -163.5 8t-102.5 2q-30 0 -81 -2t-159 -8v86h12q44 0 63 11t19 36
t-102 158q-54 70 -86 112q-116 -142 -156.5 -199.5t-40.5 -76.5q0 -22 14.5 -31.5t47.5 -9.5h22v-86q-81 6 -128.5 8t-82.5 2q-28 0 -72.5 -2t-129.5 -8v86z" />
    <glyph glyph-name="y" unicode="y" horiz-adv-x="1096" 
d="M-2 991q83 -6 141.5 -9t96.5 -3q68 0 131 3t127 9v-88h-23q-49 0 -70.5 -14t-21.5 -45q0 -37 78 -242.5t127 -345.5q23 56 64 156q161 387 161 440q0 26 -18.5 39.5t-55.5 13.5h-33v86q58 -6 108.5 -9t92.5 -3q37 0 141 8q33 3 49 4l1 -88h-17q-36 0 -61 -18t-51 -68
l-88 -195t-179 -399q-35 -80 -96 -219q-236 -539 -356 -539q-50 0 -82.5 30.5t-32.5 76.5q0 66 92 83q36 6 49 13q49 25 143 222q25 54 40 83q-33 81 -134 334.5t-172 428.5q-4 11 -13 32q-53 135 -124 135h-14v88z" />
    <glyph glyph-name="z" unicode="z" horiz-adv-x="1044" 
d="M144 991q67 -5 147 -7.5t239 -2.5q214 0 287.5 2.5t112.5 7.5l35 -80q-67 -52 -206 -224l-24 -30l-352 -444q58 -4 118.5 -6t125.5 -2q171 0 217 31t63 114l82 -20q-22 -80 -36.5 -162t-21.5 -168q-131 9 -247 13.5t-213 4.5q-76 0 -164.5 -4t-208.5 -14l-37 82
q70 45 190 195l30 36l381 471q-77 0 -166 2t-101 2q-130 0 -167 -25.5t-52 -103.5l-84 21q19 75 32 153t20 158z" />
    <glyph glyph-name="braceleft" unicode="{" horiz-adv-x="928" 
d="M915 1536v-96q-13 1 -25.5 1.5t-23.5 0.5q-235 0 -243 -351v-32l-2 -67q-4 -204 -61 -287.5t-195 -108.5v-12q136 -26 193 -107.5t63 -288.5l2 -67q0 -28 1 -55q1 -6 1 -7q0 -201 49.5 -261t195.5 -60q11 0 22.5 0.5t22.5 1.5v-96q-5 0 -38 -1t-60 -1q-229 0 -315.5 82.5
t-93.5 379.5l-5 134q-5 185 -51.5 247t-163.5 62q-6 0 -18 -1t-18 -1v90q7 0 20 -1t18 -1q117 0 163.5 64.5t49.5 244.5l3 134q5 292 92.5 377t320.5 85q15 0 47.5 -1t48.5 -1z" />
    <glyph glyph-name="bar" unicode="|" horiz-adv-x="1024" 
d="M602 1565v-2048h-178v2048h178z" />
    <glyph glyph-name="braceright" unicode="}" horiz-adv-x="928" 
d="M522 1076l2 -133q4 -183 51 -246.5t166 -63.5q5 0 17 1t18 1v-90q-7 0 -21 1t-20 1q-115 0 -161 -64.5t-50 -245.5l-2 -133q-6 -294 -93.5 -378t-324.5 -84q-24 0 -54.5 1t-35.5 1v96q13 -1 24.5 -1.5t22.5 -0.5q236 0 244 356v27l2 67q4 204 61.5 289t194.5 109v10
q-137 25 -194.5 108.5t-61.5 287.5l-2 69q-1 36 -1.5 69t-0.5 76q0 129 -54 182.5t-190 53.5q-9 0 -20.5 -0.5t-24.5 -1.5v96q6 0 38.5 1t58.5 1q234 0 320 -85t91 -377z" />
    <glyph glyph-name="asciitilde" unicode="~" horiz-adv-x="1706" 
d="M1530 600q-103 -71 -197.5 -106t-183.5 -35q-44 0 -92.5 8.5t-98.5 26.5q-25 8 -76 26q-212 74 -319 74q-82 0 -174 -38t-211 -122v187q106 72 202 107.5t185 35.5q62 0 125.5 -12t168.5 -48q13 -4 42 -15q164 -58 250 -58q85 0 177 37t202 116v-184z" />
    <glyph glyph-name="Euro" horiz-adv-x="1217" 
d="M1184 367q-30 -77 -53 -152.5t-39 -151.5q-90 -48 -176.5 -73t-165.5 -25q-224 0 -377.5 155t-192.5 419h-12q-25 0 -109 -3q-28 -1 -43 -1l31 92l92 -2h13h18q-1 13 -1.5 30t-0.5 50q0 17 0.5 36t3.5 57l-12 1q-23 0 -90 -3q-34 -1 -54 -1l32 92q33 -1 56.5 -1.5
t47.5 -0.5h30q45 258 204.5 414.5t379.5 156.5q94 0 184 -20t180 -62q0 -10 -1 -31.5t-1 -31.5q0 -87 17 -252l2 -18l-74 -15q-11 139 -94.5 219t-218.5 80q-129 0 -212.5 -115t-105.5 -325h275q81 0 150.5 0.5t115.5 1.5l-31 -92q-107 2 -210.5 3t-182.5 1h-123v-49
q0 -33 1.5 -64.5t4.5 -60.5h275q49 0 94 0.5t92 1.5l-31 -92q-23 0 -65 1q-150 3 -248 3h-104q33 -205 123 -320t215 -115q108 0 190 77.5t133 226.5z" />
    <glyph glyph-name="Euro" unicode="&#x20ac;" horiz-adv-x="1217" 
d="M1184 367q-30 -77 -53 -152.5t-39 -151.5q-90 -48 -176.5 -73t-165.5 -25q-224 0 -377.5 155t-192.5 419h-12q-25 0 -109 -3q-28 -1 -43 -1l31 92l92 -2h13h18q-1 13 -1.5 30t-0.5 50q0 17 0.5 36t3.5 57l-12 1q-23 0 -90 -3q-34 -1 -54 -1l32 92q33 -1 56.5 -1.5
t47.5 -0.5h30q45 258 204.5 414.5t379.5 156.5q94 0 184 -20t180 -62q0 -10 -1 -31.5t-1 -31.5q0 -87 17 -252l2 -18l-74 -15q-11 139 -94.5 219t-218.5 80q-129 0 -212.5 -115t-105.5 -325h275q81 0 150.5 0.5t115.5 1.5l-31 -92q-107 2 -210.5 3t-182.5 1h-123v-49
q0 -33 1.5 -64.5t4.5 -60.5h275q49 0 94 0.5t92 1.5l-31 -92q-23 0 -65 1q-150 3 -248 3h-104q33 -205 123 -320t215 -115q108 0 190 77.5t133 226.5z" />
    <glyph glyph-name="uni00A0" unicode="&#xa0;" horiz-adv-x="1217" 
 />
    <glyph glyph-name="exclamdown" unicode="&#xa1;" horiz-adv-x="696" 
d="M276 1020h107q7 -219 23.5 -476t42.5 -544h-273q0 186 59 663q28 231 41 357zM334 1466l88 -59q35 -23 53.5 -49t18.5 -53q0 -32 -14.5 -54.5t-49.5 -46.5l-94 -65l-90 61q-36 23 -53 48t-17 55q0 28 13.5 50t48.5 46z" />
    <glyph glyph-name="cent" unicode="&#xa2;" horiz-adv-x="1217" 
d="M524 1010q-78 -16 -125 -89t-47 -182q0 -108 44 -182.5t126 -103.5zM518 1452h115l-6 -324q132 -6 196 -39t64 -96q0 -39 -24.5 -67.5t-57.5 -28.5t-84 50.5t-94 62.5v-566h12q49 0 102 22t113 66l53 -83q-72 -61 -142 -97t-138 -47l4 -336h-119l6 334
q-171 14 -276 124.5t-105 277.5q0 163 104 275.5t281 141.5z" />
    <glyph glyph-name="sterling" unicode="&#xa3;" horiz-adv-x="1217" 
d="M599 729h93q45 0 96 1t141 3l1 -116q-82 2 -165 4t-163 1q1 -10 1.5 -22t0.5 -35q0 -98 -37.5 -179.5t-115.5 -152.5q11 0 23.5 -1t14.5 -1q44 0 152 -18t168 -18q99 0 148 48.5t63 162.5l88 -11l-8 -69q-20 -189 -86.5 -272t-196.5 -83q-74 0 -220.5 40t-217.5 40
q-58 0 -117.5 -22.5t-116.5 -65.5l-55 82q162 86 245 190.5t83 221.5q0 30 -8 69t-25 95q-60 0 -117 -1t-116 -4v115q18 0 57 -2q96 -4 149 -4q-17 66 -25.5 125.5t-8.5 112.5q0 216 126 355.5t318 139.5q105 0 177.5 -47t72.5 -111q0 -43 -29.5 -73.5t-73.5 -30.5
q-36 0 -98 62.5t-121 62.5q-61 0 -96 -57.5t-35 -159.5q0 -48 14 -173.5t20 -201.5z" />
    <glyph glyph-name="currency" unicode="&#xa4;" horiz-adv-x="1241" 
d="M913 885q0 119 -85.5 205t-204.5 86q-120 0 -205.5 -86t-85.5 -205q0 -120 84.5 -204.5t206.5 -84.5q121 0 205.5 84.5t84.5 204.5zM371 1227q55 41 117 61.5t133 20.5t134 -20.5t117 -61.5l203 203l94 -93l-204 -204q39 -54 59 -116.5t20 -131.5q0 -70 -20 -132.5
t-59 -115.5l204 -205l-94 -92l-203 205q-57 -42 -118 -62t-131 -20q-72 0 -135 20.5t-117 61.5l-203 -205l-92 92l203 205q-40 53 -60 115.5t-20 132.5q0 69 20 131.5t60 116.5l-203 204l92 93z" />
    <glyph glyph-name="yen" unicode="&#xa5;" horiz-adv-x="1217" 
d="M295 0v90q9 -1 18 -1.5t27 -0.5q80 0 106.5 34.5t26.5 153.5v250q-60 0 -173 -1.5t-152 -2.5l-1 88h170h156l-84 176q-32 0 -115.5 -3t-126.5 -3v92h138h59l-158 326q-39 82 -68.5 108.5t-72.5 26.5q-10 0 -16 -0.5t-10 -1.5l-1 90q84 -6 152.5 -9t118.5 -3t116.5 3
t149.5 9v-90h-14q-53 0 -77 -12.5t-24 -40.5q0 -19 43 -117l5 -11l171 -378l179 373q24 51 37.5 87.5t13.5 49.5q0 26 -20 37.5t-66 11.5h-15v90q55 -4 107.5 -6t103.5 -2q39 0 89 2t108 6v-90q-4 0 -12 1t-13 1q-74 0 -131 -106q-5 -10 -8 -15l-176 -340h84q28 0 60.5 1.5
t68.5 3.5v-94q-34 0 -68.5 0.5t-82.5 0.5q-4 0 -16 1q-46 1 -89 1l-92 -176q43 -2 131 -2q15 0 68 1.5t149 4.5v-89q-47 0 -95 0.5t-112 0.5h-139v-235q0 -129 27 -167t106 -38q6 0 19 1t20 1v-88q-98 6 -177.5 9t-139.5 3q-42 0 -112.5 -3t-170.5 -9z" />
    <glyph glyph-name="brokenbar" unicode="&#xa6;" horiz-adv-x="1024" 
d="M602 408v-758h-178v758h178zM602 1432v-758h-178v758h178z" />
    <glyph glyph-name="section" unicode="&#xa7;" horiz-adv-x="1087" 
d="M360 1257q-53 -53 -79.5 -117.5t-26.5 -142.5q0 -104 45.5 -196.5t196.5 -251.5q166 -176 216 -265.5t50 -179.5q0 -35 -8.5 -71.5t-26.5 -81.5q61 74 90 148t29 153q0 185 -232 422q-47 48 -71 74q-118 126 -165.5 213t-47.5 169q0 28 7 57t23 70zM467 -250
q-134 0 -233 66.5t-99 148.5q0 41 30 71t71 30q22 0 38.5 -12t40.5 -48q50 -78 90.5 -104.5t96.5 -26.5q69 0 112 45.5t43 120.5q0 99 -207 324l-3 3l-11 12q-301 325 -301 556q0 210 140 363t327 153q128 0 219.5 -61t91.5 -140q0 -42 -27.5 -72t-64.5 -30q-36 0 -89 71
q-7 10 -11 15q-37 50 -73.5 72t-82.5 22q-58 0 -96.5 -41t-38.5 -102q0 -100 226 -332l26 -27l21 -21q262 -267 262 -495q0 -224 -151.5 -392.5t-346.5 -168.5z" />
    <glyph glyph-name="dieresis" unicode="&#xa8;" horiz-adv-x="1024" 
d="M756 1448q47 0 98 -47t51 -92q0 -42 -51 -88.5t-98 -46.5t-97.5 47t-50.5 88q0 45 50 92t98 47zM268 1448q48 0 98 -47t50 -92q0 -42 -50 -88.5t-98 -46.5q-47 0 -98 47t-51 88q0 45 50.5 92t98.5 47z" />
    <glyph glyph-name="copyright" unicode="&#xa9;" horiz-adv-x="1683" 
d="M1165 1100l2 -320h-47q-32 134 -102 203.5t-172 69.5q-116 0 -176 -94t-60 -275q0 -184 65 -281.5t189 -97.5q82 0 151 43.5t126 130.5l43 -26q-63 -108 -150 -160.5t-200 -52.5q-177 0 -297.5 124t-120.5 306q0 184 119.5 309t295.5 125q80 0 154 -33t78 -33
q28 0 41.5 14t19.5 48h41zM1464 678q0 124 -48 241.5t-136 204.5q-86 86 -200 133.5t-236 47.5q-126 0 -241 -48t-202 -137q-88 -90 -135 -203.5t-47 -238.5q0 -126 47.5 -239.5t136.5 -202.5q91 -91 201.5 -137t237.5 -46q126 0 238.5 47t199.5 136q88 89 136 204.5
t48 237.5zM844 1401q140 0 272.5 -55.5t233.5 -155.5q101 -102 157 -235.5t56 -276.5q0 -142 -55.5 -274t-157.5 -236q-101 -102 -231 -155.5t-277 -53.5q-145 0 -274.5 53t-233.5 156q-104 104 -158.5 234.5t-54.5 275.5q0 143 54 274.5t157 235.5q102 102 235 157.5
t277 55.5z" />
    <glyph glyph-name="ordfeminine" unicode="&#xaa;" horiz-adv-x="807" 
d="M483 1069q-18 -5 -50 -13q-214 -55 -214 -130q0 -42 30 -70.5t75 -28.5q29 0 66.5 14t92.5 46v182zM782 854l27 -53q-66 -41 -120.5 -61.5t-98.5 -20.5q-53 0 -80 24.5t-31 75.5q-82 -54 -138 -77t-101 -23q-79 0 -135 56.5t-56 135.5q0 136 324 205q70 14 108 23
q1 19 1.5 35.5t0.5 31.5q0 75 -31.5 109.5t-99.5 34.5q-44 0 -76 -17t-34 -40q-1 -4 -1 -10q-6 -68 -96 -69q-32 0 -49.5 11t-17.5 30q0 57 110 126t232 69q118 0 180 -57.5t62 -167.5q0 -34 -6.5 -140t-6.5 -178q0 -42 12 -61t37 -19q14 0 34.5 6.5t49.5 20.5z" />
    <glyph glyph-name="guillemotleft" unicode="&#xab;" horiz-adv-x="915" 
d="M713 119q-53 85 -113.5 177.5t-134.5 203.5q56 81 116 175t132 210l96 -43q-23 -58 -68 -171.5t-67 -168.5q38 -101 114 -292l19 -48zM381 111q-76 102 -154.5 199t-160.5 190q94 108 171 203.5t144 187.5l88 -53q-48 -91 -91 -175.5t-81 -162.5q44 -91 138 -272l32 -62z
" />
    <glyph glyph-name="logicalnot" unicode="&#xac;" horiz-adv-x="1706" 
d="M1452 862v-502h-166v336h-1032v166h1198z" />
    <glyph glyph-name="uni00AD" unicode="&#xad;" horiz-adv-x="760" 
d="M68 406q20 53 36.5 104.5t28.5 99.5q30 0 86 -1q131 -3 172 -3q106 0 172 1t129 3q-22 -55 -38 -105.5t-27 -98.5q-99 3 -166.5 4.5t-104.5 1.5q-50 0 -122 -1.5t-166 -4.5z" />
    <glyph glyph-name="registered" unicode="&#xae;" horiz-adv-x="1683" 
d="M748 981v-258q14 -1 27 -1.5t26 -0.5q100 0 154.5 44t54.5 126q0 70 -46.5 114t-121.5 44q-47 0 -70.5 -17.5t-23.5 -50.5zM866 1096q145 0 232.5 -55t87.5 -142q0 -84 -65.5 -133t-217.5 -76q96 -25 147.5 -73t69.5 -127q6 -24 10 -67q9 -91 54 -91q29 0 44 34t15 99h49
v-23q0 -85 -43 -129.5t-127 -44.5q-46 0 -80 14.5t-53 43.5q-24 39 -27 111.5t-8 93.5q-16 74 -60.5 109.5t-121.5 35.5h-24v-246q0 -49 22.5 -69.5t85.5 -26.5v-47h-389v46q64 4 88.5 24.5t24.5 72.5v520q0 52 -23.5 72t-89.5 25v49h399zM1464 678q0 122 -48.5 240
t-135.5 206q-86 86 -200 133.5t-236 47.5q-126 0 -241 -48t-202 -137q-89 -90 -135.5 -203t-46.5 -239t47.5 -239.5t136.5 -202.5q91 -91 201.5 -137t237.5 -46q126 0 238.5 47t199.5 136q89 90 136.5 204.5t47.5 237.5zM844 1401q144 0 279 -57t235 -160
q98 -102 151.5 -235.5t53.5 -278.5q0 -138 -59.5 -272.5t-166.5 -239.5q-101 -100 -228 -149.5t-282 -49.5q-135 0 -264 54.5t-229 154.5q-105 104 -159 234t-54 276q0 143 54.5 275t156.5 235q102 102 235 157.5t277 55.5z" />
    <glyph glyph-name="macron" unicode="&#xaf;" horiz-adv-x="1024" 
d="M1024 1565v-172h-1024v172h1024z" />
    <glyph glyph-name="degree" unicode="&#xb0;" horiz-adv-x="674" 
d="M522 1165q0 77 -53.5 131t-130.5 54t-131.5 -54t-54.5 -131q0 -76 54.5 -131t131.5 -55t130.5 54.5t53.5 131.5zM338 1460q123 0 209 -87t86 -210q0 -121 -87 -208t-210 -87t-208 85.5t-85 209.5q0 125 86 211t209 86z" />
    <glyph glyph-name="plusminus" unicode="&#xb1;" horiz-adv-x="1706" 
d="M1452 182v-168h-1198v168h1198zM938 1206v-334h514v-165h-514v-334h-170v334h-514v165h514v334h170z" />
    <glyph glyph-name="uni00B2" unicode="&#xb2;" horiz-adv-x="803" 
d="M256 707q82 0 178 -2h35h20q120 0 152 19t47 75l57 -17q-19 -48 -34 -100.5t-25 -112.5q-13 1 -37 2q-207 7 -297 7q-82 0 -271 -8q-15 0 -24 -1l-24 54q212 156 326 297t114 247q0 74 -45.5 118t-122.5 44q-52 0 -99.5 -31t-88.5 -92l-68 39q60 99 139 148t177 49
q117 0 200.5 -74t83.5 -176q0 -98 -82 -202.5t-311 -282.5z" />
    <glyph glyph-name="uni00B3" unicode="&#xb3;" horiz-adv-x="803" 
d="M438 1040h47q97 0 158.5 -54t61.5 -140q0 -124 -114 -210.5t-280 -86.5q-106 0 -180 41.5t-74 97.5q0 29 25.5 50.5t58.5 21.5t66 -46q6 -8 10 -14q24 -33 50 -47t65 -14q82 0 137 50t55 124q0 73 -44.5 115.5t-119.5 42.5q-23 0 -52 -6t-70 -19l-23 55q130 47 192 99.5
t62 113.5q0 56 -37.5 90.5t-97.5 34.5q-51 0 -95.5 -25.5t-88.5 -80.5l-64 37q53 85 128 128.5t169 43.5q111 0 184.5 -57.5t73.5 -143.5q0 -66 -49.5 -115.5t-153.5 -85.5z" />
    <glyph glyph-name="acute" unicode="&#xb4;" horiz-adv-x="1024" 
d="M606 1575l195 -109l-357 -333l-98 36z" />
    <glyph glyph-name="mu" unicode="&#xb5;" horiz-adv-x="1184" 
d="M68 373l108 512h207l-100 -467q-10 -46 -15.5 -82t-5.5 -57q0 -64 37 -101t102 -37q87 0 139 53.5t76 167.5l111 523h209l-113 -533l-3 -15q-15 -70 -15 -110q0 -42 22.5 -66t63.5 -24q40 0 71 21.5t58 68.5q9 17 23 49q25 60 51 60q11 0 16.5 -7.5t5.5 -23.5
q0 -28 -17 -85.5t-40 -100.5q-41 -72 -95.5 -108t-123.5 -36q-84 0 -129.5 55t-47.5 156q-42 -104 -109.5 -157.5t-156.5 -53.5q-99 0 -156.5 58t-68.5 168q-23 -124 -48 -315q-39 -306 -134 -306q-47 0 -73 26.5t-26 74.5q0 52 69 282.5t108 409.5z" />
    <glyph glyph-name="paragraph" unicode="&#xb6;" horiz-adv-x="1167" 
d="M801 1343q-92 -7 -135 -107t-43 -312q0 -201 46.5 -314.5t133.5 -124.5zM1114 1443v-89h-29q-69 0 -99 -18t-42 -66q-8 -35 -11 -169.5t-3 -627.5q0 -123 1.5 -315t4.5 -452l-141 -1l7 690q-44 -5 -77 -7.5t-59 -2.5q-254 0 -412 143t-158 371q0 239 171 391t444 152
q26 0 101 -3t124 -3q23 0 105 4q45 2 73 3z" />
    <glyph glyph-name="periodcentered" unicode="&#xb7;" horiz-adv-x="608" 
d="M303 907q76 0 129 -53t53 -129t-53.5 -129t-128.5 -53q-74 0 -128 54t-54 128t54 128t128 54z" />
    <glyph glyph-name="cedilla" unicode="&#xb8;" horiz-adv-x="1024" 
d="M537 18h102l-94 -141q79 -15 118 -51t39 -92q0 -81 -86.5 -143t-236.5 -87l-41 78q82 14 126 47t44 80q0 41 -33 67t-94 31z" />
    <glyph glyph-name="uni00B9" unicode="&#xb9;" horiz-adv-x="803" 
d="M506 1443q-5 -124 -7.5 -228.5t-2.5 -200.5q0 -35 -1 -91.5t-1 -78.5q0 -86 5 -128t17 -61q13 -17 38 -24.5t71 -7.5h14v-54q-25 1 -70 3q-129 6 -174 6q-40 0 -165 -6q-42 -2 -64 -3v54q82 0 109 9t40 34q12 21 16.5 97.5t4.5 354.5q0 43 -2 115.5t-2 101.5h-25
q-19 0 -61 -2.5t-92 -7.5l-9 59q84 11 175 26t186 33z" />
    <glyph glyph-name="ordmasculine" unicode="&#xba;" horiz-adv-x="905" 
d="M440 1360q-91 0 -141.5 -64.5t-50.5 -181.5q0 -142 57.5 -225.5t155.5 -83.5q93 0 147 67t54 185q0 139 -60 221t-162 82zM457 1450q175 0 288 -101t113 -255q0 -162 -118 -270.5t-294 -108.5q-175 0 -286 101.5t-111 260.5q0 157 119 265t289 108z" />
    <glyph glyph-name="guillemotright" unicode="&#xbb;" horiz-adv-x="915" 
d="M203 883q2 -2 74.5 -113t175.5 -268q-76 -107 -139 -205.5t-109 -179.5l-96 43q32 85 65.5 169.5t69.5 170.5q-33 85 -66.5 170.5t-66.5 169.5zM537 891q96 -125 179 -227.5t136 -161.5q-99 -110 -181 -212t-134 -179l-91 55q72 134 115 217.5t60 118.5q-41 82 -83.5 165
t-88.5 169z" />
    <glyph glyph-name="onequarter" unicode="&#xbc;" horiz-adv-x="1874" 
d="M1532 649l-268 -313q47 -2 102 -3t164 -1zM1569 807h114q-4 -111 -6 -228t-2 -247q39 0 80.5 1.5t83.5 4.5q-7 -25 -14.5 -56.5t-10.5 -37.5q-24 1 -52.5 1.5t-86.5 0.5v-78q0 -83 16 -101t66 -18h21l-1 -49q-61 3 -107 4.5t-75 1.5t-73.5 -1.5t-103.5 -4.5l-1 49h21
q53 0 71.5 21.5t18.5 103.5v72l-168 2q-6 0 -31 -1q-83 -1 -160 -1l-34 69q42 43 83 86t82 88l78 89q60 65 106 120.5t85 108.5zM1339 1460l109 -51q-190 -289 -411 -641.5t-500 -810.5l-115 49q265 398 903 1432zM483 1442q-6 -100 -9 -200.5t-3 -201.5v-157
q0 -78 5 -118.5t16 -58.5q12 -15 35.5 -21.5t68.5 -6.5h14v-51q-75 3 -133.5 4.5t-99.5 1.5q-38 0 -93.5 -1.5t-125.5 -4.5v51q83 0 106.5 8t36.5 31q10 18 14 89.5t4 332.5q0 44 -0.5 89t-3.5 113h-22q-19 0 -58.5 -2.5t-86.5 -7.5l-11 55q86 12 173 25.5t173 30.5z" />
    <glyph glyph-name="onehalf" unicode="&#xbd;" horiz-adv-x="1874" 
d="M1352 129q57 -1 107.5 -1.5t96.5 -0.5h19q114 0 144.5 17.5t45.5 68.5l56 -14q-22 -53 -36 -102.5t-22 -96.5q-9 0 -30 1q-201 7 -289 7q-81 0 -261 -7l-20 -1l-24 51q202 144 312 276t110 230q0 70 -44 111t-118 41q-50 0 -94.5 -28t-85.5 -85l-64 35q57 92 132 138
t167 46q114 0 194.5 -68.5t80.5 -164.5q0 -93 -78.5 -190t-298.5 -263zM1339 1460l109 -51q-190 -289 -411 -641.5t-500 -810.5l-115 49q265 398 903 1432zM483 1442q-6 -100 -9 -200.5t-3 -201.5v-157q0 -78 5 -118.5t16 -58.5q12 -15 35.5 -21.5t68.5 -6.5h14v-51
q-75 3 -133.5 4.5t-99.5 1.5q-38 0 -93.5 -1.5t-125.5 -4.5v51q83 0 106.5 8t36.5 31q10 18 14 89.5t4 332.5q0 44 -0.5 89t-3.5 113h-22q-19 0 -58.5 -2.5t-86.5 -7.5l-11 55q86 12 173 25.5t173 30.5z" />
    <glyph glyph-name="threequarters" unicode="&#xbe;" horiz-adv-x="1874" 
d="M1532 649l-268 -313q47 -2 102 -3t164 -1zM1569 807h114q-4 -111 -6 -228t-2 -247q39 0 80.5 1.5t83.5 4.5q-7 -25 -14.5 -56.5t-10.5 -37.5q-24 1 -52.5 1.5t-86.5 0.5v-78q0 -83 16 -101t66 -18h21l-1 -49q-61 3 -107 4.5t-75 1.5t-73.5 -1.5t-103.5 -4.5l-1 49h21
q53 0 71.5 21.5t18.5 103.5v72l-168 2q-6 0 -31 -1q-83 -1 -160 -1l-34 69q42 43 83 86t82 88l78 89q60 65 106 120.5t85 108.5zM1339 1460l109 -51q-190 -289 -411 -641.5t-500 -810.5l-115 49q265 398 903 1432zM418 1065q12 1 23 1.5t22 0.5q91 0 150 -51t59 -131
q0 -115 -108.5 -196t-264.5 -81q-102 0 -173 39t-71 90q0 28 24 48t56 20q30 0 60 -40q7 -9 12 -16q22 -31 48 -45t62 -14q78 0 130.5 47.5t52.5 116.5q0 68 -42 107.5t-114 39.5q-20 0 -45.5 -4.5t-71.5 -17.5l-22 51q124 44 184 92.5t60 106.5q0 52 -36 84.5t-94 32.5
q-49 0 -92 -24.5t-86 -76.5l-59 35q52 80 124.5 121t160.5 41q104 0 174.5 -54.5t70.5 -134.5q0 -61 -47.5 -107t-146.5 -81z" />
    <glyph glyph-name="questiondown" unicode="&#xbf;" horiz-adv-x="985" 
d="M664 1458l90 -57q37 -24 54 -50t17 -57q0 -28 -15 -51t-48 -45l-96 -65l-91 61q-35 23 -52 48.5t-17 55.5q0 28 13.5 49.5t47.5 45.5zM623 1014h89q0 -15 -0.5 -33.5t-0.5 -54.5q0 -65 3 -132.5t9 -138.5q-184 -35 -279.5 -114t-95.5 -197q0 -84 59 -142.5t144 -58.5
q67 0 146 52.5t106 52.5q37 0 61.5 -28.5t24.5 -74.5q0 -80 -72.5 -131t-191.5 -51q-201 0 -342.5 129.5t-141.5 313.5q0 134 82.5 236t247.5 171q9 4 27 11q119 47 125 190z" />
    <glyph glyph-name="Agrave" unicode="&#xc0;" horiz-adv-x="1589" 
d="M743 1194l-218 -553q38 -1 80.5 -1.5t113.5 -0.5q82 0 128 0.5t86 1.5zM688 1434h244q144 -422 274.5 -775.5t182.5 -470.5q22 -53 55.5 -75.5t89.5 -22.5h22v-90q-127 6 -195 8t-114 2q-44 0 -114 -2t-203 -8v90h18q79 0 107 18t28 64q0 14 -3.5 33t-14.5 53l-82 242
q-57 1 -150 2.5t-116 1.5q-43 0 -173 -3q-47 -1 -73 -1l-4 -10q-98 -239 -98 -302q0 -52 29.5 -75t97.5 -23h18v-90q-114 6 -177 8t-104 2q-34 0 -89.5 -2t-161.5 -8v90q72 0 115 25t73 84q43 78 194 436t324 799zM715 2011l264 -408l-98 -34l-359 337z" />
    <glyph glyph-name="Aacute" unicode="&#xc1;" horiz-adv-x="1589" 
d="M743 1194l-218 -553q38 -1 80.5 -1.5t113.5 -0.5q82 0 128 0.5t86 1.5zM688 1434h244q144 -422 274.5 -775.5t182.5 -470.5q22 -53 55.5 -75.5t89.5 -22.5h22v-90q-127 6 -195 8t-114 2q-44 0 -114 -2t-203 -8v90h18q79 0 107 18t28 64q0 14 -3.5 33t-14.5 53l-82 242
q-57 1 -150 2.5t-116 1.5q-43 0 -173 -3q-47 -1 -73 -1l-4 -10q-98 -239 -98 -302q0 -52 29.5 -75t97.5 -23h18v-90q-114 6 -177 8t-104 2q-34 0 -89.5 -2t-161.5 -8v90q72 0 115 25t73 84q43 78 194 436t324 799zM905 2011l195 -109l-357 -333l-98 36z" />
    <glyph glyph-name="Acircumflex" unicode="&#xc2;" horiz-adv-x="1589" 
d="M743 1194l-218 -553q38 -1 80.5 -1.5t113.5 -0.5q82 0 128 0.5t86 1.5zM688 1434h244q144 -422 274.5 -775.5t182.5 -470.5q22 -53 55.5 -75.5t89.5 -22.5h22v-90q-127 6 -195 8t-114 2q-44 0 -114 -2t-203 -8v90h18q79 0 107 18t28 64q0 14 -3.5 33t-14.5 53l-82 242
q-57 1 -150 2.5t-116 1.5q-43 0 -173 -3q-47 -1 -73 -1l-4 -10q-98 -239 -98 -302q0 -52 29.5 -75t97.5 -23h18v-90q-114 6 -177 8t-104 2q-34 0 -89.5 -2t-161.5 -8v90q72 0 115 25t73 84q43 78 194 436t324 799zM760 1954h100l297 -347l-84 -38l-262 202l-262 -202l-84 41
z" />
    <glyph glyph-name="Atilde" unicode="&#xc3;" horiz-adv-x="1589" 
d="M743 1194l-218 -553q38 -1 80.5 -1.5t113.5 -0.5q82 0 128 0.5t86 1.5zM688 1434h244q144 -422 274.5 -775.5t182.5 -470.5q22 -53 55.5 -75.5t89.5 -22.5h22v-90q-127 6 -195 8t-114 2q-44 0 -114 -2t-203 -8v90h18q79 0 107 18t28 64q0 14 -3.5 33t-14.5 53l-82 242
q-57 1 -150 2.5t-116 1.5q-43 0 -173 -3q-47 -1 -73 -1l-4 -10q-98 -239 -98 -302q0 -52 29.5 -75t97.5 -23h18v-90q-114 6 -177 8t-104 2q-34 0 -89.5 -2t-161.5 -8v90q72 0 115 25t73 84q43 78 194 436t324 799zM1178 1909l59 -52q-56 -74 -121.5 -130t-144.5 -97
q-75 10 -190.5 32.5t-153.5 22.5q-54 0 -100 -23.5t-91 -74.5l-55 51q59 78 125 134t145 96q75 -11 191.5 -33.5t152.5 -22.5q51 0 95.5 23.5t87.5 73.5z" />
    <glyph glyph-name="Adieresis" unicode="&#xc4;" horiz-adv-x="1589" 
d="M743 1194l-218 -553q38 -1 80.5 -1.5t113.5 -0.5q82 0 128 0.5t86 1.5zM688 1434h244q144 -422 274.5 -775.5t182.5 -470.5q22 -53 55.5 -75.5t89.5 -22.5h22v-90q-127 6 -195 8t-114 2q-44 0 -114 -2t-203 -8v90h18q79 0 107 18t28 64q0 14 -3.5 33t-14.5 53l-82 242
q-57 1 -150 2.5t-116 1.5q-43 0 -173 -3q-47 -1 -73 -1l-4 -10q-98 -239 -98 -302q0 -52 29.5 -75t97.5 -23h18v-90q-114 6 -177 8t-104 2q-34 0 -89.5 -2t-161.5 -8v90q72 0 115 25t73 84q43 78 194 436t324 799zM1055 1884q47 0 98 -47t51 -92q0 -42 -51 -88.5t-98 -46.5
t-97.5 47t-50.5 88q0 45 50 92t98 47zM567 1884q48 0 98 -47t50 -92q0 -42 -50 -88.5t-98 -46.5q-47 0 -98 47t-51 88q0 45 50.5 92t98.5 47z" />
    <glyph glyph-name="Aring" unicode="&#xc5;" horiz-adv-x="1589" 
d="M743 1194l-218 -553q38 -1 80.5 -1.5t113.5 -0.5q82 0 128 0.5t86 1.5zM686 1427h248q145 -423 276 -776.5t179 -462.5q22 -53 55.5 -75.5t89.5 -22.5h22v-90q-127 6 -195 8t-114 2q-44 0 -114 -2t-203 -8v90h18q79 0 107 18t28 64q0 14 -3.5 33t-14.5 53l-82 242
q-57 1 -150 2.5t-116 1.5q-43 0 -173 -3q-47 -1 -73 -1q-57 -136 -79.5 -205.5t-22.5 -106.5q0 -52 29.5 -75t97.5 -23h18v-90q-114 6 -177 8t-104 2q-34 0 -89.5 -2t-161.5 -8v90q72 0 116 25t72 82q51 102 199.5 454t316.5 776zM811 1858q-51 0 -89 -38t-38 -89
q0 -52 37.5 -89.5t87.5 -37.5q52 0 89.5 37t37.5 88q0 53 -36.5 91t-88.5 38zM811 1972q101 0 170.5 -70.5t69.5 -175.5q0 -98 -71.5 -167.5t-174.5 -69.5q-97 0 -166.5 71t-69.5 171q0 101 70.5 171t171.5 70z" />
    <glyph glyph-name="AE" unicode="&#xc6;" horiz-adv-x="2294" 
d="M1192 1314l-451 -679q47 -1 89.5 -1.5t80.5 -0.5q102 0 160 0.5t110 1.5q2 107 5.5 342t5.5 337zM829 1429q133 -7 293.5 -10.5t403.5 -3.5q196 0 333 3.5t257 10.5q1 -97 6.5 -181t15.5 -161l-88 -12q-13 123 -83 168t-269 45q-42 0 -102 -1.5t-142 -4.5
q-1 -161 -3 -282.5t-3 -202.5q31 0 94 -1t96 -1h62q162 0 203 26t49 105l84 -9q-7 -64 -11 -120.5t-4 -96.5q0 -41 1.5 -86.5t4.5 -93.5l-83 -6v12q0 85 -49 115.5t-228 30.5h-178h-41q0 -37 -1 -109.5t-1 -107.5q0 -55 0.5 -117t3.5 -186q54 -7 112.5 -10t123.5 -3
q242 0 325.5 50.5t130.5 191.5l92 -29q-31 -90 -55.5 -177.5t-42.5 -174.5q-170 6 -331.5 9t-313.5 3q-90 0 -193.5 -2.5t-299.5 -9.5v90q8 -1 18 -1.5t26 -0.5q82 0 111 51.5t29 251.5v115q-73 1 -138 1.5t-124 0.5q-83 0 -144 -0.5t-122 -1.5q-28 -44 -78 -119
q-119 -184 -119 -233q0 -33 27.5 -48.5t86.5 -15.5h25v-90q-73 6 -142 9t-139 3q-57 0 -126 -3t-144 -9v88q5 0 14.5 -1t14.5 -1q117 0 264 213q12 17 18 26q98 141 262 373q379 538 379 580q0 32 -27 45.5t-96 13.5h-45v92z" />
    <glyph glyph-name="Ccedilla" unicode="&#xc7;" horiz-adv-x="1493" 
d="M1370 1378q0 -10 -1 -31.5t-1 -31.5q0 -67 6 -142t19 -165l-99 -17q-16 149 -127 231.5t-293 82.5q-232 0 -359.5 -144.5t-127.5 -408.5q0 -285 144.5 -454t386.5 -169q152 0 259.5 69t174.5 210l88 -41q-40 -79 -70 -154.5t-51 -149.5q-121 -49 -236.5 -74.5
t-222.5 -25.5q-348 0 -564 206t-216 538q0 328 226.5 540.5t574.5 212.5q125 0 245.5 -20t243.5 -62zM773 18h102l-94 -141q79 -15 118 -51t39 -92q0 -81 -86.5 -143t-236.5 -87l-41 78q82 14 126 47t44 80q0 41 -33 67t-94 31z" />
    <glyph glyph-name="Egrave" unicode="&#xc8;" horiz-adv-x="1382" 
d="M86 1429q170 -7 314 -10.5t253 -3.5q183 0 309.5 3.5t235.5 10.5q2 -87 8 -171.5t17 -170.5l-90 -12q-14 125 -82.5 169t-274.5 44q-37 0 -98.5 -1.5t-150.5 -4.5q-2 -132 -3.5 -253t-3.5 -232h29q58 0 144.5 -1t115.5 -1q138 0 181 27t46 103l74 -7q0 -50 -3 -125.5
t-3 -102.5t1.5 -69t4.5 -101l-84 -6v12q0 86 -49.5 116t-233.5 30h-149h-76v-115q0 -89 1 -182.5t3 -222.5q45 -6 112.5 -9.5t147.5 -3.5q239 0 318.5 50t128.5 192l92 -29q-33 -96 -56.5 -183t-39.5 -169q-236 8 -376 11t-249 3q-123 0 -393 -9q-93 -3 -141 -5v88
q6 -1 13.5 -1.5t22.5 -0.5q84 0 114 51.5t30 270.5v100v92l2 223q0 15 1 45q3 123 3 168t-1 94t-1 54q0 87 -31.5 121t-109.5 34h-23v90zM596 2011l264 -408l-98 -34l-359 337z" />
    <glyph glyph-name="Eacute" unicode="&#xc9;" horiz-adv-x="1382" 
d="M86 1429q170 -7 314 -10.5t253 -3.5q183 0 309.5 3.5t235.5 10.5q2 -87 8 -171.5t17 -170.5l-90 -12q-14 125 -82.5 169t-274.5 44q-37 0 -98.5 -1.5t-150.5 -4.5q-2 -132 -3.5 -253t-3.5 -232h29q58 0 144.5 -1t115.5 -1q138 0 181 27t46 103l74 -7q0 -50 -3 -125.5
t-3 -102.5t1.5 -69t4.5 -101l-84 -6v12q0 86 -49.5 116t-233.5 30h-149h-76v-115q0 -89 1 -182.5t3 -222.5q45 -6 112.5 -9.5t147.5 -3.5q239 0 318.5 50t128.5 192l92 -29q-33 -96 -56.5 -183t-39.5 -169q-236 8 -376 11t-249 3q-123 0 -393 -9q-93 -3 -141 -5v88
q6 -1 13.5 -1.5t22.5 -0.5q84 0 114 51.5t30 270.5v100v92l2 223q0 15 1 45q3 123 3 168t-1 94t-1 54q0 87 -31.5 121t-109.5 34h-23v90zM786 2011l195 -109l-357 -333l-98 36z" />
    <glyph glyph-name="Ecircumflex" unicode="&#xca;" horiz-adv-x="1382" 
d="M86 1429q170 -7 314 -10.5t253 -3.5q183 0 309.5 3.5t235.5 10.5q2 -87 8 -171.5t17 -170.5l-90 -12q-14 125 -82.5 169t-274.5 44q-37 0 -98.5 -1.5t-150.5 -4.5q-2 -132 -3.5 -253t-3.5 -232h29q58 0 144.5 -1t115.5 -1q138 0 181 27t46 103l74 -7q0 -50 -3 -125.5
t-3 -102.5t1.5 -69t4.5 -101l-84 -6v12q0 86 -49.5 116t-233.5 30h-149h-76v-115q0 -89 1 -182.5t3 -222.5q45 -6 112.5 -9.5t147.5 -3.5q239 0 318.5 50t128.5 192l92 -29q-33 -96 -56.5 -183t-39.5 -169q-236 8 -376 11t-249 3q-123 0 -393 -9q-93 -3 -141 -5v88
q6 -1 13.5 -1.5t22.5 -0.5q84 0 114 51.5t30 270.5v100v92l2 223q0 15 1 45q3 123 3 168t-1 94t-1 54q0 87 -31.5 121t-109.5 34h-23v90zM641 1954h100l297 -347l-84 -38l-262 202l-262 -202l-84 41z" />
    <glyph glyph-name="Edieresis" unicode="&#xcb;" horiz-adv-x="1382" 
d="M86 1429q170 -7 314 -10.5t253 -3.5q183 0 309.5 3.5t235.5 10.5q2 -87 8 -171.5t17 -170.5l-90 -12q-14 125 -82.5 169t-274.5 44q-37 0 -98.5 -1.5t-150.5 -4.5q-2 -132 -3.5 -253t-3.5 -232h29q58 0 144.5 -1t115.5 -1q138 0 181 27t46 103l74 -7q0 -50 -3 -125.5
t-3 -102.5t1.5 -69t4.5 -101l-84 -6v12q0 86 -49.5 116t-233.5 30h-149h-76v-115q0 -89 1 -182.5t3 -222.5q45 -6 112.5 -9.5t147.5 -3.5q239 0 318.5 50t128.5 192l92 -29q-33 -96 -56.5 -183t-39.5 -169q-236 8 -376 11t-249 3q-123 0 -393 -9q-93 -3 -141 -5v88
q6 -1 13.5 -1.5t22.5 -0.5q84 0 114 51.5t30 270.5v100v92l2 223q0 15 1 45q3 123 3 168t-1 94t-1 54q0 87 -31.5 121t-109.5 34h-23v90zM936 1884q47 0 98 -47t51 -92q0 -42 -51 -88.5t-98 -46.5t-97.5 47t-50.5 88q0 45 50 92t98 47zM448 1884q48 0 98 -47t50 -92
q0 -42 -50 -88.5t-98 -46.5q-47 0 -98 47t-51 88q0 45 50.5 92t98.5 47z" />
    <glyph glyph-name="Igrave" unicode="&#xcc;" horiz-adv-x="784" 
d="M72 1427q98 -6 179.5 -9t145.5 -3q63 0 141.5 3t174.5 9v-90h-21q-69 0 -98.5 -14t-42.5 -51q-11 -31 -16 -122t-5 -327v-411q0 -141 5.5 -195.5t19.5 -79.5t47 -36t98 -11h25v-90q-110 6 -193 9t-141 3q-53 0 -137 -3t-195 -9v90h25q67 0 100 11t45 36q15 28 21 91.5
t6 230.5v151v434q0 124 -5.5 173.5t-19.5 73.5q-13 24 -45.5 35t-93.5 11h-20v90zM299 2011l264 -408l-98 -34l-359 337z" />
    <glyph glyph-name="Iacute" unicode="&#xcd;" horiz-adv-x="784" 
d="M72 1427q98 -6 179.5 -9t145.5 -3q63 0 141.5 3t174.5 9v-90h-21q-69 0 -98.5 -14t-42.5 -51q-11 -31 -16 -122t-5 -327v-411q0 -141 5.5 -195.5t19.5 -79.5t47 -36t98 -11h25v-90q-110 6 -193 9t-141 3q-53 0 -137 -3t-195 -9v90h25q67 0 100 11t45 36q15 28 21 91.5
t6 230.5v151v434q0 124 -5.5 173.5t-19.5 73.5q-13 24 -45.5 35t-93.5 11h-20v90zM489 2011l195 -109l-357 -333l-98 36z" />
    <glyph glyph-name="Icircumflex" unicode="&#xce;" horiz-adv-x="784" 
d="M72 1427q98 -6 179.5 -9t145.5 -3q63 0 141.5 3t174.5 9v-90h-21q-69 0 -98.5 -14t-42.5 -51q-11 -31 -16 -122t-5 -327v-411q0 -141 5.5 -195.5t19.5 -79.5t47 -36t98 -11h25v-90q-110 6 -193 9t-141 3q-53 0 -137 -3t-195 -9v90h25q67 0 100 11t45 36q15 28 21 91.5
t6 230.5v151v434q0 124 -5.5 173.5t-19.5 73.5q-13 24 -45.5 35t-93.5 11h-20v90zM344 1954h100l297 -347l-84 -38l-262 202l-262 -202l-84 41z" />
    <glyph glyph-name="Idieresis" unicode="&#xcf;" horiz-adv-x="784" 
d="M72 1427q98 -6 179.5 -9t145.5 -3q63 0 141.5 3t174.5 9v-90h-21q-69 0 -98.5 -14t-42.5 -51q-11 -31 -16 -122t-5 -327v-411q0 -141 5.5 -195.5t19.5 -79.5t47 -36t98 -11h25v-90q-110 6 -193 9t-141 3q-53 0 -137 -3t-195 -9v90h25q67 0 100 11t45 36q15 28 21 91.5
t6 230.5v151v434q0 124 -5.5 173.5t-19.5 73.5q-13 24 -45.5 35t-93.5 11h-20v90zM639 1884q47 0 98 -47t51 -92q0 -42 -51 -88.5t-98 -46.5t-97.5 47t-50.5 88q0 45 50 92t98 47zM151 1884q48 0 98 -47t50 -92q0 -42 -50 -88.5t-98 -46.5q-47 0 -98 47t-51 88q0 45 50.5 92
t98.5 47z" />
    <glyph glyph-name="Eth" unicode="&#xd0;" horiz-adv-x="1708" 
d="M543 160q61 -14 121.5 -20.5t123.5 -6.5q260 0 400.5 143.5t140.5 407.5q0 290 -150 451t-421 161q-39 0 -89 -3.5t-118 -12.5q-2 -124 -3.5 -286t-2.5 -201q72 0 153 -2h25q29 0 91.5 1t96.5 1v-123q-62 1 -117 1.5t-104 0.5h-145q-1 -72 -1.5 -137t-0.5 -123v-252z
M89 90q8 -1 17 -1.5t25 -0.5q83 0 112 54t29 253v205v72h-106q-33 0 -70 -0.5t-78 -1.5v123q22 0 63.5 -1t61.5 -1h19q59 2 110 2v102q0 44 1 113.5t1 95.5q0 147 -28.5 191t-108.5 44q-13 0 -21 -0.5t-14 -0.5v89q90 -5 154.5 -7.5t114.5 -2.5q92 0 238.5 8.5t199.5 8.5
q385 0 604 -191.5t219 -525.5q0 -151 -60 -286.5t-171 -235.5q-113 -103 -265.5 -152t-363.5 -49q-26 0 -174.5 8t-269.5 8q-29 0 -197 -8l-43 -2z" />
    <glyph glyph-name="Ntilde" unicode="&#xd1;" horiz-adv-x="1726" 
d="M47 1425q38 -1 119.5 -5.5t116.5 -4.5q31 0 108.5 4.5t114.5 5.5q14 -37 41 -78.5t71 -93.5l735 -867q-1 130 -3 347q-4 477 -15 521q-14 48 -44 65.5t-99 17.5h-33v88q109 -5 166 -7.5t94 -2.5q44 0 106 2.5t156 7.5v-88h-18q-64 0 -94 -14.5t-43 -50.5
q-16 -48 -23 -451v-16l-4 -217q-2 -125 -3 -234.5t-1 -183.5q0 -49 3.5 -95t10.5 -89h-196q-12 25 -35 57t-88 109l-807 944q0 -473 5 -678.5t15 -242.5q14 -48 44.5 -66.5t99.5 -18.5h31v-90q-114 6 -172.5 8t-96.5 2q-32 0 -87.5 -2t-176.5 -8v90q8 -1 16.5 -1.5
t24.5 -0.5q143 0 146 393q1 87 1 135l3 213q0 65 2 186.5t2 155.5q0 97 -34 132.5t-122 35.5q-6 0 -18.5 -1t-18.5 -1v88zM1231 1909l59 -52q-56 -74 -121.5 -130t-144.5 -97q-75 10 -190.5 32.5t-153.5 22.5q-54 0 -100 -23.5t-91 -74.5l-55 51q59 78 125 134t145 96
q75 -11 191.5 -33.5t152.5 -22.5q51 0 95.5 23.5t87.5 73.5z" />
    <glyph glyph-name="Ograve" unicode="&#xd2;" horiz-adv-x="1716" 
d="M1319 688q0 283 -131 455t-344 172q-204 0 -325.5 -153t-121.5 -414q0 -285 132.5 -458t344.5 -173q205 0 325 153t120 418zM860 1464q159 0 284 -43.5t230 -134.5q122 -106 188 -252.5t66 -310.5q0 -326 -221 -543t-553 -217q-173 0 -313 56.5t-248 168.5
q-100 105 -152.5 239.5t-52.5 285.5q0 167 65.5 310.5t190.5 250.5q104 90 240 140t276 50zM762 2011l264 -408l-98 -34l-359 337z" />
    <glyph glyph-name="Oacute" unicode="&#xd3;" horiz-adv-x="1716" 
d="M1319 688q0 283 -131 455t-344 172q-204 0 -325.5 -153t-121.5 -414q0 -285 132.5 -458t344.5 -173q205 0 325 153t120 418zM860 1464q159 0 284 -43.5t230 -134.5q122 -106 188 -252.5t66 -310.5q0 -326 -221 -543t-553 -217q-173 0 -313 56.5t-248 168.5
q-100 105 -152.5 239.5t-52.5 285.5q0 167 65.5 310.5t190.5 250.5q104 90 240 140t276 50zM952 2011l195 -109l-357 -333l-98 36z" />
    <glyph glyph-name="Ocircumflex" unicode="&#xd4;" horiz-adv-x="1716" 
d="M1319 688q0 283 -131 455t-344 172q-204 0 -325.5 -153t-121.5 -414q0 -285 132.5 -458t344.5 -173q205 0 325 153t120 418zM860 1464q159 0 284 -43.5t230 -134.5q122 -106 188 -252.5t66 -310.5q0 -326 -221 -543t-553 -217q-173 0 -313 56.5t-248 168.5
q-100 105 -152.5 239.5t-52.5 285.5q0 167 65.5 310.5t190.5 250.5q104 90 240 140t276 50zM807 1954h100l297 -347l-84 -38l-262 202l-262 -202l-84 41z" />
    <glyph glyph-name="Otilde" unicode="&#xd5;" horiz-adv-x="1716" 
d="M1319 688q0 283 -131 455t-344 172q-204 0 -325.5 -153t-121.5 -414q0 -285 132.5 -458t344.5 -173q205 0 325 153t120 418zM860 1464q159 0 284 -43.5t230 -134.5q122 -106 188 -252.5t66 -310.5q0 -326 -221 -543t-553 -217q-173 0 -313 56.5t-248 168.5
q-100 105 -152.5 239.5t-52.5 285.5q0 167 65.5 310.5t190.5 250.5q104 90 240 140t276 50zM1225 1909l59 -52q-56 -74 -121.5 -130t-144.5 -97q-75 10 -190.5 32.5t-153.5 22.5q-54 0 -100 -23.5t-91 -74.5l-55 51q59 78 125 134t145 96q75 -11 191.5 -33.5t152.5 -22.5
q51 0 95.5 23.5t87.5 73.5z" />
    <glyph glyph-name="Odieresis" unicode="&#xd6;" horiz-adv-x="1716" 
d="M1319 688q0 283 -131 455t-344 172q-204 0 -325.5 -153t-121.5 -414q0 -285 132.5 -458t344.5 -173q205 0 325 153t120 418zM860 1464q159 0 284 -43.5t230 -134.5q122 -106 188 -252.5t66 -310.5q0 -326 -221 -543t-553 -217q-173 0 -313 56.5t-248 168.5
q-100 105 -152.5 239.5t-52.5 285.5q0 167 65.5 310.5t190.5 250.5q104 90 240 140t276 50zM1102 1884q47 0 98 -47t51 -92q0 -42 -51 -88.5t-98 -46.5t-97.5 47t-50.5 88q0 45 50 92t98 47zM614 1884q48 0 98 -47t50 -92q0 -42 -50 -88.5t-98 -46.5q-47 0 -98 47t-51 88
q0 45 50.5 92t98.5 47z" />
    <glyph glyph-name="multiply" unicode="&#xd7;" horiz-adv-x="1706" 
d="M862 729l461 459l117 -117l-459 -461l459 -458l-117 -119l-461 461l-459 -461l-116 119l458 458l-458 461l116 117z" />
    <glyph glyph-name="Oslash" unicode="&#xd8;" horiz-adv-x="1716" 
d="M1184 1161q-127 -191 -269.5 -420t-322.5 -528q53 -48 132 -76t161 -28q202 0 324 156t122 419q0 148 -37 268.5t-110 208.5zM1108 1237q-63 43 -127 64.5t-127 21.5q-217 0 -343 -153t-126 -420q0 -141 34 -256.5t101 -202.5q138 205 529 848zM1327 1610l103 -64
q-38 -56 -120 -184l-12 -19q159 -109 244.5 -270t85.5 -350q0 -329 -221 -543.5t-563 -214.5q-100 0 -187 20.5t-163 61.5q-15 -24 -42 -70q-67 -111 -94 -159l-98 59q51 76 82.5 125t60.5 96q-150 102 -232.5 262.5t-82.5 352.5q0 319 224 534t558 215q89 0 171.5 -16.5
t156.5 -48.5q23 36 49.5 80t79.5 133z" />
    <glyph glyph-name="Ugrave" unicode="&#xd9;" horiz-adv-x="1688" 
d="M682 1427v-90q-6 0 -17 1t-16 1q-85 0 -115 -49.5t-30 -251.5v-80v-149q0 -202 7 -286.5t24 -133.5q38 -119 134 -182.5t236 -63.5q115 0 196 38.5t132 117.5q34 53 48.5 138.5t14.5 254.5q0 32 -1 106.5t-1 116.5v105q0 211 -30 265t-115 54q-13 0 -20 -0.5t-13 -0.5v89
q93 -5 154.5 -7.5t105.5 -2.5q41 0 99.5 2.5t152.5 7.5v-90h-16q-60 0 -89 -13.5t-42 -47.5q-19 -50 -24 -435q0 -55 -1 -85v-55q-2 -342 -74 -470t-212 -198t-326 -70q-171 0 -303.5 56.5t-208.5 160.5q-57 78 -81 180t-24 304q0 54 3 192t3 221q0 175 -28.5 217.5
t-112.5 42.5h-24v90q113 -5 183.5 -7.5t121.5 -2.5q47 0 118 2.5t191 7.5zM795 2011l264 -408l-98 -34l-359 337z" />
    <glyph glyph-name="Uacute" unicode="&#xda;" horiz-adv-x="1688" 
d="M682 1427v-90q-6 0 -17 1t-16 1q-85 0 -115 -49.5t-30 -251.5v-80v-149q0 -202 7 -286.5t24 -133.5q38 -119 134 -182.5t236 -63.5q115 0 196 38.5t132 117.5q34 53 48.5 138.5t14.5 254.5q0 32 -1 106.5t-1 116.5v105q0 211 -30 265t-115 54q-13 0 -20 -0.5t-13 -0.5v89
q93 -5 154.5 -7.5t105.5 -2.5q41 0 99.5 2.5t152.5 7.5v-90h-16q-60 0 -89 -13.5t-42 -47.5q-19 -50 -24 -435q0 -55 -1 -85v-55q-2 -342 -74 -470t-212 -198t-326 -70q-171 0 -303.5 56.5t-208.5 160.5q-57 78 -81 180t-24 304q0 54 3 192t3 221q0 175 -28.5 217.5
t-112.5 42.5h-24v90q113 -5 183.5 -7.5t121.5 -2.5q47 0 118 2.5t191 7.5zM985 2011l195 -109l-357 -333l-98 36z" />
    <glyph glyph-name="Ucircumflex" unicode="&#xdb;" horiz-adv-x="1688" 
d="M682 1427v-90q-6 0 -17 1t-16 1q-85 0 -115 -49.5t-30 -251.5v-80v-149q0 -202 7 -286.5t24 -133.5q38 -119 134 -182.5t236 -63.5q115 0 196 38.5t132 117.5q34 53 48.5 138.5t14.5 254.5q0 32 -1 106.5t-1 116.5v105q0 211 -30 265t-115 54q-13 0 -20 -0.5t-13 -0.5v89
q93 -5 154.5 -7.5t105.5 -2.5q41 0 99.5 2.5t152.5 7.5v-90h-16q-60 0 -89 -13.5t-42 -47.5q-19 -50 -24 -435q0 -55 -1 -85v-55q-2 -342 -74 -470t-212 -198t-326 -70q-171 0 -303.5 56.5t-208.5 160.5q-57 78 -81 180t-24 304q0 54 3 192t3 221q0 175 -28.5 217.5
t-112.5 42.5h-24v90q113 -5 183.5 -7.5t121.5 -2.5q47 0 118 2.5t191 7.5zM840 1954h100l297 -347l-84 -38l-262 202l-262 -202l-84 41z" />
    <glyph glyph-name="Udieresis" unicode="&#xdc;" horiz-adv-x="1688" 
d="M682 1427v-90q-6 0 -17 1t-16 1q-85 0 -115 -49.5t-30 -251.5v-80v-149q0 -202 7 -286.5t24 -133.5q38 -119 134 -182.5t236 -63.5q115 0 196 38.5t132 117.5q34 53 48.5 138.5t14.5 254.5q0 32 -1 106.5t-1 116.5v105q0 211 -30 265t-115 54q-13 0 -20 -0.5t-13 -0.5v89
q93 -5 154.5 -7.5t105.5 -2.5q41 0 99.5 2.5t152.5 7.5v-90h-16q-60 0 -89 -13.5t-42 -47.5q-19 -50 -24 -435q0 -55 -1 -85v-55q-2 -342 -74 -470t-212 -198t-326 -70q-171 0 -303.5 56.5t-208.5 160.5q-57 78 -81 180t-24 304q0 54 3 192t3 221q0 175 -28.5 217.5
t-112.5 42.5h-24v90q113 -5 183.5 -7.5t121.5 -2.5q47 0 118 2.5t191 7.5zM1135 1884q47 0 98 -47t51 -92q0 -42 -51 -88.5t-98 -46.5t-97.5 47t-50.5 88q0 45 50 92t98 47zM647 1884q48 0 98 -47t50 -92q0 -42 -50 -88.5t-98 -46.5q-47 0 -98 47t-51 88q0 45 50.5 92
t98.5 47z" />
    <glyph glyph-name="Yacute" unicode="&#xdd;" horiz-adv-x="1425" 
d="M12 1427q109 -5 185 -7.5t135 -2.5q43 0 109 2.5t182 7.5v-90q-67 0 -98 -11.5t-31 -37.5q0 -36 40 -108q11 -20 17 -31l221 -395l67 116q212 368 212 412q0 29 -23 42t-72 13h-22v90q88 -5 143.5 -7.5t93.5 -2.5q40 0 97.5 2.5t144.5 7.5v-87q-4 0 -9 0.5t-15 0.5
q-97 0 -233 -222q-30 -51 -48 -79l-268 -430l2 -320q2 -128 32 -165t117 -37q6 0 20 1t21 1v-90q-110 6 -196 9t-146 3q-54 0 -216 -7q-68 -3 -107 -5v90q8 0 22.5 -1t20.5 -1q88 0 119.5 39t33.5 159l2 316l-334 559q-7 12 -21 35q-87 143 -169 143q-11 0 -17.5 -0.5
t-11.5 -0.5v89zM807 2011l195 -109l-357 -333l-98 36z" />
    <glyph glyph-name="Thorn" unicode="&#xde;" horiz-adv-x="1315" 
d="M510 461q40 -6 70 -8t57 -2q174 0 265 76.5t91 222.5q0 134 -87.5 212t-239.5 78q-42 0 -80 -3.5t-74 -10.5q-1 -78 -1.5 -159.5t-0.5 -211.5v-194zM68 0v88q9 -1 18 -1.5t27 -0.5q82 0 111.5 51.5t29.5 222.5q0 29 -1 109.5t-1 132.5v594q0 75 -35 109t-111 34h-20v88
q50 -1 145.5 -5.5t133.5 -4.5q64 0 142.5 2.5t178.5 7.5v-90q-6 0 -17.5 1t-17.5 1q-72 0 -104.5 -28.5t-34.5 -93.5l-2 -50l11 1q177 10 214 10q246 0 390.5 -109t144.5 -291q0 -211 -152.5 -328.5t-429.5 -117.5q-33 0 -75 2.5t-103 7.5v-61q0 -121 31 -156t129 -35h32
v-90q-97 6 -181.5 9t-158.5 3q-30 0 -104 -3t-190 -9z" />
    <glyph glyph-name="germandbls" unicode="&#xdf;" horiz-adv-x="1317" 
d="M58 84q6 -1 13.5 -1.5t20.5 -0.5q67 0 92 49.5t25 206.5q0 26 -1 98.5t-1 118.5v350q0 203 23.5 295t78.5 164q70 90 169.5 136t223.5 46q174 0 281 -84t107 -219q0 -53 -25.5 -105.5t-83.5 -119.5q-10 -12 -30 -35q-70 -80 -70 -117q0 -24 23.5 -57.5t70.5 -75.5
q23 -20 67 -57q203 -170 203 -314q0 -157 -119.5 -267.5t-287.5 -110.5q-97 0 -160.5 46t-63.5 111q0 44 24 69.5t64 25.5q44 0 83 -61q6 -10 10 -15q22 -33 45 -46.5t55 -13.5q59 0 100 44t41 108q0 98 -163 245q-15 14 -24 22q-89 80 -125 134t-36 103q0 56 86 167l2 3
q68 85 95.5 151t27.5 135q0 99 -60 160.5t-155 61.5q-129 0 -185.5 -91.5t-56.5 -314.5v-688v-70q0 -121 18 -153.5t68 -32.5h17l-1 -84q-90 5 -150.5 7.5t-106.5 2.5q-39 0 -224 -10h-6z" />
    <glyph glyph-name="agrave" unicode="&#xe0;" horiz-adv-x="1075" 
d="M643 477q-22 -6 -64 -18q-286 -79 -286 -187q0 -60 39 -100.5t98 -40.5q38 0 86.5 19t126.5 65v262zM1042 170l37 -76q-91 -60 -163.5 -89.5t-129.5 -29.5q-69 0 -105.5 35.5t-42.5 107.5q-109 -76 -184 -109.5t-135 -33.5q-105 0 -179 81.5t-74 195.5q0 192 429 291
q93 22 146 35q1 25 1.5 48.5t0.5 45.5q0 107 -41.5 156t-132.5 49q-59 0 -101.5 -24t-45.5 -56q-1 -5 -1 -13q-6 -100 -126 -100q-45 0 -69 15t-24 44q0 80 147.5 179.5t309.5 99.5q158 0 240 -82.5t82 -241.5q0 -48 -7.5 -198.5t-7.5 -253.5q0 -61 16 -88t50 -27
q19 0 47 10t63 29zM443 1575l264 -408l-98 -34l-359 337z" />
    <glyph glyph-name="aacute" unicode="&#xe1;" horiz-adv-x="1075" 
d="M643 477q-22 -6 -64 -18q-286 -79 -286 -187q0 -60 39 -100.5t98 -40.5q38 0 86.5 19t126.5 65v262zM1042 170l37 -76q-91 -60 -163.5 -89.5t-129.5 -29.5q-69 0 -105.5 35.5t-42.5 107.5q-109 -76 -184 -109.5t-135 -33.5q-105 0 -179 81.5t-74 195.5q0 192 429 291
q93 22 146 35q1 25 1.5 48.5t0.5 45.5q0 107 -41.5 156t-132.5 49q-59 0 -101.5 -24t-45.5 -56q-1 -5 -1 -13q-6 -100 -126 -100q-45 0 -69 15t-24 44q0 80 147.5 179.5t309.5 99.5q158 0 240 -82.5t82 -241.5q0 -48 -7.5 -198.5t-7.5 -253.5q0 -61 16 -88t50 -27
q19 0 47 10t63 29zM633 1575l195 -109l-357 -333l-98 36z" />
    <glyph glyph-name="acircumflex" unicode="&#xe2;" horiz-adv-x="1075" 
d="M643 477q-22 -6 -64 -18q-286 -79 -286 -187q0 -60 39 -100.5t98 -40.5q38 0 86.5 19t126.5 65v262zM1042 170l37 -76q-91 -60 -163.5 -89.5t-129.5 -29.5q-69 0 -105.5 35.5t-42.5 107.5q-109 -76 -184 -109.5t-135 -33.5q-105 0 -179 81.5t-74 195.5q0 192 429 291
q93 22 146 35q1 25 1.5 48.5t0.5 45.5q0 107 -41.5 156t-132.5 49q-59 0 -101.5 -24t-45.5 -56q-1 -5 -1 -13q-6 -100 -126 -100q-45 0 -69 15t-24 44q0 80 147.5 179.5t309.5 99.5q158 0 240 -82.5t82 -241.5q0 -48 -7.5 -198.5t-7.5 -253.5q0 -61 16 -88t50 -27
q19 0 47 10t63 29zM488 1518h100l297 -347l-84 -38l-262 202l-262 -202l-84 41z" />
    <glyph glyph-name="atilde" unicode="&#xe3;" horiz-adv-x="1075" 
d="M643 477q-22 -6 -64 -18q-286 -79 -286 -187q0 -60 39 -100.5t98 -40.5q38 0 86.5 19t126.5 65v262zM1042 170l37 -76q-91 -60 -163.5 -89.5t-129.5 -29.5q-69 0 -105.5 35.5t-42.5 107.5q-109 -76 -184 -109.5t-135 -33.5q-105 0 -179 81.5t-74 195.5q0 192 429 291
q93 22 146 35q1 25 1.5 48.5t0.5 45.5q0 107 -41.5 156t-132.5 49q-59 0 -101.5 -24t-45.5 -56q-1 -5 -1 -13q-6 -100 -126 -100q-45 0 -69 15t-24 44q0 80 147.5 179.5t309.5 99.5q158 0 240 -82.5t82 -241.5q0 -48 -7.5 -198.5t-7.5 -253.5q0 -61 16 -88t50 -27
q19 0 47 10t63 29zM906 1473l59 -52q-56 -74 -121.5 -130t-144.5 -97q-75 10 -190.5 32.5t-153.5 22.5q-54 0 -100 -23.5t-91 -74.5l-55 51q59 78 125 134t145 96q75 -11 191.5 -33.5t152.5 -22.5q51 0 95.5 23.5t87.5 73.5z" />
    <glyph glyph-name="adieresis" unicode="&#xe4;" horiz-adv-x="1075" 
d="M643 477q-22 -6 -64 -18q-286 -79 -286 -187q0 -60 39 -100.5t98 -40.5q38 0 86.5 19t126.5 65v262zM1042 170l37 -76q-91 -60 -163.5 -89.5t-129.5 -29.5q-69 0 -105.5 35.5t-42.5 107.5q-109 -76 -184 -109.5t-135 -33.5q-105 0 -179 81.5t-74 195.5q0 192 429 291
q93 22 146 35q1 25 1.5 48.5t0.5 45.5q0 107 -41.5 156t-132.5 49q-59 0 -101.5 -24t-45.5 -56q-1 -5 -1 -13q-6 -100 -126 -100q-45 0 -69 15t-24 44q0 80 147.5 179.5t309.5 99.5q158 0 240 -82.5t82 -241.5q0 -48 -7.5 -198.5t-7.5 -253.5q0 -61 16 -88t50 -27
q19 0 47 10t63 29zM783 1448q47 0 98 -47t51 -92q0 -42 -51 -88.5t-98 -46.5t-97.5 47t-50.5 88q0 45 50 92t98 47zM295 1448q48 0 98 -47t50 -92q0 -42 -50 -88.5t-98 -46.5q-47 0 -98 47t-51 88q0 45 50.5 92t98.5 47z" />
    <glyph glyph-name="aring" unicode="&#xe5;" horiz-adv-x="1075" 
d="M537 1497q-55 0 -94.5 -38.5t-39.5 -92.5q0 -56 39 -95.5t93 -39.5q55 0 94 38.5t39 92.5q0 57 -38.5 96t-92.5 39zM537 1616q106 0 177.5 -73.5t71.5 -182.5q0 -103 -74 -174.5t-182 -71.5q-101 0 -173 73.5t-72 176.5q0 104 73.5 178t178.5 74zM643 479q-19 -5 -55 -15
q-295 -82 -295 -192q0 -60 38.5 -99.5t98.5 -39.5q38 0 86.5 19t126.5 65v262zM1042 172l37 -76q-93 -61 -165 -91t-126 -30q-70 0 -107 35.5t-43 107.5q-109 -76 -184 -109.5t-135 -33.5q-105 0 -179 81.5t-74 195.5q0 194 435 295q90 20 140 33q1 25 1.5 48.5t0.5 45.5
q0 107 -41.5 156t-132.5 49q-59 0 -101.5 -24t-45.5 -56q-1 -5 -1 -13q-6 -100 -126 -100q-45 0 -69 15.5t-24 43.5q0 80 147.5 179.5t309.5 99.5q156 0 239 -82t83 -237q0 -52 -7.5 -200t-7.5 -245q0 -73 15 -100t51 -27q19 0 47 10t63 29z" />
    <glyph glyph-name="ae" unicode="&#xe6;" horiz-adv-x="1647" 
d="M889 627q138 0 246 6t186 18q-19 117 -74.5 183.5t-132.5 66.5q-92 0 -152 -72.5t-73 -201.5zM645 217l2 264q-31 -9 -87 -25q-267 -76 -267 -182q0 -58 39.5 -98.5t99.5 -40.5q43 0 94.5 19.5t118.5 62.5zM735 166q-141 -101 -237.5 -146t-169.5 -45q-113 0 -187.5 80.5
t-74.5 200.5q0 190 449 291q86 19 134 31q1 25 1.5 48.5t0.5 45.5q0 107 -41.5 156t-132.5 49q-59 0 -101 -23.5t-46 -56.5q-1 -5 -1 -13q-6 -100 -126 -100q-45 0 -68.5 15t-23.5 44q0 80 147 179.5t309 99.5q96 0 157 -34.5t93 -106.5q64 71 141 106t170 35
q194 0 309 -131.5t122 -362.5h-437q-56 0 -115.5 -1.5t-121.5 -4.5v-6q0 -178 89.5 -279.5t246.5 -101.5q72 0 144 24.5t148 76.5l46 -86q-114 -87 -226 -131t-223 -44q-125 0 -222 49.5t-153 141.5z" />
    <glyph glyph-name="ccedilla" unicode="&#xe7;" horiz-adv-x="987" 
d="M885 231l55 -98q-112 -83 -214 -124.5t-194 -41.5q-206 0 -337.5 141t-131.5 363q0 233 164 392t408 159q137 0 207.5 -40.5t70.5 -119.5q0 -45 -33 -81t-75 -36q-36 0 -114 62.5t-146 62.5q-105 0 -167.5 -87t-62.5 -234q0 -188 86.5 -295t237.5 -107q57 0 117.5 21
t128.5 63zM519 18h102l-94 -141q79 -15 118 -51t39 -92q0 -81 -86.5 -143t-236.5 -87l-41 78q82 14 126 47t44 80q0 41 -33 67t-94 31z" />
    <glyph glyph-name="egrave" unicode="&#xe8;" horiz-adv-x="1085" 
d="M997 533l-417 -1q-107 0 -160 -1.5t-98 -6.5q0 -179 88.5 -281t244.5 -102q75 0 148.5 23.5t148.5 71.5l45 -86q-116 -92 -228 -137.5t-222 -45.5q-209 0 -343 139.5t-134 358.5q0 238 145 397.5t356 159.5q189 0 306 -133.5t120 -355.5zM760 655q-21 117 -76.5 182.5
t-132.5 65.5q-92 0 -152 -71t-75 -199h63q123 0 214 5.5t159 16.5zM447 1575l264 -408l-98 -34l-359 337z" />
    <glyph glyph-name="eacute" unicode="&#xe9;" horiz-adv-x="1085" 
d="M997 533l-417 -1q-107 0 -160 -1.5t-98 -6.5q0 -179 88.5 -281t244.5 -102q75 0 148.5 23.5t148.5 71.5l45 -86q-116 -92 -228 -137.5t-222 -45.5q-209 0 -343 139.5t-134 358.5q0 238 145 397.5t356 159.5q189 0 306 -133.5t120 -355.5zM760 655q-21 117 -76.5 182.5
t-132.5 65.5q-92 0 -152 -71t-75 -199h63q123 0 214 5.5t159 16.5zM637 1575l195 -109l-357 -333l-98 36z" />
    <glyph glyph-name="ecircumflex" unicode="&#xea;" horiz-adv-x="1085" 
d="M997 533l-417 -1q-107 0 -160 -1.5t-98 -6.5q0 -179 88.5 -281t244.5 -102q75 0 148.5 23.5t148.5 71.5l45 -86q-116 -92 -228 -137.5t-222 -45.5q-209 0 -343 139.5t-134 358.5q0 238 145 397.5t356 159.5q189 0 306 -133.5t120 -355.5zM760 655q-21 117 -76.5 182.5
t-132.5 65.5q-92 0 -152 -71t-75 -199h63q123 0 214 5.5t159 16.5zM492 1518h100l297 -347l-84 -38l-262 202l-262 -202l-84 41z" />
    <glyph glyph-name="edieresis" unicode="&#xeb;" horiz-adv-x="1085" 
d="M997 533l-417 -1q-107 0 -160 -1.5t-98 -6.5q0 -179 88.5 -281t244.5 -102q75 0 148.5 23.5t148.5 71.5l45 -86q-116 -92 -228 -137.5t-222 -45.5q-209 0 -343 139.5t-134 358.5q0 238 145 397.5t356 159.5q189 0 306 -133.5t120 -355.5zM760 655q-21 117 -76.5 182.5
t-132.5 65.5q-92 0 -152 -71t-75 -199h63q123 0 214 5.5t159 16.5zM787 1448q47 0 98 -47t51 -92q0 -42 -51 -88.5t-98 -46.5t-97.5 47t-50.5 88q0 45 50 92t98 47zM299 1448q48 0 98 -47t50 -92q0 -42 -50 -88.5t-98 -46.5q-47 0 -98 47t-51 88q0 45 50.5 92t98.5 47z" />
    <glyph glyph-name="igrave" unicode="&#xec;" horiz-adv-x="659" 
d="M457 1024q-6 -216 -9.5 -377t-3.5 -264v-117q0 -117 23.5 -149.5t89.5 -32.5q5 0 15.5 1t17.5 1v-86q-92 6 -161 9t-114 3q-38 0 -102.5 -3t-151.5 -9v86h19q128 0 129 236v59l2 213v88q0 112 -18 144t-70 32q-7 0 -32 -2q-11 -1 -17 -2l-13 80q105 14 202.5 36.5
t193.5 53.5zM236 1575l264 -408l-98 -34l-359 337z" />
    <glyph glyph-name="iacute" unicode="&#xed;" horiz-adv-x="659" 
d="M457 1024q-6 -216 -9.5 -377t-3.5 -264v-117q0 -117 23.5 -149.5t89.5 -32.5q5 0 15.5 1t17.5 1v-86q-92 6 -161 9t-114 3q-38 0 -102.5 -3t-151.5 -9v86h19q128 0 129 236v59l2 213v88q0 112 -18 144t-70 32q-7 0 -32 -2q-11 -1 -17 -2l-13 80q105 14 202.5 36.5
t193.5 53.5zM426 1575l195 -109l-357 -333l-98 36z" />
    <glyph glyph-name="icircumflex" unicode="&#xee;" horiz-adv-x="659" 
d="M457 1024q-6 -216 -9.5 -377t-3.5 -264v-117q0 -117 23.5 -149.5t89.5 -32.5q5 0 15.5 1t17.5 1v-86q-92 6 -161 9t-114 3q-38 0 -102.5 -3t-151.5 -9v86h19q128 0 129 236v59l2 213v88q0 112 -18 144t-70 32q-7 0 -32 -2q-11 -1 -17 -2l-13 80q105 14 202.5 36.5
t193.5 53.5zM281 1518h100l297 -347l-84 -38l-262 202l-262 -202l-84 41z" />
    <glyph glyph-name="idieresis" unicode="&#xef;" horiz-adv-x="659" 
d="M457 1024q-6 -216 -9.5 -377t-3.5 -264v-117q0 -117 23.5 -149.5t89.5 -32.5q5 0 15.5 1t17.5 1v-86q-92 6 -161 9t-114 3q-38 0 -102.5 -3t-151.5 -9v86h19q128 0 129 236v59l2 213v88q0 112 -18 144t-70 32q-7 0 -32 -2q-11 -1 -17 -2l-13 80q105 14 202.5 36.5
t193.5 53.5zM576 1448q47 0 98 -47t51 -92q0 -42 -51 -88.5t-98 -46.5t-97.5 47t-50.5 88q0 45 50 92t98 47zM88 1448q48 0 98 -47t50 -92q0 -42 -50 -88.5t-98 -46.5q-47 0 -98 47t-51 88q0 45 50.5 92t98.5 47z" />
    <glyph glyph-name="eth" unicode="&#xf0;" horiz-adv-x="1206" 
d="M829 821q-56 32 -107 47t-106 15q-137 0 -211.5 -93t-74.5 -266q0 -194 76.5 -309t205.5 -115q128 0 200.5 104.5t72.5 289.5q0 82 -14 164t-42 163zM473 1563q63 -37 117 -73t102 -75q38 23 84 55.5t113 81.5l57 -84q-63 -41 -104 -68.5t-76 -51.5q189 -174 281 -365
t92 -410q0 -263 -155 -433.5t-394 -170.5q-220 0 -371 149t-151 363q0 223 153 376t371 153q62 0 109 -9t94 -28q-43 79 -91.5 146.5t-103.5 121.5q-48 -32 -97.5 -66.5t-107.5 -74.5l-57 80l30 19q108 68 164 106q-58 49 -120.5 93.5t-128.5 84.5z" />
    <glyph glyph-name="ntilde" unicode="&#xf1;" horiz-adv-x="1272" 
d="M440 1024l-16 -164q120 86 205 125t151 39q157 0 236.5 -91.5t79.5 -270.5q0 -34 -2 -157.5t-2 -213.5q0 -147 21.5 -177t86.5 -30h21l-2 -84q-89 6 -152 9t-102 3q-42 0 -103.5 -3t-142.5 -9v84h12q124 0 127 250v12v211q0 173 -40 233t-136 60q-52 0 -112 -21.5
t-132 -66.5q-4 -90 -6 -187t-2 -208v-82q0 -135 21.5 -168t85.5 -33h16v-84q-84 6 -147 9t-107 3q-43 0 -106 -3t-146 -9v84h23q124 0 126 251q0 30 1 46l2 207v88q0 113 -17.5 146.5t-64.5 33.5q-9 0 -40 -3q-6 -1 -9 -1l-6 78q83 13 175 36t203 58zM1004 1473l59 -52
q-56 -74 -121.5 -130t-144.5 -97q-75 10 -190.5 32.5t-153.5 22.5q-54 0 -100 -23.5t-91 -74.5l-55 51q59 78 125 134t145 96q75 -11 191.5 -33.5t152.5 -22.5q51 0 95.5 23.5t87.5 73.5z" />
    <glyph glyph-name="ograve" unicode="&#xf2;" horiz-adv-x="1206" 
d="M588 891q-123 0 -190.5 -91.5t-67.5 -258.5q0 -203 77 -322t207 -119q124 0 195.5 96t71.5 263q0 199 -79.5 315.5t-213.5 116.5zM608 1022q235 0 385 -144.5t150 -365.5q0 -232 -156.5 -387.5t-390.5 -155.5t-382 146t-148 374q0 224 158.5 378.5t383.5 154.5zM508 1575
l264 -408l-98 -34l-359 337z" />
    <glyph glyph-name="oacute" unicode="&#xf3;" horiz-adv-x="1206" 
d="M588 891q-123 0 -190.5 -91.5t-67.5 -258.5q0 -203 77 -322t207 -119q124 0 195.5 96t71.5 263q0 199 -79.5 315.5t-213.5 116.5zM608 1022q235 0 385 -144.5t150 -365.5q0 -232 -156.5 -387.5t-390.5 -155.5t-382 146t-148 374q0 224 158.5 378.5t383.5 154.5zM698 1575
l195 -109l-357 -333l-98 36z" />
    <glyph glyph-name="ocircumflex" unicode="&#xf4;" horiz-adv-x="1206" 
d="M588 891q-123 0 -190.5 -91.5t-67.5 -258.5q0 -203 77 -322t207 -119q124 0 195.5 96t71.5 263q0 199 -79.5 315.5t-213.5 116.5zM608 1022q235 0 385 -144.5t150 -365.5q0 -232 -156.5 -387.5t-390.5 -155.5t-382 146t-148 374q0 224 158.5 378.5t383.5 154.5zM553 1518
h100l297 -347l-84 -38l-262 202l-262 -202l-84 41z" />
    <glyph glyph-name="otilde" unicode="&#xf5;" horiz-adv-x="1206" 
d="M588 891q-123 0 -190.5 -91.5t-67.5 -258.5q0 -203 77 -322t207 -119q124 0 195.5 96t71.5 263q0 199 -79.5 315.5t-213.5 116.5zM608 1022q235 0 385 -144.5t150 -365.5q0 -232 -156.5 -387.5t-390.5 -155.5t-382 146t-148 374q0 224 158.5 378.5t383.5 154.5zM971 1473
l59 -52q-56 -74 -121.5 -130t-144.5 -97q-75 10 -190.5 32.5t-153.5 22.5q-54 0 -100 -23.5t-91 -74.5l-55 51q59 78 125 134t145 96q75 -11 191.5 -33.5t152.5 -22.5q51 0 95.5 23.5t87.5 73.5z" />
    <glyph glyph-name="odieresis" unicode="&#xf6;" horiz-adv-x="1206" 
d="M588 891q-123 0 -190.5 -91.5t-67.5 -258.5q0 -203 77 -322t207 -119q124 0 195.5 96t71.5 263q0 199 -79.5 315.5t-213.5 116.5zM608 1022q235 0 385 -144.5t150 -365.5q0 -232 -156.5 -387.5t-390.5 -155.5t-382 146t-148 374q0 224 158.5 378.5t383.5 154.5zM848 1448
q47 0 98 -47t51 -92q0 -42 -51 -88.5t-98 -46.5t-97.5 47t-50.5 88q0 45 50 92t98 47zM360 1448q48 0 98 -47t50 -92q0 -42 -50 -88.5t-98 -46.5q-47 0 -98 47t-51 88q0 45 50.5 92t98.5 47z" />
    <glyph glyph-name="divide" unicode="&#xf7;" horiz-adv-x="1706" 
d="M854 367q57 0 97 -40.5t40 -97.5q0 -56 -39.5 -95.5t-97.5 -39.5t-97.5 39t-39.5 96t40.5 97.5t96.5 40.5zM1452 694v-166h-1198v166h1198zM854 1128q57 0 97 -41t40 -98q0 -56 -39.5 -95.5t-97.5 -39.5t-97.5 39t-39.5 96t40.5 98t96.5 41z" />
    <glyph glyph-name="oslash" unicode="&#xf8;" horiz-adv-x="1206" 
d="M807 766l-371 -590q32 -39 78 -60.5t100 -21.5q125 0 200 97t75 262q0 87 -21.5 169t-60.5 144zM754 838q-35 30 -75.5 44.5t-90.5 14.5q-123 0 -194.5 -93t-71.5 -255q0 -88 16.5 -163.5t48.5 -133.5zM946 1145l72 -45l-100 -164q105 -73 165 -182.5t60 -231.5
q0 -241 -155.5 -397t-397.5 -156q-69 0 -129 14t-117 44l-106 -170l-72 45l104 168q-97 68 -150.5 177t-53.5 238q0 226 157.5 381.5t384.5 155.5q66 0 122.5 -11t111.5 -34z" />
    <glyph glyph-name="ugrave" unicode="&#xf9;" horiz-adv-x="1274" 
d="M424 1017q-7 -178 -10.5 -322t-3.5 -240q0 -174 41 -243t137 -69q48 0 108 22t129 64q3 143 4.5 243t1.5 159v45q0 124 -22 155t-84 31q-11 0 -22 -0.5t-23 -1.5l-6 80q105 10 205 24t196 33q-7 -232 -9.5 -352.5t-2.5 -224.5v-92q0 -130 16 -163.5t64 -33.5q12 0 26.5 2
t30.5 6l10 -82l-383 -86v154q-115 -84 -197 -119t-159 -35q-150 0 -223.5 93.5t-73.5 283.5q0 40 0.5 66t1.5 52l4 136q0 20 1 51.5t1 44.5q0 99 -17 133.5t-61 34.5q-19 0 -53 -3q-4 -1 -6 -1l-6 82q95 12 191 30.5t194 42.5zM541 1575l264 -408l-98 -34l-359 337z" />
    <glyph glyph-name="uacute" unicode="&#xfa;" horiz-adv-x="1274" 
d="M424 1017q-7 -178 -10.5 -322t-3.5 -240q0 -174 41 -243t137 -69q48 0 108 22t129 64q3 143 4.5 243t1.5 159v45q0 124 -22 155t-84 31q-11 0 -22 -0.5t-23 -1.5l-6 80q105 10 205 24t196 33q-7 -232 -9.5 -352.5t-2.5 -224.5v-92q0 -130 16 -163.5t64 -33.5q12 0 26.5 2
t30.5 6l10 -82l-383 -86v154q-115 -84 -197 -119t-159 -35q-150 0 -223.5 93.5t-73.5 283.5q0 40 0.5 66t1.5 52l4 136q0 20 1 51.5t1 44.5q0 99 -17 133.5t-61 34.5q-19 0 -53 -3q-4 -1 -6 -1l-6 82q95 12 191 30.5t194 42.5zM731 1575l195 -109l-357 -333l-98 36z" />
    <glyph glyph-name="ucircumflex" unicode="&#xfb;" horiz-adv-x="1274" 
d="M424 1017q-7 -178 -10.5 -322t-3.5 -240q0 -174 41 -243t137 -69q48 0 108 22t129 64q3 143 4.5 243t1.5 159v45q0 124 -22 155t-84 31q-11 0 -22 -0.5t-23 -1.5l-6 80q105 10 205 24t196 33q-7 -232 -9.5 -352.5t-2.5 -224.5v-92q0 -130 16 -163.5t64 -33.5q12 0 26.5 2
t30.5 6l10 -82l-383 -86v154q-115 -84 -197 -119t-159 -35q-150 0 -223.5 93.5t-73.5 283.5q0 40 0.5 66t1.5 52l4 136q0 20 1 51.5t1 44.5q0 99 -17 133.5t-61 34.5q-19 0 -53 -3q-4 -1 -6 -1l-6 82q95 12 191 30.5t194 42.5zM586 1518h100l297 -347l-84 -38l-262 202
l-262 -202l-84 41z" />
    <glyph glyph-name="udieresis" unicode="&#xfc;" horiz-adv-x="1274" 
d="M424 1017q-7 -178 -10.5 -322t-3.5 -240q0 -174 41 -243t137 -69q48 0 108 22t129 64q3 143 4.5 243t1.5 159v45q0 124 -22 155t-84 31q-11 0 -22 -0.5t-23 -1.5l-6 80q105 10 205 24t196 33q-7 -232 -9.5 -352.5t-2.5 -224.5v-92q0 -130 16 -163.5t64 -33.5q12 0 26.5 2
t30.5 6l10 -82l-383 -86v154q-115 -84 -197 -119t-159 -35q-150 0 -223.5 93.5t-73.5 283.5q0 40 0.5 66t1.5 52l4 136q0 20 1 51.5t1 44.5q0 99 -17 133.5t-61 34.5q-19 0 -53 -3q-4 -1 -6 -1l-6 82q95 12 191 30.5t194 42.5zM881 1448q47 0 98 -47t51 -92q0 -42 -51 -88.5
t-98 -46.5t-97.5 47t-50.5 88q0 45 50 92t98 47zM393 1448q48 0 98 -47t50 -92q0 -42 -50 -88.5t-98 -46.5q-47 0 -98 47t-51 88q0 45 50.5 92t98.5 47z" />
    <glyph glyph-name="yacute" unicode="&#xfd;" horiz-adv-x="1096" 
d="M-2 991q83 -6 141.5 -9t96.5 -3q68 0 131 3t127 9v-88h-23q-49 0 -70.5 -14t-21.5 -45q0 -37 78 -242.5t127 -345.5q23 56 64 156q161 387 161 440q0 26 -18.5 39.5t-55.5 13.5h-33v86q58 -6 108.5 -9t92.5 -3q37 0 141 8q33 3 49 4l1 -88h-17q-36 0 -61 -18t-51 -68
l-88 -195t-179 -399q-35 -80 -96 -219q-236 -539 -356 -539q-50 0 -82.5 30.5t-32.5 76.5q0 66 92 83q36 6 49 13q49 25 143 222q25 54 40 83q-33 81 -134 334.5t-172 428.5q-4 11 -13 32q-53 135 -124 135h-14v88zM643 1575l195 -109l-357 -333l-98 36z" />
    <glyph glyph-name="thorn" unicode="&#xfe;" horiz-adv-x="1231" 
d="M416 170q48 -29 102.5 -45t108.5 -16q131 0 206.5 91.5t75.5 252.5q0 181 -77 289t-205 108q-51 0 -104 -17t-101 -49q-3 -130 -4.5 -246t-1.5 -212v-156zM428 1548q-5 -171 -7.5 -331t-2.5 -299v-33q103 69 177 97t150 28q175 0 292.5 -136t117.5 -335
q0 -250 -145.5 -399.5t-388.5 -149.5q-56 0 -106.5 9t-98.5 28l-2 -201v-80q0 -116 26.5 -145t112.5 -29h39l-1 -88q-105 5 -176.5 7.5t-127.5 2.5q-33 0 -89.5 -2t-172.5 -8v88h16q52 0 79.5 10t37.5 31q26 55 28 458v128l2 729v270q0 112 -17.5 149t-64.5 37
q-13 0 -28 -1.5t-29 -3.5l-10 79q96 14 193 36t196 54z" />
    <glyph glyph-name="ydieresis" unicode="&#xff;" horiz-adv-x="1096" 
d="M-2 991q83 -6 141.5 -9t96.5 -3q68 0 131 3t127 9v-88h-23q-49 0 -70.5 -14t-21.5 -45q0 -37 78 -242.5t127 -345.5q23 56 64 156q161 387 161 440q0 26 -18.5 39.5t-55.5 13.5h-33v86q58 -6 108.5 -9t92.5 -3q37 0 141 8q33 3 49 4l1 -88h-17q-36 0 -61 -18t-51 -68
l-88 -195t-179 -399q-35 -80 -96 -219q-236 -539 -356 -539q-50 0 -82.5 30.5t-32.5 76.5q0 66 92 83q36 6 49 13q49 25 143 222q25 54 40 83q-33 81 -134 334.5t-172 428.5q-4 11 -13 32q-53 135 -124 135h-14v88zM793 1448q47 0 98 -47t51 -92q0 -42 -51 -88.5t-98 -46.5
t-97.5 47t-50.5 88q0 45 50 92t98 47zM305 1448q48 0 98 -47t50 -92q0 -42 -50 -88.5t-98 -46.5q-47 0 -98 47t-51 88q0 45 50.5 92t98.5 47z" />
    <glyph glyph-name="Amacron" unicode="&#x100;" horiz-adv-x="1589" 
d="M743 1194l-218 -553q38 -1 80.5 -1.5t113.5 -0.5q82 0 128 0.5t86 1.5zM688 1434h244q144 -422 274.5 -775.5t182.5 -470.5q22 -53 55.5 -75.5t89.5 -22.5h22v-90q-127 6 -195 8t-114 2q-44 0 -114 -2t-203 -8v90h18q79 0 107 18t28 64q0 14 -3.5 33t-14.5 53l-82 242
q-57 1 -150 2.5t-116 1.5q-43 0 -173 -3q-47 -1 -73 -1l-4 -10q-98 -239 -98 -302q0 -52 29.5 -75t97.5 -23h18v-90q-114 6 -177 8t-104 2q-34 0 -89.5 -2t-161.5 -8v90q72 0 115 25t73 84q43 78 194 436t324 799zM498 1825h626v-158h-626v158z" />
    <glyph glyph-name="amacron" unicode="&#x101;" horiz-adv-x="1075" 
d="M643 477q-22 -6 -64 -18q-286 -79 -286 -187q0 -60 39 -100.5t98 -40.5q38 0 86.5 19t126.5 65v262zM1042 170l37 -76q-91 -60 -163.5 -89.5t-129.5 -29.5q-69 0 -105.5 35.5t-42.5 107.5q-109 -76 -184 -109.5t-135 -33.5q-105 0 -179 81.5t-74 195.5q0 192 429 291
q93 22 146 35q1 25 1.5 48.5t0.5 45.5q0 107 -41.5 156t-132.5 49q-59 0 -101.5 -24t-45.5 -56q-1 -5 -1 -13q-6 -100 -126 -100q-45 0 -69 15t-24 44q0 80 147.5 179.5t309.5 99.5q158 0 240 -82.5t82 -241.5q0 -48 -7.5 -198.5t-7.5 -253.5q0 -61 16 -88t50 -27
q19 0 47 10t63 29zM226 1389h626v-158h-626v158z" />
    <glyph glyph-name="Abreve" unicode="&#x102;" horiz-adv-x="1589" 
d="M743 1194l-218 -553q38 -1 80.5 -1.5t113.5 -0.5q82 0 128 0.5t86 1.5zM688 1434h244q144 -422 274.5 -775.5t182.5 -470.5q22 -53 55.5 -75.5t89.5 -22.5h22v-90q-127 6 -195 8t-114 2q-44 0 -114 -2t-203 -8v90h18q79 0 107 18t28 64q0 14 -3.5 33t-14.5 53l-82 242
q-57 1 -150 2.5t-116 1.5q-43 0 -173 -3q-47 -1 -73 -1l-4 -10q-98 -239 -98 -302q0 -52 29.5 -75t97.5 -23h18v-90q-114 6 -177 8t-104 2q-34 0 -89.5 -2t-161.5 -8v90q72 0 115 25t73 84q43 78 194 436t324 799zM582 1915q26 -85 83.5 -127.5t145.5 -42.5t145.5 42.5
t83.5 127.5l88 -27q-31 -147 -114.5 -226t-206.5 -79q-120 0 -201.5 78t-113.5 225z" />
    <glyph glyph-name="abreve" unicode="&#x103;" horiz-adv-x="1075" 
d="M643 477q-22 -6 -64 -18q-286 -79 -286 -187q0 -60 39 -100.5t98 -40.5q38 0 86.5 19t126.5 65v262zM1042 170l37 -76q-91 -60 -163.5 -89.5t-129.5 -29.5q-69 0 -105.5 35.5t-42.5 107.5q-109 -76 -184 -109.5t-135 -33.5q-105 0 -179 81.5t-74 195.5q0 192 429 291
q93 22 146 35q1 25 1.5 48.5t0.5 45.5q0 107 -41.5 156t-132.5 49q-59 0 -101.5 -24t-45.5 -56q-1 -5 -1 -13q-6 -100 -126 -100q-45 0 -69 15t-24 44q0 80 147.5 179.5t309.5 99.5q158 0 240 -82.5t82 -241.5q0 -48 -7.5 -198.5t-7.5 -253.5q0 -61 16 -88t50 -27
q19 0 47 10t63 29zM310 1479q26 -85 83.5 -127.5t145.5 -42.5t145.5 42.5t83.5 127.5l88 -27q-31 -147 -114.5 -226t-206.5 -79q-120 0 -201.5 78t-113.5 225z" />
    <glyph glyph-name="Aogonek" unicode="&#x104;" horiz-adv-x="1589" 
d="M743 1194l-218 -553q38 -1 80.5 -1.5t113.5 -0.5q82 0 128 0.5t86 1.5zM688 1434h244q144 -422 274.5 -775.5t182.5 -470.5q22 -53 55.5 -75.5t89.5 -22.5h22v-90q-43 3 -79 4.5t-68 1.5q-70 -74 -105.5 -138.5t-35.5 -115.5q0 -45 24.5 -73.5t63.5 -28.5q29 0 56.5 17.5
t55.5 56.5l64 -54q-53 -80 -111 -118.5t-123 -38.5q-85 0 -140.5 54t-55.5 136q0 77 55.5 156.5t159.5 150.5h-84q-42 0 -109.5 -2t-193.5 -8v90h18q79 0 107 18t28 64q0 14 -3.5 33t-14.5 53l-82 242q-57 1 -150 2.5t-116 1.5q-43 0 -173 -3q-47 -1 -73 -1l-4 -10
q-98 -239 -98 -302q0 -52 29.5 -75t97.5 -23h18v-90q-114 6 -177 8t-104 2q-34 0 -89.5 -2t-161.5 -8v90q72 0 115 25t73 84q43 78 194 436t324 799z" />
    <glyph glyph-name="aogonek" unicode="&#x105;" horiz-adv-x="1075" 
d="M643 479q-19 -5 -55 -15q-295 -82 -295 -192q0 -60 38.5 -99.5t98.5 -39.5q38 0 86.5 19t126.5 65v262zM1042 172l37 -76l-67 -43q-92 -58 -151.5 -142.5t-59.5 -156.5q0 -46 25 -75t63 -29q28 0 55 17.5t57 56.5l64 -54q-53 -79 -110.5 -118t-120.5 -39q-89 0 -145 54
t-56 138q0 67 42 132t128 130h-17q-66 0 -104 40t-44 113q-109 -76 -184 -109.5t-135 -33.5q-105 0 -179 81.5t-74 195.5q0 192 429 291q93 22 146 35q1 25 1.5 48.5t0.5 45.5q0 107 -41.5 156t-132.5 49q-59 0 -101.5 -24t-45.5 -56q-1 -5 -1 -13q-6 -100 -126 -100
q-45 0 -69 15.5t-24 43.5q0 80 147.5 179.5t309.5 99.5q156 0 239 -82t83 -237q0 -52 -7.5 -200t-7.5 -245q0 -72 15 -98.5t51 -26.5q21 0 49.5 9.5t60.5 27.5z" />
    <glyph glyph-name="Cacute" unicode="&#x106;" horiz-adv-x="1493" 
d="M1370 1378q0 -10 -1 -31.5t-1 -31.5q0 -67 6 -142t19 -165l-99 -17q-16 149 -127 231.5t-293 82.5q-232 0 -359.5 -144.5t-127.5 -408.5q0 -285 144.5 -454t386.5 -169q152 0 259.5 69t174.5 210l88 -41q-40 -79 -70 -154.5t-51 -149.5q-121 -49 -236.5 -74.5
t-222.5 -25.5q-348 0 -564 206t-216 538q0 328 226.5 540.5t574.5 212.5q125 0 245.5 -20t243.5 -62zM999 2011l195 -109l-357 -333l-98 36z" />
    <glyph glyph-name="cacute" unicode="&#x107;" horiz-adv-x="987" 
d="M885 231l55 -98q-112 -83 -214 -124.5t-194 -41.5q-206 0 -337.5 141t-131.5 363q0 233 164 392t408 159q137 0 207.5 -40.5t70.5 -119.5q0 -45 -33 -81t-75 -36q-36 0 -114 62.5t-146 62.5q-105 0 -167.5 -87t-62.5 -234q0 -188 86.5 -295t237.5 -107q57 0 117.5 21
t128.5 63zM694 1575l195 -109l-357 -333l-98 36z" />
    <glyph glyph-name="Ccircumflex" unicode="&#x108;" horiz-adv-x="1493" 
d="M1370 1378q0 -10 -1 -31.5t-1 -31.5q0 -67 6 -142t19 -165l-99 -17q-16 149 -127 231.5t-293 82.5q-232 0 -359.5 -144.5t-127.5 -408.5q0 -285 144.5 -454t386.5 -169q152 0 259.5 69t174.5 210l88 -41q-40 -79 -70 -154.5t-51 -149.5q-121 -49 -236.5 -74.5
t-222.5 -25.5q-348 0 -564 206t-216 538q0 328 226.5 540.5t574.5 212.5q125 0 245.5 -20t243.5 -62zM854 1954h100l297 -347l-84 -38l-262 202l-262 -202l-84 41z" />
    <glyph glyph-name="ccircumflex" unicode="&#x109;" horiz-adv-x="987" 
d="M885 231l55 -98q-112 -83 -214 -124.5t-194 -41.5q-206 0 -337.5 141t-131.5 363q0 233 164 392t408 159q137 0 207.5 -40.5t70.5 -119.5q0 -45 -33 -81t-75 -36q-36 0 -114 62.5t-146 62.5q-105 0 -167.5 -87t-62.5 -234q0 -188 86.5 -295t237.5 -107q57 0 117.5 21
t128.5 63zM549 1518h100l297 -347l-84 -38l-262 202l-262 -202l-84 41z" />
    <glyph glyph-name="Cdotaccent" unicode="&#x10a;" horiz-adv-x="1493" 
d="M1370 1378q0 -10 -1 -31.5t-1 -31.5q0 -67 6 -142t19 -165l-99 -17q-16 149 -127 231.5t-293 82.5q-232 0 -359.5 -144.5t-127.5 -408.5q0 -285 144.5 -454t386.5 -169q152 0 259.5 69t174.5 210l88 -41q-40 -79 -70 -154.5t-51 -149.5q-121 -49 -236.5 -74.5
t-222.5 -25.5q-348 0 -564 206t-216 538q0 328 226.5 540.5t574.5 212.5q125 0 245.5 -20t243.5 -62zM905 1896q52 0 107 -51t55 -100q0 -45 -54.5 -95.5t-107.5 -50.5t-107.5 51t-54.5 95q0 48 55.5 99.5t106.5 51.5z" />
    <glyph glyph-name="cdotaccent" unicode="&#x10b;" horiz-adv-x="987" 
d="M885 231l55 -98q-112 -83 -214 -124.5t-194 -41.5q-206 0 -337.5 141t-131.5 363q0 233 164 392t408 159q137 0 207.5 -40.5t70.5 -119.5q0 -45 -33 -81t-75 -36q-36 0 -114 62.5t-146 62.5q-105 0 -167.5 -87t-62.5 -234q0 -188 86.5 -295t237.5 -107q57 0 117.5 21
t128.5 63zM600 1460q52 0 107 -51t55 -100q0 -45 -54.5 -95.5t-107.5 -50.5t-107.5 51t-54.5 95q0 48 55.5 99.5t106.5 51.5z" />
    <glyph glyph-name="Ccaron" unicode="&#x10c;" horiz-adv-x="1493" 
d="M1370 1378q0 -10 -1 -31.5t-1 -31.5q0 -67 6 -142t19 -165l-99 -17q-16 149 -127 231.5t-293 82.5q-232 0 -359.5 -144.5t-127.5 -408.5q0 -285 144.5 -454t386.5 -169q152 0 259.5 69t174.5 210l88 -41q-40 -79 -70 -154.5t-51 -149.5q-121 -49 -236.5 -74.5
t-222.5 -25.5q-348 0 -564 206t-216 538q0 328 226.5 540.5t574.5 212.5q125 0 245.5 -20t243.5 -62zM643 1945l262 -200l262 200l84 -39l-289 -337h-112l-291 337z" />
    <glyph glyph-name="ccaron" unicode="&#x10d;" horiz-adv-x="987" 
d="M885 231l55 -98q-112 -83 -214 -124.5t-194 -41.5q-206 0 -337.5 141t-131.5 363q0 233 164 392t408 159q137 0 207.5 -40.5t70.5 -119.5q0 -45 -33 -81t-75 -36q-36 0 -114 62.5t-146 62.5q-105 0 -167.5 -87t-62.5 -234q0 -188 86.5 -295t237.5 -107q57 0 117.5 21
t128.5 63zM338 1509l262 -200l262 200l84 -39l-289 -337h-112l-291 337z" />
    <glyph glyph-name="Dcaron" unicode="&#x10e;" horiz-adv-x="1692" 
d="M522 160q62 -14 122.5 -20.5t123.5 -6.5q259 0 399 143t140 408q0 291 -150 451.5t-420 160.5q-39 0 -88.5 -3.5t-118.5 -12.5q-4 -244 -6 -462.5t-2 -397.5v-260zM70 0v90q7 -1 15 -1.5t24 -0.5q83 0 112 55.5t29 284.5v72v106l2 238q0 17 1 49q3 147 3 203
q0 149 -28.5 196t-106.5 47q-15 0 -23 -0.5t-14 -0.5v89q86 -5 150 -7.5t116 -2.5q93 0 238.5 8.5t197.5 8.5q386 0 605 -191.5t219 -525.5q0 -324 -231 -523.5t-613 -199.5q-31 0 -183 8t-274 8q-29 0 -196 -8zM584 1945l262 -200l262 200l84 -39l-289 -337h-112l-291 337z
" />
    <glyph glyph-name="dcaron" unicode="&#x10f;" horiz-adv-x="1593" 
d="M807 811q-55 32 -106 47.5t-101 15.5q-136 0 -211.5 -89.5t-75.5 -254.5q0 -175 76 -280t201 -105q44 0 96.5 18t118.5 56zM1058 1550q-6 -221 -11 -457.5t-9 -503.5v-253v-43q0 -125 16.5 -159t59.5 -34q15 0 31.5 3.5t36.5 10.5l18 -79q-89 -35 -182 -52.5t-197 -18.5
q-6 30 -10 66t-7 82q-91 -67 -168.5 -98.5t-150.5 -31.5q-184 0 -303 135.5t-119 349.5q0 239 149 388t388 149q51 0 103 -9t110 -28q0 6 1 19q3 139 3 200q0 141 -20 174t-74 33q-9 0 -24 -1.5t-37 -4.5l-9 81q94 12 194.5 32.5t210.5 49.5zM1436 1491q94 -65 125.5 -109.5
t31.5 -101.5q0 -87 -77 -194t-215 -209l-68 73q73 57 114.5 117.5t53.5 126.5q-68 37 -93.5 65t-25.5 64q0 28 16.5 52.5t61.5 58.5z" />
    <glyph glyph-name="Dcroat" unicode="&#x110;" horiz-adv-x="1708" 
d="M543 160q61 -14 121.5 -20.5t123.5 -6.5q260 0 400.5 143.5t140.5 407.5q0 290 -150 451t-421 161q-39 0 -89 -3.5t-118 -12.5q-2 -124 -3.5 -286t-2.5 -201q72 0 153 -2h25q29 0 91.5 1t96.5 1v-123q-62 1 -117 1.5t-104 0.5h-145q-1 -72 -1.5 -137t-0.5 -123v-252z
M89 90q8 -1 17 -1.5t25 -0.5q83 0 112 54t29 253v205v72h-106q-33 0 -70 -0.5t-78 -1.5v123q22 0 63.5 -1t61.5 -1h19q59 2 110 2v102q0 44 1 113.5t1 95.5q0 147 -28.5 191t-108.5 44q-13 0 -21 -0.5t-14 -0.5v89q90 -5 154.5 -7.5t114.5 -2.5q92 0 238.5 8.5t199.5 8.5
q385 0 604 -191.5t219 -525.5q0 -151 -60 -286.5t-171 -235.5q-113 -103 -265.5 -152t-363.5 -49q-26 0 -174.5 8t-269.5 8q-29 0 -197 -8l-43 -2z" />
    <glyph glyph-name="dcroat" unicode="&#x111;" horiz-adv-x="1247" 
d="M807 811q-55 32 -106 47.5t-101 15.5q-136 0 -211.5 -89.5t-75.5 -254.5q0 -175 76 -280t201 -105q44 0 96.5 18t118.5 56zM1059 1550q-6 -133 -8 -203t-2 -114h43h61q19 0 39 0.5t41 1.5v-100q-61 2 -104.5 3t-81.5 1q-4 -181 -9 -537v-12v-254v-43q0 -125 16.5 -159
t59.5 -34q15 0 31.5 3.5t36.5 10.5l18 -79q-89 -35 -182 -52.5t-197 -18.5q-6 30 -10 66t-7 82q-91 -67 -168.5 -98.5t-150.5 -31.5q-184 0 -303 135.5t-119 349.5q0 239 149 388t388 149q47 0 99 -9t114 -28q0 6 1 18q3 107 3 156h-151q-36 0 -76.5 -0.5t-85.5 -1.5v100
q62 -2 129 -3t184 -1v14q0 79 -21.5 111.5t-72.5 32.5q-9 0 -24 -1.5t-37 -4.5l-9 81q94 12 194.5 32.5t211.5 49.5z" />
    <glyph glyph-name="Emacron" unicode="&#x112;" horiz-adv-x="1382" 
d="M86 1429q170 -7 314 -10.5t253 -3.5q183 0 309.5 3.5t235.5 10.5q2 -87 8 -171.5t17 -170.5l-90 -12q-14 125 -82.5 169t-274.5 44q-37 0 -98.5 -1.5t-150.5 -4.5q-2 -132 -3.5 -253t-3.5 -232h29q58 0 144.5 -1t115.5 -1q138 0 181 27t46 103l74 -7q0 -50 -3 -125.5
t-3 -102.5t1.5 -69t4.5 -101l-84 -6v12q0 86 -49.5 116t-233.5 30h-149h-76v-115q0 -89 1 -182.5t3 -222.5q45 -6 112.5 -9.5t147.5 -3.5q239 0 318.5 50t128.5 192l92 -29q-33 -96 -56.5 -183t-39.5 -169q-236 8 -376 11t-249 3q-123 0 -393 -9q-93 -3 -141 -5v88
q6 -1 13.5 -1.5t22.5 -0.5q84 0 114 51.5t30 270.5v100v92l2 223q0 15 1 45q3 123 3 168t-1 94t-1 54q0 87 -31.5 121t-109.5 34h-23v90zM379 1825h626v-158h-626v158z" />
    <glyph glyph-name="emacron" unicode="&#x113;" horiz-adv-x="1085" 
d="M997 533l-417 -1q-107 0 -160 -1.5t-98 -6.5q0 -179 88.5 -281t244.5 -102q75 0 148.5 23.5t148.5 71.5l45 -86q-116 -92 -228 -137.5t-222 -45.5q-209 0 -343 139.5t-134 358.5q0 238 145 397.5t356 159.5q189 0 306 -133.5t120 -355.5zM760 655q-21 117 -76.5 182.5
t-132.5 65.5q-92 0 -152 -71t-75 -199h63q123 0 214 5.5t159 16.5zM230 1389h626v-158h-626v158z" />
    <glyph glyph-name="Ebreve" unicode="&#x114;" horiz-adv-x="1382" 
d="M86 1429q170 -7 314 -10.5t253 -3.5q183 0 309.5 3.5t235.5 10.5q2 -87 8 -171.5t17 -170.5l-90 -12q-14 125 -82.5 169t-274.5 44q-37 0 -98.5 -1.5t-150.5 -4.5q-2 -132 -3.5 -253t-3.5 -232h29q58 0 144.5 -1t115.5 -1q138 0 181 27t46 103l74 -7q0 -50 -3 -125.5
t-3 -102.5t1.5 -69t4.5 -101l-84 -6v12q0 86 -49.5 116t-233.5 30h-149h-76v-115q0 -89 1 -182.5t3 -222.5q45 -6 112.5 -9.5t147.5 -3.5q239 0 318.5 50t128.5 192l92 -29q-33 -96 -56.5 -183t-39.5 -169q-236 8 -376 11t-249 3q-123 0 -393 -9q-93 -3 -141 -5v88
q6 -1 13.5 -1.5t22.5 -0.5q84 0 114 51.5t30 270.5v100v92l2 223q0 15 1 45q3 123 3 168t-1 94t-1 54q0 87 -31.5 121t-109.5 34h-23v90zM463 1915q26 -85 83.5 -127.5t145.5 -42.5t145.5 42.5t83.5 127.5l88 -27q-31 -147 -114.5 -226t-206.5 -79q-120 0 -201.5 78
t-113.5 225z" />
    <glyph glyph-name="ebreve" unicode="&#x115;" horiz-adv-x="1085" 
d="M997 533l-417 -1q-107 0 -160 -1.5t-98 -6.5q0 -179 88.5 -281t244.5 -102q75 0 148.5 23.5t148.5 71.5l45 -86q-116 -92 -228 -137.5t-222 -45.5q-209 0 -343 139.5t-134 358.5q0 238 145 397.5t356 159.5q189 0 306 -133.5t120 -355.5zM760 655q-21 117 -76.5 182.5
t-132.5 65.5q-92 0 -152 -71t-75 -199h63q123 0 214 5.5t159 16.5zM314 1479q26 -85 83.5 -127.5t145.5 -42.5t145.5 42.5t83.5 127.5l88 -27q-31 -147 -114.5 -226t-206.5 -79q-120 0 -201.5 78t-113.5 225z" />
    <glyph glyph-name="Edotaccent" unicode="&#x116;" horiz-adv-x="1382" 
d="M86 1429q170 -7 314 -10.5t253 -3.5q183 0 309.5 3.5t235.5 10.5q2 -87 8 -171.5t17 -170.5l-90 -12q-14 125 -82.5 169t-274.5 44q-37 0 -98.5 -1.5t-150.5 -4.5q-2 -132 -3.5 -253t-3.5 -232h29q58 0 144.5 -1t115.5 -1q138 0 181 27t46 103l74 -7q0 -50 -3 -125.5
t-3 -102.5t1.5 -69t4.5 -101l-84 -6v12q0 86 -49.5 116t-233.5 30h-149h-76v-115q0 -89 1 -182.5t3 -222.5q45 -6 112.5 -9.5t147.5 -3.5q239 0 318.5 50t128.5 192l92 -29q-33 -96 -56.5 -183t-39.5 -169q-236 8 -376 11t-249 3q-123 0 -393 -9q-93 -3 -141 -5v88
q6 -1 13.5 -1.5t22.5 -0.5q84 0 114 51.5t30 270.5v100v92l2 223q0 15 1 45q3 123 3 168t-1 94t-1 54q0 87 -31.5 121t-109.5 34h-23v90zM692 1896q52 0 107 -51t55 -100q0 -45 -54.5 -95.5t-107.5 -50.5t-107.5 51t-54.5 95q0 48 55.5 99.5t106.5 51.5z" />
    <glyph glyph-name="edotaccent" unicode="&#x117;" horiz-adv-x="1085" 
d="M997 533l-417 -1q-107 0 -160 -1.5t-98 -6.5q0 -179 88.5 -281t244.5 -102q75 0 148.5 23.5t148.5 71.5l45 -86q-116 -92 -228 -137.5t-222 -45.5q-209 0 -343 139.5t-134 358.5q0 238 145 397.5t356 159.5q189 0 306 -133.5t120 -355.5zM760 655q-21 117 -76.5 182.5
t-132.5 65.5q-92 0 -152 -71t-75 -199h63q123 0 214 5.5t159 16.5zM543 1460q52 0 107 -51t55 -100q0 -45 -54.5 -95.5t-107.5 -50.5t-107.5 51t-54.5 95q0 48 55.5 99.5t106.5 51.5z" />
    <glyph glyph-name="Eogonek" unicode="&#x118;" horiz-adv-x="1382" 
d="M86 1430l25 -1q396 -16 581 -16q133 0 258.5 4t247.5 12q2 -87 8 -171.5t17 -170.5l-90 -12q-13 124 -83 168.5t-278 44.5q-36 0 -97.5 -1.5t-147.5 -4.5q-2 -161 -3.5 -282t-3.5 -203q94 0 199 -2h33h18q176 0 217 26t49 104l82 -8q-7 -65 -10.5 -120.5t-3.5 -96.5
q0 -42 1.5 -87.5t4.5 -92.5l-84 -6v12q0 86 -49.5 116t-233.5 30h-149h-76v-117q0 -93 1 -189.5t3 -213.5q57 -7 122 -10t138 -3q235 0 317 50t130 192l92 -29q-32 -94 -56 -181.5t-40 -170.5q-8 0 -24 1q-84 3 -120 3q-67 -68 -103 -134t-36 -118q0 -46 24.5 -74t63.5 -28
q30 0 57 17.5t56 56.5l65 -54q-52 -78 -111 -117.5t-122 -39.5q-89 0 -144 52.5t-55 135.5q0 77 53.5 154t157.5 151q-117 3 -210.5 4.5t-162.5 1.5q-135 0 -272 -3t-276 -9v88q6 -1 13.5 -1.5t22.5 -0.5q146 0 147 379q0 86 1 135l2 223q1 96 1.5 179t0.5 133
q0 135 -31.5 169.5t-120.5 34.5h-16v91z" />
    <glyph glyph-name="eogonek" unicode="&#x119;" horiz-adv-x="1085" 
d="M326 631h63q123 0 214 5.5t159 16.5q-21 117 -76.5 182.5t-132.5 65.5q-92 0 -152 -71t-75 -199zM997 150q-178 -118 -258 -212t-80 -184q0 -47 24.5 -75.5t64.5 -28.5q28 0 55 17.5t57 56.5l64 -54q-53 -79 -110 -118t-118 -39q-90 0 -146 53.5t-56 136.5q0 72 48 145.5
t140 139.5q-39 -9 -71.5 -13t-61.5 -4q-213 0 -345 136.5t-132 355.5q0 238 145 397.5t356 159.5q190 0 306.5 -133t119.5 -354l-417 -1q-80 0 -142 -2.5t-116 -7.5v-16q0 -168 89 -266.5t242 -98.5q75 0 148.5 23.5t148.5 71.5z" />
    <glyph glyph-name="Ecaron" unicode="&#x11a;" horiz-adv-x="1382" 
d="M86 1429q170 -7 314 -10.5t253 -3.5q183 0 309.5 3.5t235.5 10.5q2 -87 8 -171.5t17 -170.5l-90 -12q-14 125 -82.5 169t-274.5 44q-37 0 -98.5 -1.5t-150.5 -4.5q-2 -132 -3.5 -253t-3.5 -232h29q58 0 144.5 -1t115.5 -1q138 0 181 27t46 103l74 -7q0 -50 -3 -125.5
t-3 -102.5t1.5 -69t4.5 -101l-84 -6v12q0 86 -49.5 116t-233.5 30h-149h-76v-115q0 -89 1 -182.5t3 -222.5q45 -6 112.5 -9.5t147.5 -3.5q239 0 318.5 50t128.5 192l92 -29q-33 -96 -56.5 -183t-39.5 -169q-236 8 -376 11t-249 3q-123 0 -393 -9q-93 -3 -141 -5v88
q6 -1 13.5 -1.5t22.5 -0.5q84 0 114 51.5t30 270.5v100v92l2 223q0 15 1 45q3 123 3 168t-1 94t-1 54q0 87 -31.5 121t-109.5 34h-23v90zM430 1945l262 -200l262 200l84 -39l-289 -337h-112l-291 337z" />
    <glyph glyph-name="ecaron" unicode="&#x11b;" horiz-adv-x="1085" 
d="M997 533l-417 -1q-107 0 -160 -1.5t-98 -6.5q0 -179 88.5 -281t244.5 -102q75 0 148.5 23.5t148.5 71.5l45 -86q-116 -92 -228 -137.5t-222 -45.5q-209 0 -343 139.5t-134 358.5q0 238 145 397.5t356 159.5q189 0 306 -133.5t120 -355.5zM760 655q-21 117 -76.5 182.5
t-132.5 65.5q-92 0 -152 -71t-75 -199h63q123 0 214 5.5t159 16.5zM281 1509l262 -200l262 200l84 -39l-289 -337h-112l-291 337z" />
    <glyph glyph-name="Gcircumflex" unicode="&#x11c;" horiz-adv-x="1626" 
d="M1405 1382q1 -88 10 -174.5t25 -171.5l-101 -20q-26 142 -133.5 214.5t-292.5 72.5q-249 0 -386.5 -148t-137.5 -416q0 -285 149.5 -454.5t397.5 -169.5q56 0 110.5 10.5t108.5 32.5q1 45 2.5 118.5t1.5 92.5q0 146 -35 182.5t-153 36.5h-29v89q104 -5 176 -7t131 -2
q64 0 140 2t186 7v-89h-29q-79 0 -104 -36t-25 -200v-98q0 -55 2 -106t6 -101q-236 -52 -348 -68t-203 -16q-358 0 -575 202t-217 535q0 341 235.5 551.5t616.5 210.5q118 0 236.5 -20t234.5 -60zM762 1954h100l297 -347l-84 -38l-262 202l-262 -202l-84 41z" />
    <glyph glyph-name="gcircumflex" unicode="&#x11d;" horiz-adv-x="1141" 
d="M535 928q-91 0 -144 -64t-53 -176q0 -123 53 -192.5t148 -69.5q94 0 147 62.5t53 175.5q0 131 -51.5 197.5t-152.5 66.5zM356 -16q-40 -42 -58.5 -80t-18.5 -76q0 -88 79 -147.5t201 -59.5q141 0 236.5 67t95.5 160q0 76 -57.5 106t-235.5 30h-242zM801 954
q115 0 176.5 2t116.5 7l-3 -119q-44 5 -95.5 7.5t-118.5 2.5q45 -41 66.5 -88.5t21.5 -103.5q0 -139 -117.5 -232.5t-294.5 -93.5q-18 0 -67 3q-10 1 -15 1q-21 -13 -42.5 -29.5t-49.5 -42.5q21 -31 42 -53t44 -39h108h191q161 0 239 -59.5t78 -182.5q0 -82 -50.5 -167
t-141.5 -152q-85 -64 -197 -100.5t-221 -36.5q-174 0 -284.5 80t-110.5 200q0 73 48 138.5t161 144.5q-45 42 -74 85.5t-47 94.5q37 38 86 73t110 68q-125 31 -190.5 106.5t-65.5 190.5q0 151 125 257t306 106q81 0 143.5 -16t122.5 -52zM520 1518h100l297 -347l-84 -38
l-262 202l-262 -202l-84 41z" />
    <glyph glyph-name="Gbreve" unicode="&#x11e;" horiz-adv-x="1626" 
d="M1405 1382q1 -88 10 -174.5t25 -171.5l-101 -20q-26 142 -133.5 214.5t-292.5 72.5q-249 0 -386.5 -148t-137.5 -416q0 -285 149.5 -454.5t397.5 -169.5q56 0 110.5 10.5t108.5 32.5q1 45 2.5 118.5t1.5 92.5q0 146 -35 182.5t-153 36.5h-29v89q104 -5 176 -7t131 -2
q64 0 140 2t186 7v-89h-29q-79 0 -104 -36t-25 -200v-98q0 -55 2 -106t6 -101q-236 -52 -348 -68t-203 -16q-358 0 -575 202t-217 535q0 341 235.5 551.5t616.5 210.5q118 0 236.5 -20t234.5 -60zM584 1915q26 -85 83.5 -127.5t145.5 -42.5t145.5 42.5t83.5 127.5l88 -27
q-31 -147 -114.5 -226t-206.5 -79q-120 0 -201.5 78t-113.5 225z" />
    <glyph glyph-name="gbreve" unicode="&#x11f;" horiz-adv-x="1141" 
d="M535 928q-91 0 -144 -64t-53 -176q0 -123 53 -192.5t148 -69.5q94 0 147 62.5t53 175.5q0 131 -51.5 197.5t-152.5 66.5zM356 -16q-40 -42 -58.5 -80t-18.5 -76q0 -88 79 -147.5t201 -59.5q141 0 236.5 67t95.5 160q0 76 -57.5 106t-235.5 30h-242zM801 954
q115 0 176.5 2t116.5 7l-3 -119q-44 5 -95.5 7.5t-118.5 2.5q45 -41 66.5 -88.5t21.5 -103.5q0 -139 -117.5 -232.5t-294.5 -93.5q-18 0 -67 3q-10 1 -15 1q-21 -13 -42.5 -29.5t-49.5 -42.5q21 -31 42 -53t44 -39h108h191q161 0 239 -59.5t78 -182.5q0 -82 -50.5 -167
t-141.5 -152q-85 -64 -197 -100.5t-221 -36.5q-174 0 -284.5 80t-110.5 200q0 73 48 138.5t161 144.5q-45 42 -74 85.5t-47 94.5q37 38 86 73t110 68q-125 31 -190.5 106.5t-65.5 190.5q0 151 125 257t306 106q81 0 143.5 -16t122.5 -52zM342 1479q26 -85 83.5 -127.5
t145.5 -42.5t145.5 42.5t83.5 127.5l88 -27q-31 -147 -114.5 -226t-206.5 -79q-120 0 -201.5 78t-113.5 225z" />
    <glyph glyph-name="Gdotaccent" unicode="&#x120;" horiz-adv-x="1626" 
d="M1405 1382q1 -88 10 -174.5t25 -171.5l-101 -20q-26 142 -133.5 214.5t-292.5 72.5q-249 0 -386.5 -148t-137.5 -416q0 -285 149.5 -454.5t397.5 -169.5q56 0 110.5 10.5t108.5 32.5q1 45 2.5 118.5t1.5 92.5q0 146 -35 182.5t-153 36.5h-29v89q104 -5 176 -7t131 -2
q64 0 140 2t186 7v-89h-29q-79 0 -104 -36t-25 -200v-98q0 -55 2 -106t6 -101q-236 -52 -348 -68t-203 -16q-358 0 -575 202t-217 535q0 341 235.5 551.5t616.5 210.5q118 0 236.5 -20t234.5 -60zM813 1896q52 0 107 -51t55 -100q0 -45 -54.5 -95.5t-107.5 -50.5t-107.5 51
t-54.5 95q0 48 55.5 99.5t106.5 51.5z" />
    <glyph glyph-name="gdotaccent" unicode="&#x121;" horiz-adv-x="1141" 
d="M535 928q-91 0 -144 -64t-53 -176q0 -123 53 -192.5t148 -69.5q94 0 147 62.5t53 175.5q0 131 -51.5 197.5t-152.5 66.5zM356 -16q-40 -42 -58.5 -80t-18.5 -76q0 -88 79 -147.5t201 -59.5q141 0 236.5 67t95.5 160q0 76 -57.5 106t-235.5 30h-242zM801 954
q115 0 176.5 2t116.5 7l-3 -119q-44 5 -95.5 7.5t-118.5 2.5q45 -41 66.5 -88.5t21.5 -103.5q0 -139 -117.5 -232.5t-294.5 -93.5q-18 0 -67 3q-10 1 -15 1q-21 -13 -42.5 -29.5t-49.5 -42.5q21 -31 42 -53t44 -39h108h191q161 0 239 -59.5t78 -182.5q0 -82 -50.5 -167
t-141.5 -152q-85 -64 -197 -100.5t-221 -36.5q-174 0 -284.5 80t-110.5 200q0 73 48 138.5t161 144.5q-45 42 -74 85.5t-47 94.5q37 38 86 73t110 68q-125 31 -190.5 106.5t-65.5 190.5q0 151 125 257t306 106q81 0 143.5 -16t122.5 -52zM571 1460q52 0 107 -51t55 -100
q0 -45 -54.5 -95.5t-107.5 -50.5t-107.5 51t-54.5 95q0 48 55.5 99.5t106.5 51.5z" />
    <glyph glyph-name="uni0122" unicode="&#x122;" horiz-adv-x="1626" 
d="M1405 1382q1 -88 10 -174.5t25 -171.5l-101 -20q-26 142 -133.5 214.5t-292.5 72.5q-249 0 -386.5 -148t-137.5 -416q0 -285 149.5 -454.5t397.5 -169.5q56 0 110.5 10.5t108.5 32.5q1 45 2.5 118.5t1.5 92.5q0 146 -35 182.5t-153 36.5h-29v89q104 -5 176 -7t131 -2
q64 0 140 2t186 7v-89h-29q-79 0 -104 -36t-25 -200v-98q0 -55 2 -106t6 -101q-236 -52 -348 -68t-203 -16q-358 0 -575 202t-217 535q0 341 235.5 551.5t616.5 210.5q118 0 236.5 -20t234.5 -60zM811 -111q80 -52 107.5 -87.5t27.5 -80.5q0 -62 -56.5 -133.5t-162.5 -142.5
l-53 53q47 34 75 72.5t37 83.5q-67 36 -86.5 56t-19.5 46q0 22 15.5 43t49.5 45z" />
    <glyph glyph-name="uni0123" unicode="&#x123;" horiz-adv-x="1141" 
d="M535 928q-91 0 -144 -64t-53 -176q0 -123 53 -192.5t148 -69.5q94 0 147 62.5t53 175.5q0 131 -51.5 197.5t-152.5 66.5zM356 -16q-40 -42 -58.5 -80t-18.5 -76q0 -88 79 -147.5t201 -59.5q141 0 236.5 67t95.5 160q0 76 -57.5 106t-235.5 30h-242zM801 954
q115 0 176.5 2t116.5 7l-3 -119q-44 5 -95.5 7.5t-118.5 2.5q45 -41 66.5 -88.5t21.5 -103.5q0 -139 -117.5 -232.5t-294.5 -93.5q-18 0 -67 3q-10 1 -15 1q-21 -13 -42.5 -29.5t-49.5 -42.5q21 -31 42 -53t44 -39h108h191q161 0 239 -59.5t78 -182.5q0 -82 -50.5 -167
t-141.5 -152q-85 -64 -197 -100.5t-221 -36.5q-174 0 -284.5 80t-110.5 200q0 73 48 138.5t161 144.5q-45 42 -74 85.5t-47 94.5q37 38 86 73t110 68q-125 31 -190.5 106.5t-65.5 190.5q0 151 125 257t306 106q81 0 143.5 -16t122.5 -52zM692 1677l61 -65
q-65 -49 -103.5 -103.5t-49.5 -113.5q65 -36 86.5 -60t21.5 -55q0 -26 -16.5 -49t-54.5 -49l-72 -49q-88 58 -116 96t-28 90q0 78 71.5 173t199.5 185z" />
    <glyph glyph-name="Hcircumflex" unicode="&#x124;" horiz-adv-x="1731" 
d="M78 1427q29 -1 84 -4q154 -8 209 -8q69 0 248 9q40 2 61 3v-90h-23q-86 0 -116.5 -42t-30.5 -224v-45v-219q84 -3 166 -4.5t162 -1.5q75 0 169 1.5t207 4.5v264q0 182 -30 224t-117 42h-23v90q96 -6 173 -9t137 -3q55 0 209 8q54 3 84 4v-89q-6 0 -13.5 0.5t-19.5 0.5
q-79 0 -107 -51.5t-28 -228.5q0 -30 1 -108t1 -128v-211q0 -60 -1 -150.5t-1 -121.5q0 -157 29 -204.5t110 -47.5q15 0 22.5 0.5t13.5 1.5v-90q-34 2 -96 5q-155 7 -206 7q-57 0 -137 -3t-183 -9v90q8 0 20 -1t17 -1q86 0 115.5 45t29.5 232v75v213q-101 2 -186 3t-168 1
q-142 0 -214.5 -1t-135.5 -3v-288q0 -187 29.5 -232t115.5 -45q5 0 17.5 1t19.5 1v-90q-104 6 -184 9t-135 3q-52 0 -206 -7q-62 -3 -97 -5v90q7 -1 15 -1.5t24 -0.5q80 0 108.5 52.5t28.5 226.5q0 30 -1 111t-1 132v213q0 56 1 142t1 116q0 160 -29 209t-106 49
q-13 0 -20 -0.5t-13 -0.5v89zM815 1954h100l297 -347l-84 -38l-262 202l-262 -202l-84 41z" />
    <glyph glyph-name="hcircumflex" unicode="&#x125;" horiz-adv-x="1274" 
d="M444 1548q-1 -52 -4 -157q-10 -353 -12 -532q115 84 202.5 121.5t166.5 37.5q150 0 226.5 -90.5t76.5 -270.5q0 -31 -2 -152.5t-2 -209.5v-29q0 -124 22 -153t86 -29h19v-84q-89 6 -152 9t-102 3q-42 0 -103.5 -3t-142.5 -9v84h12q124 0 127 249v13l2 176v31
q0 173 -40.5 235t-135.5 62q-52 0 -111 -21t-143 -71l-4 -250v-143v-91q0 -124 22 -157t85 -33h14v-84q-88 6 -151 9t-103 3q-51 0 -114 -3t-140 -9v83q6 0 13.5 -0.5t21.5 -0.5q69 0 94 45t25 207v180v39l2 567v66q0 131 -17 163.5t-65 32.5q-23 0 -35.5 -1t-24.5 -2l-8 79
q95 13 193.5 35.5t201.5 54.5zM240 2024h100l297 -347l-84 -38l-262 202l-262 -202l-84 41z" />
    <glyph glyph-name="Itilde" unicode="&#x128;" horiz-adv-x="784" 
d="M72 1427q98 -6 179.5 -9t145.5 -3q63 0 141.5 3t174.5 9v-90h-21q-69 0 -98.5 -14t-42.5 -51q-11 -31 -16 -122t-5 -327v-411q0 -141 5.5 -195.5t19.5 -79.5t47 -36t98 -11h25v-90q-110 6 -193 9t-141 3q-53 0 -137 -3t-195 -9v90h25q67 0 100 11t45 36q15 28 21 91.5
t6 230.5v151v434q0 124 -5.5 173.5t-19.5 73.5q-13 24 -45.5 35t-93.5 11h-20v90zM762 1909l59 -52q-56 -74 -121.5 -130t-144.5 -97q-75 10 -190.5 32.5t-153.5 22.5q-54 0 -100 -23.5t-91 -74.5l-55 51q59 78 125 134t145 96q75 -11 191.5 -33.5t152.5 -22.5
q51 0 95.5 23.5t87.5 73.5z" />
    <glyph glyph-name="itilde" unicode="&#x129;" horiz-adv-x="659" 
d="M457 1024q-6 -216 -9.5 -377t-3.5 -264v-117q0 -117 23.5 -149.5t89.5 -32.5q5 0 15.5 1t17.5 1v-86q-92 6 -161 9t-114 3q-38 0 -102.5 -3t-151.5 -9v86h19q128 0 129 236v59l2 213v88q0 112 -18 144t-70 32q-7 0 -32 -2q-11 -1 -17 -2l-13 80q105 14 202.5 36.5
t193.5 53.5zM699 1473l59 -52q-56 -74 -121.5 -130t-144.5 -97q-75 10 -190.5 32.5t-153.5 22.5q-54 0 -100 -23.5t-91 -74.5l-55 51q59 78 125 134t145 96q75 -11 191.5 -33.5t152.5 -22.5q51 0 95.5 23.5t87.5 73.5z" />
    <glyph glyph-name="Imacron" unicode="&#x12a;" horiz-adv-x="784" 
d="M72 1427q98 -6 179.5 -9t145.5 -3q63 0 141.5 3t174.5 9v-90h-21q-69 0 -98.5 -14t-42.5 -51q-11 -31 -16 -122t-5 -327v-411q0 -141 5.5 -195.5t19.5 -79.5t47 -36t98 -11h25v-90q-110 6 -193 9t-141 3q-53 0 -137 -3t-195 -9v90h25q67 0 100 11t45 36q15 28 21 91.5
t6 230.5v151v434q0 124 -5.5 173.5t-19.5 73.5q-13 24 -45.5 35t-93.5 11h-20v90zM82 1825h626v-158h-626v158z" />
    <glyph glyph-name="imacron" unicode="&#x12b;" horiz-adv-x="659" 
d="M457 1024q-6 -216 -9.5 -377t-3.5 -264v-117q0 -117 23.5 -149.5t89.5 -32.5q5 0 15.5 1t17.5 1v-86q-92 6 -161 9t-114 3q-38 0 -102.5 -3t-151.5 -9v86h19q128 0 129 236v59l2 213v88q0 112 -18 144t-70 32q-7 0 -32 -2q-11 -1 -17 -2l-13 80q105 14 202.5 36.5
t193.5 53.5zM19 1389h626v-158h-626v158z" />
    <glyph glyph-name="Ibreve" unicode="&#x12c;" horiz-adv-x="784" 
d="M72 1427q98 -6 179.5 -9t145.5 -3q63 0 141.5 3t174.5 9v-90h-21q-69 0 -98.5 -14t-42.5 -51q-11 -31 -16 -122t-5 -327v-411q0 -141 5.5 -195.5t19.5 -79.5t47 -36t98 -11h25v-90q-110 6 -193 9t-141 3q-53 0 -137 -3t-195 -9v90h25q67 0 100 11t45 36q15 28 21 91.5
t6 230.5v151v434q0 124 -5.5 173.5t-19.5 73.5q-13 24 -45.5 35t-93.5 11h-20v90zM166 1915q26 -85 83.5 -127.5t145.5 -42.5t145.5 42.5t83.5 127.5l88 -27q-31 -147 -114.5 -226t-206.5 -79q-120 0 -201.5 78t-113.5 225z" />
    <glyph glyph-name="ibreve" unicode="&#x12d;" horiz-adv-x="659" 
d="M457 1024q-6 -216 -9.5 -377t-3.5 -264v-117q0 -117 23.5 -149.5t89.5 -32.5q5 0 15.5 1t17.5 1v-86q-92 6 -161 9t-114 3q-38 0 -102.5 -3t-151.5 -9v86h19q128 0 129 236v59l2 213v88q0 112 -18 144t-70 32q-7 0 -32 -2q-11 -1 -17 -2l-13 80q105 14 202.5 36.5
t193.5 53.5zM103 1479q26 -85 83.5 -127.5t145.5 -42.5t145.5 42.5t83.5 127.5l88 -27q-31 -147 -114.5 -226t-206.5 -79q-120 0 -201.5 78t-113.5 225z" />
    <glyph glyph-name="Iogonek" unicode="&#x12e;" horiz-adv-x="784" 
d="M72 1427q98 -6 179.5 -9t145.5 -3q63 0 141.5 3t174.5 9v-90h-21q-69 0 -98.5 -14t-42.5 -51q-11 -31 -16 -122t-5 -327v-411q0 -141 5.5 -195.5t19.5 -79.5t47 -36t98 -11h25v-90q-110 6 -193 9t-141 3q-53 0 -137 -3t-195 -9v90h25q67 0 100 11t45 36q15 28 21 91.5
t6 230.5v151v434q0 124 -5.5 173.5t-19.5 73.5q-13 24 -45.5 35t-93.5 11h-20v90zM444 47h82q-89 -84 -135.5 -160t-46.5 -135q0 -45 24.5 -73.5t63.5 -28.5q30 0 57 17.5t56 56.5l65 -54q-52 -78 -111 -117.5t-122 -39.5q-89 0 -144 53t-55 137q0 86 65.5 170.5
t200.5 173.5z" />
    <glyph glyph-name="iogonek" unicode="&#x12f;" horiz-adv-x="659" 
d="M317 1526l91 -62q34 -23 50.5 -48t16.5 -54q0 -30 -13 -51.5t-46 -44.5l-97 -66l-90 60q-36 23 -53.5 48t-17.5 52q0 30 14 53t51 49zM457 1024q-6 -216 -9.5 -377t-3.5 -264v-117q0 -117 23.5 -149.5t89.5 -32.5q5 0 15.5 1t17.5 1v-86q-92 6 -161 9t-114 3
q-38 0 -102.5 -3t-153.5 -9v86h21q128 0 129 236v59l2 213v88q0 112 -18 144t-70 32q-7 0 -32 -2q-11 -1 -17 -2l-15 80q106 14 204 36t194 54zM381 47h82q-89 -84 -135.5 -160t-46.5 -135q0 -45 24.5 -73.5t63.5 -28.5q30 0 57 17.5t56 56.5l65 -54q-52 -78 -111 -117.5
t-122 -39.5q-89 0 -144 53t-55 137q0 86 65.5 170.5t200.5 173.5z" />
    <glyph glyph-name="Idotaccent" unicode="&#x130;" horiz-adv-x="784" 
d="M72 1427q98 -6 179.5 -9t145.5 -3q63 0 141.5 3t174.5 9v-90h-21q-69 0 -98.5 -14t-42.5 -51q-11 -31 -16 -122t-5 -327v-411q0 -141 5.5 -195.5t19.5 -79.5t47 -36t98 -11h25v-90q-110 6 -193 9t-141 3q-53 0 -137 -3t-195 -9v90h25q67 0 100 11t45 36q15 28 21 91.5
t6 230.5v151v434q0 124 -5.5 173.5t-19.5 73.5q-13 24 -45.5 35t-93.5 11h-20v90zM395 1896q52 0 107 -51t55 -100q0 -45 -54.5 -95.5t-107.5 -50.5t-107.5 51t-54.5 95q0 48 55.5 99.5t106.5 51.5z" />
    <glyph glyph-name="dotlessi" unicode="&#x131;" horiz-adv-x="659" 
d="M457 1024q-6 -216 -9.5 -377t-3.5 -264v-117q0 -117 23.5 -149.5t89.5 -32.5q5 0 15.5 1t17.5 1v-86q-92 6 -161 9t-114 3q-38 0 -102.5 -3t-151.5 -9v86h19q128 0 129 236v59l2 213v88q0 112 -18 144t-70 32q-7 0 -32 -2q-11 -1 -17 -2l-13 80q105 14 202.5 36.5
t193.5 53.5z" />
    <glyph glyph-name="IJ" unicode="&#x132;" horiz-adv-x="1534" 
d="M838 1427q94 -6 174 -9t143 -3q70 0 252 10q36 1 55 2v-90h-20q-86 0 -115 -40.5t-29 -221.5v-31q0 -100 1 -269.5t1 -237.5q0 -272 -15 -407t-50 -220q-60 -148 -189 -240t-276 -92q-98 0 -151.5 34.5t-53.5 98.5q0 50 27.5 80.5t73.5 30.5q33 0 101 -45t107 -45
q80 0 113 80t33 301v1050q0 103 -33 138.5t-123 35.5h-26v90zM72 1427q98 -6 179.5 -9t145.5 -3q63 0 141.5 3t174.5 9v-90h-21q-69 0 -98.5 -14t-42.5 -51q-11 -31 -16 -122t-5 -327v-411q0 -141 5.5 -195.5t19.5 -79.5t47 -36t98 -11h25v-90q-110 6 -193 9t-141 3
q-53 0 -137 -3t-195 -9v90h25q67 0 100 11t45 36q15 28 21 91.5t6 230.5v151v434q0 124 -5.5 173.5t-19.5 73.5q-13 24 -45.5 35t-93.5 11h-20v90z" />
    <glyph glyph-name="ij" unicode="&#x133;" horiz-adv-x="1249" 
d="M938 1526l90 -62q36 -23 53 -48.5t17 -55.5q0 -27 -14.5 -49t-47.5 -45l-96 -66l-88 60q-38 24 -55 49t-17 55q0 29 15 52.5t49 45.5zM1079 1024q-6 -206 -9 -366t-3 -275v-166v-92q0 -223 -25 -323t-86 -173q-60 -73 -156 -118.5t-192 -45.5l-15.5 1.5t-31.5 1.5v98
q153 12 213 101.5t60 340.5v654q0 130 -17.5 163t-68.5 33q-8 0 -18.5 -1.5l-31.5 -4.5l-10 82q104 14 201 36.5t190 53.5zM317 1526l91 -62q34 -23 50.5 -48t16.5 -54q0 -30 -13 -51.5t-46 -44.5l-97 -66l-90 60q-36 23 -53.5 48t-17.5 52q0 30 14 53t51 49zM457 1024
q-6 -216 -9.5 -377t-3.5 -264v-117q0 -117 23.5 -149.5t89.5 -32.5q5 0 15.5 1t17.5 1v-86q-92 6 -161 9t-114 3q-38 0 -102.5 -3t-151.5 -9v86h19q128 0 129 236v59l2 221q0 21 1 54t1 46q0 98 -18 127t-68 29q-9 0 -32 -2q-13 -1 -21 -2l-13 80q105 14 202.5 36.5
t193.5 53.5z" />
    <glyph glyph-name="Jcircumflex" unicode="&#x134;" horiz-adv-x="750" 
d="M53 1427q95 -6 174.5 -9t143.5 -3q68 0 242 9q42 2 65 3v-90h-21q-86 0 -114.5 -40.5t-28.5 -221.5v-31q0 -96 1 -259t1 -230q0 -281 -15 -420t-50 -225q-62 -150 -189 -241t-274 -91q-98 0 -152.5 34t-54.5 95q0 53 27 84t73 31q34 0 101.5 -45t107.5 -45q80 0 114 81.5
t34 299.5l-2 1050q0 103 -33 138.5t-123 35.5h-27v90zM326 1954h100l297 -347l-84 -38l-262 202l-262 -202l-84 41z" />
    <glyph glyph-name="jcircumflex" unicode="&#x135;" horiz-adv-x="610" 
d="M440 1022q-8 -291 -11 -421t-3 -218q0 -5 1 -60t1 -106v-92q0 -222 -25 -321.5t-86 -174.5q-60 -74 -155.5 -119t-192.5 -45l-15.5 1.5t-31.5 1.5v98q152 12 211.5 101t59.5 341l2 654q0 133 -17.5 164.5t-68.5 31.5q-8 0 -20.5 -1.5t-31.5 -4.5l-8 82q102 14 200 36
t191 52zM256 1518h100l297 -347l-84 -38l-262 202l-262 -202l-84 41z" />
    <glyph glyph-name="uni0136" unicode="&#x136;" horiz-adv-x="1565" 
d="M934 1427q18 -1 53 -3q163 -9 230 -9q52 0 200 9q39 2 62 3v-90h-19q-118 0 -269 -144l-1 -1l-412 -395l443 -463q21 -22 59 -63q171 -183 262 -183q12 0 18 0.5t11 1.5l-1 -90q-20 1 -61 4q-131 8 -178 8q-28 0 -131 -6q-63 -4 -100 -6q1 3 1.5 5.5t0.5 8.5
q0 65 -330 409q-164 170 -262 275l369 389l14 16q149 158 149 185q0 26 -20 37.5t-66 11.5h-22v90zM76 1427q107 -6 184 -9t123 -3q44 0 112.5 2.5t186.5 7.5v-88h-20q-92 0 -122 -44t-30 -242v-676q0 -200 30 -243.5t117 -43.5q5 0 17.5 1t19.5 1v-90q-31 1 -89 4
q-168 8 -228 8q-50 0 -128 -3t-183 -9v90q7 -1 15 -1.5t23 -0.5q81 0 109.5 52t28.5 249v103q0 48 -0.5 72.5t-1.5 47.5v219q0 53 1 134.5t1 111.5q0 169 -28.5 215.5t-109.5 46.5q-3 0 -13 -1t-15 -1v90zM780 -111q80 -52 107.5 -87.5t27.5 -80.5q0 -62 -56.5 -133.5
t-162.5 -142.5l-53 53q47 34 75 72.5t37 83.5q-67 36 -86.5 56t-19.5 46q0 22 15.5 43t49.5 45z" />
    <glyph glyph-name="uni0137" unicode="&#x137;" horiz-adv-x="1223" 
d="M817 0v18q0 22 -14.5 48.5t-61.5 80.5l-315 377q182 169 254 245t72 99q0 19 -14.5 27t-49.5 8h-26v88q93 -6 142 -8t81 -2q44 0 100.5 2.5t132.5 7.5v-87q-4 0 -9.5 0.5t-16.5 0.5q-107 0 -335 -212q-66 -61 -104 -95l322 -362q10 -12 28 -33q103 -119 183 -119
q3 0 9.5 1t10.5 1l-2 -86q-60 6 -115 9t-106 3q-14 0 -53 -2.5t-113 -9.5zM45 86h18q46 0 75 14.5t38 40.5q21 58 24 550q1 33 1 50l2 185v159v70q0 153 -18.5 190t-71.5 37q-8 0 -20.5 -1.5t-31.5 -3.5l-16 83q106 14 205.5 36t195.5 52q-9 -358 -14.5 -619t-5.5 -378v-365
q0 -53 25 -76.5t84 -23.5h22v-86q-84 6 -150 9t-112 3q-59 0 -121 -3t-129 -9v86zM610 -111q80 -52 107.5 -87.5t27.5 -80.5q0 -62 -56.5 -133.5t-162.5 -142.5l-53 53q47 34 75 72.5t37 83.5q-67 36 -86.5 56t-19.5 46q0 22 15.5 43t49.5 45z" />
    <glyph glyph-name="Lacute" unicode="&#x139;" horiz-adv-x="1276" 
d="M90 1427q85 -5 160.5 -7.5t134.5 -2.5q61 0 136.5 2.5t174.5 7.5v-90q-6 0 -17 1t-15 1q-84 0 -114 -50t-30 -226q0 -26 1 -94t1 -111l2 -702l6 -1q129 -8 195 -8q251 0 329 52t128 198l92 -28q-31 -91 -55.5 -183t-42.5 -186q-177 6 -329 9t-278 3q-125 0 -251.5 -3
t-251.5 -9v88h28q54 0 83 11t42 36q28 55 30 411q1 46 1 70l2 218q0 44 1 115.5t1 99.5q0 180 -29.5 235t-111.5 55h-23v88zM553 2011l195 -109l-357 -333l-98 36z" />
    <glyph glyph-name="lacute" unicode="&#x13a;" horiz-adv-x="653" 
d="M449 1548q-7 -186 -10 -355t-3 -323v-444q0 -153 5 -213.5t15 -82.5t37 -33t70 -11h23v-86q-96 6 -166.5 9t-116.5 3q-42 0 -106 -3t-150 -9v86q5 0 15.5 -1t15.5 -1q124 0 124 310q1 50 1 77l2 457v270q0 112 -17.5 149t-64.5 37q-13 0 -28 -1.5t-29 -4.5l-11 80
q107 17 204.5 39t189.5 51zM381 2081l195 -109l-357 -333l-98 36z" />
    <glyph glyph-name="uni013B" unicode="&#x13b;" horiz-adv-x="1276" 
d="M90 1427q85 -5 160.5 -7.5t134.5 -2.5q61 0 136.5 2.5t174.5 7.5v-90q-6 0 -17 1t-15 1q-84 0 -114 -50t-30 -226q0 -26 1 -94t1 -111l2 -702l6 -1q129 -8 195 -8q251 0 329 52t128 198l92 -28q-31 -91 -55.5 -183t-42.5 -186q-177 6 -329 9t-278 3q-125 0 -251.5 -3
t-251.5 -9v88h28q54 0 83 11t42 36q28 55 30 411q1 46 1 70l2 218q0 44 1 115.5t1 99.5q0 180 -29.5 235t-111.5 55h-23v88zM637 -111q80 -52 107.5 -87.5t27.5 -80.5q0 -62 -56.5 -133.5t-162.5 -142.5l-53 53q47 34 75 72.5t37 83.5q-67 36 -86.5 56t-19.5 46
q0 22 15.5 43t49.5 45z" />
    <glyph glyph-name="uni013C" unicode="&#x13c;" horiz-adv-x="653" 
d="M449 1548q-7 -186 -10 -355t-3 -323v-444q0 -153 5 -213.5t15 -82.5t37 -33t70 -11h23v-86q-96 6 -166.5 9t-116.5 3q-42 0 -106 -3t-150 -9v86q5 0 15.5 -1t15.5 -1q124 0 124 310q1 50 1 77l2 457v270q0 112 -17.5 149t-64.5 37q-13 0 -28 -1.5t-29 -4.5l-11 80
q107 17 204.5 39t189.5 51zM328 -111q80 -52 107.5 -87.5t27.5 -80.5q0 -62 -56.5 -133.5t-162.5 -142.5l-53 53q47 34 75 72.5t37 83.5q-67 36 -86.5 56t-19.5 46q0 22 15.5 43t49.5 45z" />
    <glyph glyph-name="Lcaron" unicode="&#x13d;" horiz-adv-x="1276" 
d="M90 1427q85 -5 160.5 -7.5t134.5 -2.5q61 0 136.5 2.5t174.5 7.5v-90q-6 0 -17 1t-15 1q-84 0 -114 -50t-30 -226q0 -26 1 -94t1 -111l2 -702l6 -1q129 -8 195 -8q251 0 329 52t128 198l92 -28q-31 -91 -55.5 -183t-42.5 -186q-177 6 -329 9t-278 3q-125 0 -251.5 -3
t-251.5 -9v88h28q54 0 83 11t42 36q28 55 30 411q1 46 1 70l2 218q0 44 1 115.5t1 99.5q0 180 -29.5 235t-111.5 55h-23v88zM1016 1462q90 -61 119.5 -103.5t29.5 -96.5q0 -82 -74 -184t-206 -201l-62 69q68 52 107 110t53 126q-67 36 -90 61.5t-23 59.5q0 26 16 49.5
t58 56.5z" />
    <glyph glyph-name="lcaron" unicode="&#x13e;" horiz-adv-x="1014" 
d="M449 1548q-7 -186 -10 -355t-3 -323v-444q0 -153 5 -213.5t15 -82.5t37 -33t70 -11h23v-86q-96 6 -166.5 9t-116.5 3q-42 0 -106 -3t-150 -9v86q5 0 15.5 -1t15.5 -1q124 0 124 310q1 50 1 77l2 457v270q0 112 -17.5 149t-64.5 37q-13 0 -28 -1.5t-29 -4.5l-11 80
q107 17 204.5 39t189.5 51zM856 1491q94 -65 125.5 -109.5t31.5 -101.5q0 -87 -77 -194t-215 -209l-68 73q73 57 114.5 117.5t53.5 126.5q-68 37 -93.5 65t-25.5 64q0 28 16.5 52.5t61.5 58.5z" />
    <glyph glyph-name="Ldot" unicode="&#x13f;" horiz-adv-x="1884" 
d="M90 1427q85 -5 160.5 -7.5t134.5 -2.5q61 0 136.5 2.5t174.5 7.5v-90q-6 0 -17 1t-15 1q-84 0 -114 -50t-30 -226q0 -26 1 -94t1 -111l2 -702l6 -1q129 -8 195 -8q251 0 329 52t128 198l92 -28q-31 -91 -55.5 -183t-42.5 -186q-177 6 -329 9t-278 3q-125 0 -251.5 -3
t-251.5 -9v88h28q54 0 83 11t42 36q28 55 30 411q1 46 1 70l2 218q0 44 1 115.5t1 99.5q0 180 -29.5 235t-111.5 55h-23v88zM1579 907q76 0 129 -53t53 -129t-53.5 -129t-128.5 -53q-74 0 -128 54t-54 128t54 128t128 54z" />
    <glyph glyph-name="ldot" unicode="&#x140;" horiz-adv-x="1262" 
d="M449 1548q-7 -186 -10 -355t-3 -323v-444q0 -153 5 -213.5t15 -82.5t37 -33t70 -11h23v-86q-96 6 -166.5 9t-116.5 3q-42 0 -106 -3t-150 -9v86q5 0 15.5 -1t15.5 -1q124 0 124 310q1 50 1 77l2 457v270q0 112 -17.5 149t-64.5 37q-13 0 -28 -1.5t-29 -4.5l-11 80
q107 17 204.5 39t189.5 51zM956 907q76 0 129 -53t53 -129t-53.5 -129t-128.5 -53q-74 0 -128 54t-54 128t54 128t128 54z" />
    <glyph glyph-name="Lslash" unicode="&#x141;" horiz-adv-x="1296" 
d="M109 1427q84 -5 160.5 -7.5t136.5 -2.5t134 2.5t175 7.5v-90q-7 0 -17 1t-14 1q-84 0 -113.5 -48t-29.5 -244v-74v-55v-60q69 41 152.5 95t174.5 116v-154q-89 -52 -170.5 -101t-154.5 -95v-563l6 -1q129 -8 194 -8q252 0 330 52t127 198l94 -28q-35 -105 -59 -195
t-41 -174q-176 6 -328 9t-278 3q-125 0 -250.5 -3t-251.5 -9v88q8 -1 16.5 -1.5t24.5 -0.5q140 0 141 356v80v64q-45 -25 -96.5 -55.5t-153.5 -94.5v144q73 39 134 74t118 71v109q0 43 1 114.5t1 98.5q0 184 -29 238t-112 54h-22v88z" />
    <glyph glyph-name="lslash" unicode="&#x142;" horiz-adv-x="682" 
d="M463 1548q-1 -34 -3 -104q-9 -361 -9 -506v-68q56 34 110 68.5t107 71.5v-123l-22 -13q-138 -79 -195 -114v-334q0 -152 4.5 -212t15.5 -85q9 -21 36 -32t71 -11h22v-86q-95 6 -165.5 9t-117.5 3q-41 0 -105.5 -3t-150.5 -9v86q6 0 15.5 -1t13.5 -1q125 0 127 320v67v174
q-71 -42 -184 -113l-19 -12v117q52 28 102 58t101 63v170q0 82 1 172t1 98q0 112 -17.5 149t-64.5 37q-13 0 -28 -1.5t-29 -3.5l-10 79q106 17 204 39t189 51z" />
    <glyph glyph-name="Nacute" unicode="&#x143;" horiz-adv-x="1726" 
d="M47 1425q38 -1 119.5 -5.5t116.5 -4.5q31 0 108.5 4.5t114.5 5.5q14 -37 41 -78.5t71 -93.5l735 -867q-1 130 -3 347q-4 477 -15 521q-14 48 -44 65.5t-99 17.5h-33v88q109 -5 166 -7.5t94 -2.5q44 0 106 2.5t156 7.5v-88h-18q-64 0 -94 -14.5t-43 -50.5
q-16 -48 -23 -451v-16l-4 -217q-2 -125 -3 -234.5t-1 -183.5q0 -49 3.5 -95t10.5 -89h-196q-12 25 -35 57t-88 109l-807 944q0 -473 5 -678.5t15 -242.5q14 -48 44.5 -66.5t99.5 -18.5h31v-90q-114 6 -172.5 8t-96.5 2q-32 0 -87.5 -2t-176.5 -8v90q8 -1 16.5 -1.5
t24.5 -0.5q143 0 146 393q1 87 1 135l3 213q0 65 2 186.5t2 155.5q0 97 -34 132.5t-122 35.5q-6 0 -18.5 -1t-18.5 -1v88zM958 2011l195 -109l-357 -333l-98 36z" />
    <glyph glyph-name="nacute" unicode="&#x144;" horiz-adv-x="1272" 
d="M440 1024l-16 -164q120 86 205 125t151 39q157 0 236.5 -91.5t79.5 -270.5q0 -34 -2 -157.5t-2 -213.5q0 -147 21.5 -177t86.5 -30h21l-2 -84q-89 6 -152 9t-102 3q-42 0 -103.5 -3t-142.5 -9v84h12q124 0 127 250v12v211q0 173 -40 233t-136 60q-52 0 -112 -21.5
t-132 -66.5q-4 -90 -6 -187t-2 -208v-82q0 -135 21.5 -168t85.5 -33h16v-84q-84 6 -147 9t-107 3q-43 0 -106 -3t-146 -9v84h23q124 0 126 251q0 30 1 46l2 207v88q0 113 -17.5 146.5t-64.5 33.5q-9 0 -40 -3q-6 -1 -9 -1l-6 78q83 13 175 36t203 58zM731 1575l195 -109
l-357 -333l-98 36z" />
    <glyph glyph-name="uni0145" unicode="&#x145;" horiz-adv-x="1726" 
d="M47 1425q38 -1 119.5 -5.5t116.5 -4.5q31 0 108.5 4.5t114.5 5.5q14 -37 41 -78.5t71 -93.5l735 -867q-1 130 -3 347q-4 477 -15 521q-14 48 -44 65.5t-99 17.5h-33v88q109 -5 166 -7.5t94 -2.5q44 0 106 2.5t156 7.5v-88h-18q-64 0 -94 -14.5t-43 -50.5
q-16 -48 -23 -451v-16l-4 -217q-2 -125 -3 -234.5t-1 -183.5q0 -49 3.5 -95t10.5 -89h-196q-12 25 -35 57t-88 109l-807 944q0 -473 5 -678.5t15 -242.5q14 -48 44.5 -66.5t99.5 -18.5h31v-90q-114 6 -172.5 8t-96.5 2q-32 0 -87.5 -2t-176.5 -8v90q8 -1 16.5 -1.5
t24.5 -0.5q143 0 146 393q1 87 1 135l3 213q0 65 2 186.5t2 155.5q0 97 -34 132.5t-122 35.5q-6 0 -18.5 -1t-18.5 -1v88zM862 -111q80 -52 107.5 -87.5t27.5 -80.5q0 -62 -56.5 -133.5t-162.5 -142.5l-53 53q47 34 75 72.5t37 83.5q-67 36 -86.5 56t-19.5 46q0 22 15.5 43
t49.5 45z" />
    <glyph glyph-name="uni0146" unicode="&#x146;" horiz-adv-x="1272" 
d="M440 1024l-16 -164q120 86 205 125t151 39q157 0 236.5 -91.5t79.5 -270.5q0 -34 -2 -157.5t-2 -213.5q0 -147 21.5 -177t86.5 -30h21l-2 -84q-89 6 -152 9t-102 3q-42 0 -103.5 -3t-142.5 -9v84h12q124 0 127 250v12v211q0 173 -40 233t-136 60q-52 0 -112 -21.5
t-132 -66.5q-4 -90 -6 -187t-2 -208v-82q0 -135 21.5 -168t85.5 -33h16v-84q-84 6 -147 9t-107 3q-43 0 -106 -3t-146 -9v84h23q124 0 126 251q0 30 1 46l2 207v88q0 113 -17.5 146.5t-64.5 33.5q-9 0 -40 -3q-6 -1 -9 -1l-6 78q83 13 175 36t203 58zM635 -111
q80 -52 107.5 -87.5t27.5 -80.5q0 -62 -56.5 -133.5t-162.5 -142.5l-53 53q47 34 75 72.5t37 83.5q-67 36 -86.5 56t-19.5 46q0 22 15.5 43t49.5 45z" />
    <glyph glyph-name="Ncaron" unicode="&#x147;" horiz-adv-x="1726" 
d="M47 1425q38 -1 119.5 -5.5t116.5 -4.5q31 0 108.5 4.5t114.5 5.5q14 -37 41 -78.5t71 -93.5l735 -867q-1 130 -3 347q-4 477 -15 521q-14 48 -44 65.5t-99 17.5h-33v88q109 -5 166 -7.5t94 -2.5q44 0 106 2.5t156 7.5v-88h-18q-64 0 -94 -14.5t-43 -50.5
q-16 -48 -23 -451v-16l-4 -217q-2 -125 -3 -234.5t-1 -183.5q0 -49 3.5 -95t10.5 -89h-196q-12 25 -35 57t-88 109l-807 944q0 -473 5 -678.5t15 -242.5q14 -48 44.5 -66.5t99.5 -18.5h31v-90q-114 6 -172.5 8t-96.5 2q-32 0 -87.5 -2t-176.5 -8v90q8 -1 16.5 -1.5
t24.5 -0.5q143 0 146 393q1 87 1 135l3 213q0 65 2 186.5t2 155.5q0 97 -34 132.5t-122 35.5q-6 0 -18.5 -1t-18.5 -1v88zM602 1945l262 -200l262 200l84 -39l-289 -337h-112l-291 337z" />
    <glyph glyph-name="ncaron" unicode="&#x148;" horiz-adv-x="1272" 
d="M440 1024l-16 -164q120 86 205 125t151 39q157 0 236.5 -91.5t79.5 -270.5q0 -34 -2 -157.5t-2 -213.5q0 -147 21.5 -177t86.5 -30h21l-2 -84q-89 6 -152 9t-102 3q-42 0 -103.5 -3t-142.5 -9v84h12q124 0 127 250v12v211q0 173 -40 233t-136 60q-52 0 -112 -21.5
t-132 -66.5q-4 -90 -6 -187t-2 -208v-82q0 -135 21.5 -168t85.5 -33h16v-84q-84 6 -147 9t-107 3q-43 0 -106 -3t-146 -9v84h23q124 0 126 251q0 30 1 46l2 207v88q0 113 -17.5 146.5t-64.5 33.5q-9 0 -40 -3q-6 -1 -9 -1l-6 78q83 13 175 36t203 58zM375 1509l262 -200
l262 200l84 -39l-289 -337h-112l-291 337z" />
    <glyph glyph-name="napostrophe" unicode="&#x149;" horiz-adv-x="1632" 
d="M203 1491q94 -65 125.5 -109.5t31.5 -101.5q0 -87 -77 -194t-215 -209l-68 73q73 57 114.5 117.5t53.5 126.5q-68 37 -93.5 65t-25.5 64q0 28 16.5 52.5t61.5 58.5zM800 1024l-16 -164q120 86 205 125t151 39q157 0 236.5 -91.5t79.5 -270.5q0 -34 -2 -157.5t-2 -213.5
q0 -147 21.5 -177t86.5 -30h21l-2 -84q-89 6 -152 9t-102 3q-42 0 -103.5 -3t-142.5 -9v84h12q124 0 127 250v12v211q0 173 -40 233t-136 60q-52 0 -112 -21.5t-132 -66.5q-4 -90 -6 -187t-2 -208v-82q0 -135 21.5 -168t85.5 -33h16v-84q-84 6 -147 9t-107 3q-43 0 -106 -3
t-146 -9v84h23q124 0 126 251q0 30 1 46l2 207v88q0 113 -17.5 146.5t-64.5 33.5q-9 0 -40 -3q-6 -1 -9 -1l-6 78q83 13 175 36t203 58z" />
    <glyph glyph-name="Omacron" unicode="&#x14c;" horiz-adv-x="1716" 
d="M1319 688q0 283 -131 455t-344 172q-204 0 -325.5 -153t-121.5 -414q0 -285 132.5 -458t344.5 -173q205 0 325 153t120 418zM860 1464q159 0 284 -43.5t230 -134.5q122 -106 188 -252.5t66 -310.5q0 -326 -221 -543t-553 -217q-173 0 -313 56.5t-248 168.5
q-100 105 -152.5 239.5t-52.5 285.5q0 167 65.5 310.5t190.5 250.5q104 90 240 140t276 50zM545 1825h626v-158h-626v158z" />
    <glyph glyph-name="omacron" unicode="&#x14d;" horiz-adv-x="1206" 
d="M588 891q-123 0 -190.5 -91.5t-67.5 -258.5q0 -203 77 -322t207 -119q124 0 195.5 96t71.5 263q0 199 -79.5 315.5t-213.5 116.5zM608 1022q235 0 385 -144.5t150 -365.5q0 -232 -156.5 -387.5t-390.5 -155.5t-382 146t-148 374q0 224 158.5 378.5t383.5 154.5zM291 1389
h626v-158h-626v158z" />
    <glyph glyph-name="Obreve" unicode="&#x14e;" horiz-adv-x="1716" 
d="M1319 688q0 283 -131 455t-344 172q-204 0 -325.5 -153t-121.5 -414q0 -285 132.5 -458t344.5 -173q205 0 325 153t120 418zM860 1464q159 0 284 -43.5t230 -134.5q122 -106 188 -252.5t66 -310.5q0 -326 -221 -543t-553 -217q-173 0 -313 56.5t-248 168.5
q-100 105 -152.5 239.5t-52.5 285.5q0 167 65.5 310.5t190.5 250.5q104 90 240 140t276 50zM629 1915q26 -85 83.5 -127.5t145.5 -42.5t145.5 42.5t83.5 127.5l88 -27q-31 -147 -114.5 -226t-206.5 -79q-120 0 -201.5 78t-113.5 225z" />
    <glyph glyph-name="obreve" unicode="&#x14f;" horiz-adv-x="1206" 
d="M588 891q-123 0 -190.5 -91.5t-67.5 -258.5q0 -203 77 -322t207 -119q124 0 195.5 96t71.5 263q0 199 -79.5 315.5t-213.5 116.5zM608 1022q235 0 385 -144.5t150 -365.5q0 -232 -156.5 -387.5t-390.5 -155.5t-382 146t-148 374q0 224 158.5 378.5t383.5 154.5zM375 1479
q26 -85 83.5 -127.5t145.5 -42.5t145.5 42.5t83.5 127.5l88 -27q-31 -147 -114.5 -226t-206.5 -79q-120 0 -201.5 78t-113.5 225z" />
    <glyph glyph-name="Ohungarumlaut" unicode="&#x150;" horiz-adv-x="1716" 
d="M1319 688q0 283 -131 455t-344 172q-204 0 -325.5 -153t-121.5 -414q0 -285 132.5 -458t344.5 -173q205 0 325 153t120 418zM860 1464q159 0 284 -43.5t230 -134.5q122 -106 188 -252.5t66 -310.5q0 -326 -221 -543t-553 -217q-173 0 -313 56.5t-248 168.5
q-100 105 -152.5 239.5t-52.5 285.5q0 167 65.5 310.5t190.5 250.5q104 90 240 140t276 50zM1114 2003l152 -94l-285 -340l-92 34zM803 2003l161 -70l-247 -364l-90 26z" />
    <glyph glyph-name="ohungarumlaut" unicode="&#x151;" horiz-adv-x="1206" 
d="M588 891q-123 0 -190.5 -91.5t-67.5 -258.5q0 -203 77 -322t207 -119q124 0 195.5 96t71.5 263q0 199 -79.5 315.5t-213.5 116.5zM608 1022q235 0 385 -144.5t150 -365.5q0 -232 -156.5 -387.5t-390.5 -155.5t-382 146t-148 374q0 224 158.5 378.5t383.5 154.5zM860 1567
l152 -94l-285 -340l-92 34zM549 1567l161 -70l-247 -364l-90 26z" />
    <glyph glyph-name="OE" unicode="&#x152;" horiz-adv-x="2335" 
d="M836 1313q-207 0 -326 -152.5t-119 -419.5q0 -279 127.5 -451.5t331.5 -172.5q186 0 294.5 144t108.5 392q0 312 -111 486t-306 174zM2146 1429v-36q0 -77 6.5 -154t18.5 -154l-90 -12q-8 127 -97 171t-452 44h-115h-176q135 -95 209.5 -219t89.5 -281q6 0 18.5 -1
t18.5 -1h129h18q190 0 233 27.5t46 107.5l84 -8q-8 -92 -11 -140t-3 -83q0 -34 1.5 -75.5t3.5 -94.5l-83 -8q0 91 -48.5 122.5t-246.5 31.5h-123h-35q-8 -175 -78 -305t-207 -222q26 0 73 -1t69 -1h59h207h14q283 0 361.5 49.5t122.5 188.5l90 -29q-30 -85 -53.5 -171.5
t-41.5 -174.5q-133 5 -293.5 7.5t-381.5 2.5q-176 0 -379 -16.5t-232 -16.5q-354 0 -572 201.5t-218 523.5q0 149 55 283.5t158 237.5q115 114 260.5 168.5t339.5 54.5q11 0 246.5 -15.5t460.5 -15.5h129q159 0 253 3.5t162 10.5z" />
    <glyph glyph-name="oe" unicode="&#x153;" horiz-adv-x="1872" 
d="M1110 633h64q114 0 206.5 5t165.5 15q-21 118 -76.5 184t-132.5 66q-91 0 -151.5 -71.5t-75.5 -198.5zM330 541q0 -203 76.5 -322t205.5 -119q123 0 196 96.5t73 260.5q0 198 -79 316t-210 118q-122 0 -192 -93t-70 -257zM977 164q-74 -97 -172.5 -145t-224.5 -48
q-225 0 -369.5 145.5t-144.5 368.5q0 228 157 382.5t389 154.5q123 0 221 -48.5t168 -144.5q62 93 155 143t204 50q189 0 305 -133.5t119 -355.5l-408 2q-82 0 -146.5 -2.5t-121.5 -8.5v-6q0 -175 89.5 -276t244.5 -101q75 0 148 23.5t149 71.5l47 -86
q-112 -90 -223.5 -135.5t-219.5 -45.5q-115 0 -206.5 48.5t-159.5 146.5z" />
    <glyph glyph-name="Racute" unicode="&#x154;" horiz-adv-x="1546" 
d="M518 719q53 -3 90 -4.5t62 -1.5q31 0 66 1.5t73 4.5q87 56 127.5 127.5t40.5 167.5q0 125 -84.5 202.5t-224.5 77.5q-43 0 -78.5 -3t-69.5 -9q-1 -109 -1.5 -228t-0.5 -335zM70 88q8 -1 15.5 -1.5t23.5 -0.5q82 0 110.5 54t28.5 286v74v69v37l4 224q1 71 1.5 141t0.5 168
q0 126 -30.5 163t-114.5 37h-21v88q107 -5 177 -7.5t122 -2.5q74 0 184 5t148 5q248 0 391 -103t143 -280q0 -118 -71.5 -208t-214.5 -154l196 -276q140 -218 204.5 -274t137.5 -56q4 0 11.5 1t11.5 1v-84q-61 -5 -106 -7.5t-79 -2.5q-122 0 -191 27t-124 93
q-26 31 -128 199.5t-179 288.5q-62 -2 -110 -3t-93 -1v-266q0 -153 30 -192.5t118 -39.5h28v-90q-82 5 -164 7.5t-168 2.5q-28 0 -82.5 -1.5t-209.5 -8.5v88zM868 2011l195 -109l-357 -333l-98 36z" />
    <glyph glyph-name="racute" unicode="&#x155;" horiz-adv-x="870" 
d="M440 1030q-7 -94 -11 -161t-5 -117q89 149 153 204.5t140 55.5q53 0 92 -39t39 -94q0 -51 -24.5 -81t-65.5 -30q-23 0 -64 16.5t-65 16.5q-45 0 -90 -34t-105 -114q0 -32 -1 -98t-1 -100v-111q0 -173 31 -217.5t121 -44.5q6 0 19.5 1t21.5 1v-84h-3q-223 14 -290 14
q-53 0 -269 -13h-20v85h27q75 0 102 37t27 176v121v217q0 150 -18.5 185.5t-69.5 35.5q-6 0 -22 -2.5t-26 -3.5l-8 80q95 15 190 39t195 59zM532 1575l195 -109l-357 -333l-98 36z" />
    <glyph glyph-name="uni0156" unicode="&#x156;" horiz-adv-x="1546" 
d="M518 719q53 -3 90 -4.5t62 -1.5q31 0 66 1.5t73 4.5q87 56 127.5 127.5t40.5 167.5q0 125 -84.5 202.5t-224.5 77.5q-43 0 -78.5 -3t-69.5 -9q-1 -109 -1.5 -228t-0.5 -335zM70 88q8 -1 15.5 -1.5t23.5 -0.5q82 0 110.5 54t28.5 286v74v69v37l4 224q1 71 1.5 141t0.5 168
q0 126 -30.5 163t-114.5 37h-21v88q107 -5 177 -7.5t122 -2.5q74 0 184 5t148 5q248 0 391 -103t143 -280q0 -118 -71.5 -208t-214.5 -154l196 -276q140 -218 204.5 -274t137.5 -56q4 0 11.5 1t11.5 1v-84q-61 -5 -106 -7.5t-79 -2.5q-122 0 -191 27t-124 93
q-26 31 -128 199.5t-179 288.5q-62 -2 -110 -3t-93 -1v-266q0 -153 30 -192.5t118 -39.5h28v-90q-82 5 -164 7.5t-168 2.5q-28 0 -82.5 -1.5t-209.5 -8.5v88zM772 -111q80 -52 107.5 -87.5t27.5 -80.5q0 -62 -56.5 -133.5t-162.5 -142.5l-53 53q47 34 75 72.5t37 83.5
q-67 36 -86.5 56t-19.5 46q0 22 15.5 43t49.5 45z" />
    <glyph glyph-name="uni0157" unicode="&#x157;" horiz-adv-x="870" 
d="M440 1030q-7 -94 -11 -161t-5 -117q89 149 153 204.5t140 55.5q53 0 92 -39t39 -94q0 -51 -24.5 -81t-65.5 -30q-23 0 -64 16.5t-65 16.5q-45 0 -90 -34t-105 -114q0 -32 -1 -98t-1 -100v-111q0 -173 31 -217.5t121 -44.5q6 0 19.5 1t21.5 1v-84h-3q-223 14 -290 14
q-53 0 -269 -13h-20v85h27q75 0 102 37t27 176v121v217q0 150 -18.5 185.5t-69.5 35.5q-6 0 -22 -2.5t-26 -3.5l-8 80q95 15 190 39t195 59zM330 -111q80 -52 107.5 -87.5t27.5 -80.5q0 -62 -56.5 -133.5t-162.5 -142.5l-53 53q47 34 75 72.5t37 83.5q-67 36 -86.5 56
t-19.5 46q0 22 15.5 43t49.5 45z" />
    <glyph glyph-name="Rcaron" unicode="&#x158;" horiz-adv-x="1546" 
d="M518 719q53 -3 90 -4.5t62 -1.5q31 0 66 1.5t73 4.5q87 56 127.5 127.5t40.5 167.5q0 125 -84.5 202.5t-224.5 77.5q-43 0 -78.5 -3t-69.5 -9q-1 -109 -1.5 -228t-0.5 -335zM70 88q8 -1 15.5 -1.5t23.5 -0.5q82 0 110.5 54t28.5 286v74v69v37l4 224q1 71 1.5 141t0.5 168
q0 126 -30.5 163t-114.5 37h-21v88q107 -5 177 -7.5t122 -2.5q74 0 184 5t148 5q248 0 391 -103t143 -280q0 -118 -71.5 -208t-214.5 -154l196 -276q140 -218 204.5 -274t137.5 -56q4 0 11.5 1t11.5 1v-84q-61 -5 -106 -7.5t-79 -2.5q-122 0 -191 27t-124 93
q-26 31 -128 199.5t-179 288.5q-62 -2 -110 -3t-93 -1v-266q0 -153 30 -192.5t118 -39.5h28v-90q-82 5 -164 7.5t-168 2.5q-28 0 -82.5 -1.5t-209.5 -8.5v88zM512 1945l262 -200l262 200l84 -39l-289 -337h-112l-291 337z" />
    <glyph glyph-name="rcaron" unicode="&#x159;" horiz-adv-x="870" 
d="M440 1030q-7 -94 -11 -161t-5 -117q89 149 153 204.5t140 55.5q53 0 92 -39t39 -94q0 -51 -24.5 -81t-65.5 -30q-23 0 -64 16.5t-65 16.5q-45 0 -90 -34t-105 -114q0 -32 -1 -98t-1 -100v-111q0 -173 31 -217.5t121 -44.5q6 0 19.5 1t21.5 1v-84h-3q-223 14 -290 14
q-53 0 -269 -13h-20v85h27q75 0 102 37t27 176v121v217q0 150 -18.5 185.5t-69.5 35.5q-6 0 -22 -2.5t-26 -3.5l-8 80q95 15 190 39t195 59zM176 1509l262 -200l262 200l84 -39l-289 -337h-112l-291 337z" />
    <glyph glyph-name="Sacute" unicode="&#x15a;" horiz-adv-x="1235" 
d="M1053 1384v-22q0 -73 8.5 -149.5t25.5 -157.5l-104 -17q-17 130 -96.5 196t-218.5 66q-129 0 -202 -51t-73 -141q0 -60 30 -103.5t93 -76.5q49 -26 169.5 -66t178.5 -63q131 -54 196.5 -141t65.5 -207q0 -218 -167 -348t-453 -130q-94 0 -190 18.5t-187 53.5q0 11 1 29.5
t1 27.5q0 77 -9.5 157t-29.5 165l109 27q38 -184 122.5 -257t251.5 -73q135 0 213 60t78 161q0 144 -275 241q-61 21 -93 33q-190 71 -272.5 165t-82.5 235q0 194 150 313t397 119q86 0 174.5 -15.5t188.5 -48.5zM712 2011l195 -109l-357 -333l-98 36z" />
    <glyph glyph-name="sacute" unicode="&#x15b;" horiz-adv-x="985" 
d="M819 973q0 -63 6 -127.5t19 -130.5l-99 -19q-12 111 -66 162t-157 51q-81 0 -131.5 -40.5t-50.5 -104.5q0 -89 233 -160l7 -2q174 -53 237.5 -117t63.5 -174q0 -148 -125 -245t-322 -97q-80 0 -157.5 15.5t-149.5 46.5q1 11 1.5 25t0.5 42q0 56 -5 111t-15 108l92 23
q23 -137 85 -198.5t175 -61.5q96 0 152.5 43t56.5 117q0 88 -247 171q-41 14 -63 21q-119 41 -171 101.5t-52 156.5q0 149 112 240.5t300 91.5q56 0 122.5 -12t147.5 -37zM590 1575l195 -109l-357 -333l-98 36z" />
    <glyph glyph-name="Scircumflex" unicode="&#x15c;" horiz-adv-x="1235" 
d="M1053 1384v-22q0 -73 8.5 -149.5t25.5 -157.5l-104 -17q-17 130 -96.5 196t-218.5 66q-129 0 -202 -51t-73 -141q0 -60 30 -103.5t93 -76.5q49 -26 169.5 -66t178.5 -63q131 -54 196.5 -141t65.5 -207q0 -218 -167 -348t-453 -130q-94 0 -190 18.5t-187 53.5q0 11 1 29.5
t1 27.5q0 77 -9.5 157t-29.5 165l109 27q38 -184 122.5 -257t251.5 -73q135 0 213 60t78 161q0 144 -275 241q-61 21 -93 33q-190 71 -272.5 165t-82.5 235q0 194 150 313t397 119q86 0 174.5 -15.5t188.5 -48.5zM567 1954h100l297 -347l-84 -38l-262 202l-262 -202l-84 41z
" />
    <glyph glyph-name="scircumflex" unicode="&#x15d;" horiz-adv-x="985" 
d="M819 973q0 -63 6 -127.5t19 -130.5l-99 -19q-12 111 -66 162t-157 51q-81 0 -131.5 -40.5t-50.5 -104.5q0 -89 233 -160l7 -2q174 -53 237.5 -117t63.5 -174q0 -148 -125 -245t-322 -97q-80 0 -157.5 15.5t-149.5 46.5q1 11 1.5 25t0.5 42q0 56 -5 111t-15 108l92 23
q23 -137 85 -198.5t175 -61.5q96 0 152.5 43t56.5 117q0 88 -247 171q-41 14 -63 21q-119 41 -171 101.5t-52 156.5q0 149 112 240.5t300 91.5q56 0 122.5 -12t147.5 -37zM445 1518h100l297 -347l-84 -38l-262 202l-262 -202l-84 41z" />
    <glyph glyph-name="Scedilla" unicode="&#x15e;" horiz-adv-x="1235" 
d="M1053 1384v-22q0 -73 8.5 -149.5t25.5 -157.5l-104 -17q-17 130 -96.5 196t-218.5 66q-129 0 -202 -51t-73 -141q0 -60 30 -103.5t93 -76.5q49 -26 169.5 -66t178.5 -63q131 -54 196.5 -141t65.5 -207q0 -218 -167 -348t-453 -130q-94 0 -190 18.5t-187 53.5q0 11 1 29.5
t1 27.5q0 77 -9.5 157t-29.5 165l109 27q38 -184 122.5 -257t251.5 -73q135 0 213 60t78 161q0 144 -275 241q-61 21 -93 33q-190 71 -272.5 165t-82.5 235q0 194 150 313t397 119q86 0 174.5 -15.5t188.5 -48.5zM643 18h102l-94 -141q79 -15 118 -51t39 -92
q0 -81 -86.5 -143t-236.5 -87l-41 78q82 14 126 47t44 80q0 41 -33 67t-94 31z" />
    <glyph glyph-name="scedilla" unicode="&#x15f;" horiz-adv-x="985" 
d="M819 973q0 -63 6 -127.5t19 -130.5l-99 -19q-12 111 -66 162t-157 51q-81 0 -131.5 -40.5t-50.5 -104.5q0 -89 233 -160l7 -2q174 -53 237.5 -117t63.5 -174q0 -148 -125 -245t-322 -97q-80 0 -157.5 15.5t-149.5 46.5q1 11 1.5 25t0.5 42q0 56 -5 111t-15 108l92 23
q23 -137 85 -198.5t175 -61.5q96 0 152.5 43t56.5 117q0 88 -247 171q-41 14 -63 21q-119 41 -171 101.5t-52 156.5q0 149 112 240.5t300 91.5q56 0 122.5 -12t147.5 -37zM521 18h102l-94 -141q79 -15 118 -51t39 -92q0 -81 -86.5 -143t-236.5 -87l-41 78q82 14 126 47
t44 80q0 41 -33 67t-94 31z" />
    <glyph glyph-name="Scaron" unicode="&#x160;" horiz-adv-x="1235" 
d="M1053 1384v-22q0 -73 8.5 -149.5t25.5 -157.5l-104 -17q-17 130 -96.5 196t-218.5 66q-129 0 -202 -51t-73 -141q0 -60 30 -103.5t93 -76.5q49 -26 169.5 -66t178.5 -63q131 -54 196.5 -141t65.5 -207q0 -218 -167 -348t-453 -130q-94 0 -190 18.5t-187 53.5q0 11 1 29.5
t1 27.5q0 77 -9.5 157t-29.5 165l109 27q38 -184 122.5 -257t251.5 -73q135 0 213 60t78 161q0 144 -275 241q-61 21 -93 33q-190 71 -272.5 165t-82.5 235q0 194 150 313t397 119q86 0 174.5 -15.5t188.5 -48.5zM356 1945l262 -200l262 200l84 -39l-289 -337h-112l-291 337
z" />
    <glyph glyph-name="scaron" unicode="&#x161;" horiz-adv-x="985" 
d="M819 973q0 -63 6 -127.5t19 -130.5l-99 -19q-12 111 -66 162t-157 51q-81 0 -131.5 -40.5t-50.5 -104.5q0 -89 233 -160l7 -2q174 -53 237.5 -117t63.5 -174q0 -148 -125 -245t-322 -97q-80 0 -157.5 15.5t-149.5 46.5q1 11 1.5 25t0.5 42q0 56 -5 111t-15 108l92 23
q23 -137 85 -198.5t175 -61.5q96 0 152.5 43t56.5 117q0 88 -247 171q-41 14 -63 21q-119 41 -171 101.5t-52 156.5q0 149 112 240.5t300 91.5q56 0 122.5 -12t147.5 -37zM234 1509l262 -200l262 200l84 -39l-289 -337h-112l-291 337z" />
    <glyph glyph-name="uni0162" unicode="&#x162;" horiz-adv-x="1411" 
d="M358 90h37q67 0 98 14.5t46 51.5q10 28 14 136t4 400v572h-172q-157 0 -215 -44t-80 -169l-94 20q23 99 35.5 189.5t15.5 178.5q38 -13 107 -18.5t233 -5.5h221h125h254q184 0 256.5 5.5t106.5 19.5v-31q0 -78 6.5 -161.5t19.5 -176.5l-90 -14q-17 122 -69 164.5
t-205 42.5h-25h-151q-3 -160 -4 -315t-1 -361v-187q0 -132 6 -185t19 -79q15 -25 47 -36t90 -11h35v-90q-25 1 -74 3q-196 9 -268 9q-52 0 -133.5 -3t-194.5 -9v90zM722 18h102l-94 -141q79 -15 118 -51t39 -92q0 -81 -86.5 -143t-236.5 -87l-41 78q82 14 126 47t44 80
q0 41 -33 67t-94 31z" />
    <glyph glyph-name="uni0163" unicode="&#x163;" horiz-adv-x="809" 
d="M356 1196l88 -25q-6 -56 -10.5 -106.5t-5.5 -95.5q131 0 195 2t118 6l-26 -137q-63 5 -135.5 7.5t-151.5 1.5q-3 -132 -4.5 -225.5t-1.5 -146.5q0 -219 31.5 -285.5t111.5 -66.5q32 0 73 13t93 40l39 -84q-110 -62 -196 -94.5t-142 -32.5q-128 0 -189 80.5t-61 249.5
q0 33 5.5 217t5.5 336q-2 0 -47.5 -2t-106.5 -4v96q116 17 194.5 80.5t122.5 175.5zM423 18h102l-94 -141q79 -15 118 -51t39 -92q0 -81 -86.5 -143t-236.5 -87l-41 78q82 14 126 47t44 80q0 41 -33 67t-94 31z" />
    <glyph glyph-name="Tcaron" unicode="&#x164;" horiz-adv-x="1411" 
d="M358 90h37q67 0 98 14.5t46 51.5q10 28 14 136t4 400v572h-172q-157 0 -215 -44t-80 -169l-94 20q23 99 35.5 189.5t15.5 178.5q38 -13 107 -18.5t233 -5.5h221h125h254q184 0 256.5 5.5t106.5 19.5v-31q0 -78 6.5 -161.5t19.5 -176.5l-90 -14q-17 122 -69 164.5
t-205 42.5h-25h-151q-3 -160 -4 -315t-1 -361v-187q0 -132 6 -185t19 -79q15 -25 47 -36t90 -11h35v-90q-25 1 -74 3q-196 9 -268 9q-52 0 -133.5 -3t-194.5 -9v90zM445 1945l262 -200l262 200l84 -39l-289 -337h-112l-291 337z" />
    <glyph glyph-name="tcaron" unicode="&#x165;" horiz-adv-x="1169" 
d="M356 1196l88 -25q-6 -56 -10.5 -106.5t-5.5 -95.5q131 0 195 2t118 6l-26 -137q-63 5 -135.5 7.5t-151.5 1.5q-3 -132 -4.5 -225.5t-1.5 -146.5q0 -219 31.5 -285.5t111.5 -66.5q32 0 73 13t93 40l39 -84q-110 -62 -196 -94.5t-142 -32.5q-128 0 -189 80.5t-61 249.5
q0 33 5.5 217t5.5 336q-2 0 -47.5 -2t-106.5 -4v96q116 17 194.5 80.5t122.5 175.5zM1012 1491q94 -65 125.5 -109.5t31.5 -101.5q0 -87 -77 -194t-215 -209l-68 73q73 57 114.5 117.5t53.5 126.5q-68 37 -93.5 65t-25.5 64q0 28 16.5 52.5t61.5 58.5z" />
    <glyph glyph-name="Utilde" unicode="&#x168;" horiz-adv-x="1688" 
d="M682 1427v-90q-6 0 -17 1t-16 1q-85 0 -115 -49.5t-30 -251.5v-80v-149q0 -202 7 -286.5t24 -133.5q38 -119 134 -182.5t236 -63.5q115 0 196 38.5t132 117.5q34 53 48.5 138.5t14.5 254.5q0 32 -1 106.5t-1 116.5v105q0 211 -30 265t-115 54q-13 0 -20 -0.5t-13 -0.5v89
q93 -5 154.5 -7.5t105.5 -2.5q41 0 99.5 2.5t152.5 7.5v-90h-16q-60 0 -89 -13.5t-42 -47.5q-19 -50 -24 -435q0 -55 -1 -85v-55q-2 -342 -74 -470t-212 -198t-326 -70q-171 0 -303.5 56.5t-208.5 160.5q-57 78 -81 180t-24 304q0 54 3 192t3 221q0 175 -28.5 217.5
t-112.5 42.5h-24v90q113 -5 183.5 -7.5t121.5 -2.5q47 0 118 2.5t191 7.5zM1258 1909l59 -52q-56 -74 -121.5 -130t-144.5 -97q-75 10 -190.5 32.5t-153.5 22.5q-54 0 -100 -23.5t-91 -74.5l-55 51q59 78 125 134t145 96q75 -11 191.5 -33.5t152.5 -22.5q51 0 95.5 23.5
t87.5 73.5z" />
    <glyph glyph-name="utilde" unicode="&#x169;" horiz-adv-x="1274" 
d="M424 1017q-7 -178 -10.5 -322t-3.5 -240q0 -174 41 -243t137 -69q48 0 108 22t129 64q3 143 4.5 243t1.5 159v45q0 124 -22 155t-84 31q-11 0 -22 -0.5t-23 -1.5l-6 80q105 10 205 24t196 33q-7 -232 -9.5 -352.5t-2.5 -224.5v-92q0 -130 16 -163.5t64 -33.5q12 0 26.5 2
t30.5 6l10 -82l-383 -86v154q-115 -84 -197 -119t-159 -35q-150 0 -223.5 93.5t-73.5 283.5q0 40 0.5 66t1.5 52l4 136q0 20 1 51.5t1 44.5q0 99 -17 133.5t-61 34.5q-19 0 -53 -3q-4 -1 -6 -1l-6 82q95 12 191 30.5t194 42.5zM1004 1473l59 -52q-56 -74 -121.5 -130
t-144.5 -97q-75 10 -190.5 32.5t-153.5 22.5q-54 0 -100 -23.5t-91 -74.5l-55 51q59 78 125 134t145 96q75 -11 191.5 -33.5t152.5 -22.5q51 0 95.5 23.5t87.5 73.5z" />
    <glyph glyph-name="Umacron" unicode="&#x16a;" horiz-adv-x="1688" 
d="M682 1427v-90q-6 0 -17 1t-16 1q-85 0 -115 -49.5t-30 -251.5v-80v-149q0 -202 7 -286.5t24 -133.5q38 -119 134 -182.5t236 -63.5q115 0 196 38.5t132 117.5q34 53 48.5 138.5t14.5 254.5q0 32 -1 106.5t-1 116.5v105q0 211 -30 265t-115 54q-13 0 -20 -0.5t-13 -0.5v89
q93 -5 154.5 -7.5t105.5 -2.5q41 0 99.5 2.5t152.5 7.5v-90h-16q-60 0 -89 -13.5t-42 -47.5q-19 -50 -24 -435q0 -55 -1 -85v-55q-2 -342 -74 -470t-212 -198t-326 -70q-171 0 -303.5 56.5t-208.5 160.5q-57 78 -81 180t-24 304q0 54 3 192t3 221q0 175 -28.5 217.5
t-112.5 42.5h-24v90q113 -5 183.5 -7.5t121.5 -2.5q47 0 118 2.5t191 7.5zM578 1825h626v-158h-626v158z" />
    <glyph glyph-name="umacron" unicode="&#x16b;" horiz-adv-x="1274" 
d="M424 1017q-7 -178 -10.5 -322t-3.5 -240q0 -174 41 -243t137 -69q48 0 108 22t129 64q3 143 4.5 243t1.5 159v45q0 124 -22 155t-84 31q-11 0 -22 -0.5t-23 -1.5l-6 80q105 10 205 24t196 33q-7 -232 -9.5 -352.5t-2.5 -224.5v-92q0 -130 16 -163.5t64 -33.5q12 0 26.5 2
t30.5 6l10 -82l-383 -86v154q-115 -84 -197 -119t-159 -35q-150 0 -223.5 93.5t-73.5 283.5q0 40 0.5 66t1.5 52l4 136q0 20 1 51.5t1 44.5q0 99 -17 133.5t-61 34.5q-19 0 -53 -3q-4 -1 -6 -1l-6 82q95 12 191 30.5t194 42.5zM324 1389h626v-158h-626v158z" />
    <glyph glyph-name="Ubreve" unicode="&#x16c;" horiz-adv-x="1688" 
d="M682 1427v-90q-6 0 -17 1t-16 1q-85 0 -115 -49.5t-30 -251.5v-80v-149q0 -202 7 -286.5t24 -133.5q38 -119 134 -182.5t236 -63.5q115 0 196 38.5t132 117.5q34 53 48.5 138.5t14.5 254.5q0 32 -1 106.5t-1 116.5v105q0 211 -30 265t-115 54q-13 0 -20 -0.5t-13 -0.5v89
q93 -5 154.5 -7.5t105.5 -2.5q41 0 99.5 2.5t152.5 7.5v-90h-16q-60 0 -89 -13.5t-42 -47.5q-19 -50 -24 -435q0 -55 -1 -85v-55q-2 -342 -74 -470t-212 -198t-326 -70q-171 0 -303.5 56.5t-208.5 160.5q-57 78 -81 180t-24 304q0 54 3 192t3 221q0 175 -28.5 217.5
t-112.5 42.5h-24v90q113 -5 183.5 -7.5t121.5 -2.5q47 0 118 2.5t191 7.5zM662 1915q26 -85 83.5 -127.5t145.5 -42.5t145.5 42.5t83.5 127.5l88 -27q-31 -147 -114.5 -226t-206.5 -79q-120 0 -201.5 78t-113.5 225z" />
    <glyph glyph-name="ubreve" unicode="&#x16d;" horiz-adv-x="1274" 
d="M424 1017q-7 -178 -10.5 -322t-3.5 -240q0 -174 41 -243t137 -69q48 0 108 22t129 64q3 143 4.5 243t1.5 159v45q0 124 -22 155t-84 31q-11 0 -22 -0.5t-23 -1.5l-6 80q105 10 205 24t196 33q-7 -232 -9.5 -352.5t-2.5 -224.5v-92q0 -130 16 -163.5t64 -33.5q12 0 26.5 2
t30.5 6l10 -82l-383 -86v154q-115 -84 -197 -119t-159 -35q-150 0 -223.5 93.5t-73.5 283.5q0 40 0.5 66t1.5 52l4 136q0 20 1 51.5t1 44.5q0 99 -17 133.5t-61 34.5q-19 0 -53 -3q-4 -1 -6 -1l-6 82q95 12 191 30.5t194 42.5zM408 1479q26 -85 83.5 -127.5t145.5 -42.5
t145.5 42.5t83.5 127.5l88 -27q-31 -147 -114.5 -226t-206.5 -79q-120 0 -201.5 78t-113.5 225z" />
    <glyph glyph-name="Uring" unicode="&#x16e;" horiz-adv-x="1688" 
d="M682 1427v-90q-6 0 -17 1t-16 1q-85 0 -115 -49.5t-30 -251.5v-80v-149q0 -202 7 -286.5t24 -133.5q38 -119 134 -182.5t236 -63.5q115 0 196 38.5t132 117.5q34 53 48.5 138.5t14.5 254.5q0 32 -1 106.5t-1 116.5v105q0 211 -30 265t-115 54q-13 0 -20 -0.5t-13 -0.5v89
q93 -5 154.5 -7.5t105.5 -2.5q41 0 99.5 2.5t152.5 7.5v-90h-16q-60 0 -89 -13.5t-42 -47.5q-19 -50 -24 -435q0 -55 -1 -85v-55q-2 -342 -74 -470t-212 -198t-326 -70q-171 0 -303.5 56.5t-208.5 160.5q-57 78 -81 180t-24 304q0 54 3 192t3 221q0 175 -28.5 217.5
t-112.5 42.5h-24v90q113 -5 183.5 -7.5t121.5 -2.5q47 0 118 2.5t191 7.5zM891 1933q-54 0 -92.5 -39t-38.5 -94q0 -56 38 -94.5t93 -38.5t94 39t39 94t-39.5 94t-93.5 39zM891 2052q106 0 179 -73t73 -179q0 -105 -73 -177.5t-179 -72.5q-104 0 -177 73t-73 177
q0 106 72.5 179t177.5 73z" />
    <glyph glyph-name="uring" unicode="&#x16f;" horiz-adv-x="1274" 
d="M424 1017q-7 -178 -10.5 -322t-3.5 -240q0 -174 41 -243t137 -69q48 0 108 22t129 64q3 143 4.5 243t1.5 159v45q0 124 -22 155t-84 31q-11 0 -22 -0.5t-23 -1.5l-6 80q105 10 205 24t196 33q-7 -232 -9.5 -352.5t-2.5 -224.5v-92q0 -130 16 -163.5t64 -33.5q12 0 26.5 2
t30.5 6l10 -82l-383 -86v154q-115 -84 -197 -119t-159 -35q-150 0 -223.5 93.5t-73.5 283.5q0 40 0.5 66t1.5 52l4 136q0 20 1 51.5t1 44.5q0 99 -17 133.5t-61 34.5q-19 0 -53 -3q-4 -1 -6 -1l-6 82q95 12 191 30.5t194 42.5zM637 1497q-54 0 -92.5 -39t-38.5 -94
q0 -56 38 -94.5t93 -38.5t94 39t39 94t-39.5 94t-93.5 39zM637 1616q106 0 179 -73t73 -179q0 -105 -73 -177.5t-179 -72.5q-104 0 -177 73t-73 177q0 106 72.5 179t177.5 73z" />
    <glyph glyph-name="Uhungarumlaut" unicode="&#x170;" horiz-adv-x="1688" 
d="M682 1427v-90q-6 0 -17 1t-16 1q-85 0 -115 -49.5t-30 -251.5v-80v-149q0 -202 7 -286.5t24 -133.5q38 -119 134 -182.5t236 -63.5q115 0 196 38.5t132 117.5q34 53 48.5 138.5t14.5 254.5q0 32 -1 106.5t-1 116.5v105q0 211 -30 265t-115 54q-13 0 -20 -0.5t-13 -0.5v89
q93 -5 154.5 -7.5t105.5 -2.5q41 0 99.5 2.5t152.5 7.5v-90h-16q-60 0 -89 -13.5t-42 -47.5q-19 -50 -24 -435q0 -55 -1 -85v-55q-2 -342 -74 -470t-212 -198t-326 -70q-171 0 -303.5 56.5t-208.5 160.5q-57 78 -81 180t-24 304q0 54 3 192t3 221q0 175 -28.5 217.5
t-112.5 42.5h-24v90q113 -5 183.5 -7.5t121.5 -2.5q47 0 118 2.5t191 7.5zM1147 2003l152 -94l-285 -340l-92 34zM836 2003l161 -70l-247 -364l-90 26z" />
    <glyph glyph-name="uhungarumlaut" unicode="&#x171;" horiz-adv-x="1274" 
d="M424 1017q-7 -178 -10.5 -322t-3.5 -240q0 -174 41 -243t137 -69q48 0 108 22t129 64q3 143 4.5 243t1.5 159v45q0 124 -22 155t-84 31q-11 0 -22 -0.5t-23 -1.5l-6 80q105 10 205 24t196 33q-7 -232 -9.5 -352.5t-2.5 -224.5v-92q0 -130 16 -163.5t64 -33.5q12 0 26.5 2
t30.5 6l10 -82l-383 -86v154q-115 -84 -197 -119t-159 -35q-150 0 -223.5 93.5t-73.5 283.5q0 40 0.5 66t1.5 52l4 136q0 20 1 51.5t1 44.5q0 99 -17 133.5t-61 34.5q-19 0 -53 -3q-4 -1 -6 -1l-6 82q95 12 191 30.5t194 42.5zM893 1567l152 -94l-285 -340l-92 34zM582 1567
l161 -70l-247 -364l-90 26z" />
    <glyph glyph-name="Uogonek" unicode="&#x172;" horiz-adv-x="1688" 
d="M682 1427v-90q-6 0 -17 1t-16 1q-85 0 -115 -49.5t-30 -251.5v-80v-149q0 -202 7 -286.5t24 -133.5q38 -119 134 -182.5t236 -63.5q115 0 196 38.5t132 117.5q34 53 48.5 138.5t14.5 254.5q0 32 -1 106.5t-1 116.5v105q0 211 -30 265t-115 54q-13 0 -20 -0.5t-13 -0.5v89
q93 -5 154.5 -7.5t105.5 -2.5q41 0 99.5 2.5t152.5 7.5v-90h-16q-60 0 -89 -13.5t-42 -47.5q-19 -50 -24 -435q0 -55 -1 -85v-55q-2 -342 -74 -470t-212 -198t-326 -70q-171 0 -303.5 56.5t-208.5 160.5q-57 78 -81 180t-24 304q0 54 3 192t3 221q0 175 -28.5 217.5
t-112.5 42.5h-24v90q113 -5 183.5 -7.5t121.5 -2.5q47 0 118 2.5t191 7.5zM893 47h82q-89 -84 -135.5 -160t-46.5 -135q0 -45 24.5 -73.5t63.5 -28.5q30 0 57 17.5t56 56.5l65 -54q-52 -78 -111 -117.5t-122 -39.5q-89 0 -144 53t-55 137q0 86 65.5 170.5t200.5 173.5z" />
    <glyph glyph-name="uogonek" unicode="&#x173;" horiz-adv-x="1274" 
d="M424 1017q-7 -178 -10.5 -322t-3.5 -240q0 -174 41 -243t137 -69q48 0 108 22t129 64q3 143 4.5 243t1.5 159v45q0 124 -22 155t-84 31q-11 0 -22 -0.5t-23 -1.5l-6 80q105 10 205 24t196 33q-7 -232 -9.5 -352.5t-2.5 -224.5v-92q0 -130 16 -163.5t64 -33.5q12 0 26.5 2
t30.5 6l10 -82l-112 -24q-121 -27 -197 -106t-76 -173q0 -46 25.5 -75t64.5 -29q29 0 56 18t55 56l66 -54q-53 -78 -111 -117.5t-121 -39.5q-88 0 -144.5 53t-56.5 135q0 66 42 134t126 140v150q-120 -88 -200.5 -123t-155.5 -35q-149 0 -223 95.5t-74 285.5q0 40 0.5 66
t1.5 52l4 136q0 20 1 51.5t1 44.5q0 99 -17 133.5t-61 34.5q-19 0 -53 -3q-4 -1 -6 -1l-6 82q95 12 191 30.5t194 42.5z" />
    <glyph glyph-name="Wcircumflex" unicode="&#x174;" horiz-adv-x="2208" 
d="M772 322l277 702l-58 180q-26 83 -54 109t-83 26q-7 0 -20 -1t-19 -1v90q17 0 51 -2q178 -10 246 -10q46 0 116.5 3t168.5 9v-90q-8 0 -20.5 1t-18.5 1q-58 0 -81.5 -18t-23.5 -64q0 -22 11 -64t34 -114l242 -755l55 158q244 698 244 773q0 45 -25.5 63.5t-91.5 18.5h-28
v90q22 -1 61 -3q140 -9 191 -9q48 0 187 9q40 2 62 3v-90q-4 1 -11 1.5t-19 0.5q-107 0 -224 -336q-45 -128 -73 -204l-86 -226q-15 -37 -43 -110q-129 -336 -168 -477h-189q-10 44 -22.5 89t-32.5 103l-211 635l-246 -620q-30 -75 -44.5 -120t-24.5 -87h-189
q-12 67 -158 471l-34 94l-101 278q-23 67 -61 180q-112 332 -213 332q-9 0 -28 -3q-3 0 -5 -1v90q101 -6 172 -9t115 -3q51 0 200 8q55 3 85 4v-90h-23q-51 0 -75.5 -18.5t-24.5 -56.5q0 -34 41 -150l2 -6zM1053 1954h100l297 -347l-84 -38l-262 202l-262 -202l-84 41z" />
    <glyph glyph-name="wcircumflex" unicode="&#x175;" horiz-adv-x="1708" 
d="M4 991q95 -5 147.5 -7.5t84.5 -2.5q44 0 102.5 2.5t142.5 7.5v-86h-35q-39 0 -58 -16.5t-19 -50.5q0 -13 4.5 -33.5t13.5 -44.5l178 -508l230 518l-17 49q-20 55 -41.5 70.5t-64.5 15.5h-27v86q100 -6 151.5 -8t84.5 -2q40 0 97.5 2.5t149.5 7.5v-86h-32
q-41 0 -59.5 -14.5t-18.5 -46.5q0 -12 3.5 -28t14.5 -52l176 -510l45 117q164 426 164 477q0 31 -21.5 44t-72.5 13h-24v86q71 -5 120.5 -7.5t85.5 -2.5q24 0 86 4t98 6l1 -84q-2 1 -4 1q-12 3 -19 3q-77 0 -250 -440q-118 -300 -202 -494h-144l-227 639
q-94 -196 -167 -365.5t-110 -273.5h-143q-80 216 -185.5 522t-133.5 355q-17 29 -36.5 41t-47.5 12q-3 0 -10 -1t-11 -1v86zM803 1518h100l297 -347l-84 -38l-262 202l-262 -202l-84 41z" />
    <glyph glyph-name="Ycircumflex" unicode="&#x176;" horiz-adv-x="1425" 
d="M12 1427q109 -5 185 -7.5t135 -2.5q43 0 109 2.5t182 7.5v-90q-67 0 -98 -11.5t-31 -37.5q0 -36 40 -108q11 -20 17 -31l221 -395l67 116q212 368 212 412q0 29 -23 42t-72 13h-22v90q88 -5 143.5 -7.5t93.5 -2.5q40 0 97.5 2.5t144.5 7.5v-87q-4 0 -9 0.5t-15 0.5
q-97 0 -233 -222q-30 -51 -48 -79l-268 -430l2 -320q2 -128 32 -165t117 -37q6 0 20 1t21 1v-90q-110 6 -196 9t-146 3q-54 0 -216 -7q-68 -3 -107 -5v90q8 0 22.5 -1t20.5 -1q88 0 119.5 39t33.5 159l2 316l-334 559q-7 12 -21 35q-87 143 -169 143q-11 0 -17.5 -0.5
t-11.5 -0.5v89zM662 1954h100l297 -347l-84 -38l-262 202l-262 -202l-84 41z" />
    <glyph glyph-name="ycircumflex" unicode="&#x177;" horiz-adv-x="1096" 
d="M-2 991q83 -6 141.5 -9t96.5 -3q68 0 131 3t127 9v-88h-23q-49 0 -70.5 -14t-21.5 -45q0 -37 78 -242.5t127 -345.5q23 56 64 156q161 387 161 440q0 26 -18.5 39.5t-55.5 13.5h-33v86q58 -6 108.5 -9t92.5 -3q37 0 141 8q33 3 49 4l1 -88h-17q-36 0 -61 -18t-51 -68
l-88 -195t-179 -399q-35 -80 -96 -219q-236 -539 -356 -539q-50 0 -82.5 30.5t-32.5 76.5q0 66 92 83q36 6 49 13q49 25 143 222q25 54 40 83q-33 81 -134 334.5t-172 428.5q-4 11 -13 32q-53 135 -124 135h-14v88zM498 1518h100l297 -347l-84 -38l-262 202l-262 -202
l-84 41z" />
    <glyph glyph-name="Ydieresis" unicode="&#x178;" horiz-adv-x="1425" 
d="M12 1427q109 -5 185 -7.5t135 -2.5q43 0 109 2.5t182 7.5v-90q-67 0 -98 -11.5t-31 -37.5q0 -36 40 -108q11 -20 17 -31l221 -395l67 116q212 368 212 412q0 29 -23 42t-72 13h-22v90q88 -5 143.5 -7.5t93.5 -2.5q40 0 97.5 2.5t144.5 7.5v-87q-4 0 -9 0.5t-15 0.5
q-97 0 -233 -222q-30 -51 -48 -79l-268 -430l2 -320q2 -128 32 -165t117 -37q6 0 20 1t21 1v-90q-110 6 -196 9t-146 3q-54 0 -216 -7q-68 -3 -107 -5v90q8 0 22.5 -1t20.5 -1q88 0 119.5 39t33.5 159l2 316l-334 559q-7 12 -21 35q-87 143 -169 143q-11 0 -17.5 -0.5
t-11.5 -0.5v89zM957 1884q47 0 98 -47t51 -92q0 -42 -51 -88.5t-98 -46.5t-97.5 47t-50.5 88q0 45 50 92t98 47zM469 1884q48 0 98 -47t50 -92q0 -42 -50 -88.5t-98 -46.5q-47 0 -98 47t-51 88q0 45 50.5 92t98.5 47z" />
    <glyph glyph-name="Zacute" unicode="&#x179;" horiz-adv-x="1509" 
d="M180 1427q62 -7 139 -10.5t195 -3.5q47 0 150 1t159 1q38 0 120 -1t126 -1q93 0 162 3.5t131 10.5l43 -81q-38 -33 -77 -76.5t-97 -120.5l-743 -987q59 -1 130 -1.5t211 -0.5q192 0 291.5 14t143.5 45q33 24 61 73.5t53 127.5l95 -25q-36 -101 -62 -200t-41 -195
q-127 9 -286 13.5t-375 4.5q-239 0 -363 -4t-231 -14l-49 82q41 30 80.5 72.5t99.5 121.5l743 988q-55 0 -147.5 1t-130.5 1q-160 0 -246 -9t-137 -28q-44 -18 -73 -60.5t-48 -119.5l-94 22q26 89 43 177.5t24 178.5zM850 2011l195 -109l-357 -333l-98 36z" />
    <glyph glyph-name="zacute" unicode="&#x17a;" horiz-adv-x="1044" 
d="M144 991q67 -5 147 -7.5t239 -2.5q214 0 287.5 2.5t112.5 7.5l35 -80q-67 -52 -206 -224l-24 -30l-352 -444q58 -4 118.5 -6t125.5 -2q171 0 217 31t63 114l82 -20q-22 -80 -36.5 -162t-21.5 -168q-131 9 -247 13.5t-213 4.5q-76 0 -164.5 -4t-208.5 -14l-37 82
q70 45 190 195l30 36l381 471q-77 0 -166 2t-101 2q-130 0 -167 -25.5t-52 -103.5l-84 21q19 75 32 153t20 158zM616 1575l195 -109l-357 -333l-98 36z" />
    <glyph glyph-name="Zdotaccent" unicode="&#x17b;" horiz-adv-x="1509" 
d="M180 1427q62 -7 139 -10.5t195 -3.5q47 0 150 1t159 1q38 0 120 -1t126 -1q93 0 162 3.5t131 10.5l43 -81q-38 -33 -77 -76.5t-97 -120.5l-743 -987q59 -1 130 -1.5t211 -0.5q192 0 291.5 14t143.5 45q33 24 61 73.5t53 127.5l95 -25q-36 -101 -62 -200t-41 -195
q-127 9 -286 13.5t-375 4.5q-239 0 -363 -4t-231 -14l-49 82q41 30 80.5 72.5t99.5 121.5l743 988q-55 0 -147.5 1t-130.5 1q-160 0 -246 -9t-137 -28q-44 -18 -73 -60.5t-48 -119.5l-94 22q26 89 43 177.5t24 178.5zM756 1896q52 0 107 -51t55 -100q0 -45 -54.5 -95.5
t-107.5 -50.5t-107.5 51t-54.5 95q0 48 55.5 99.5t106.5 51.5z" />
    <glyph glyph-name="zdotaccent" unicode="&#x17c;" horiz-adv-x="1044" 
d="M144 991q67 -5 147 -7.5t239 -2.5q214 0 287.5 2.5t112.5 7.5l35 -80q-67 -52 -206 -224l-24 -30l-352 -444q58 -4 118.5 -6t125.5 -2q171 0 217 31t63 114l82 -20q-22 -80 -36.5 -162t-21.5 -168q-131 9 -247 13.5t-213 4.5q-76 0 -164.5 -4t-208.5 -14l-37 82
q70 45 190 195l30 36l381 471q-77 0 -166 2t-101 2q-130 0 -167 -25.5t-52 -103.5l-84 21q19 75 32 153t20 158zM522 1460q52 0 107 -51t55 -100q0 -45 -54.5 -95.5t-107.5 -50.5t-107.5 51t-54.5 95q0 48 55.5 99.5t106.5 51.5z" />
    <glyph glyph-name="Zcaron" unicode="&#x17d;" horiz-adv-x="1509" 
d="M180 1427q62 -7 139 -10.5t195 -3.5q47 0 150 1t159 1q38 0 120 -1t126 -1q93 0 162 3.5t131 10.5l43 -81q-38 -33 -77 -76.5t-97 -120.5l-743 -987q59 -1 130 -1.5t211 -0.5q192 0 291.5 14t143.5 45q33 24 61 73.5t53 127.5l95 -25q-36 -101 -62 -200t-41 -195
q-127 9 -286 13.5t-375 4.5q-239 0 -363 -4t-231 -14l-49 82q41 30 80.5 72.5t99.5 121.5l743 988q-55 0 -147.5 1t-130.5 1q-160 0 -246 -9t-137 -28q-44 -18 -73 -60.5t-48 -119.5l-94 22q26 89 43 177.5t24 178.5zM494 1945l262 -200l262 200l84 -39l-289 -337h-112
l-291 337z" />
    <glyph glyph-name="zcaron" unicode="&#x17e;" horiz-adv-x="1044" 
d="M144 991q67 -5 147 -7.5t239 -2.5q214 0 287.5 2.5t112.5 7.5l35 -80q-67 -52 -206 -224l-24 -30l-352 -444q58 -4 118.5 -6t125.5 -2q171 0 217 31t63 114l82 -20q-22 -80 -36.5 -162t-21.5 -168q-131 9 -247 13.5t-213 4.5q-76 0 -164.5 -4t-208.5 -14l-37 82
q70 45 190 195l30 36l381 471q-77 0 -166 2t-101 2q-130 0 -167 -25.5t-52 -103.5l-84 21q19 75 32 153t20 158zM260 1509l262 -200l262 200l84 -39l-289 -337h-112l-291 337z" />
    <glyph glyph-name="florin" unicode="&#x192;" horiz-adv-x="1217" 
d="M700 809h74q75 0 112.5 0.5t69.5 1.5l-19 -113q-45 1 -98 1.5t-153 0.5q-40 -522 -176 -797.5t-352 -275.5q-72 0 -116 31t-44 82q0 41 19.5 64.5t52.5 23.5q17 0 64.5 -22.5t78.5 -22.5q161 0 217 735q9 118 14 182q-30 0 -64 -1t-38 -1h-104l20 113q24 -1 52 -1.5
t87 -0.5h62q39 285 205 466t378 181q92 0 147.5 -39t55.5 -102q0 -40 -26 -71.5t-60 -31.5q-25 0 -89.5 50.5t-129.5 50.5q-106 0 -160 -110t-80 -394z" />
    <glyph glyph-name="uni01C0" unicode="&#x1c0;" horiz-adv-x="1024" 
d="M602 1565v-2048h-178v2048h178z" />
    <glyph glyph-name="uni01C1" unicode="&#x1c1;" horiz-adv-x="2048" 
d="M602 1565v-2048h-178v2048h178zM1626 1565v-2048h-178v2048h178z" />
    <glyph glyph-name="uni01C3" unicode="&#x1c3;" horiz-adv-x="696" 
d="M317 287l91 -62q33 -22 50 -47.5t17 -54.5q0 -30 -13 -51.5t-46 -44.5l-97 -66l-90 59q-35 24 -53 49.5t-18 53.5q0 31 14 53t51 47zM203 1427h272q0 -206 -59 -683q-27 -220 -39 -336h-109q-6 216 -22.5 473.5t-42.5 545.5z" />
    <glyph glyph-name="uni01C4" unicode="&#x1c4;" horiz-adv-x="3201" 
d="M522 160q62 -14 122.5 -20.5t123.5 -6.5q259 0 399 143t140 408q0 291 -150 451.5t-420 160.5q-39 0 -88.5 -3.5t-118.5 -12.5q-4 -244 -6 -462.5t-2 -397.5v-260zM70 0v90q7 -1 15 -1.5t24 -0.5q83 0 112 55.5t29 284.5v72v106l2 238q0 17 1 49q3 147 3 203
q0 149 -28.5 196t-106.5 47q-15 0 -23 -0.5t-14 -0.5v89q86 -5 150 -7.5t116 -2.5q93 0 238.5 8.5t197.5 8.5q386 0 605 -191.5t219 -525.5q0 -324 -231 -523.5t-613 -199.5q-31 0 -183 8t-274 8q-29 0 -196 -8zM1872 1427q62 -7 139 -10.5t195 -3.5q47 0 150 1t159 1
q38 0 120 -1t126 -1q93 0 162 3.5t131 10.5l43 -81q-38 -33 -77 -76.5t-97 -120.5l-743 -987q59 -1 130 -1.5t211 -0.5q192 0 291.5 14t143.5 45q33 24 61 73.5t53 127.5l95 -25q-36 -101 -62 -200t-41 -195q-127 9 -286 13.5t-375 4.5q-239 0 -363 -4t-231 -14l-49 82
q41 30 80.5 72.5t99.5 121.5l743 988q-55 0 -147.5 1t-130.5 1q-160 0 -246 -9t-137 -28q-44 -18 -73 -60.5t-48 -119.5l-94 22q26 89 43 177.5t24 178.5zM2199 1905l262 -200l262 200l84 -39l-289 -337h-112l-291 337z" />
    <glyph glyph-name="uni01C5" unicode="&#x1c5;" horiz-adv-x="2736" 
d="M522 160q62 -14 122.5 -20.5t123.5 -6.5q259 0 399 143t140 408q0 291 -150 451.5t-420 160.5q-39 0 -88.5 -3.5t-118.5 -12.5q-4 -244 -6 -462.5t-2 -397.5v-260zM70 0v90q7 -1 15 -1.5t24 -0.5q83 0 112 55.5t29 284.5v72v106l2 238q0 17 1 49q3 147 3 203
q0 149 -28.5 196t-106.5 47q-15 0 -23 -0.5t-14 -0.5v89q86 -5 150 -7.5t116 -2.5q93 0 238.5 8.5t197.5 8.5q386 0 605 -191.5t219 -525.5q0 -324 -231 -523.5t-613 -199.5q-31 0 -183 8t-274 8q-29 0 -196 -8zM1836 991q67 -5 147 -7.5t239 -2.5q214 0 287.5 2.5
t112.5 7.5l35 -80q-67 -52 -206 -224l-24 -30l-352 -444q58 -4 118.5 -6t125.5 -2q171 0 217 31t63 114l82 -20q-22 -80 -36.5 -162t-21.5 -168q-131 9 -247 13.5t-213 4.5q-76 0 -164.5 -4t-208.5 -14l-37 82q70 45 190 195l30 36l381 471q-77 0 -166 2t-101 2
q-130 0 -167 -25.5t-52 -103.5l-84 21q19 75 32 153t20 158zM1955 1470l262 -200l262 200l84 -39l-289 -337h-112l-291 337z" />
    <glyph glyph-name="uni01C6" unicode="&#x1c6;" horiz-adv-x="2277" 
d="M807 811q-55 32 -106 47.5t-101 15.5q-136 0 -211.5 -89.5t-75.5 -254.5q0 -175 76 -280t201 -105q44 0 96.5 18t118.5 56zM1058 1550q-6 -221 -11 -457.5t-9 -503.5v-253v-43q0 -125 16.5 -159t59.5 -34q15 0 31.5 3.5t36.5 10.5l18 -79q-89 -35 -182 -52.5t-197 -18.5
q-6 30 -10 66t-7 82q-91 -67 -168.5 -98.5t-150.5 -31.5q-184 0 -303 135.5t-119 349.5q0 239 149 388t388 149q51 0 103 -9t110 -28q0 6 1 19q3 139 3 200q0 141 -20 174t-74 33q-9 0 -24 -1.5t-37 -4.5l-9 81q94 12 194.5 32.5t210.5 49.5zM1377 991q67 -5 147 -7.5
t239 -2.5q214 0 287.5 2.5t112.5 7.5l35 -80q-67 -52 -206 -224l-24 -30l-352 -444q58 -4 118.5 -6t125.5 -2q171 0 217 31t63 114l82 -20q-22 -80 -36.5 -162t-21.5 -168q-131 9 -247 13.5t-213 4.5q-76 0 -164.5 -4t-208.5 -14l-37 82q70 45 190 195l30 36l381 471
q-77 0 -166 2t-101 2q-130 0 -167 -25.5t-52 -103.5l-84 21q19 75 32 153t20 158zM1496 1470l262 -200l262 200l84 -39l-289 -337h-112l-291 337z" />
    <glyph glyph-name="uni01C7" unicode="&#x1c7;" horiz-adv-x="2026" 
d="M90 1427q85 -5 160.5 -7.5t134.5 -2.5q61 0 136.5 2.5t174.5 7.5v-90q-6 0 -17 1t-15 1q-84 0 -114 -50t-30 -226q0 -26 1 -94t1 -111l2 -702l6 -1q129 -8 195 -8q251 0 329 52t128 198l92 -28q-31 -91 -55.5 -183t-42.5 -186q-177 6 -329 9t-278 3q-125 0 -251.5 -3
t-251.5 -9v88h28q54 0 83 11t42 36q28 55 30 411q1 46 1 70l2 218q0 44 1 115.5t1 99.5q0 180 -29.5 235t-111.5 55h-23v88zM1329 1427q95 -6 174.5 -9t143.5 -3q68 0 242 9q42 2 65 3v-90h-21q-86 0 -114.5 -40.5t-28.5 -221.5v-31q0 -96 1 -259t1 -230q0 -281 -15 -420
t-50 -225q-62 -150 -189 -241t-274 -91q-98 0 -152.5 34t-54.5 95q0 53 27 84t73 31q34 0 101.5 -45t107.5 -45q80 0 114 81.5t34 299.5l-2 1050q0 103 -33 138.5t-123 35.5h-27v90z" />
    <glyph glyph-name="uni01C8" unicode="&#x1c8;" horiz-adv-x="1886" 
d="M90 1427q85 -5 160.5 -7.5t134.5 -2.5q61 0 136.5 2.5t174.5 7.5v-90q-6 0 -17 1t-15 1q-84 0 -114 -50t-30 -226q0 -26 1 -94t1 -111l2 -702l6 -1q129 -8 195 -8q251 0 329 52t128 198l92 -28q-31 -91 -55.5 -183t-42.5 -186q-177 6 -329 9t-278 3q-125 0 -251.5 -3
t-251.5 -9v88h28q54 0 83 11t42 36q28 55 30 411q1 46 1 70l2 218q0 44 1 115.5t1 99.5q0 180 -29.5 235t-111.5 55h-23v88zM1575 1526l90 -62q36 -23 53 -48.5t17 -55.5q0 -27 -14.5 -49t-47.5 -45l-96 -68l-90 62q-37 24 -53.5 48.5t-16.5 55.5q0 29 15 52.5t49 45.5z
M1716 1022q-8 -291 -11 -421t-3 -218q0 -5 1 -60t1 -106v-92q0 -222 -25 -321.5t-86 -174.5q-60 -74 -155.5 -119t-192.5 -45l-15.5 1.5t-31.5 1.5v98q152 12 211.5 101t59.5 341l2 654q0 133 -17.5 164.5t-68.5 31.5q-8 0 -20.5 -1.5t-31.5 -4.5l-8 82q102 14 200 36
t191 52z" />
    <glyph glyph-name="uni01C9" unicode="&#x1c9;" horiz-adv-x="1263" 
d="M449 1548q-7 -186 -10 -355t-3 -323v-444q0 -153 5 -213.5t15 -82.5t37 -33t70 -11h23v-86q-96 6 -166.5 9t-116.5 3q-42 0 -106 -3t-150 -9v86q5 0 15.5 -1t15.5 -1q124 0 124 310q1 50 1 77l2 457v270q0 112 -17.5 149t-64.5 37q-13 0 -28 -1.5t-29 -4.5l-11 80
q107 17 204.5 39t189.5 51zM952 1526l90 -62q36 -23 53 -48.5t17 -55.5q0 -27 -14.5 -49t-47.5 -45l-96 -68l-90 62q-37 24 -53.5 48.5t-16.5 55.5q0 29 15 52.5t49 45.5zM1093 1022q-8 -291 -11 -421t-3 -218q0 -5 1 -60t1 -106v-92q0 -222 -25 -321.5t-86 -174.5
q-60 -74 -155.5 -119t-192.5 -45l-15.5 1.5t-31.5 1.5v98q152 12 211.5 101t59.5 341l2 654q0 133 -17.5 164.5t-68.5 31.5q-8 0 -20.5 -1.5t-31.5 -4.5l-8 82q102 14 200 36t191 52z" />
    <glyph glyph-name="uni01CA" unicode="&#x1ca;" horiz-adv-x="2476" 
d="M47 1425q38 -1 119.5 -5.5t116.5 -4.5q31 0 108.5 4.5t114.5 5.5q14 -37 41 -78.5t71 -93.5l735 -867q-1 130 -3 347q-4 477 -15 521q-14 48 -44 65.5t-99 17.5h-33v88q109 -5 166 -7.5t94 -2.5q44 0 106 2.5t156 7.5v-88h-18q-64 0 -94 -14.5t-43 -50.5
q-16 -48 -23 -451v-16l-4 -217q-2 -125 -3 -234.5t-1 -183.5q0 -49 3.5 -95t10.5 -89h-196q-12 25 -35 57t-88 109l-807 944q0 -473 5 -678.5t15 -242.5q14 -48 44.5 -66.5t99.5 -18.5h31v-90q-114 6 -172.5 8t-96.5 2q-32 0 -87.5 -2t-176.5 -8v90q8 -1 16.5 -1.5
t24.5 -0.5q143 0 146 393q1 87 1 135l3 213q0 65 2 186.5t2 155.5q0 97 -34 132.5t-122 35.5q-6 0 -18.5 -1t-18.5 -1v88zM1779 1427q95 -6 174.5 -9t143.5 -3q68 0 242 9q42 2 65 3v-90h-21q-86 0 -114.5 -40.5t-28.5 -221.5v-31q0 -96 1 -259t1 -230q0 -281 -15 -420
t-50 -225q-62 -150 -189 -241t-274 -91q-98 0 -152.5 34t-54.5 95q0 53 27 84t73 31q34 0 101.5 -45t107.5 -45q80 0 114 81.5t34 299.5l-2 1050q0 103 -33 138.5t-123 35.5h-27v90z" />
    <glyph glyph-name="uni01CB" unicode="&#x1cb;" horiz-adv-x="2336" 
d="M47 1425q38 -1 119.5 -5.5t116.5 -4.5q31 0 108.5 4.5t114.5 5.5q14 -37 41 -78.5t71 -93.5l735 -867q-1 130 -3 347q-4 477 -15 521q-14 48 -44 65.5t-99 17.5h-33v88q109 -5 166 -7.5t94 -2.5q44 0 106 2.5t156 7.5v-88h-18q-64 0 -94 -14.5t-43 -50.5
q-16 -48 -23 -451v-16l-4 -217q-2 -125 -3 -234.5t-1 -183.5q0 -49 3.5 -95t10.5 -89h-196q-12 25 -35 57t-88 109l-807 944q0 -473 5 -678.5t15 -242.5q14 -48 44.5 -66.5t99.5 -18.5h31v-90q-114 6 -172.5 8t-96.5 2q-32 0 -87.5 -2t-176.5 -8v90q8 -1 16.5 -1.5
t24.5 -0.5q143 0 146 393q1 87 1 135l3 213q0 65 2 186.5t2 155.5q0 97 -34 132.5t-122 35.5q-6 0 -18.5 -1t-18.5 -1v88zM2025 1526l90 -62q36 -23 53 -48.5t17 -55.5q0 -27 -14.5 -49t-47.5 -45l-96 -68l-90 62q-37 24 -53.5 48.5t-16.5 55.5q0 29 15 52.5t49 45.5z
M2166 1022q-8 -291 -11 -421t-3 -218q0 -5 1 -60t1 -106v-92q0 -222 -25 -321.5t-86 -174.5q-60 -74 -155.5 -119t-192.5 -45l-15.5 1.5t-31.5 1.5v98q152 12 211.5 101t59.5 341l2 654q0 133 -17.5 164.5t-68.5 31.5q-8 0 -20.5 -1.5t-31.5 -4.5l-8 82q102 14 200 36
t191 52z" />
    <glyph glyph-name="uni01CC" unicode="&#x1cc;" horiz-adv-x="1882" 
d="M440 1024l-16 -164q120 86 205 125t151 39q157 0 236.5 -91.5t79.5 -270.5q0 -34 -2 -157.5t-2 -213.5q0 -147 21.5 -177t86.5 -30h21l-2 -84q-89 6 -152 9t-102 3q-42 0 -103.5 -3t-142.5 -9v84h12q124 0 127 250v12v211q0 173 -40 233t-136 60q-52 0 -112 -21.5
t-132 -66.5q-4 -90 -6 -187t-2 -208v-82q0 -135 21.5 -168t85.5 -33h16v-84q-84 6 -147 9t-107 3q-43 0 -106 -3t-146 -9v84h23q124 0 126 251q0 30 1 46l2 207v88q0 113 -17.5 146.5t-64.5 33.5q-9 0 -40 -3q-6 -1 -9 -1l-6 78q83 13 175 36t203 58zM1571 1526l90 -62
q36 -23 53 -48.5t17 -55.5q0 -27 -14.5 -49t-47.5 -45l-96 -68l-90 62q-37 24 -53.5 48.5t-16.5 55.5q0 29 15 52.5t49 45.5zM1712 1022q-8 -291 -11 -421t-3 -218q0 -5 1 -60t1 -106v-92q0 -222 -25 -321.5t-86 -174.5q-60 -74 -155.5 -119t-192.5 -45l-15.5 1.5t-31.5 1.5
v98q152 12 211.5 101t59.5 341l2 654q0 133 -17.5 164.5t-68.5 31.5q-8 0 -20.5 -1.5t-31.5 -4.5l-8 82q102 14 200 36t191 52z" />
    <glyph glyph-name="uni01CD" unicode="&#x1cd;" horiz-adv-x="1589" 
d="M743 1194l-218 -553q38 -1 80.5 -1.5t113.5 -0.5q82 0 128 0.5t86 1.5zM688 1434h244q144 -422 274.5 -775.5t182.5 -470.5q22 -53 55.5 -75.5t89.5 -22.5h22v-90q-127 6 -195 8t-114 2q-44 0 -114 -2t-203 -8v90h18q79 0 107 18t28 64q0 14 -3.5 33t-14.5 53l-82 242
q-57 1 -150 2.5t-116 1.5q-43 0 -173 -3q-47 -1 -73 -1l-4 -10q-98 -239 -98 -302q0 -52 29.5 -75t97.5 -23h18v-90q-114 6 -177 8t-104 2q-34 0 -89.5 -2t-161.5 -8v90q72 0 115 25t73 84q43 78 194 436t324 799zM507 1912l262 -200l262 200l84 -39l-289 -337h-112
l-291 337z" />
    <glyph glyph-name="uni01CE" unicode="&#x1ce;" horiz-adv-x="1075" 
d="M643 477q-22 -6 -64 -18q-286 -79 -286 -187q0 -60 39 -100.5t98 -40.5q38 0 86.5 19t126.5 65v262zM1042 170l37 -76q-91 -60 -163.5 -89.5t-129.5 -29.5q-69 0 -105.5 35.5t-42.5 107.5q-109 -76 -184 -109.5t-135 -33.5q-105 0 -179 81.5t-74 195.5q0 192 429 291
q93 22 146 35q1 25 1.5 48.5t0.5 45.5q0 107 -41.5 156t-132.5 49q-59 0 -101.5 -24t-45.5 -56q-1 -5 -1 -13q-6 -100 -126 -100q-45 0 -69 15t-24 44q0 80 147.5 179.5t309.5 99.5q158 0 240 -82.5t82 -241.5q0 -48 -7.5 -198.5t-7.5 -253.5q0 -61 16 -88t50 -27
q19 0 47 10t63 29zM310 1501l262 -200l262 200l84 -39l-289 -337h-112l-291 337z" />
    <glyph glyph-name="uni01CF" unicode="&#x1cf;" horiz-adv-x="784" 
d="M72 1427q98 -6 179.5 -9t145.5 -3q63 0 141.5 3t174.5 9v-90h-21q-69 0 -98.5 -14t-42.5 -51q-11 -31 -16 -122t-5 -327v-411q0 -141 5.5 -195.5t19.5 -79.5t47 -36t98 -11h25v-90q-110 6 -193 9t-141 3q-53 0 -137 -3t-195 -9v90h25q67 0 100 11t45 36q15 28 21 91.5
t6 230.5v151v434q0 124 -5.5 173.5t-19.5 73.5q-13 24 -45.5 35t-93.5 11h-20v90zM131 1905l262 -200l262 200l84 -39l-289 -337h-112l-291 337z" />
    <glyph glyph-name="uni01D0" unicode="&#x1d0;" horiz-adv-x="659" 
d="M457 1024q-6 -216 -9.5 -377t-3.5 -264v-117q0 -117 23.5 -149.5t89.5 -32.5q5 0 15.5 1t17.5 1v-86q-92 6 -161 9t-114 3q-38 0 -102.5 -3t-151.5 -9v86h19q128 0 129 236v59l2 213v88q0 112 -18 144t-70 32q-7 0 -32 -2q-11 -1 -17 -2l-13 80q105 14 202.5 36.5
t193.5 53.5zM64 1503l262 -200l262 200l84 -39l-289 -337h-112l-291 337z" />
    <glyph glyph-name="uni01D1" unicode="&#x1d1;" horiz-adv-x="1716" 
d="M1319 688q0 283 -131 455t-344 172q-204 0 -325.5 -153t-121.5 -414q0 -285 132.5 -458t344.5 -173q205 0 325 153t120 418zM860 1464q159 0 284 -43.5t230 -134.5q122 -106 188 -252.5t66 -310.5q0 -326 -221 -543t-553 -217q-173 0 -313 56.5t-248 168.5
q-100 105 -152.5 239.5t-52.5 285.5q0 167 65.5 310.5t190.5 250.5q104 90 240 140t276 50zM596 1942l262 -200l262 200l84 -39l-289 -337h-112l-291 337z" />
    <glyph glyph-name="uni01D2" unicode="&#x1d2;" horiz-adv-x="1206" 
d="M588 891q-123 0 -190.5 -91.5t-67.5 -258.5q0 -203 77 -322t207 -119q124 0 195.5 96t71.5 263q0 199 -79.5 315.5t-213.5 116.5zM608 1022q235 0 385 -144.5t150 -365.5q0 -232 -156.5 -387.5t-390.5 -155.5t-382 146t-148 374q0 224 158.5 378.5t383.5 154.5zM342 1501
l262 -200l262 200l84 -39l-289 -337h-112l-291 337z" />
    <glyph glyph-name="uni01D3" unicode="&#x1d3;" horiz-adv-x="1688" 
d="M682 1427v-90q-6 0 -17 1t-16 1q-85 0 -115 -49.5t-30 -251.5v-80v-149q0 -202 7 -286.5t24 -133.5q38 -119 134 -182.5t236 -63.5q115 0 196 38.5t132 117.5q34 53 48.5 138.5t14.5 254.5q0 32 -1 106.5t-1 116.5v105q0 211 -30 265t-115 54q-13 0 -20 -0.5t-13 -0.5v89
q93 -5 154.5 -7.5t105.5 -2.5q41 0 99.5 2.5t152.5 7.5v-90h-16q-60 0 -89 -13.5t-42 -47.5q-19 -50 -24 -435q0 -55 -1 -85v-55q-2 -342 -74 -470t-212 -198t-326 -70q-171 0 -303.5 56.5t-208.5 160.5q-57 78 -81 180t-24 304q0 54 3 192t3 221q0 175 -28.5 217.5
t-112.5 42.5h-24v90q113 -5 183.5 -7.5t121.5 -2.5q47 0 118 2.5t191 7.5zM586 1905l262 -200l262 200l84 -39l-289 -337h-112l-291 337z" />
    <glyph glyph-name="uni01D4" unicode="&#x1d4;" horiz-adv-x="1274" 
d="M424 1017q-7 -178 -10.5 -322t-3.5 -240q0 -174 41 -243t137 -69q48 0 108 22t129 64q3 143 4.5 243t1.5 159v45q0 124 -22 155t-84 31q-11 0 -22 -0.5t-23 -1.5l-6 80q105 10 205 24t196 33q-7 -232 -9.5 -352.5t-2.5 -224.5v-92q0 -130 16 -163.5t64 -33.5q12 0 26.5 2
t30.5 6l10 -82l-383 -86v154q-115 -84 -197 -119t-159 -35q-150 0 -223.5 93.5t-73.5 283.5q0 40 0.5 66t1.5 52l4 136q0 20 1 51.5t1 44.5q0 99 -17 133.5t-61 34.5q-19 0 -53 -3q-4 -1 -6 -1l-6 82q95 12 191 30.5t194 42.5zM362 1496l262 -200l262 200l84 -39l-289 -337
h-112l-291 337z" />
    <glyph glyph-name="uni01D5" unicode="&#x1d5;" horiz-adv-x="1688" 
d="M682 1427v-90q-6 0 -17 1t-16 1q-85 0 -115 -49.5t-30 -251.5v-80v-149q0 -202 7 -286.5t24 -133.5q38 -119 134 -182.5t236 -63.5q115 0 196 38.5t132 117.5q34 53 48.5 138.5t14.5 254.5q0 32 -1 106.5t-1 116.5v105q0 211 -30 265t-115 54q-13 0 -20 -0.5t-13 -0.5v89
q93 -5 154.5 -7.5t105.5 -2.5q41 0 99.5 2.5t152.5 7.5v-90h-16q-60 0 -89 -13.5t-42 -47.5q-19 -50 -24 -435q0 -55 -1 -85v-55q-2 -342 -74 -470t-212 -198t-326 -70q-171 0 -303.5 56.5t-208.5 160.5q-57 78 -81 180t-24 304q0 54 3 192t3 221q0 175 -28.5 217.5
t-112.5 42.5h-24v90q113 -5 183.5 -7.5t121.5 -2.5q47 0 118 2.5t191 7.5zM1092 1803q47 0 98 -47t51 -92q0 -42 -51 -88.5t-98 -46.5t-97.5 47t-50.5 88q0 45 50 92t98 47zM604 1803q48 0 98 -47t50 -92q0 -42 -50 -88.5t-98 -46.5q-47 0 -98 47t-51 88q0 45 50.5 92
t98.5 47zM1360 2077v-172h-1024v172h1024z" />
    <glyph glyph-name="uni01D6" unicode="&#x1d6;" horiz-adv-x="1274" 
d="M424 1017q-7 -178 -10.5 -322t-3.5 -240q0 -174 41 -243t137 -69q48 0 108 22t129 64q3 143 4.5 243t1.5 159v45q0 124 -22 155t-84 31q-11 0 -22 -0.5t-23 -1.5l-6 80q105 10 205 24t196 33q-7 -232 -9.5 -352.5t-2.5 -224.5v-92q0 -130 16 -163.5t64 -33.5q12 0 26.5 2
t30.5 6l10 -82l-383 -86v154q-115 -84 -197 -119t-159 -35q-150 0 -223.5 93.5t-73.5 283.5q0 40 0.5 66t1.5 52l4 136q0 20 1 51.5t1 44.5q0 99 -17 133.5t-61 34.5q-19 0 -53 -3q-4 -1 -6 -1l-6 82q95 12 191 30.5t194 42.5zM868 1394q47 0 98 -47t51 -92q0 -42 -51 -88.5
t-98 -46.5t-97.5 47t-50.5 88q0 45 50 92t98 47zM380 1394q48 0 98 -47t50 -92q0 -42 -50 -88.5t-98 -46.5q-47 0 -98 47t-51 88q0 45 50.5 92t98.5 47zM1136 1667v-172h-1024v172h1024z" />
    <glyph glyph-name="uni01D7" unicode="&#x1d7;" horiz-adv-x="1688" 
d="M682 1427v-90q-6 0 -17 1t-16 1q-85 0 -115 -49.5t-30 -251.5v-80v-149q0 -202 7 -286.5t24 -133.5q38 -119 134 -182.5t236 -63.5q115 0 196 38.5t132 117.5q34 53 48.5 138.5t14.5 254.5q0 32 -1 106.5t-1 116.5v105q0 211 -30 265t-115 54q-13 0 -20 -0.5t-13 -0.5v89
q93 -5 154.5 -7.5t105.5 -2.5q41 0 99.5 2.5t152.5 7.5v-90h-16q-60 0 -89 -13.5t-42 -47.5q-19 -50 -24 -435q0 -55 -1 -85v-55q-2 -342 -74 -470t-212 -198t-326 -70q-171 0 -303.5 56.5t-208.5 160.5q-57 78 -81 180t-24 304q0 54 3 192t3 221q0 175 -28.5 217.5
t-112.5 42.5h-24v90q113 -5 183.5 -7.5t121.5 -2.5q47 0 118 2.5t191 7.5zM1092 1803q47 0 98 -47t51 -92q0 -42 -51 -88.5t-98 -46.5t-97.5 47t-50.5 88q0 45 50 92t98 47zM604 1803q48 0 98 -47t50 -92q0 -42 -50 -88.5t-98 -46.5q-47 0 -98 47t-51 88q0 45 50.5 92
t98.5 47zM881 2347l195 -109l-357 -333l-98 36z" />
    <glyph glyph-name="uni01D8" unicode="&#x1d8;" horiz-adv-x="1274" 
d="M424 1017q-7 -178 -10.5 -322t-3.5 -240q0 -174 41 -243t137 -69q48 0 108 22t129 64q3 143 4.5 243t1.5 159v45q0 124 -22 155t-84 31q-11 0 -22 -0.5t-23 -1.5l-6 80q105 10 205 24t196 33q-7 -232 -9.5 -352.5t-2.5 -224.5v-92q0 -130 16 -163.5t64 -33.5q12 0 26.5 2
t30.5 6l10 -82l-383 -86v154q-115 -84 -197 -119t-159 -35q-150 0 -223.5 93.5t-73.5 283.5q0 40 0.5 66t1.5 52l4 136q0 20 1 51.5t1 44.5q0 99 -17 133.5t-61 34.5q-19 0 -53 -3q-4 -1 -6 -1l-6 82q95 12 191 30.5t194 42.5zM868 1394q47 0 98 -47t51 -92q0 -42 -51 -88.5
t-98 -46.5t-97.5 47t-50.5 88q0 45 50 92t98 47zM380 1394q48 0 98 -47t50 -92q0 -42 -50 -88.5t-98 -46.5q-47 0 -98 47t-51 88q0 45 50.5 92t98.5 47zM657 1937l195 -109l-357 -333l-98 36z" />
    <glyph glyph-name="uni01D9" unicode="&#x1d9;" horiz-adv-x="1688" 
d="M682 1427v-90q-6 0 -17 1t-16 1q-85 0 -115 -49.5t-30 -251.5v-80v-149q0 -202 7 -286.5t24 -133.5q38 -119 134 -182.5t236 -63.5q115 0 196 38.5t132 117.5q34 53 48.5 138.5t14.5 254.5q0 32 -1 106.5t-1 116.5v105q0 211 -30 265t-115 54q-13 0 -20 -0.5t-13 -0.5v89
q93 -5 154.5 -7.5t105.5 -2.5q41 0 99.5 2.5t152.5 7.5v-90h-16q-60 0 -89 -13.5t-42 -47.5q-19 -50 -24 -435q0 -55 -1 -85v-55q-2 -342 -74 -470t-212 -198t-326 -70q-171 0 -303.5 56.5t-208.5 160.5q-57 78 -81 180t-24 304q0 54 3 192t3 221q0 175 -28.5 217.5
t-112.5 42.5h-24v90q113 -5 183.5 -7.5t121.5 -2.5q47 0 118 2.5t191 7.5zM1092 1803q47 0 98 -47t51 -92q0 -42 -51 -88.5t-98 -46.5t-97.5 47t-50.5 88q0 45 50 92t98 47zM604 1803q48 0 98 -47t50 -92q0 -42 -50 -88.5t-98 -46.5q-47 0 -98 47t-51 88q0 45 50.5 92
t98.5 47zM586 2281l262 -200l262 200l84 -39l-289 -337h-112l-291 337z" />
    <glyph glyph-name="uni01DA" unicode="&#x1da;" horiz-adv-x="1274" 
d="M424 1017q-7 -178 -10.5 -322t-3.5 -240q0 -174 41 -243t137 -69q48 0 108 22t129 64q3 143 4.5 243t1.5 159v45q0 124 -22 155t-84 31q-11 0 -22 -0.5t-23 -1.5l-6 80q105 10 205 24t196 33q-7 -232 -9.5 -352.5t-2.5 -224.5v-92q0 -130 16 -163.5t64 -33.5q12 0 26.5 2
t30.5 6l10 -82l-383 -86v154q-115 -84 -197 -119t-159 -35q-150 0 -223.5 93.5t-73.5 283.5q0 40 0.5 66t1.5 52l4 136q0 20 1 51.5t1 44.5q0 99 -17 133.5t-61 34.5q-19 0 -53 -3q-4 -1 -6 -1l-6 82q95 12 191 30.5t194 42.5zM868 1394q47 0 98 -47t51 -92q0 -42 -51 -88.5
t-98 -46.5t-97.5 47t-50.5 88q0 45 50 92t98 47zM380 1394q48 0 98 -47t50 -92q0 -42 -50 -88.5t-98 -46.5q-47 0 -98 47t-51 88q0 45 50.5 92t98.5 47zM362 1871l262 -200l262 200l84 -39l-289 -337h-112l-291 337z" />
    <glyph glyph-name="uni01DB" unicode="&#x1db;" horiz-adv-x="1688" 
d="M682 1427v-90q-6 0 -17 1t-16 1q-85 0 -115 -49.5t-30 -251.5v-80v-149q0 -202 7 -286.5t24 -133.5q38 -119 134 -182.5t236 -63.5q115 0 196 38.5t132 117.5q34 53 48.5 138.5t14.5 254.5q0 32 -1 106.5t-1 116.5v105q0 211 -30 265t-115 54q-13 0 -20 -0.5t-13 -0.5v89
q93 -5 154.5 -7.5t105.5 -2.5q41 0 99.5 2.5t152.5 7.5v-90h-16q-60 0 -89 -13.5t-42 -47.5q-19 -50 -24 -435q0 -55 -1 -85v-55q-2 -342 -74 -470t-212 -198t-326 -70q-171 0 -303.5 56.5t-208.5 160.5q-57 78 -81 180t-24 304q0 54 3 192t3 221q0 175 -28.5 217.5
t-112.5 42.5h-24v90q113 -5 183.5 -7.5t121.5 -2.5q47 0 118 2.5t191 7.5zM1092 1803q47 0 98 -47t51 -92q0 -42 -51 -88.5t-98 -46.5t-97.5 47t-50.5 88q0 45 50 92t98 47zM604 1803q48 0 98 -47t50 -92q0 -42 -50 -88.5t-98 -46.5q-47 0 -98 47t-51 88q0 45 50.5 92
t98.5 47zM813 2347l264 -408l-98 -34l-359 337z" />
    <glyph glyph-name="uni01DC" unicode="&#x1dc;" horiz-adv-x="1274" 
d="M424 1017q-7 -178 -10.5 -322t-3.5 -240q0 -174 41 -243t137 -69q48 0 108 22t129 64q3 143 4.5 243t1.5 159v45q0 124 -22 155t-84 31q-11 0 -22 -0.5t-23 -1.5l-6 80q105 10 205 24t196 33q-7 -232 -9.5 -352.5t-2.5 -224.5v-92q0 -130 16 -163.5t64 -33.5q12 0 26.5 2
t30.5 6l10 -82l-383 -86v154q-115 -84 -197 -119t-159 -35q-150 0 -223.5 93.5t-73.5 283.5q0 40 0.5 66t1.5 52l4 136q0 20 1 51.5t1 44.5q0 99 -17 133.5t-61 34.5q-19 0 -53 -3q-4 -1 -6 -1l-6 82q95 12 191 30.5t194 42.5zM868 1394q47 0 98 -47t51 -92q0 -42 -51 -88.5
t-98 -46.5t-97.5 47t-50.5 88q0 45 50 92t98 47zM380 1394q48 0 98 -47t50 -92q0 -42 -50 -88.5t-98 -46.5q-47 0 -98 47t-51 88q0 45 50.5 92t98.5 47zM589 1937l264 -408l-98 -34l-359 337z" />
    <glyph glyph-name="uni01DE" unicode="&#x1de;" horiz-adv-x="1589" 
d="M743 1194l-218 -553q38 -1 80.5 -1.5t113.5 -0.5q82 0 128 0.5t86 1.5zM688 1434h244q144 -422 274.5 -775.5t182.5 -470.5q22 -53 55.5 -75.5t89.5 -22.5h22v-90q-127 6 -195 8t-114 2q-44 0 -114 -2t-203 -8v90h18q79 0 107 18t28 64q0 14 -3.5 33t-14.5 53l-82 242
q-57 1 -150 2.5t-116 1.5q-43 0 -173 -3q-47 -1 -73 -1l-4 -10q-98 -239 -98 -302q0 -52 29.5 -75t97.5 -23h18v-90q-114 6 -177 8t-104 2q-34 0 -89.5 -2t-161.5 -8v90q72 0 115 25t73 84q43 78 194 436t324 799zM1013 1810q47 0 98 -47t51 -92q0 -42 -51 -88.5t-98 -46.5
t-97.5 47t-50.5 88q0 45 50 92t98 47zM525 1810q48 0 98 -47t50 -92q0 -42 -50 -88.5t-98 -46.5q-47 0 -98 47t-51 88q0 45 50.5 92t98.5 47zM1281 2084v-172h-1024v172h1024z" />
    <glyph glyph-name="uni01DF" unicode="&#x1df;" horiz-adv-x="1075" 
d="M643 477q-22 -6 -64 -18q-286 -79 -286 -187q0 -60 39 -100.5t98 -40.5q38 0 86.5 19t126.5 65v262zM1042 170l37 -76q-91 -60 -163.5 -89.5t-129.5 -29.5q-69 0 -105.5 35.5t-42.5 107.5q-109 -76 -184 -109.5t-135 -33.5q-105 0 -179 81.5t-74 195.5q0 192 429 291
q93 22 146 35q1 25 1.5 48.5t0.5 45.5q0 107 -41.5 156t-132.5 49q-59 0 -101.5 -24t-45.5 -56q-1 -5 -1 -13q-6 -100 -126 -100q-45 0 -69 15t-24 44q0 80 147.5 179.5t309.5 99.5q158 0 240 -82.5t82 -241.5q0 -48 -7.5 -198.5t-7.5 -253.5q0 -61 16 -88t50 -27
q19 0 47 10t63 29zM816 1399q47 0 98 -47t51 -92q0 -42 -51 -88.5t-98 -46.5t-97.5 47t-50.5 88q0 45 50 92t98 47zM328 1399q48 0 98 -47t50 -92q0 -42 -50 -88.5t-98 -46.5q-47 0 -98 47t-51 88q0 45 50.5 92t98.5 47zM1084 1672v-172h-1024v172h1024z" />
    <glyph glyph-name="uni01E0" unicode="&#x1e0;" horiz-adv-x="1589" 
d="M743 1194l-218 -553q38 -1 80.5 -1.5t113.5 -0.5q82 0 128 0.5t86 1.5zM688 1434h244q144 -422 274.5 -775.5t182.5 -470.5q22 -53 55.5 -75.5t89.5 -22.5h22v-90q-127 6 -195 8t-114 2q-44 0 -114 -2t-203 -8v90h18q79 0 107 18t28 64q0 14 -3.5 33t-14.5 53l-82 242
q-57 1 -150 2.5t-116 1.5q-43 0 -173 -3q-47 -1 -73 -1l-4 -10q-98 -239 -98 -302q0 -52 29.5 -75t97.5 -23h18v-90q-114 6 -177 8t-104 2q-34 0 -89.5 -2t-161.5 -8v90q72 0 115 25t73 84q43 78 194 436t324 799zM769 1833q52 0 107 -51t55 -100q0 -45 -54.5 -95.5
t-107.5 -50.5t-107.5 51t-54.5 95q0 48 55.5 99.5t106.5 51.5zM1281 2107v-172h-1024v172h1024z" />
    <glyph glyph-name="uni01E1" unicode="&#x1e1;" horiz-adv-x="1075" 
d="M643 477q-22 -6 -64 -18q-286 -79 -286 -187q0 -60 39 -100.5t98 -40.5q38 0 86.5 19t126.5 65v262zM1042 170l37 -76q-91 -60 -163.5 -89.5t-129.5 -29.5q-69 0 -105.5 35.5t-42.5 107.5q-109 -76 -184 -109.5t-135 -33.5q-105 0 -179 81.5t-74 195.5q0 192 429 291
q93 22 146 35q1 25 1.5 48.5t0.5 45.5q0 107 -41.5 156t-132.5 49q-59 0 -101.5 -24t-45.5 -56q-1 -5 -1 -13q-6 -100 -126 -100q-45 0 -69 15t-24 44q0 80 147.5 179.5t309.5 99.5q158 0 240 -82.5t82 -241.5q0 -48 -7.5 -198.5t-7.5 -253.5q0 -61 16 -88t50 -27
q19 0 47 10t63 29zM572 1422q52 0 107 -51t55 -100q0 -45 -54.5 -95.5t-107.5 -50.5t-107.5 51t-54.5 95q0 48 55.5 99.5t106.5 51.5zM1084 1695v-172h-1024v172h1024z" />
    <glyph glyph-name="uni01E2" unicode="&#x1e2;" horiz-adv-x="2294" 
d="M1192 1314l-451 -679q47 -1 89.5 -1.5t80.5 -0.5q102 0 160 0.5t110 1.5q2 107 5.5 342t5.5 337zM829 1429q133 -7 293.5 -10.5t403.5 -3.5q196 0 333 3.5t257 10.5q1 -97 6.5 -181t15.5 -161l-88 -12q-13 123 -83 168t-269 45q-42 0 -102 -1.5t-142 -4.5
q-1 -161 -3 -282.5t-3 -202.5q31 0 94 -1t96 -1h62q162 0 203 26t49 105l84 -9q-7 -64 -11 -120.5t-4 -96.5q0 -41 1.5 -86.5t4.5 -93.5l-83 -6v12q0 85 -49 115.5t-228 30.5h-178h-41q0 -37 -1 -109.5t-1 -107.5q0 -55 0.5 -117t3.5 -186q54 -7 112.5 -10t123.5 -3
q242 0 325.5 50.5t130.5 191.5l92 -29q-31 -90 -55.5 -177.5t-42.5 -174.5q-170 6 -331.5 9t-313.5 3q-90 0 -193.5 -2.5t-299.5 -9.5v90q8 -1 18 -1.5t26 -0.5q82 0 111 51.5t29 251.5v115q-73 1 -138 1.5t-124 0.5q-83 0 -144 -0.5t-122 -1.5q-28 -44 -78 -119
q-119 -184 -119 -233q0 -33 27.5 -48.5t86.5 -15.5h25v-90q-73 6 -142 9t-139 3q-57 0 -126 -3t-144 -9v88q5 0 14.5 -1t14.5 -1q117 0 264 213q12 17 18 26q98 141 262 373q379 538 379 580q0 32 -27 45.5t-96 13.5h-45v92zM1651 1703v-172h-1024v172h1024z" />
    <glyph glyph-name="uni01E3" unicode="&#x1e3;" horiz-adv-x="1647" 
d="M889 627q138 0 246 6t186 18q-19 117 -74.5 183.5t-132.5 66.5q-92 0 -152 -72.5t-73 -201.5zM645 217l2 264q-31 -9 -87 -25q-267 -76 -267 -182q0 -58 39.5 -98.5t99.5 -40.5q43 0 94.5 19.5t118.5 62.5zM735 166q-141 -101 -237.5 -146t-169.5 -45q-113 0 -187.5 80.5
t-74.5 200.5q0 190 449 291q86 19 134 31q1 25 1.5 48.5t0.5 45.5q0 107 -41.5 156t-132.5 49q-59 0 -101 -23.5t-46 -56.5q-1 -5 -1 -13q-6 -100 -126 -100q-45 0 -68.5 15t-23.5 44q0 80 147 179.5t309 99.5q96 0 157 -34.5t93 -106.5q64 71 141 106t170 35
q194 0 309 -131.5t122 -362.5h-437q-56 0 -115.5 -1.5t-121.5 -4.5v-6q0 -178 89.5 -279.5t246.5 -101.5q72 0 144 24.5t148 76.5l46 -86q-114 -87 -226 -131t-223 -44q-125 0 -222 49.5t-153 141.5zM1324 1297v-172h-1024v172h1024z" />
    <glyph glyph-name="Gcaron" unicode="&#x1e6;" horiz-adv-x="1626" 
d="M1405 1382q1 -88 10 -174.5t25 -171.5l-101 -20q-26 142 -133.5 214.5t-292.5 72.5q-249 0 -386.5 -148t-137.5 -416q0 -285 149.5 -454.5t397.5 -169.5q56 0 110.5 10.5t108.5 32.5q1 45 2.5 118.5t1.5 92.5q0 146 -35 182.5t-153 36.5h-29v89q104 -5 176 -7t131 -2
q64 0 140 2t186 7v-89h-29q-79 0 -104 -36t-25 -200v-98q0 -55 2 -106t6 -101q-236 -52 -348 -68t-203 -16q-358 0 -575 202t-217 535q0 341 235.5 551.5t616.5 210.5q118 0 236.5 -20t234.5 -60zM566 1940l262 -200l262 200l84 -39l-289 -337h-112l-291 337z" />
    <glyph glyph-name="gcaron" unicode="&#x1e7;" horiz-adv-x="1141" 
d="M535 928q-91 0 -144 -64t-53 -176q0 -123 53 -192.5t148 -69.5q94 0 147 62.5t53 175.5q0 131 -51.5 197.5t-152.5 66.5zM356 -16q-40 -42 -58.5 -80t-18.5 -76q0 -88 79 -147.5t201 -59.5q141 0 236.5 67t95.5 160q0 76 -57.5 106t-235.5 30h-242zM801 954
q115 0 176.5 2t116.5 7l-3 -119q-44 5 -95.5 7.5t-118.5 2.5q45 -41 66.5 -88.5t21.5 -103.5q0 -139 -117.5 -232.5t-294.5 -93.5q-18 0 -67 3q-10 1 -15 1q-21 -13 -42.5 -29.5t-49.5 -42.5q21 -31 42 -53t44 -39h108h191q161 0 239 -59.5t78 -182.5q0 -82 -50.5 -167
t-141.5 -152q-85 -64 -197 -100.5t-221 -36.5q-174 0 -284.5 80t-110.5 200q0 73 48 138.5t161 144.5q-45 42 -74 85.5t-47 94.5q37 38 86 73t110 68q-125 31 -190.5 106.5t-65.5 190.5q0 151 125 257t306 106q81 0 143.5 -16t122.5 -52zM323 1501l262 -200l262 200l84 -39
l-289 -337h-112l-291 337z" />
    <glyph glyph-name="uni01E8" unicode="&#x1e8;" horiz-adv-x="1565" 
d="M934 1427q18 -1 53 -3q163 -9 230 -9q52 0 200 9q39 2 62 3v-90h-19q-118 0 -269 -144l-1 -1l-412 -395l443 -463q21 -22 59 -63q171 -183 262 -183q12 0 18 0.5t11 1.5l-1 -90q-20 1 -61 4q-131 8 -178 8q-28 0 -131 -6q-63 -4 -100 -6q1 3 1.5 5.5t0.5 8.5
q0 65 -330 409q-164 170 -262 275l369 389l14 16q149 158 149 185q0 26 -20 37.5t-66 11.5h-22v90zM76 1427q107 -6 184 -9t123 -3q44 0 112.5 2.5t186.5 7.5v-88h-20q-92 0 -122 -44t-30 -242v-676q0 -200 30 -243.5t117 -43.5q5 0 17.5 1t19.5 1v-90q-31 1 -89 4
q-168 8 -228 8q-50 0 -128 -3t-183 -9v90q7 -1 15 -1.5t23 -0.5q81 0 109.5 52t28.5 249v103q0 48 -0.5 72.5t-1.5 47.5v219q0 53 1 134.5t1 111.5q0 169 -28.5 215.5t-109.5 46.5q-3 0 -13 -1t-15 -1v90zM556 1905l262 -200l262 200l84 -39l-289 -337h-112l-291 337z" />
    <glyph glyph-name="uni01E9" unicode="&#x1e9;" horiz-adv-x="1223" 
d="M817 0v18q0 22 -14.5 48.5t-61.5 80.5l-315 377q182 169 254 245t72 99q0 19 -14.5 27t-49.5 8h-26v88q93 -6 142 -8t81 -2q44 0 100.5 2.5t132.5 7.5v-87q-4 0 -9.5 0.5t-16.5 0.5q-107 0 -335 -212q-66 -61 -104 -95l322 -362q10 -12 28 -33q103 -119 183 -119
q3 0 9.5 1t10.5 1l-2 -86q-60 6 -115 9t-106 3q-14 0 -53 -2.5t-113 -9.5zM45 86h18q46 0 75 14.5t38 40.5q21 58 24 550q1 33 1 50l2 185v159v70q0 153 -18.5 190t-71.5 37q-8 0 -20.5 -1.5t-31.5 -3.5l-16 83q106 14 205.5 36t195.5 52q-9 -358 -14.5 -619t-5.5 -378v-365
q0 -53 25 -76.5t84 -23.5h22v-86q-84 6 -150 9t-112 3q-59 0 -121 -3t-129 -9v86zM363 2026l262 -200l262 200l84 -39l-289 -337h-112l-291 337z" />
    <glyph glyph-name="uni01EA" unicode="&#x1ea;" horiz-adv-x="1716" 
d="M1319 688q0 283 -131 455t-344 172q-204 0 -325.5 -153t-121.5 -414q0 -285 132.5 -458t344.5 -173q205 0 325 153t120 418zM860 1464q159 0 284 -43.5t230 -134.5q122 -106 188 -252.5t66 -310.5q0 -326 -221 -543t-553 -217q-173 0 -313 56.5t-248 168.5
q-100 105 -152.5 239.5t-52.5 285.5q0 167 65.5 310.5t190.5 250.5q104 90 240 140t276 50zM908 -36h82q-89 -84 -135.5 -160t-46.5 -135q0 -45 24.5 -73.5t63.5 -28.5q30 0 57 17.5t56 56.5l65 -54q-52 -78 -111 -117.5t-122 -39.5q-89 0 -144 53t-55 137q0 86 65.5 170.5
t200.5 173.5z" />
    <glyph glyph-name="uni01EB" unicode="&#x1eb;" horiz-adv-x="1206" 
d="M588 891q-123 0 -190.5 -91.5t-67.5 -258.5q0 -203 77 -322t207 -119q124 0 195.5 96t71.5 263q0 199 -79.5 315.5t-213.5 116.5zM608 1022q235 0 385 -144.5t150 -365.5q0 -232 -156.5 -387.5t-390.5 -155.5t-382 146t-148 374q0 224 158.5 378.5t383.5 154.5zM654 -30
h82q-89 -84 -135.5 -160t-46.5 -135q0 -45 24.5 -73.5t63.5 -28.5q30 0 57 17.5t56 56.5l65 -54q-52 -78 -111 -117.5t-122 -39.5q-89 0 -144 53t-55 137q0 86 65.5 170.5t200.5 173.5z" />
    </font>
</defs>
</svg>
